<svg width="64" height="64" viewBox="0 0 64 64" fill="none" xmlns="http://www.w3.org/2000/svg">
<path d="M14.0292 9.78985C10.3694 15.2957 10.8252 22.4583 13.6135 28.3016L13.8186 28.7181L13.9571 28.9815C13.9828 29.0328 14.0126 29.0833 14.0389 29.1332C14.0874 29.2257 14.1359 29.3147 14.1774 29.4058L14.4441 29.885L14.5965 30.1485L14.9062 30.6554L15.0448 30.869C15.1833 31.0968 15.3399 31.3232 15.4937 31.5468C15.4971 31.5525 15.502 31.5589 15.5061 31.5646C15.5304 31.6002 15.5574 31.6358 15.5754 31.6714C15.7084 31.8636 15.8525 32.053 15.991 32.241L16.1448 32.446L16.5224 32.9316L16.6665 33.1125C16.8382 33.3256 17.0137 33.5354 17.193 33.7419L17.204 33.7533C17.211 33.7625 17.2179 33.7675 17.2248 33.7767C17.3985 33.9781 17.5768 34.1751 17.7596 34.3677L17.9314 34.5485L18.3588 34.9871L18.5334 35.1609C18.7255 35.35 18.9207 35.5359 19.1188 35.7183L19.2296 35.818L19.761 36.2879L19.9812 36.4716L20.4246 36.8276L20.6615 37.0163L21.339 37.5254C21.3563 37.5375 21.3716 37.5503 21.3889 37.5624C21.5482 37.6763 21.7096 37.7867 21.8717 37.897L22.081 38.043L22.8374 38.5271L23.0466 38.6503L23.6147 38.9835C23.7186 39.0419 23.8246 39.0974 23.9285 39.153L24.3345 39.3666L24.428 39.4136L24.5942 39.4976L25.2385 39.8094L25.375 39.8806C25.6234 39.9942 25.8737 40.1031 26.1259 40.2074L26.3088 40.2829L27.0174 40.5577L27.1061 40.5905C27.3678 40.6854 27.6311 40.7756 27.8958 40.861L28.0864 40.9208C28.3634 41.0063 28.6232 41.1081 28.9017 41.1629C46.5999 44.5491 51.7422 30.0374 51.7422 30.0374C47.4243 35.9255 39.7605 37.4777 32.4991 35.7497C32.2241 35.6785 31.9574 35.5952 31.6886 35.5119L31.4863 35.4407C31.2245 35.3566 30.964 35.2677 30.7063 35.1751L30.5989 35.1345C30.3683 35.0491 30.139 34.9601 29.911 34.8675L29.7171 34.7878C29.4676 34.6847 29.22 34.577 28.9745 34.4645L28.8262 34.3962L28.2 34.09L28.0199 33.9989C27.8571 33.9149 27.6955 33.8287 27.5349 33.7404L27.2114 33.5624C27.0159 33.4523 26.8224 33.3386 26.6309 33.2214L26.4349 33.1075C26.1799 32.9508 25.9278 32.7871 25.6784 32.6233C25.6091 32.577 25.5426 32.5279 25.474 32.4809L24.9358 32.1064L24.7626 31.9783L24.2534 31.5938L24.0276 31.4158L23.5683 31.0399L23.3632 30.869L22.7917 30.3706C22.7723 30.3528 22.7501 30.335 22.7224 30.3158C22.5188 30.1285 22.3186 29.9363 22.1211 29.7433L21.9521 29.5725L21.5198 29.1296L21.3508 28.9516C21.1708 28.7593 20.9941 28.5637 20.8209 28.3649C20.8125 28.355 20.8028 28.3457 20.7945 28.3364C20.6114 28.1263 20.4322 27.9127 20.257 27.6957L20.1163 27.5205L19.7284 27.02L19.5864 26.8349L19.1396 26.2119C15.1078 20.4554 13.6669 12.5168 16.8812 5.99637L14.0292 9.78985ZM25.3902 5.15053C22.7439 9.13766 22.8873 14.4733 24.9517 18.6897C25.297 19.3977 25.6881 20.0811 26.1224 20.7352C26.5187 21.3298 26.9586 22.0382 27.4851 22.5152C27.6756 22.7288 27.8751 22.9424 28.0787 23.1603C28.13 23.2151 28.1826 23.2671 28.2353 23.3219C28.433 23.5236 28.6353 23.7204 28.8421 23.9121C28.8505 23.9193 28.8581 23.9278 28.8671 23.9349C29.1 24.1476 29.3381 24.3542 29.5813 24.5544L29.742 24.6854C29.9842 24.881 30.2313 25.07 30.4832 25.2521C30.49 25.2578 30.4969 25.2632 30.504 25.2685C30.6149 25.3489 30.7292 25.4251 30.8421 25.502C30.8961 25.539 30.9474 25.5782 31.0014 25.6131C31.182 25.7346 31.3652 25.8521 31.5508 25.9655L31.6284 26.0125L32.1133 26.2973C32.1701 26.3308 32.2283 26.36 32.2865 26.3913L32.6328 26.575C32.6502 26.5842 32.6675 26.5914 32.6841 26.5999C32.9176 26.7209 33.1524 26.8349 33.3928 26.9452C33.444 26.9687 33.4967 26.9901 33.5493 27.0129C33.7412 27.0983 33.9352 27.1809 34.1312 27.2599L34.3806 27.3553C34.5574 27.4229 34.7353 27.4877 34.914 27.5497L35.1551 27.6301C35.4094 27.7135 35.6608 27.8174 35.9261 27.8637C49.5905 30.2332 52.746 19.2201 52.746 19.2201C49.9023 23.5063 44.3956 25.5526 38.5184 23.9563C38.2584 23.8853 38.0004 23.807 37.7446 23.7213C37.6663 23.6964 37.5894 23.6701 37.5118 23.6501C37.3303 23.5885 37.15 23.5235 36.9708 23.455L36.7263 23.3596C36.5302 23.2884 36.3362 23.1994 36.1444 23.114C36.0917 23.0905 36.0391 23.0691 35.9871 23.0442C35.746 22.9358 35.5081 22.8202 35.2736 22.6975C35.153 22.6355 35.0346 22.5708 34.9161 22.5067L34.7097 22.3956C34.5573 22.3095 34.4065 22.2205 34.2573 22.1286L34.1492 22.0574C33.9648 21.9441 33.7823 21.8273 33.602 21.7071C33.5466 21.6701 33.4925 21.6359 33.4371 21.5918L33.0824 21.3461C32.8319 21.1638 32.5856 20.9754 32.344 20.7808L32.1777 20.6441C29.6055 18.5181 27.5661 15.6132 26.597 12.3188C25.5807 8.90128 25.8003 5.06722 27.5668 1.95512L25.3902 5.15053ZM34.9431 1.68457C33.3831 4.08824 33.23 7.0729 34.3197 9.72719C35.4613 12.5445 37.8007 14.7553 40.5308 15.8026C40.643 15.8467 40.7559 15.8859 40.8772 15.9258L41.0268 15.9756C41.1875 16.0283 41.3476 16.0895 41.5131 16.1223C49.0585 17.6481 51.1049 12.0696 51.6494 11.2487C49.8565 13.9507 46.8438 14.5993 43.1473 13.6602C42.8563 13.5855 42.5342 13.4751 42.2467 13.3711C41.885 13.2366 41.5305 13.0824 41.1848 12.9091C40.5269 12.5775 39.9031 12.1789 39.3227 11.7193C36.0079 9.0921 33.9525 4.08112 36.1111 0" fill="#0868AC"/>
<path d="M18.2794 52.7085L17.7682 54.5711L18.2794 52.7093V52.7085ZM20.9091 56.7512L20.3459 56.7477L20.9091 56.7512ZM20.7706 59.5322L17.3955 59.5451L20.7706 59.5322ZM21.4772 56.7555L20.9133 56.7519L21.4772 56.7555ZM21.074 59.2959L21.6628 56.9912L21.074 59.2959ZM33.4949 48.6823L32.4003 53.9745L33.4949 48.6823ZM30.6789 48.6823L29.8476 52.6359L30.6789 48.6823Z" fill="#131B28"/>
<path d="M33.3011 48.4437H30.9597C30.8294 48.4437 30.7006 48.5505 30.6729 48.6815L29.0103 56.5896C28.9826 56.7199 28.8537 56.8267 28.7242 56.8267H27.0665C25.426 56.8267 25.6158 55.6611 25.9581 54.0641L25.9685 54.0157L26.1673 52.9264L26.2532 52.4778L27.0097 48.6815C27.036 48.5505 26.9508 48.443 26.8205 48.443H24.4167C24.3504 48.4453 24.2867 48.4698 24.2352 48.5127C24.1837 48.5556 24.1472 48.6146 24.1313 48.6808L23.0485 53.9595C22.4528 56.7533 22.6107 59.4176 25.8472 59.5009L25.9407 59.503H31.0199C31.1502 59.503 31.2783 59.3962 31.306 59.2652L33.4965 48.6808C33.5242 48.5498 33.439 48.443 33.3095 48.443L33.3011 48.4437ZM42.6442 56.8544C42.7744 56.8544 42.852 56.9612 42.8333 57.0922L42.6061 58.235L42.6442 56.8544ZM42.3789 59.3784L42.6061 58.235L42.3789 59.3784ZM42.0935 59.6191L37.7777 59.6404L42.0935 59.6191Z" fill="#131B28"/>
<path d="M36.38 55.3834C36.3779 55.2581 36.5165 55.0431 36.6467 55.0431L36.3544 55.0381C36.2158 56.4008 36.38 55.3834 36.38 55.3834ZM37.9914 59.6397H37.9463H37.9914ZM42.6445 56.8544C42.7747 56.8544 42.8523 56.9612 42.8336 57.0922L42.569 58.4207L42.6445 56.8544ZM39.0997 59.6432H39.09H39.0997ZM38.5248 59.639H38.4915H38.5248ZM38.3495 59.6397H38.2941H38.3495ZM38.1784 59.6397H38.1299H38.1784ZM38.4984 59.639H38.3564H38.4984Z" fill="#131B28"/>
<path d="M39.0903 59.6434L38.525 59.6455L39.0903 59.6434ZM42.0947 59.6256L39.0986 59.6441L42.0947 59.6256ZM42.3718 59.3785L42.5623 58.4216L42.3718 59.3792V59.3785ZM38.2874 59.6398H38.178H38.3013H38.2874ZM37.9445 59.6398H37.7782H37.9445ZM38.1225 59.6398H37.984H38.1225ZM3.85942 55.412L4.22311 53.7545L3.80746 55.6484L3.75897 55.8862L3.86011 55.4106L3.85942 55.412ZM8.21401 48.4167H5.64185C5.57539 48.4194 5.5115 48.4439 5.45953 48.4865C5.40755 48.5292 5.37022 48.5878 5.35297 48.6538L4.86528 50.861C4.85709 50.8895 4.85572 50.9197 4.8613 50.949C4.86687 50.9782 4.87923 51.0056 4.89732 51.0289C4.9154 51.0521 4.93869 51.0706 4.96519 51.0826C4.99169 51.0947 5.02063 51.1 5.04955 51.0981H7.6418C7.77204 51.0981 7.90089 50.9913 7.9286 50.861L8.39966 48.6488C8.42737 48.5185 8.34424 48.4117 8.21262 48.4117L8.21401 48.4167ZM7.65427 52.0963L6.89225 55.6833L7.65427 52.0963ZM0.182333 63.9829L2.30352 64C1.67728 64 0.643008 63.9879 0.181641 63.9822L0.182333 63.9829Z" fill="#131B28"/>
<path d="M4.58004 52.0963L4.21566 53.7538L4.58004 52.0963ZM7.46878 51.8592H4.87584C4.80938 51.8618 4.7455 51.8863 4.69352 51.929C4.64155 51.9716 4.60421 52.0302 4.58697 52.0963L3.85959 55.4113L3.75845 55.8869L3.0657 59.271C3.03138 59.4288 2.98977 59.5849 2.94101 59.7387C2.94101 59.7387 2.45609 61.2197 1.64281 61.2033L0.835759 61.1876C0.769563 61.1896 0.705678 61.2131 0.653365 61.2548C0.601052 61.2965 0.563028 61.3543 0.544807 61.4198L0.00792985 63.743C-0.000552265 63.7714 -0.00225968 63.8015 0.00295183 63.8307C0.00816335 63.8599 0.0201407 63.8874 0.0378722 63.9109C0.0556036 63.9343 0.0785683 63.953 0.104826 63.9655C0.131085 63.9779 0.159865 63.9836 0.188736 63.9822L2.31061 64C4.34451 64 5.41618 62.8416 6.10408 59.5095L7.66275 52.1048C7.69046 51.9745 7.60595 51.8677 7.47571 51.8677L7.46878 51.8592ZM44.2965 59.5045C44.1662 59.5045 44.0886 59.3977 44.1094 59.2667L46.0595 49.8784L44.2965 59.5045ZM47.0065 59.266L47.7962 55.2589L47.0065 59.266Z" fill="#131B28"/>
<path d="M44.1379 59.3856C44.1219 59.3201 44.1309 59.1599 44.1587 59.0296L45.0842 54.5725L44.1088 59.2667C44.0811 59.3977 44.1656 59.5045 44.2958 59.5045H44.5327C44.4025 59.5045 44.1531 59.4511 44.1379 59.3856ZM46.8534 59.4511C46.7828 59.4796 46.6179 59.5045 46.4877 59.5045H46.7246C46.7907 59.5018 46.8542 59.4771 46.9054 59.434C46.9566 59.391 46.9929 59.332 47.0086 59.266L47.0557 59.0282C47.0301 59.1592 46.9172 59.4219 46.8479 59.4511H46.8534ZM47.4007 57.2624L47.7491 55.4938L47.4007 57.2624ZM55.0957 50.5071L55.2031 50.9628C55.2329 51.093 55.1504 51.1991 55.0209 51.1998" fill="#131B28"/>
<path d="M47.0537 59.0281L47.4001 57.2624L47.0537 59.0281ZM54.9898 50.0315L55.0958 50.4985L54.9898 50.0315ZM47.7493 55.4938L47.8449 55.0211L48.2169 53.2304L47.7957 55.2582L47.7493 55.4931V55.4938ZM46.0915 49.7239L46.0105 50.1155L45.085 54.5725L46.0603 49.8784L46.0915 49.7246V49.7239Z" fill="#131B28"/>
<path d="M55.2035 50.9627L55.0962 50.507L54.9368 49.795C54.7262 48.9549 54.1083 48.4686 52.7658 48.4686L46.5865 48.4643C46.5202 48.4667 46.4565 48.4912 46.405 48.5341C46.3535 48.577 46.317 48.636 46.3011 48.7021L46.2055 49.1671L46.0669 49.8698L44.1661 59.021C44.1383 59.152 44.1293 59.3058 44.1453 59.377C44.1612 59.4482 44.4106 59.4959 44.5401 59.4959H46.4937C46.6239 59.4959 46.7881 59.4717 46.8594 59.4425C46.9308 59.4133 47.0354 59.1577 47.0673 59.0196L47.8085 55.2503L48.6017 51.4312C48.6294 51.3009 48.7576 51.1948 48.8871 51.1941L55.0338 51.1913C55.1634 51.1913 55.2458 51.0845 55.216 50.9542L55.2035 50.9627ZM63.1168 46.8382L62.6436 46.8403H60.6762C60.6042 46.8447 60.5339 46.8649 60.4701 46.8995C60.4063 46.9341 60.3505 46.9824 60.3063 47.0411L55.9559 53.5914C55.8824 53.7017 55.7986 53.6853 55.7688 53.5558L55.4488 52.1126C55.4315 52.0465 55.3942 51.9879 55.3422 51.9453C55.2903 51.9026 55.2264 51.8781 55.1599 51.8755H52.3633C52.2331 51.8755 52.1555 51.9801 52.1915 52.109L53.4384 56.6216C53.4745 56.7497 53.4765 56.9612 53.4454 57.0915L52.8912 59.2752C52.8817 59.3032 52.8792 59.3332 52.8839 59.3624C52.8886 59.3916 52.9003 59.4192 52.918 59.4426C52.9357 59.466 52.9588 59.4845 52.9852 59.4964C53.0116 59.5084 53.0405 59.5133 53.0692 59.5108H55.8402C55.9704 59.5108 56.1034 59.404 56.1353 59.2759L56.6895 57.0922C56.7329 56.9385 56.8008 56.7932 56.8904 56.6622L63.9605 47.0268C64.0388 46.92 63.9966 46.8332 63.8663 46.8346L63.1251 46.8396L63.1168 46.8382ZM40.8963 52.4892C40.8797 52.6316 40.7494 52.7384 40.6192 52.7384H37.0724C36.9497 52.7384 36.8874 52.653 36.9061 52.5462L36.9089 52.5269L36.9248 52.465C37.2712 51.5394 37.9535 50.9321 39.2497 50.9321C40.7093 50.9321 40.994 51.6654 40.8949 52.4892H40.8963ZM39.8558 48.2828C35.3045 48.2828 34.2259 51.1222 33.6211 53.9879C33.0156 56.9092 33.0683 59.6411 37.7776 59.6411H38.5243L39.0993 59.639L42.0961 59.6205C42.1619 59.6173 42.2249 59.5924 42.2757 59.5494C42.3265 59.5064 42.3624 59.4477 42.3781 59.382L42.8332 57.0951C42.8595 56.9641 42.7743 56.8573 42.6441 56.8573H38.41C36.7267 56.8573 36.2258 56.3973 36.4101 55.0452H43.1782C43.289 55.0431 43.3895 54.974 43.429 54.8658C43.4359 54.8466 43.4428 54.826 43.4456 54.8053C44.4501 50.9107 44.1619 48.2856 39.8572 48.2856L39.8558 48.2828ZM18.3433 52.4735L18.2796 52.7064C18.2796 52.7071 17.7683 54.5689 17.7683 54.5689L17.2571 56.4301C17.2359 56.4957 17.1958 56.5531 17.1421 56.5948C17.0884 56.6365 17.0237 56.6605 16.9565 56.6636H14.2506C12.1987 56.6636 11.6992 55.0139 12.1987 52.581C12.6975 50.0926 13.6777 48.5455 15.697 48.3889C18.4569 48.1753 19.0084 50.1703 18.3433 52.4728V52.4735ZM20.1985 56.5212C20.1985 56.5212 21.4731 53.3386 21.7641 51.4995C22.159 49.0382 20.9605 45.469 16.3295 45.469C11.7249 45.469 9.72559 48.8766 8.96288 52.5889C8.20086 56.3197 9.1998 59.592 13.7775 59.5664L20.7645 59.54C20.8315 59.5367 20.8958 59.5123 20.9488 59.47C21.0017 59.4276 21.0407 59.3696 21.0603 59.3036L21.6491 56.9982C21.6586 56.9703 21.6612 56.9404 21.6567 56.9112C21.6521 56.882 21.6406 56.8544 21.623 56.8309C21.6055 56.8074 21.5825 56.7888 21.5562 56.7768C21.53 56.7647 21.5012 56.7596 21.4725 56.7618L20.3454 56.7547C20.2345 56.754 20.1722 56.6807 20.1846 56.5839C20.1874 56.5661 20.1916 56.5483 20.1985 56.5297V56.5212Z" fill="#131B28"/>
<path d="M42.993 54.3917C42.993 54.48 42.9237 54.5512 42.8378 54.5512C42.7519 54.5512 42.6826 54.48 42.6826 54.3917C42.6826 54.3034 42.7519 54.2322 42.8378 54.2322C42.9237 54.2322 42.993 54.3034 42.993 54.3917Z" fill="#131B28"/>
</svg>
