<svg width="64" height="64" viewBox="0 0 64 64" fill="none" xmlns="http://www.w3.org/2000/svg">
<path d="M3.58712 24.1123V26.202H3.68092C3.86773 25.9112 4.11203 25.6147 4.41381 25.3131C4.71507 25.0116 5.08452 24.7415 5.52138 24.5019C5.95798 24.2636 6.4518 24.0655 7.0031 23.9093C7.55362 23.7536 8.17285 23.6752 8.85897 23.6752C9.91977 23.6752 10.897 23.8782 11.7913 24.2834C12.6854 24.6897 13.4552 25.246 14.1 25.9528C14.7443 26.66 15.2434 27.492 15.5971 28.4482C15.9506 29.405 16.1275 30.4345 16.1275 31.5366C16.1275 32.6387 15.9559 33.6733 15.6125 34.6403C15.2697 35.6073 14.7804 36.4494 14.1465 37.1669C13.5119 37.8844 12.7429 38.4571 11.8381 38.8825C10.9333 39.3086 9.9088 39.5218 8.76543 39.5218C7.70464 39.5218 6.73241 39.3034 5.84876 38.8671C4.96433 38.4302 4.28369 37.8379 3.80555 37.0885H3.74336V46.5717H0V24.1123H3.58712ZM12.3217 31.5363C12.3217 30.9539 12.2331 30.3767 12.0565 29.8048C11.8794 29.2331 11.6144 28.7184 11.2609 28.2606C10.9071 27.8039 10.4604 27.4345 9.91951 27.1533C9.37866 26.8727 8.74453 26.7324 8.01687 26.7324C7.33048 26.7324 6.71673 26.8779 6.17641 27.1693C5.63556 27.4606 5.17257 27.8353 4.78822 28.292C4.4031 28.7498 4.11229 29.2697 3.91476 29.8521C3.71671 30.4345 3.61847 31.0171 3.61847 31.599C3.61847 32.1814 3.71671 32.7586 3.91476 33.33C4.11229 33.9025 4.4031 34.4169 4.78822 34.8747C5.17283 35.3319 5.63556 35.7014 6.17641 35.9815C6.71673 36.2626 7.33048 36.4024 8.01687 36.4024C8.74453 36.4024 9.37866 36.2574 9.91951 35.9661C10.4601 35.6747 10.9071 35.3006 11.2609 34.8428C11.6144 34.3856 11.8794 33.8656 12.0565 33.2832C12.2331 32.7008 12.3217 32.1184 12.3217 31.5363Z" fill="#E3545B"/>
<path d="M48.8089 23.397V39.9898C48.8089 40.8839 48.736 41.7315 48.5904 42.5321C48.4444 43.3327 48.1695 44.0292 47.7637 44.6223C47.3585 45.2154 46.8069 45.6878 46.1104 46.0416C45.4133 46.3954 44.504 46.5718 43.3808 46.5718C43.0691 46.5718 42.7571 46.5509 42.4449 46.5096C42.1332 46.4678 41.8836 46.426 41.6963 46.3844L42.0085 43.2025C42.175 43.2443 42.3513 43.2754 42.5387 43.2963C42.726 43.3167 42.8919 43.3274 43.0377 43.3274C43.474 43.3274 43.8276 43.2444 44.0982 43.0779C44.3681 42.911 44.5764 42.6823 44.7224 42.3915C44.8674 42.1002 44.9612 41.7624 45.0031 41.3775C45.0443 40.9926 45.0652 40.5824 45.0652 40.1456V23.397H48.8089Z" fill="#E3545B"/>
<path d="M61.5674 28.1049C61.2343 27.6681 60.7771 27.2889 60.1947 26.9665C59.6123 26.6441 58.9782 26.4826 58.2918 26.4826C57.6885 26.4826 57.138 26.6078 56.6389 26.8573C56.1393 27.1063 55.8903 27.5228 55.8903 28.1049C55.8903 28.687 56.1655 29.0986 56.7165 29.3369C57.2675 29.5762 58.0739 29.8207 59.1344 30.0703C59.6956 30.1954 60.2621 30.3616 60.8343 30.5693C61.4065 30.777 61.9264 31.0527 62.3944 31.396C62.8618 31.7388 63.2415 32.1655 63.5328 32.675C63.8236 33.1847 63.9696 33.8032 63.9696 34.5311C63.9696 35.4466 63.7977 36.2213 63.4547 36.8552C63.1119 37.4896 62.6541 38.0043 62.0819 38.3994C61.5097 38.7944 60.8445 39.0805 60.0855 39.2571C59.3262 39.4338 58.5418 39.5221 57.7303 39.5221C56.5652 39.5221 55.4323 39.3089 54.33 38.8827C53.2276 38.4571 52.3126 37.8483 51.585 37.0585L54.0494 34.7498C54.4653 35.2906 55.0056 35.7377 55.6716 36.091C56.3371 36.4447 57.075 36.6211 57.8865 36.6211C58.1564 36.6211 58.4321 36.5905 58.7132 36.5278C58.9938 36.4656 59.2535 36.3671 59.4929 36.2318C59.7317 36.0964 59.924 35.9148 60.07 35.6857C60.2151 35.4566 60.2879 35.1765 60.2879 34.8431C60.2879 34.2189 60.0021 33.7723 59.4307 33.5019C58.8582 33.2315 58.0002 32.9611 56.8571 32.6909C56.2953 32.5658 55.7492 32.4051 55.2188 32.207C54.6887 32.0095 54.2155 31.7498 53.7996 31.4274C53.3831 31.1049 53.051 30.7052 52.8015 30.226C52.552 29.7478 52.4268 29.1553 52.4268 28.448C52.4268 27.6161 52.5982 26.8991 52.9418 26.2961C53.2846 25.6923 53.7374 25.1995 54.2986 24.8136C54.8598 24.4292 55.4942 24.1431 56.2015 23.9563C56.9083 23.769 57.6365 23.6752 58.385 23.6752C59.466 23.6752 60.5218 23.8625 61.551 24.2364C62.5802 24.6111 63.3961 25.1835 64 25.9525L61.5674 28.1049Z" fill="#E3545B"/>
<path d="M39.4625 35.9183L41.692 35.2453L42.1299 36.5924L39.9095 37.3496L41.2878 39.304L40.1259 40.1469L38.675 38.227L37.262 40.0962L36.1335 39.2369L37.5118 37.3496L35.2744 36.5423L35.7126 35.1941L37.9593 35.9181V33.594H39.4627V35.9183H39.4625Z" fill="#E3545B"/>
<path d="M31.7613 28.8689C31.3764 28.0064 30.8413 27.2782 30.1549 26.6854C29.4688 26.0928 28.6627 25.6403 27.7375 25.3286C26.8118 25.0169 25.8082 24.8606 24.7273 24.8606C24.332 24.8606 23.8902 24.882 23.4016 24.9228C22.9127 24.9651 22.4918 25.0375 22.1383 25.1418L22.3565 20.3687H31.3717V17H18.8004L18.426 29.0714C18.7581 28.9055 19.138 28.7495 19.5644 28.6035C19.9906 28.4584 20.4272 28.3283 20.8745 28.2142C21.3215 28.0997 21.7793 28.0117 22.2473 27.9487C22.7152 27.8865 23.1568 27.8554 23.573 27.8554C24.1758 27.8554 24.7686 27.9228 25.351 28.0579C25.9331 28.1932 26.4583 28.4326 26.9263 28.7754C27.3942 29.1182 27.7733 29.571 28.0649 30.1322C28.3557 30.6934 28.5015 31.4007 28.5015 32.2535C28.5015 32.919 28.3923 33.5171 28.1739 34.0472C27.9557 34.5768 27.6592 35.0195 27.2853 35.3724C26.9106 35.7265 26.4742 35.9966 25.9747 36.1835C25.4756 36.3713 24.9455 36.4646 24.3837 36.4646C23.3859 36.4646 22.5224 36.1991 21.7947 35.669C21.0665 35.1389 20.5471 34.4371 20.2349 33.5633L20.1933 33.5788L17.4844 36.1171C18.0323 37.0107 18.7385 37.7582 19.6112 38.3518C20.8795 39.2143 22.439 39.6465 24.2905 39.6465C25.3925 39.6465 26.4322 39.4693 27.4096 39.1163C28.3868 38.7631 29.2396 38.2533 29.9676 37.5873C30.6952 36.9224 31.2724 36.1059 31.6991 35.1389C32.125 34.1719 32.3382 33.0753 32.3382 31.8478C32.3384 30.7248 32.1461 29.7325 31.7613 28.8689Z" fill="#E3545B"/>
</svg>
