<svg width="64" height="64" viewBox="0 0 64 64" fill="none" xmlns="http://www.w3.org/2000/svg">
<path fill-rule="evenodd" clip-rule="evenodd" d="M44.7498 19.85C44.5353 19.85 44.3215 19.8762 44.1133 19.928V19.959H44.1596C44.2839 20.2076 44.5016 20.3786 44.6569 20.5959C44.7655 20.8445 44.8902 21.0931 44.9988 21.3418L45.0451 21.2951C45.2628 21.1555 45.3561 20.9068 45.3561 20.5186C45.2784 20.4252 45.2628 20.3166 45.1855 20.2076C45.0765 20.0519 44.8902 19.9743 44.7498 19.85Z" fill="#00678C"/>
<path fill-rule="evenodd" clip-rule="evenodd" d="M1.2002 44.9581H3.23558V36.9409L6.37414 43.9326C6.74674 44.7711 7.24435 45.0664 8.23854 45.0664C9.23307 45.0664 9.73034 44.7711 10.1029 43.9326L13.2415 36.9409V44.9581H15.2612V36.9562C15.2612 36.1797 14.9502 35.806 14.3133 35.604C12.7752 35.1224 11.734 35.5421 11.2681 36.5832L8.19187 43.4663L5.20897 36.5832C4.75837 35.5421 3.70185 35.1224 2.16374 35.604C1.51116 35.806 1.20054 36.1793 1.20054 36.9562L1.2002 44.9581ZM16.9546 38.432H18.9743V42.8447C18.959 43.093 19.052 43.6526 20.1708 43.6683C20.7301 43.6832 24.5366 43.6683 24.5675 43.6683V38.4163H26.6029C26.6182 38.4163 26.6029 45.5786 26.6029 45.61C26.6182 47.381 24.4122 47.7536 23.4024 47.785H17.0013V46.4178C17.0013 46.4178 23.3871 46.4335 23.4024 46.4178C24.7075 46.2935 24.5522 45.6413 24.5522 45.4237V44.8951H20.2485C18.2441 44.8644 16.97 43.9938 16.9546 42.984C16.9546 42.891 17.0013 38.479 16.9546 38.432ZM60.5978 33.3514C59.3553 33.3204 58.4071 33.429 57.5835 33.7863C57.3509 33.8796 56.9933 33.8796 56.947 34.1749C57.0713 34.2985 57.1019 34.5009 57.1953 34.6722C57.3972 34.9832 57.7239 35.4021 58.0188 35.6197C58.3298 35.8687 58.6561 36.117 58.9977 36.3346C59.6193 36.7072 60.3028 36.9092 60.8774 37.2828C61.235 37.4998 61.5766 37.7801 61.9186 38.0284C62.0736 38.1527 62.1982 38.3394 62.4002 38.4167V38.386C62.2915 38.246 62.2602 38.0441 62.1669 37.8881L61.701 37.4221C61.2507 36.8319 60.6754 36.3033 60.0692 35.8687C59.5876 35.5267 58.5001 35.0451 58.2981 34.4859C58.2824 34.4702 58.2668 34.4702 58.2668 34.4545C58.6087 34.4075 59.013 34.2839 59.3236 34.2056C59.8522 34.0663 60.3335 34.0969 60.8771 33.9573C61.126 33.8793 61.3743 33.8173 61.6233 33.7396V33.5996C61.3437 33.32 61.1574 32.9318 60.8468 32.6831C60.0545 31.9995 59.184 31.3313 58.2984 30.7721C57.8012 30.4458 57.1953 30.2438 56.6674 29.9798C56.496 29.9022 56.1851 29.8555 56.0614 29.7002C55.7811 29.3583 55.6418 28.9077 55.4242 28.5037C54.9684 27.6175 54.5435 26.7158 54.1504 25.8001C53.8864 25.1942 53.6994 24.5883 53.3738 24.0287C51.7577 21.3874 50.033 19.7873 47.3453 18.2178C46.7708 17.8915 46.0872 17.7519 45.3566 17.5809C44.9684 17.5496 44.5801 17.5342 44.1915 17.5029C43.9582 17.4096 43.7099 17.1146 43.4766 16.9746C42.591 16.4154 40.307 15.1879 39.6541 16.8037C39.2345 17.8135 40.2757 18.8081 40.6483 19.321C40.9129 19.6783 41.2385 20.0826 41.4255 20.4862C41.5491 20.7501 41.5648 21.0144 41.6738 21.294C41.9378 21.9933 42.1554 22.7545 42.4817 23.3914C42.6523 23.7177 42.8386 24.0597 43.0562 24.3549C43.1806 24.5259 43.4139 24.6036 43.4445 24.8832C43.2269 25.1938 43.2119 25.6601 43.0876 26.0484C42.5437 27.8041 42.7456 29.9638 43.5535 31.2686C43.8025 31.6569 44.3771 32.5114 45.1853 32.1855C45.8845 31.8902 45.7289 31.02 45.9309 30.2278C45.9779 30.0568 45.9465 29.9325 46.0395 29.8082V29.8392C46.2415 30.2741 46.4591 30.6937 46.6768 31.113C47.1427 31.8745 47.9819 32.6824 48.6968 33.2103C49.0537 33.49 49.349 33.9719 49.8306 34.1269V34.0955H49.7843C49.691 33.9562 49.551 33.8939 49.4424 33.7849C49.1627 33.5053 48.8521 33.1633 48.6188 32.8527C47.9823 31.9825 47.4073 31.0193 46.8791 30.0248C46.6301 29.5432 46.4124 29.0149 46.2112 28.5333C46.1328 28.347 46.1328 28.0674 45.9622 27.9584C45.7289 28.3157 45.4033 28.611 45.216 29.0306C44.9363 29.6988 44.89 30.522 44.797 31.3613C44.7344 31.3922 44.75 31.3766 44.7187 31.4079C44.2221 31.2836 44.0508 30.7707 43.8645 30.3357C43.4142 29.2325 43.3206 27.4615 43.7245 26.1873C43.8331 25.861 44.3154 24.8355 44.1135 24.5249C44.0194 24.2296 43.7245 24.0433 43.5539 23.8103C43.3362 23.5307 43.1343 23.1577 42.9793 22.8315C42.6067 21.9612 42.4354 20.9981 42.0311 20.1282C41.8291 19.7086 41.5188 19.289 41.2545 18.9317C40.9592 18.5121 40.6329 18.2171 40.4003 17.7199C40.3227 17.5489 40.214 17.2692 40.3227 17.0826C40.369 16.9583 40.416 16.9116 40.5396 16.865C40.7416 16.7096 41.3169 16.9273 41.5338 17.0046C42.0934 17.2532 42.575 17.4709 43.0566 17.7972C43.2899 17.9525 43.5232 18.2474 43.8028 18.3254H44.1138C44.6111 18.4341 45.17 18.3564 45.6359 18.4964C46.4595 18.7447 47.205 19.1333 47.8736 19.5686C49.9243 20.8581 51.5871 22.6915 52.7366 24.8822C52.9229 25.2394 53.0005 25.5657 53.1562 25.9387C53.4828 26.7002 53.9017 27.4768 54.228 28.207C54.539 28.9529 54.8653 29.6988 55.3155 30.3044C55.5645 30.6307 56.4964 30.8017 56.916 30.9723C57.2113 31.0966 57.6925 31.2362 57.9729 31.4076C58.5164 31.7182 59.029 32.1068 59.542 32.4641C59.7899 32.6368 60.5664 33.0251 60.5978 33.3514Z" fill="#00678C"/>
<path fill-rule="evenodd" clip-rule="evenodd" d="M28.1724 44.9581H33.9985C34.6821 44.9581 35.35 44.8182 35.8783 44.5692C36.7481 44.1659 37.1834 43.6216 37.1834 42.9071V41.4156C37.1834 40.8411 36.6861 40.2818 35.739 39.9242C35.226 39.7222 34.6044 39.6289 33.9985 39.6289H31.5439C30.7203 39.6289 30.3321 39.3799 30.2387 38.8367C30.2231 38.7747 30.2231 38.7124 30.2231 38.6504V37.7335C30.2231 37.6715 30.2231 37.6248 30.2387 37.5629C30.3321 37.1432 30.5494 37.0189 31.2643 36.9569C31.3262 36.9569 31.4039 36.9413 31.4662 36.9413H37.2614V35.5898H31.5596C30.736 35.5898 30.3164 35.6518 29.9281 35.7604C28.7163 36.1487 28.188 36.7393 28.188 37.7805V38.9613C28.188 39.8782 29.2289 40.6548 30.9536 40.8411C31.1556 40.8411 31.3419 40.8567 31.5439 40.8567H33.6416C33.7193 40.8567 33.7966 40.8567 33.8585 40.8724C34.5115 40.9344 34.7754 41.043 34.9774 41.2756C35.086 41.4 35.1331 41.509 35.1331 41.6489V42.8298C35.1331 42.9698 35.0397 43.1564 34.8378 43.3114C34.6664 43.467 34.3711 43.5604 33.9829 43.591C33.9052 43.591 33.8436 43.6067 33.7652 43.6067H28.1724V44.9581ZM49.8306 42.5958C49.8306 43.9942 50.8562 44.7708 52.9539 44.9264C53.1402 44.9421 53.3421 44.9578 53.5284 44.9578H58.811V43.6056H53.4971C52.3006 43.6056 51.8503 43.3103 51.8503 42.5958V35.5891H49.8303V42.5958H49.8306ZM38.4732 42.6734V37.8575C38.4732 36.63 39.3274 35.8844 41.0365 35.6511C41.2079 35.6198 41.4098 35.6198 41.5805 35.6198H45.4332C45.6195 35.6198 45.7909 35.6198 45.9928 35.6511C47.6863 35.8844 48.5561 36.63 48.5561 37.8575V42.6734C48.5561 43.6683 48.1835 44.1962 47.3443 44.5382L49.3487 46.3406H46.9874L45.3713 44.8955L43.7395 44.9888H41.5801C41.2075 44.9888 40.8189 44.9425 40.3836 44.8181C39.0948 44.4758 38.4732 43.7923 38.4732 42.6734ZM40.6639 42.5498C40.6639 42.6275 40.6796 42.6891 40.6953 42.7674C40.8196 43.3263 41.3475 43.6373 42.1397 43.6373H43.9891L42.2957 42.1145H44.657L46.1328 43.4353C46.3975 43.2954 46.5838 43.0777 46.6458 42.7981C46.6614 42.7204 46.6614 42.6588 46.6614 42.5961V37.9665C46.6614 37.9194 46.6614 37.8578 46.6458 37.7951C46.5214 37.2672 45.9935 36.9723 45.2163 36.9723H42.1401C41.2388 36.9723 40.6643 37.3605 40.6643 37.9665V42.5498H40.6639ZM59.7436 44.9581H60.0389V43.8393H60.4428V43.606H59.3396V43.8393H59.7436V44.9581ZM62.0119 44.9581H62.2759V43.606H61.8719L61.515 44.5385L61.1581 43.606H60.7385V44.9581H61.0181V43.9326L61.4064 44.9581H61.6083L61.9966 43.9326H62.0123V44.9581H62.0119Z" fill="#CE8B2C"/>
</svg>
