<svg width="64" height="64" viewBox="0 0 64 64" fill="none" xmlns="http://www.w3.org/2000/svg">
<path d="M54.4863 35.4442C52.3221 35.4564 50.448 35.9762 48.8762 36.7502C48.2958 35.6015 47.7155 34.5978 47.6189 33.8483C47.51 32.9777 47.377 32.4456 47.51 31.4059C47.6429 30.3659 48.2475 28.8908 48.2475 28.7699C48.2352 28.661 48.1143 28.129 46.8691 28.1169C45.6239 28.1048 44.5477 28.3588 44.4268 28.6852C44.3059 29.0117 44.064 29.7614 43.9069 30.5352C43.6892 31.6718 41.4161 35.6981 40.1224 37.8141C39.6992 36.9919 39.3365 36.2664 39.2639 35.6859C39.1552 34.8155 39.022 34.2834 39.1552 33.2436C39.2882 32.2037 39.8927 30.7286 39.8927 30.6077C39.8806 30.4989 39.7597 29.9669 38.5145 29.9548C37.269 29.9427 36.193 30.1966 36.0721 30.5231C35.9512 30.8496 35.8182 31.6234 35.5522 32.3731C35.2982 33.1227 32.2755 39.8454 31.4896 41.5987C31.0906 42.4934 30.7401 43.2068 30.486 43.6905C30.2321 44.1741 30.474 43.7267 30.4498 43.7751C30.2321 44.1862 30.1112 44.4159 30.1112 44.4159V44.4281C29.942 44.7304 29.7606 45.0205 29.6758 45.0205C29.6154 45.0205 29.4945 44.2104 29.7 43.0981C30.1474 40.7644 31.2356 37.125 31.2236 36.992C31.2236 36.9316 31.429 36.2906 30.5222 35.9643C29.6396 35.6378 29.3253 36.1819 29.2527 36.1819C29.1801 36.1819 29.1197 36.3754 29.1197 36.3754C29.1197 36.3754 30.099 32.2766 27.2456 32.2766C25.4561 32.2766 22.9896 34.2233 21.7684 36.0007C20.9946 36.4239 19.3503 37.3185 17.6092 38.2738C16.9442 38.6366 16.255 39.0235 15.6021 39.3741L15.4693 39.2288C12.0113 35.541 5.61524 32.9293 5.88124 27.9718C5.97796 26.1703 6.60668 21.4184 18.1656 15.663C27.6327 10.9474 35.2137 12.2411 36.5315 15.1189C38.4055 19.2299 32.481 26.8715 22.6392 27.9718C18.8911 28.395 16.9202 26.9441 16.4245 26.4C15.9046 25.8317 15.8321 25.8075 15.6386 25.9163C15.3243 26.0856 15.5177 26.5934 15.6386 26.8957C15.9288 27.6575 17.1379 29.0117 19.1933 29.6888C20.9948 30.2813 25.3959 30.6077 30.7159 28.5522C36.6767 26.2428 41.3316 19.8344 39.9654 14.478C38.5749 9.02487 29.531 7.23537 20.9828 10.2703C15.8924 12.084 10.379 14.9133 6.41323 18.6253C1.69781 23.0265 0.948182 26.8715 1.26254 28.4676C2.36293 34.1626 10.2097 37.8746 13.3534 40.6193C13.1962 40.7038 13.0511 40.7884 12.9181 40.8611C11.3463 41.6348 5.36133 44.7666 3.86207 48.0795C2.16935 51.8277 4.12807 54.5242 5.43388 54.887C9.47221 56.0114 13.6073 53.9922 15.8441 50.6671C18.0687 47.342 17.8028 43.0254 16.7751 41.0546L16.7387 40.982L17.9719 40.2565C18.77 39.785 19.556 39.3497 20.245 38.9748C19.8582 40.0267 19.58 41.2721 19.435 43.0858C19.2658 45.214 20.1363 47.9706 21.2849 49.0589C21.7928 49.5303 22.3973 49.5425 22.7721 49.5425C24.1021 49.5425 24.7066 48.4421 25.3716 47.1243C26.1938 45.5161 26.9193 43.6541 26.9193 43.6541C26.9193 43.6541 26.0124 48.6961 28.4911 48.6961C29.3979 48.6961 30.3047 47.5233 30.7158 46.9187V46.9308C30.7158 46.9308 30.74 46.8945 30.7883 46.8099C30.8391 46.7349 30.8874 46.6583 30.9334 46.5803V46.5561C31.2961 45.9273 32.1062 44.4885 33.3153 42.1065C34.8749 39.0353 36.3743 35.1903 36.3743 35.1903C36.3743 35.1903 36.5194 36.1334 36.9667 37.6811C37.2326 38.6002 37.813 39.6036 38.2603 40.583C37.8976 41.0908 37.68 41.3812 37.68 41.3812L37.6921 41.3932C37.402 41.7802 37.0754 42.1914 36.737 42.6024C35.5037 44.0775 34.0287 45.7583 33.8352 46.242C33.6055 46.8101 33.6538 47.2333 34.1012 47.572C34.4277 47.8138 35.008 47.8621 35.6246 47.8138C36.737 47.7411 37.5108 47.4632 37.8977 47.2938C38.5023 47.0761 39.1914 46.7497 39.8564 46.266C41.0655 45.3714 41.8031 44.1018 41.7305 42.409C41.6942 41.478 41.392 40.5591 41.0172 39.6885C41.126 39.5313 41.2349 39.374 41.3436 39.2049C43.2539 36.4117 44.729 33.3406 44.729 33.3406C44.729 33.3406 44.8741 34.2837 45.3215 35.8314C45.5511 36.6173 46.0107 37.4759 46.4217 38.3223C44.6323 39.7854 43.5079 41.4781 43.121 42.5905C42.4076 44.646 42.9638 45.5771 44.0157 45.7947C44.4871 45.8914 45.1643 45.6738 45.672 45.4561C46.3007 45.2506 47.0624 44.8998 47.7638 44.38C48.9729 43.4853 50.1336 42.2399 50.0732 40.5592C50.0369 39.7854 49.8314 39.0236 49.5533 38.2981C51.0767 37.6694 53.0474 37.3066 55.5503 37.6089C60.9307 38.2377 61.9947 41.599 61.7893 43.0016C61.5838 44.4043 60.4593 45.178 60.0844 45.4199C59.7096 45.6496 59.5886 45.7344 59.6249 45.9035C59.6733 46.1576 59.8426 46.1453 60.169 46.0971C60.6164 46.0244 62.9983 44.9484 63.095 42.361C63.2401 39.0355 60.0844 35.4081 54.4863 35.4442ZM12.9906 49.4338C11.2133 51.3805 8.71049 52.1181 7.64649 51.4893C6.49787 50.8243 6.94511 47.9587 9.13367 45.8911C10.4637 44.6336 12.1926 43.4728 13.3292 42.7594C13.5831 42.6022 13.97 42.3726 14.4294 42.0944C14.502 42.0462 14.5504 42.0219 14.5504 42.0219C14.635 41.9735 14.7317 41.913 14.8284 41.8526C15.6385 44.8029 14.8647 47.3904 12.9906 49.4338ZM25.9883 40.5951C25.3716 42.1065 24.0658 45.9878 23.2799 45.7702C22.6027 45.5888 22.1917 42.6506 23.1468 39.7487C23.6304 38.2856 24.6582 36.5445 25.2627 35.8673C26.2422 34.7791 27.306 34.4164 27.5722 34.8637C27.8865 35.4442 26.3752 39.652 25.9883 40.5951ZM36.7128 45.7218C36.4468 45.8549 36.205 45.9515 36.0962 45.8791C36.0116 45.8307 36.2049 45.6494 36.2049 45.6494C36.2049 45.6494 37.547 44.2105 38.079 43.5455C38.3812 43.1587 38.744 42.7113 39.1309 42.2034V42.3485C39.131 44.0895 37.4625 45.2502 36.7128 45.7218ZM44.9828 43.8356C44.7894 43.6905 44.8137 43.2431 45.4664 41.8405C45.7205 41.2843 46.3007 40.3533 47.3043 39.4706C47.4252 39.8334 47.4978 40.1839 47.4856 40.5105C47.4736 42.6869 45.926 43.497 44.9828 43.8356Z" fill="#CF649A"/>
</svg>
