<svg width="64" height="64" viewBox="0 0 64 64" fill="none" xmlns="http://www.w3.org/2000/svg">
<path d="M14 3H16.875V5.85H19.525V3H22.4V11.625H19.525V8.75H16.9V11.625H14V3ZM26.2 5.875H23.6625V3H31.625V5.875H29.075V11.625H26.2V5.875ZM32.8875 3H35.9L37.75 6.0375L39.6 3H42.6125V11.625H39.7375V7.35L37.725 10.45L35.7125 7.35V11.625H32.8875V3ZM44.0375 3H46.9125V8.775H50.9875V11.625H44.0375" fill="black"/>
<path d="M15.6384 55.5153L12 15H52L48.3616 55.4934L31.9669 60" fill="#E44D26"/>
<path d="M32 57V18H49L45.7559 53.2618" fill="#F16529"/>
<path d="M20 23H32V27.9405H25.2421L25.6842 33.0008H32V37.9304H21.3053L20 23ZM21.5158 40.4116H26.3158L26.6526 44.3618L32 45.8418V51L22.1895 48.1706" fill="#EBEBEB"/>
<path d="M45 23H32V27.9444H44.5202L45 23ZM44.0518 33.0086H32V37.9529H38.3972L37.7917 44.3785L32 45.8596V51L42.6239 48.1902" fill="white"/>
</svg>
