<svg width="64" height="64" viewBox="0 0 64 64" fill="none" xmlns="http://www.w3.org/2000/svg">
<path d="M32.0001 58.1945C46.5804 58.1945 58.4001 46.4208 58.4001 31.8973C58.4001 17.3737 46.5804 5.59998 32.0001 5.59998C17.4198 5.59998 5.6001 17.3737 5.6001 31.8973C5.6001 46.4208 17.4198 58.1945 32.0001 58.1945Z" fill="#1A171B"/>
<path d="M43.4894 15.3169C40.8112 15.41 38.4734 16.8802 36.7334 18.9144C34.8066 21.1444 33.5248 23.7895 32.6012 26.4896C30.949 25.1408 29.6745 23.3947 27.0239 22.6333C24.9753 22.0474 22.8235 22.2894 20.8447 23.758C19.9073 24.4555 19.2615 25.5098 18.9544 26.501C18.1592 29.0765 19.7903 31.3688 20.5311 32.1917L22.1509 33.9209C22.4847 34.2599 23.2889 35.1443 22.8958 36.4122C22.4709 37.791 20.8024 38.6835 19.0909 38.1575C18.3265 37.9253 17.2283 37.3581 17.4744 36.5595C17.576 36.2326 17.8107 35.9882 17.9366 35.7058C18.052 35.4631 18.1072 35.281 18.1421 35.1742C18.4549 34.1571 18.0276 32.8342 16.9342 32.4984C15.914 32.1869 14.8702 32.4336 14.4656 33.742C14.0067 35.2284 14.7207 37.9261 18.5459 39.101C23.0274 40.4725 26.8184 38.0418 27.3561 34.8716C27.6949 32.886 26.7948 31.4109 25.1458 29.5134L23.8023 28.0335C22.9884 27.2235 22.7089 25.8431 23.5513 24.7823C24.2621 23.8874 25.2742 23.5055 26.9321 23.9546C29.352 24.6092 30.4307 26.2817 32.2308 27.6305C31.4875 30.0588 31.0018 32.4959 30.5623 34.6815L30.2943 36.3111C29.0076 43.0335 28.0255 46.7248 25.4732 48.844C24.959 49.2081 24.2239 49.7534 23.1159 49.7915C22.5351 49.8093 22.3475 49.4112 22.3393 49.238C22.3255 48.8318 22.6691 48.6457 22.8974 48.4628C23.2386 48.2775 23.7544 47.9701 23.7194 46.9853C23.6821 45.8218 22.7146 44.8128 21.3158 44.8589C20.2679 44.8945 18.6709 45.8768 18.7311 47.6747C18.7936 49.5317 20.5311 50.9235 23.1508 50.8353C24.5512 50.7875 27.6786 50.2195 30.7605 46.5702C34.3477 42.387 35.3509 37.5911 36.1055 34.0811L36.9479 29.4471C37.4158 29.5029 37.9161 29.5401 38.4604 29.5531C42.9281 29.6469 45.1627 27.3417 45.196 25.6651C45.218 24.6505 44.5275 23.652 43.5609 23.6746C42.8688 23.694 41.9996 24.1528 41.7908 25.106C41.587 26.0414 43.2124 26.8853 41.9419 27.705C41.0395 28.2868 39.4213 28.697 37.1428 28.3636L37.5571 26.0826C38.4027 21.7569 39.4457 16.436 43.4025 16.3065C43.6908 16.292 44.746 16.3195 44.7704 17.0145C44.7777 17.2468 44.72 17.3058 44.4471 17.8374C44.1693 18.2517 44.0645 18.6045 44.0775 19.0099C44.1157 20.1144 44.9588 20.8402 46.1781 20.7965C47.8109 20.7439 48.2804 19.1604 48.2536 18.3472C48.1878 16.4368 46.1659 15.2296 43.4894 15.3169Z" fill="white"/>
</svg>
