<svg width="64" height="64" viewBox="0 0 64 64" fill="none" xmlns="http://www.w3.org/2000/svg">
<path d="M64 32.5065C64 28.2664 58.6906 24.2481 50.5503 21.7562C52.4289 13.4587 51.594 6.85718 47.9152 4.74365C47.0673 4.24788 46.0758 4.01305 44.9931 4.01305V6.92241C45.5931 6.92241 46.0758 7.03983 46.4802 7.26162C48.2544 8.27924 49.0241 12.154 48.424 17.1378C48.2805 18.3642 48.0457 19.6558 47.7587 20.9734C45.2018 20.3472 42.4101 19.8645 39.4749 19.5514C37.7138 17.1378 35.8875 14.946 34.0481 13.0282C38.3009 9.07507 42.2927 6.90936 45.0061 6.90936V4C41.4187 4 36.7224 6.55711 31.9739 10.9929C27.2254 6.5832 22.5291 4.05219 18.9417 4.05219V6.96155C21.6421 6.96155 25.647 9.11421 29.8997 13.0412C28.0734 14.959 26.247 17.1378 24.512 19.5514C21.5638 19.8645 18.7721 20.3472 16.2152 20.9865C15.9152 19.6818 15.6934 18.4163 15.5369 17.203C14.9238 12.2193 15.6804 8.34447 17.4415 7.3138C17.8329 7.07897 18.3416 6.97459 18.9417 6.97459V4.06523C17.8459 4.06523 16.8545 4.30007 15.9935 4.79583C12.3278 6.90936 11.5059 13.4978 13.3975 21.7693C5.28333 24.2742 0 28.2795 0 32.5065C0 36.7466 5.30942 40.7649 13.4497 43.2568C11.5711 51.5544 12.406 58.1559 16.0848 60.2694C16.9327 60.7652 17.9242 61 19.02 61C22.6074 61 27.3037 58.4429 32.0522 54.0071C36.8007 58.4168 41.4969 60.9478 45.0844 60.9478C46.1802 60.9478 47.1716 60.713 48.0326 60.2172C51.6983 58.1037 52.5202 51.5152 50.6286 43.2438C58.7167 40.7519 64 36.7336 64 32.5065ZM47.0151 23.8045C46.5324 25.4875 45.9323 27.2227 45.254 28.9579C44.7191 27.9142 44.1582 26.8704 43.545 25.8267C42.945 24.783 42.3058 23.7654 41.6665 22.7739C43.519 23.0478 45.3062 23.387 47.0151 23.8045ZM41.0404 37.699C40.0228 39.4603 38.9792 41.1302 37.8965 42.6828C35.9527 42.8524 33.9829 42.9437 32 42.9437C30.0302 42.9437 28.0603 42.8524 26.1296 42.6958C25.0469 41.1433 23.9902 39.4864 22.9727 37.7382C21.9812 36.0291 21.0811 34.2939 20.2593 32.5457C21.0681 30.7974 21.9813 29.0492 22.9596 27.3401C23.9772 25.5788 25.0208 23.9089 26.1035 22.3564C28.0473 22.1868 30.0171 22.0954 32 22.0954C33.9698 22.0954 35.9397 22.1868 37.8704 22.3433C38.9531 23.8959 40.0098 25.5528 41.0273 27.301C42.0188 29.0101 42.9189 30.7452 43.7407 32.4935C42.9189 34.2417 42.0188 35.9899 41.0404 37.699ZM45.254 36.003C45.9584 37.7512 46.5585 39.4994 47.0542 41.1955C45.3453 41.613 43.545 41.9652 41.6796 42.2392C42.3188 41.2346 42.958 40.2039 43.5581 39.1472C44.1582 38.1035 44.7191 37.0467 45.254 36.003ZM32.0261 49.9235C30.8129 48.6711 29.5997 47.2751 28.3995 45.7487C29.5736 45.8009 30.7737 45.84 31.987 45.84C33.2132 45.84 34.4264 45.8139 35.6135 45.7487C34.4395 47.2751 33.2263 48.6711 32.0261 49.9235ZM22.3204 42.2392C20.468 41.9652 18.6808 41.626 16.9719 41.2085C17.4545 39.5255 18.0546 37.7903 18.733 36.0552C19.2678 37.0989 19.8288 38.1426 20.4419 39.1863C21.055 40.23 21.6812 41.2477 22.3204 42.2392ZM31.9609 15.0895C33.1741 16.342 34.3873 17.7379 35.5874 19.2644C34.4134 19.2122 33.2132 19.173 32 19.173C30.7737 19.173 29.5605 19.1991 28.3734 19.2644C29.5475 17.7379 30.7607 16.342 31.9609 15.0895ZM22.3074 22.7739C21.6682 23.7784 21.0289 24.8091 20.4289 25.8659C19.8288 26.9096 19.2678 27.9533 18.733 28.997C18.0285 27.2488 17.4285 25.5006 16.9327 23.8045C18.6417 23.4001 20.4419 23.0478 22.3074 22.7739ZM10.5014 39.108C5.88341 37.138 2.89605 34.5548 2.89605 32.5065C2.89605 30.4582 5.88341 27.862 10.5014 25.905C11.6233 25.4223 12.8496 24.9918 14.115 24.5873C14.8585 27.1444 15.8369 29.8059 17.0501 32.5326C15.85 35.2463 14.8846 37.8947 14.1541 40.4388C12.8626 40.0343 11.6364 39.5908 10.5014 39.108ZM17.5198 57.7514C15.7456 56.7338 14.9759 52.859 15.576 47.8753C15.7195 46.6489 15.9543 45.3573 16.2413 44.0396C18.7982 44.6658 21.5899 45.1485 24.5251 45.4617C26.2862 47.8753 28.1125 50.0671 29.9519 51.9849C25.6991 55.938 21.7073 58.1037 18.9939 58.1037C18.4068 58.0906 17.9111 57.9732 17.5198 57.7514ZM48.4631 47.81C49.0762 52.7938 48.3196 56.6686 46.5585 57.6992C46.1671 57.9341 45.6584 58.0385 45.0583 58.0385C42.3579 58.0385 38.353 55.8858 34.1003 51.9588C35.9266 50.041 37.753 47.8622 39.488 45.4486C42.4362 45.1355 45.2279 44.6528 47.7848 44.0135C48.0848 45.3312 48.3196 46.5967 48.4631 47.81ZM53.4855 39.108C52.3636 39.5908 51.1374 40.0213 49.872 40.4257C49.1284 37.8686 48.15 35.2071 46.9368 32.4804C48.137 29.7668 49.1023 27.1183 49.8329 24.5743C51.1243 24.9787 52.3506 25.4223 53.4986 25.905C58.1166 27.875 61.104 30.4582 61.104 32.5065C61.0909 34.5548 58.1035 37.1511 53.4855 39.108Z" fill="#61DAFB"/>
<path d="M32 38C35.3137 38 38 35.5376 38 32.5C38 29.4624 35.3137 27 32 27C28.6863 27 26 29.4624 26 32.5C26 35.5376 28.6863 38 32 38Z" fill="#61DAFB"/>
</svg>
