<svg width="64" height="64" viewBox="0 0 64 64" fill="none" xmlns="http://www.w3.org/2000/svg">
<g clip-path="url(#clip0)">
<path d="M52.5487 14.5588L48.8182 56.3502L32.0494 60.9991L15.3267 56.3567L11.6001 14.5588H52.5487Z" fill="#264DE4"/>
<path d="M45.6248 53.6891L48.8127 17.9764H32.0747V57.4457L45.6248 53.6891Z" fill="#2965F1"/>
<path d="M20.1431 33.4786L20.6025 38.6049H32.0743V33.4786H20.1431Z" fill="#EBEBEB"/>
<path d="M32.0742 23.1028H32.0564H19.2197L19.6857 28.2292H32.0742V23.1028Z" fill="#EBEBEB"/>
<path d="M32.0743 52.1259V46.7923L32.0518 46.7983L26.3426 45.2567L25.9776 41.1682H23.2033H20.8315L21.5497 49.2173L32.0507 52.1324L32.0743 52.1259Z" fill="#EBEBEB"/>
<path d="M21.2373 3.19995H27.4462V5.7964H23.8337V8.39284H27.4462V10.9893H21.2373V3.19995Z" fill="black"/>
<path d="M28.6875 3.19995H34.8964V5.45773H31.2839V5.90928H34.8964V11.1022H28.6875V8.73151H32.2999V8.27995H28.6875V3.19995Z" fill="black"/>
<path d="M36.1387 3.19995H42.3476V5.45773H38.7351V5.90928H42.3476V11.1022H36.1387V8.73151H39.7511V8.27995H36.1387V3.19995Z" fill="black"/>
<path d="M38.3692 38.6049L37.7741 45.2534L32.0566 46.7966V52.1299L42.5659 49.2173L42.643 48.3512L43.8477 34.8552L43.9727 33.4786L44.8982 23.1028H32.0566V28.2292H39.2802L38.8137 33.4786H32.0566V38.6049H38.3692Z" fill="white"/>
</g>
<defs>
<clipPath id="clip0">
<rect width="40.9486" height="57.7991" fill="white" transform="translate(11.6001 3.19995)"/>
</clipPath>
</defs>
</svg>
