<svg width="64" height="64" viewBox="0 0 64 64" fill="none" xmlns="http://www.w3.org/2000/svg">
<rect width="64" height="64" rx="32" fill="#563D7C"/>
<path d="M21 19H33.3299C35.6041 19 37.4305 19.5188 38.802 20.5635C40.1736 21.6081 40.8629 23.1787 40.8629 25.2893C40.8629 26.5685 40.5503 27.6629 39.9249 28.5726C39.2995 29.4822 38.4041 30.1929 37.2386 30.6904V30.7614C38.802 31.0954 39.9888 31.8345 40.7919 32.9787C41.5949 34.1299 42 35.5655 42 37.2995C42 38.2944 41.8223 39.2254 41.467 40.0853C41.1117 40.9523 40.5574 41.6985 39.797 42.3239C39.0365 42.9492 38.0701 43.4467 36.8832 43.8162C35.6964 44.1858 34.2893 44.3706 32.6548 44.3706H21V19ZM25.4416 29.6244H32.6904C33.7563 29.6244 34.6447 29.3259 35.3553 28.7147C36.066 28.1036 36.4213 27.2365 36.4213 26.0995C36.4213 24.8203 36.1015 23.9178 35.4619 23.399C34.8223 22.8802 33.8985 22.6173 32.6904 22.6173H25.4416V29.6244ZM25.4416 40.7462H33.2944C34.6447 40.7462 35.6964 40.398 36.4355 39.6944C37.1817 38.998 37.5584 38.003 37.5584 36.7239C37.5584 35.466 37.1888 34.5066 36.4355 33.8244C35.6822 33.1421 34.6447 32.8152 33.2944 32.8152H25.4416V40.7462Z" fill="white"/>
</svg>
