<svg width="69" height="69" viewBox="0 0 69 69" fill="none" xmlns="http://www.w3.org/2000/svg">
<path fill-rule="evenodd" clip-rule="evenodd" d="M34.1469 4.78523C41.8061 4.78523 48.78 7.7203 54.0076 12.5258C51.4453 12.457 48.8884 13.9801 48.7826 17.4678C48.5671 24.5186 57.2137 26.0205 52.5546 40.2027L48.7007 51.9337L38.2045 21.015C38.0418 20.5364 38.2309 20.264 38.8192 20.264H41.7867C41.9409 20.264 42.067 20.1323 42.067 19.9711V18.2135C42.067 18.0523 41.9406 17.9139 41.7867 17.9206C36.1671 18.1663 30.5805 18.168 25.0277 17.9206C24.873 17.914 24.7474 18.0528 24.7474 18.2141V19.9717C24.7474 20.1328 24.8736 20.2647 25.0277 20.2647H28.0114C28.6752 20.2647 28.861 20.4858 29.0174 20.9136L33.3302 32.7081L26.8426 52.2978L16.1785 20.8872C16.0463 20.4932 16.2063 20.2645 16.5857 20.2645H19.9855C20.1397 20.2645 20.2657 20.1328 20.2657 19.9715V18.2139C20.2657 18.0527 20.1392 17.913 19.9855 17.921C16.4185 18.1105 12.8378 18.1486 9.50239 18.1829C14.7365 10.1201 23.8181 4.78464 34.1451 4.78464L34.1451 4.78456L34.1469 4.78523ZM59.9703 20.1653C62.2264 24.3221 63.5076 29.0847 63.5076 34.1452C63.5076 45.2515 57.3366 54.9181 48.2386 59.9077L57.3955 33.972C58.8141 29.9581 60.1309 24.5335 59.9696 20.1653H59.9696H59.9703ZM43.9768 61.8169C40.9029 62.9102 37.595 63.5065 34.1469 63.5065C31.1762 63.5065 28.3098 63.0636 25.6075 62.2439L34.6526 36.3227L43.9766 61.8182V61.8182L43.9768 61.8169ZM21.583 60.6878C11.6538 55.9788 4.78562 45.863 4.78562 34.1465C4.78562 29.8032 5.73046 25.68 7.42388 21.9705L21.5836 60.6883L21.5837 60.6883L21.583 60.6878ZM34.146 2.02996C51.8794 2.02996 66.2612 16.4118 66.2612 34.1452C66.2612 51.8786 51.8794 66.2605 34.146 66.2605C16.4126 66.2605 2.03075 51.8786 2.03075 34.1452C2.03075 16.4118 16.4126 2.02996 34.146 2.02996V2.02996ZM34.146 0C53.0005 0 68.292 15.2915 68.292 34.146C68.292 53.0005 53.0005 68.292 34.146 68.292C15.2915 68.292 0 53.0005 0 34.146C0 15.2915 15.2915 0 34.146 0V0Z" fill="#161414"/>
</svg>
