<svg width="64" height="64" viewBox="0 0 64 64" fill="none" xmlns="http://www.w3.org/2000/svg">
<rect width="64" height="64" rx="32" fill="#8B8FBF"/>
<path d="M13.3348 25.8942H19.5845C21.4189 25.9096 22.7481 26.4384 23.5722 27.4799C24.3964 28.5214 24.6683 29.9439 24.3884 31.7475C24.2798 32.5716 24.0386 33.3799 23.6655 34.1728C23.3078 34.9656 22.8106 35.6806 22.173 36.3182C21.3956 37.1265 20.564 37.6395 19.6778 37.8573C18.7916 38.0751 17.8742 38.1838 16.926 38.1838H14.1276L13.2415 42.6146H10L13.3348 25.8942V25.8942ZM16.0632 28.5526L14.664 35.5486C14.7573 35.564 14.8506 35.572 14.9438 35.572C15.0525 35.572 15.1616 35.572 15.2703 35.572C16.7628 35.5874 18.0067 35.44 19.0015 35.1289C19.9964 34.8024 20.6652 33.6676 21.007 31.7242C21.2869 30.0918 21.007 29.151 20.1675 28.9024C19.3434 28.6538 18.3098 28.5372 17.066 28.5526C16.8794 28.568 16.7008 28.576 16.5296 28.576C16.3743 28.576 16.211 28.576 16.0399 28.576L16.0632 28.5526" fill="black"/>
<path d="M28.081 21.4399H31.2991L30.3897 25.8941H33.2813C34.8671 25.9253 36.0485 26.2518 36.826 26.8735C37.6189 27.4952 37.8521 28.6771 37.5256 30.4181L35.9631 38.1837H32.6983L34.1908 30.7679C34.3461 29.9905 34.2995 29.4387 34.0509 29.1122C33.8023 28.7857 33.2659 28.6225 32.4418 28.6225L29.8533 28.5992L27.9411 38.1837H24.7229L28.081 21.4399Z" fill="black"/>
<path d="M40.9812 25.8942H47.231C49.0654 25.9096 50.3946 26.4384 51.2187 27.4799C52.0428 28.5214 52.3148 29.9439 52.0349 31.7475C51.9262 32.5716 51.6851 33.3799 51.312 34.1728C50.9543 34.9656 50.4571 35.6806 49.8195 36.3182C49.042 37.1265 48.2104 37.6395 47.3243 37.8573C46.4381 38.0751 45.5207 38.1838 44.5725 38.1838H41.7741L40.888 42.6146H37.6465L40.9812 25.8942V25.8942ZM43.7097 28.5526L42.3105 35.5486C42.4038 35.564 42.497 35.572 42.5903 35.572C42.699 35.572 42.8081 35.572 42.9168 35.572C44.4093 35.5874 45.6532 35.44 46.648 35.1289C47.6428 34.8024 48.3116 33.6676 48.6535 31.7242C48.9334 30.0918 48.6535 29.151 47.814 28.9024C46.9899 28.6538 45.9563 28.5372 44.7124 28.5526C44.5259 28.568 44.3472 28.576 44.1761 28.576C44.0208 28.576 43.8575 28.576 43.6864 28.576L43.7097 28.5526" fill="black"/>
</svg>
