<svg width="64" height="64" viewBox="0 0 64 64" fill="none" xmlns="http://www.w3.org/2000/svg">
<circle cx="32" cy="32" r="32" fill="#E2BF03"/>
<path d="M35.4522 37.0959C36.4608 38.7125 37.7731 39.9007 40.094 39.9007C42.0436 39.9007 43.2891 38.9442 43.2891 37.6225C43.2891 36.0387 42.0095 35.4777 39.8635 34.5563L38.6871 34.0608C35.2917 32.6408 33.036 30.8619 33.036 27.1013C33.036 23.6371 35.7248 21 39.927 21C42.9187 21 45.0695 22.0221 46.6194 24.6982L42.9553 27.0077C42.1486 25.5877 41.2782 25.0283 39.927 25.0283C38.5488 25.0283 37.6753 25.8865 37.6753 27.0077C37.6753 28.3933 38.5496 28.9543 40.5685 29.8125L41.7448 30.3072C45.7427 31.9901 48 33.7058 48 37.5632C48 41.7218 44.6721 44 40.2028 44C35.8329 44 33.0098 41.9558 31.6284 39.2766L35.4522 37.0959ZM18.8302 37.4961C19.5694 38.7835 20.2418 39.8719 21.8585 39.8719C23.4044 39.8719 24.3796 39.2781 24.3796 36.9695V21.2637H29.0849V37.0319C29.0849 41.8146 26.2284 43.9914 22.0588 43.9914C18.2913 43.9914 16.1096 42.0775 15 39.7724L18.8302 37.4961Z" fill="black"/>
</svg>
