<svg width="234" height="234" viewBox="0 0 234 234" fill="none" xmlns="http://www.w3.org/2000/svg">
<path d="M124.252 139.049V138.449H123.652H83.2956C82.3575 138.449 81.6 137.691 81.6 136.76V91.2888C81.6 90.3577 82.3575 89.6 83.2956 89.6H151.704C152.643 89.6 153.4 90.3577 153.4 91.2888V136.76C153.4 137.691 152.642 138.449 151.704 138.449H136.746H136.146V139.049V143.474C136.146 143.793 135.982 144.089 135.71 144.259L135.709 144.259C135.438 144.428 135.097 144.447 134.807 144.306L134.807 144.306L130.462 142.191L130.199 142.063L129.937 142.191L125.591 144.306L125.854 144.845L125.591 144.306C125.462 144.369 125.322 144.4 125.183 144.4C125.01 144.4 124.839 144.352 124.689 144.259L124.689 144.259C124.417 144.089 124.252 143.793 124.252 143.474V139.049ZM136.341 128.583L136.146 128.761V129.025V130.046V130.646H136.746H138.379H138.876L138.968 130.157C139.549 127.079 141.991 124.643 145.081 124.064L145.57 123.972V123.474V104.575V104.077L145.081 103.985C141.991 103.406 139.549 100.97 138.968 97.8915L138.876 97.4027H138.379H96.6211H96.1237L96.0315 97.8915C95.4509 100.97 93.0085 103.406 89.9188 103.985L89.4293 104.077V104.575V123.474V123.972L89.9188 124.064C93.0085 124.643 95.4509 127.079 96.0315 130.157L96.1237 130.646H96.6211H123.652H124.252V130.046V129.025V128.761L124.057 128.583C122.246 126.924 121.11 124.548 121.11 121.912C121.11 116.919 125.186 112.852 130.199 112.852C135.212 112.852 139.288 116.919 139.288 121.912C139.288 124.548 138.152 126.924 136.341 128.583ZM133.423 141.571L134.286 141.991L134.285 141.031L134.285 130.923L134.285 130.048L133.469 130.363C132.454 130.755 131.352 130.972 130.199 130.972C129.046 130.972 127.945 130.755 126.929 130.363L126.113 130.048V130.923V141.031V141.991L126.976 141.571L129.79 140.201L129.79 140.201C130.048 140.075 130.35 140.075 130.608 140.201L133.423 141.571ZM149.409 135.071H150.009V134.471V93.5777V92.9777H149.409H85.5912H84.9912V93.5777V134.471V135.071H85.5912H123.652H124.252V134.471V133.098V132.498H123.652H95.2327C94.7173 132.498 94.3023 132.082 94.3023 131.572C94.3023 128.378 91.6978 125.784 88.499 125.784C87.9836 125.784 87.5686 125.368 87.5686 124.858V103.191C87.5686 102.681 87.9836 102.265 88.499 102.265C91.6978 102.265 94.3023 99.6706 94.3023 96.4768C94.3023 95.9673 94.7173 95.5509 95.2327 95.5509H139.767C140.283 95.5509 140.698 95.9673 140.698 96.4768C140.698 99.6706 143.302 102.265 146.501 102.265C147.016 102.265 147.431 102.681 147.431 103.191V124.858C147.431 125.368 147.016 125.784 146.501 125.784C143.302 125.784 140.698 128.378 140.698 131.572C140.698 132.082 140.283 132.498 139.767 132.498H136.746H136.146V133.098V134.471V135.071H136.746H149.409ZM130.199 114.704C126.215 114.704 122.971 117.935 122.971 121.912C122.971 125.889 126.215 129.12 130.199 129.12C134.183 129.12 137.427 125.889 137.427 121.912C137.427 117.935 134.183 114.704 130.199 114.704Z" stroke="#2F306F" stroke-width="1.2"/>
</svg>
