<svg width="231" height="234" viewBox="0 0 231 234" fill="none" xmlns="http://www.w3.org/2000/svg">
<path d="M79.3003 116.5C79.3003 115.699 78.651 115.05 77.8501 115.05H65.4502C64.6493 115.05 64 115.699 64 116.5C64 117.301 64.6493 117.95 65.4502 117.95H77.8501C78.651 117.95 79.3003 117.301 79.3003 116.5Z" fill="#2F306F"/>
<path d="M161.55 115.05H149.15C148.349 115.05 147.7 115.699 147.7 116.5C147.7 117.301 148.349 117.95 149.15 117.95H161.55C162.351 117.95 163 117.301 163 116.5C163 115.699 162.351 115.05 161.55 115.05Z" fill="#2F306F"/>
<path d="M113.5 82.3003C114.301 82.3003 114.95 81.6512 114.95 80.8501V68.4502C114.95 67.6493 114.301 67 113.5 67C112.699 67 112.05 67.6493 112.05 68.4502V80.8501C112.05 81.651 112.699 82.3003 113.5 82.3003Z" fill="#2F306F"/>
<path d="M113.5 150.7C112.699 150.7 112.05 151.349 112.05 152.15V164.55C112.05 165.351 112.699 166 113.5 166C114.301 166 114.95 165.351 114.95 164.55V152.15C114.95 151.349 114.301 150.7 113.5 150.7Z" fill="#2F306F"/>
<path d="M87.2663 92.3173C87.5494 92.6004 87.9207 92.7419 88.2917 92.7419C88.6628 92.7419 89.034 92.6004 89.3171 92.3173C89.8834 91.751 89.8834 90.8327 89.3171 90.2665L80.549 81.4981C79.9827 80.9317 79.0644 80.9317 78.4982 81.4981C77.9319 82.0644 77.9319 82.9827 78.4982 83.5488L87.2663 92.3173Z" fill="#2F306F"/>
<path d="M139.734 140.683C139.167 140.116 138.249 140.116 137.683 140.683C137.117 141.249 137.117 142.167 137.683 142.734L146.451 151.502C146.734 151.785 147.105 151.927 147.476 151.927C147.847 151.927 148.219 151.785 148.502 151.502C149.068 150.936 149.068 150.017 148.502 149.451L139.734 140.683Z" fill="#2F306F"/>
<path d="M138.708 92.742C139.08 92.742 139.451 92.6004 139.734 92.3173L148.502 83.5491C149.068 82.9827 149.068 82.0645 148.502 81.4983C147.935 80.9319 147.017 80.9319 146.451 81.4983L137.683 90.2666C137.117 90.8329 137.117 91.7512 137.683 92.3173C137.966 92.6004 138.337 92.742 138.708 92.742Z" fill="#2F306F"/>
<path d="M87.2663 140.683L78.4982 149.451C77.9319 150.017 77.9319 150.936 78.4982 151.502C78.7813 151.785 79.1526 151.926 79.5236 151.926C79.8947 151.926 80.2659 151.785 80.549 151.502L89.3171 142.733C89.8834 142.167 89.8834 141.249 89.3171 140.682C88.7507 140.117 87.8325 140.117 87.2663 140.683Z" fill="#2F306F"/>
<path d="M98.5176 84.1187C98.7488 84.6773 99.2889 85.0143 99.858 85.0143C100.043 85.0143 100.231 84.9787 100.412 84.9037C101.152 84.5972 101.504 83.7488 101.197 83.0088L98.8246 77.2809C98.5182 76.5409 97.6697 76.1898 96.9299 76.4961C96.1899 76.8025 95.8386 77.651 96.1451 78.391L98.5176 84.1187Z" fill="#2F306F"/>
<path d="M128.482 148.881C128.176 148.141 127.328 147.79 126.588 148.096C125.848 148.403 125.496 149.251 125.803 149.991L128.176 155.719C128.407 156.278 128.947 156.615 129.516 156.615C129.701 156.615 129.889 156.579 130.07 156.504C130.81 156.198 131.162 155.349 130.855 154.609L128.482 148.881Z" fill="#2F306F"/>
<path d="M145.096 103.412C145.328 103.971 145.868 104.308 146.437 104.308C146.622 104.308 146.81 104.272 146.991 104.197L152.719 101.824C153.459 101.518 153.81 100.67 153.504 99.9297C153.198 99.1897 152.349 98.8385 151.609 99.1448L145.881 101.518C145.141 101.824 144.79 102.672 145.096 103.412Z" fill="#2F306F"/>
<path d="M81.9037 129.588C81.5973 128.848 80.749 128.496 80.009 128.803L74.2809 131.175C73.5409 131.482 73.1896 132.33 73.4961 133.07C73.7273 133.629 74.2674 133.966 74.8364 133.966C75.0215 133.966 75.2094 133.93 75.3908 133.855L81.1189 131.482C81.8587 131.176 82.2102 130.328 81.9037 129.588Z" fill="#2F306F"/>
<path d="M126.588 84.9037C126.769 84.9789 126.957 85.0143 127.142 85.0143C127.711 85.0143 128.251 84.6773 128.482 84.1187L130.855 78.3908C131.161 77.6508 130.81 76.8025 130.07 76.4959C129.33 76.1896 128.482 76.5407 128.175 77.2807L125.803 83.0086C125.496 83.7488 125.848 84.5971 126.588 84.9037Z" fill="#2F306F"/>
<path d="M100.412 148.096C99.6725 147.79 98.8241 148.141 98.5176 148.881L96.1449 154.609C95.8384 155.349 96.1897 156.197 96.9297 156.504C97.1113 156.579 97.2992 156.615 97.4841 156.615C98.0531 156.615 98.5932 156.278 98.8245 155.719L101.197 149.991C101.504 149.251 101.152 148.403 100.412 148.096Z" fill="#2F306F"/>
<path d="M152.719 131.175L146.991 128.803C146.251 128.496 145.403 128.848 145.096 129.588C144.79 130.327 145.141 131.176 145.881 131.482L151.609 133.855C151.791 133.93 151.979 133.966 152.164 133.966C152.733 133.966 153.273 133.629 153.504 133.07C153.811 132.33 153.459 131.482 152.719 131.175Z" fill="#2F306F"/>
<path d="M74.2808 101.825L80.0088 104.197C80.1904 104.273 80.3783 104.308 80.5632 104.308C81.1322 104.308 81.6723 103.971 81.9036 103.412C82.21 102.672 81.8587 101.824 81.1187 101.518L75.3908 99.145C74.6505 98.8387 73.8026 99.1899 73.4961 99.9299C73.1894 100.67 73.541 101.518 74.2808 101.825Z" fill="#2F306F"/>
<circle cx="113.5" cy="116.5" r="29.0118" stroke="#2F306F" stroke-width="2"/>
</svg>
