<svg width="234" height="234" viewBox="0 0 234 234" fill="none" xmlns="http://www.w3.org/2000/svg">
<path d="M141 98.5072C141 107.874 136.332 114.187 128.648 118.219C120.895 122.288 110.084 124.014 98 124.014C96.8573 124.014 95.6395 124.04 94.4093 124.067C91.9258 124.119 89.3919 124.173 87.3241 124.017C86.8504 123.982 86.4433 124.162 86.1477 124.344C85.8441 124.53 85.5504 124.784 85.273 125.052C84.8433 125.467 84.3491 126.022 83.8116 126.626C83.6634 126.792 83.5119 126.962 83.3575 127.134C81.8926 128.766 79.9744 130.788 77.3492 132.483C73.1065 135.221 69.1393 135.903 66.7583 135.99C66.7786 135.966 66.7991 135.942 66.8197 135.918C67.7681 134.799 69.0456 133.122 70.3886 130.867C71.7499 128.582 72.5288 126.34 72.7866 124.562C72.9145 123.679 72.9224 122.854 72.77 122.175C72.6258 121.533 72.2696 120.763 71.4565 120.475C66.3671 118.67 62.2664 116.091 59.4374 112.542C56.6186 109.006 55 104.43 55 98.5072C55 93.4277 56.1909 89.3437 58.2993 86.0597C60.4099 82.7723 63.4804 80.2238 67.3368 78.2838C75.0837 74.3864 85.8895 73 98 73C110.084 73 120.895 74.7262 128.648 78.7952C136.332 82.8279 141 89.141 141 98.5072Z" fill="white" stroke="#2C5058" stroke-width="2"/>
<path d="M87.1041 98.756V94.976L86.1321 94.856C86.1001 94.736 86.1001 94.588 86.1321 94.412C86.5721 94.444 87.1201 94.46 87.7761 94.46C88.3681 94.46 88.9201 94.448 89.4321 94.424C89.4801 94.568 89.4801 94.712 89.4321 94.856L88.4361 95C88.4041 95.304 88.3881 95.772 88.3881 96.404V103.472L89.3601 103.592C89.3921 103.712 89.3921 103.86 89.3601 104.036C88.8561 104.012 88.3081 104 87.7161 104C87.2841 104 86.7321 104.008 86.0601 104.024C86.0121 103.88 86.0121 103.736 86.0601 103.592L87.0561 103.448C87.0881 103.144 87.1041 102.676 87.1041 102.044V99.356H82.3761V103.472L83.3481 103.592C83.3801 103.712 83.3801 103.86 83.3481 104.036C82.8441 104.012 82.2961 104 81.7041 104C81.2721 104 80.7201 104.008 80.0481 104.024C80.0001 103.88 80.0001 103.736 80.0481 103.592L81.0441 103.448C81.0761 103.144 81.0921 102.676 81.0921 102.044V94.976L80.1201 94.856C80.0881 94.736 80.0881 94.588 80.1201 94.412C80.5601 94.444 81.1081 94.46 81.7641 94.46C82.3481 94.46 82.9001 94.448 83.4201 94.424C83.4681 94.568 83.4681 94.712 83.4201 94.856L82.4241 95C82.3921 95.304 82.3761 95.772 82.3761 96.404V98.756H87.1041ZM95.2937 100.616H91.5257C91.4537 102.656 92.0657 103.676 93.3617 103.676C93.9137 103.676 94.4777 103.432 95.0537 102.944C95.1737 103.016 95.2657 103.14 95.3297 103.316C94.7777 103.932 94.0777 104.24 93.2297 104.24C91.2777 104.24 90.3017 103.092 90.3017 100.796C90.3017 99.708 90.5897 98.864 91.1657 98.264C91.7417 97.656 92.4137 97.352 93.1817 97.352C94.0217 97.352 94.6257 97.644 94.9937 98.228C95.3617 98.812 95.5457 99.572 95.5457 100.508C95.4657 100.572 95.3817 100.608 95.2937 100.616ZM93.1577 97.832C92.7417 97.832 92.3857 98.048 92.0897 98.48C91.8017 98.912 91.6257 99.464 91.5617 100.136H93.0497C93.6417 100.136 94.0657 100.1 94.3217 100.028C94.3217 99.372 94.2217 98.844 94.0217 98.444C93.8217 98.036 93.5337 97.832 93.1577 97.832ZM98.4304 96.392V103.388L99.4024 103.568C99.4344 103.696 99.4344 103.856 99.4024 104.048C98.8984 104.024 98.3824 104.012 97.8544 104.012C97.4864 104.012 96.9664 104.02 96.2944 104.036C96.2464 103.884 96.2464 103.728 96.2944 103.568L97.2424 103.436C97.2744 102.996 97.2904 102.488 97.2904 101.912V95.036L96.3064 94.916C96.2744 94.796 96.2744 94.644 96.3064 94.46C96.8584 94.42 97.5464 94.336 98.3704 94.208C98.4424 94.288 98.4824 94.368 98.4904 94.448C98.4504 94.656 98.4304 95.304 98.4304 96.392ZM102.016 96.392V103.388L102.988 103.568C103.02 103.696 103.02 103.856 102.988 104.048C102.484 104.024 101.968 104.012 101.44 104.012C101.072 104.012 100.552 104.02 99.8803 104.036C99.8323 103.884 99.8323 103.728 99.8803 103.568L100.828 103.436C100.86 102.996 100.876 102.488 100.876 101.912V95.036L99.8923 94.916C99.8603 94.796 99.8603 94.644 99.8923 94.46C100.444 94.42 101.132 94.336 101.956 94.208C102.028 94.288 102.068 94.368 102.076 94.448C102.036 94.656 102.016 95.304 102.016 96.392ZM103.754 100.808C103.754 100.328 103.822 99.88 103.958 99.464C104.102 99.04 104.306 98.672 104.57 98.36C104.834 98.048 105.15 97.804 105.518 97.628C105.894 97.444 106.314 97.352 106.778 97.352C107.234 97.352 107.65 97.444 108.026 97.628C108.402 97.804 108.722 98.048 108.986 98.36C109.258 98.672 109.466 99.04 109.61 99.464C109.754 99.88 109.826 100.328 109.826 100.808C109.826 101.304 109.75 101.76 109.598 102.176C109.454 102.592 109.246 102.956 108.974 103.268C108.71 103.572 108.39 103.812 108.014 103.988C107.638 104.156 107.226 104.24 106.778 104.24C106.306 104.24 105.882 104.156 105.506 103.988C105.138 103.82 104.822 103.584 104.558 103.28C104.302 102.976 104.102 102.616 103.958 102.2C103.822 101.776 103.754 101.312 103.754 100.808ZM105.506 98.6C105.162 99.088 104.99 99.824 104.99 100.808C104.99 101.296 105.034 101.724 105.122 102.092C105.218 102.46 105.346 102.768 105.506 103.016C105.666 103.256 105.854 103.436 106.07 103.556C106.286 103.676 106.522 103.736 106.778 103.736C107.026 103.736 107.262 103.676 107.486 103.556C107.71 103.436 107.902 103.256 108.062 103.016C108.222 102.768 108.35 102.46 108.446 102.092C108.542 101.724 108.59 101.296 108.59 100.808C108.59 100.32 108.542 99.892 108.446 99.524C108.35 99.148 108.218 98.84 108.05 98.6C107.89 98.352 107.698 98.168 107.474 98.048C107.258 97.92 107.026 97.856 106.778 97.856C106.282 97.856 105.858 98.104 105.506 98.6ZM114.661 101.732L114.217 94.412C114.441 94.316 114.673 94.268 114.913 94.268C115.137 94.268 115.333 94.316 115.501 94.412L115.189 101.732C115.101 101.756 115.017 101.768 114.937 101.768C114.849 101.768 114.757 101.756 114.661 101.732ZM114.913 102.668C115.129 102.668 115.309 102.74 115.453 102.884C115.605 103.02 115.681 103.192 115.681 103.4C115.681 103.608 115.605 103.788 115.453 103.94C115.309 104.084 115.133 104.156 114.925 104.156C114.717 104.156 114.537 104.084 114.385 103.94C114.241 103.788 114.169 103.608 114.169 103.4C114.169 103.192 114.241 103.02 114.385 102.884C114.529 102.74 114.705 102.668 114.913 102.668Z" fill="#2C5058"/>
<path d="M176.316 162.57L176.316 162.57L176.316 162.571L176.317 162.571L176.317 162.571L177.84 163.94L175.822 164.298C174.329 164.564 169.025 164.704 163.283 161.01C160.738 159.373 158.902 157.434 157.576 155.961C157.42 155.788 157.273 155.623 157.134 155.468C156.669 154.948 156.296 154.531 155.971 154.218C155.763 154.017 155.617 153.902 155.521 153.843C155.515 153.84 155.51 153.837 155.505 153.834C153.6 153.97 151.225 153.92 149.008 153.873C147.946 153.851 146.92 153.83 146 153.83C135.165 153.83 125.226 152.296 117.959 148.495C110.624 144.659 106 138.492 106 129.415C106 120.338 110.624 114.171 117.959 110.334C125.226 106.534 135.165 105 146 105C156.809 105 166.753 106.221 174.025 109.868C177.679 111.699 180.686 114.157 182.776 117.401C184.868 120.648 186 124.621 186 129.415C186 135.014 184.455 139.487 181.655 142.988C178.884 146.451 174.946 148.888 170.257 150.56C170.242 150.593 170.223 150.649 170.203 150.735C170.137 151.03 170.12 151.508 170.215 152.159C170.402 153.447 170.994 155.194 172.094 157.034C173.225 158.928 174.295 160.325 175.075 161.242C175.465 161.701 175.783 162.039 175.999 162.26C176.107 162.37 176.19 162.451 176.244 162.503C176.271 162.529 176.291 162.547 176.303 162.558L176.315 162.57L176.316 162.57ZM155.463 153.813C155.463 153.813 155.465 153.813 155.468 153.814C155.465 153.813 155.463 153.813 155.463 153.813ZM170.281 150.515C170.281 150.515 170.278 150.518 170.274 150.525C170.279 150.519 170.281 150.516 170.281 150.515Z" fill="white" stroke="#2C5058" stroke-width="2"/>
<path d="M127.514 125.52L127.643 125.514L128.023 132.445C127.902 132.613 127.516 132.766 126.863 132.902C126.711 132.934 126.598 132.949 126.523 132.949L126.359 132.65L126.84 125.666C127.023 125.576 127.248 125.527 127.514 125.52ZM128.17 123.756C128.17 124.014 128.078 124.23 127.895 124.406C127.707 124.586 127.518 124.676 127.326 124.676C127.139 124.676 126.986 124.652 126.869 124.605C126.756 124.555 126.656 124.488 126.57 124.406C126.387 124.227 126.295 124.01 126.295 123.756C126.295 123.506 126.387 123.289 126.57 123.105C126.754 122.922 126.977 122.83 127.238 122.83C127.488 122.83 127.707 122.922 127.895 123.105C128.078 123.281 128.17 123.498 128.17 123.756ZM137.943 131.314C138.006 131.342 138.084 131.355 138.178 131.355C138.271 131.355 138.428 131.328 138.646 131.273L138.576 132H135.348L135.453 131.355C135.832 131.355 136.09 131.254 136.227 131.051C136.34 130.875 136.396 130.553 136.396 130.084V127.746H132.072V130.424C132.072 130.842 132.09 131.094 132.125 131.18C132.164 131.262 132.207 131.312 132.254 131.332C132.305 131.348 132.383 131.355 132.488 131.355C132.684 131.355 132.906 131.324 133.156 131.262L133.068 132H129.77L129.869 131.355C130.26 131.355 130.516 131.27 130.637 131.098C130.746 130.949 130.801 130.65 130.801 130.201V124.846C130.801 124.092 130.635 123.715 130.303 123.715C130.162 123.715 130.01 123.732 129.846 123.768L129.916 123.035H133.039L132.951 123.715C132.771 123.715 132.625 123.725 132.512 123.744C132.398 123.764 132.309 123.812 132.242 123.891C132.129 124.031 132.072 124.375 132.072 124.922V127.008H136.396V124.887C136.396 124.395 136.369 124.09 136.314 123.973C136.264 123.855 136.207 123.783 136.145 123.756C136.082 123.729 135.992 123.715 135.875 123.715C135.691 123.715 135.496 123.738 135.289 123.785L135.4 123.035H138.658L138.576 123.715C138.232 123.715 138 123.787 137.879 123.932C137.734 124.1 137.662 124.42 137.662 124.893V130.488C137.662 130.957 137.756 131.232 137.943 131.314ZM139.912 128.461C139.912 127.934 140.01 127.449 140.205 127.008C140.4 126.562 140.662 126.184 140.99 125.871C141.666 125.234 142.496 124.916 143.48 124.916C144.434 124.916 145.189 125.232 145.748 125.865C146.283 126.471 146.551 127.26 146.551 128.232C146.551 129.338 146.203 130.262 145.508 131.004C144.824 131.727 143.982 132.088 142.982 132.088C141.998 132.088 141.23 131.738 140.68 131.039C140.168 130.395 139.912 129.535 139.912 128.461ZM143.246 131.344C143.543 131.344 143.805 131.291 144.031 131.186C144.262 131.08 144.461 130.918 144.629 130.699C144.996 130.234 145.18 129.562 145.18 128.684C145.18 127.746 145 127.002 144.641 126.451C144.277 125.9 143.783 125.625 143.158 125.625C142.607 125.625 142.16 125.84 141.816 126.27C141.437 126.742 141.248 127.42 141.248 128.303C141.248 129.221 141.426 129.953 141.781 130.5C142.145 131.062 142.633 131.344 143.246 131.344ZM150.025 122.01C149.943 122.436 149.902 123.291 149.902 124.576V124.998L149.914 130.605C149.914 130.926 149.937 131.125 149.984 131.203C150.059 131.32 150.189 131.379 150.377 131.379C150.639 131.379 150.867 131.357 151.062 131.314L150.969 132H147.576L147.676 131.379C148.082 131.379 148.342 131.334 148.455 131.244C148.572 131.154 148.646 131.062 148.678 130.969C148.713 130.871 148.73 130.752 148.73 130.611V124.002C148.73 123.67 148.709 123.463 148.666 123.381C148.627 123.299 148.59 123.238 148.555 123.199C148.523 123.156 148.473 123.123 148.402 123.1C148.336 123.072 148.258 123.055 148.168 123.047C148.043 123.031 147.836 123.023 147.547 123.023L147.617 122.355L150.025 122.01ZM157.232 126.896L157.139 130.008C157.139 130.426 157.266 130.727 157.52 130.91C157.695 131.039 157.92 131.104 158.193 131.104C158.178 131.303 158.098 131.482 157.953 131.643C157.699 131.924 157.492 132.086 157.332 132.129C157.09 132.129 156.861 132.047 156.646 131.883C156.436 131.719 156.271 131.479 156.154 131.162C155.709 131.584 155.164 131.883 154.52 132.059C154.34 132.109 154.129 132.135 153.887 132.135C153.648 132.135 153.393 132.09 153.119 132C152.85 131.906 152.623 131.775 152.439 131.607C152.068 131.268 151.883 130.805 151.883 130.219C151.883 129.508 152.281 128.955 153.078 128.561C153.82 128.193 154.797 128.01 156.008 128.01H156.072C156.072 127.764 156.068 127.523 156.061 127.289L156.055 127.055C156.035 126.582 155.865 126.223 155.545 125.977C155.291 125.781 154.979 125.684 154.607 125.684C154.236 125.684 153.937 125.783 153.711 125.982C153.484 126.178 153.371 126.461 153.371 126.832C153.371 126.969 153.387 127.115 153.418 127.271H152.369L152.328 127.26C152.316 127.197 152.305 127.131 152.293 127.061C152.258 126.893 152.229 126.719 152.205 126.539C152.186 126.355 152.176 126.234 152.176 126.176C152.176 126.09 152.191 126.027 152.223 125.988C153.234 125.273 154.225 124.916 155.193 124.916C156.139 124.916 156.762 125.26 157.062 125.947C157.176 126.201 157.232 126.518 157.232 126.896ZM156.008 130.236C156.035 129.744 156.055 129.217 156.066 128.654C156.023 128.639 155.893 128.631 155.674 128.631C155.459 128.631 155.186 128.666 154.854 128.736C154.525 128.803 154.238 128.9 153.992 129.029C153.469 129.307 153.207 129.678 153.207 130.143C153.207 130.467 153.312 130.738 153.523 130.957C153.738 131.176 154.016 131.285 154.355 131.285C154.777 131.285 155.211 131.096 155.656 130.717C155.789 130.604 155.906 130.484 156.008 130.359V130.236ZM159.975 129.48L159.846 129.486L159.465 122.555C159.586 122.387 159.973 122.234 160.625 122.098C160.777 122.066 160.891 122.051 160.965 122.051L161.129 122.35L160.648 129.334C160.465 129.424 160.24 129.473 159.975 129.48ZM159.318 131.244C159.318 130.986 159.41 130.77 159.594 130.594C159.781 130.414 159.969 130.324 160.156 130.324C160.348 130.324 160.5 130.35 160.613 130.4C160.73 130.447 160.832 130.512 160.918 130.594C161.102 130.773 161.193 130.99 161.193 131.244C161.193 131.494 161.102 131.711 160.918 131.895C160.734 132.078 160.512 132.17 160.25 132.17C160 132.17 159.781 132.078 159.594 131.895C159.41 131.719 159.318 131.502 159.318 131.244Z" fill="#2C5058"/>
</svg>
