<svg width="234" height="234" viewBox="0 0 234 234" fill="none" xmlns="http://www.w3.org/2000/svg">
<path d="M82.3003 116.5C82.3003 115.699 81.651 115.05 80.8501 115.05H68.4502C67.6493 115.05 67 115.699 67 116.5C67 117.301 67.6493 117.95 68.4502 117.95H80.8501C81.651 117.95 82.3003 117.301 82.3003 116.5Z" fill="#2C5058"/>
<path d="M164.55 115.05H152.15C151.349 115.05 150.7 115.699 150.7 116.5C150.7 117.301 151.349 117.95 152.15 117.95H164.55C165.351 117.95 166 117.301 166 116.5C166 115.699 165.351 115.05 164.55 115.05Z" fill="#2C5058"/>
<path d="M116.5 82.3003C117.301 82.3003 117.95 81.6512 117.95 80.8501V68.4502C117.95 67.6493 117.301 67 116.5 67C115.699 67 115.05 67.6493 115.05 68.4502V80.8501C115.05 81.651 115.699 82.3003 116.5 82.3003Z" fill="#2C5058"/>
<path d="M116.5 150.7C115.699 150.7 115.05 151.349 115.05 152.15V164.55C115.05 165.351 115.699 166 116.5 166C117.301 166 117.95 165.351 117.95 164.55V152.15C117.95 151.349 117.301 150.7 116.5 150.7Z" fill="#2C5058"/>
<path d="M90.2663 92.3173C90.5494 92.6004 90.9207 92.7419 91.2917 92.7419C91.6628 92.7419 92.034 92.6004 92.3171 92.3173C92.8834 91.751 92.8834 90.8327 92.3171 90.2665L83.549 81.4981C82.9827 80.9317 82.0644 80.9317 81.4982 81.4981C80.9319 82.0644 80.9319 82.9827 81.4982 83.5489L90.2663 92.3173Z" fill="#2C5058"/>
<path d="M142.734 140.683C142.167 140.116 141.249 140.116 140.683 140.683C140.117 141.249 140.117 142.167 140.683 142.734L149.451 151.502C149.734 151.785 150.105 151.927 150.476 151.927C150.847 151.927 151.219 151.785 151.502 151.502C152.068 150.936 152.068 150.017 151.502 149.451L142.734 140.683Z" fill="#2C5058"/>
<path d="M141.708 92.7419C142.08 92.7419 142.451 92.6004 142.734 92.3173L151.502 83.5491C152.068 82.9827 152.068 82.0644 151.502 81.4983C150.935 80.9319 150.017 80.9319 149.451 81.4983L140.683 90.2666C140.117 90.8329 140.117 91.7512 140.683 92.3173C140.966 92.6004 141.337 92.7419 141.708 92.7419Z" fill="#2C5058"/>
<path d="M90.2663 140.683L81.4982 149.451C80.9319 150.017 80.9319 150.936 81.4982 151.502C81.7813 151.785 82.1526 151.926 82.5236 151.926C82.8947 151.926 83.2659 151.785 83.549 151.502L92.3171 142.733C92.8834 142.167 92.8834 141.249 92.3171 140.682C91.7507 140.117 90.8325 140.117 90.2663 140.683Z" fill="#2C5058"/>
<path d="M101.518 84.1187C101.749 84.6773 102.289 85.0143 102.858 85.0143C103.043 85.0143 103.231 84.9788 103.412 84.9037C104.152 84.5973 104.504 83.7488 104.197 83.0088L101.825 77.2809C101.518 76.5409 100.67 76.1898 99.9299 76.4961C99.1899 76.8026 98.8386 77.651 99.1451 78.391L101.518 84.1187Z" fill="#2C5058"/>
<path d="M131.482 148.881C131.176 148.141 130.328 147.79 129.588 148.096C128.848 148.403 128.496 149.251 128.803 149.991L131.176 155.719C131.407 156.278 131.947 156.615 132.516 156.615C132.701 156.615 132.889 156.579 133.07 156.504C133.81 156.198 134.162 155.349 133.855 154.609L131.482 148.881Z" fill="#2C5058"/>
<path d="M148.096 103.412C148.328 103.971 148.868 104.308 149.437 104.308C149.622 104.308 149.81 104.272 149.991 104.197L155.719 101.824C156.459 101.518 156.81 100.67 156.504 99.9297C156.198 99.1897 155.349 98.8386 154.609 99.1448L148.881 101.518C148.141 101.824 147.79 102.672 148.096 103.412Z" fill="#2C5058"/>
<path d="M84.9037 129.588C84.5973 128.848 83.749 128.496 83.009 128.803L77.2809 131.175C76.5409 131.482 76.1896 132.33 76.4961 133.07C76.7273 133.629 77.2674 133.966 77.8364 133.966C78.0215 133.966 78.2094 133.93 78.3908 133.855L84.1189 131.482C84.8587 131.176 85.2102 130.328 84.9037 129.588Z" fill="#2C5058"/>
<path d="M129.588 84.9037C129.769 84.9789 129.957 85.0143 130.142 85.0143C130.711 85.0143 131.251 84.6773 131.482 84.1187L133.855 78.3908C134.161 77.6508 133.81 76.8025 133.07 76.4959C132.33 76.1896 131.482 76.5407 131.175 77.2807L128.803 83.0086C128.496 83.7488 128.848 84.5971 129.588 84.9037Z" fill="#2C5058"/>
<path d="M103.412 148.096C102.673 147.79 101.824 148.141 101.518 148.881L99.1449 154.609C98.8384 155.349 99.1897 156.197 99.9297 156.504C100.111 156.579 100.299 156.615 100.484 156.615C101.053 156.615 101.593 156.278 101.824 155.719L104.197 149.991C104.504 149.251 104.152 148.403 103.412 148.096Z" fill="#2C5058"/>
<path d="M155.719 131.175L149.991 128.803C149.251 128.496 148.403 128.848 148.096 129.588C147.79 130.327 148.141 131.176 148.881 131.482L154.609 133.855C154.791 133.93 154.979 133.966 155.164 133.966C155.733 133.966 156.273 133.629 156.504 133.07C156.811 132.33 156.459 131.482 155.719 131.175Z" fill="#2C5058"/>
<path d="M77.2808 101.825L83.0088 104.197C83.1904 104.273 83.3783 104.308 83.5632 104.308C84.1322 104.308 84.6723 103.971 84.9036 103.412C85.21 102.672 84.8587 101.824 84.1187 101.518L78.3908 99.145C77.6505 98.8387 76.8026 99.1899 76.4961 99.9299C76.1894 100.67 76.541 101.518 77.2808 101.825Z" fill="#2C5058"/>
<mask id="path-17-inside-1" fill="white">
<path d="M146.024 116.012C146.024 132.587 132.587 146.024 116.012 146.024C99.4367 146.024 86 132.587 86 116.012C86 99.4367 99.4367 86 116.012 86C132.587 86 146.024 99.4367 146.024 116.012ZM88.7546 116.012C88.7546 131.066 100.958 143.269 116.012 143.269C131.066 143.269 143.269 131.066 143.269 116.012C143.269 100.958 131.066 88.7546 116.012 88.7546C100.958 88.7546 88.7546 100.958 88.7546 116.012Z"/>
</mask>
<path d="M146.024 116.012C146.024 132.587 132.587 146.024 116.012 146.024C99.4367 146.024 86 132.587 86 116.012C86 99.4367 99.4367 86 116.012 86C132.587 86 146.024 99.4367 146.024 116.012ZM88.7546 116.012C88.7546 131.066 100.958 143.269 116.012 143.269C131.066 143.269 143.269 131.066 143.269 116.012C143.269 100.958 131.066 88.7546 116.012 88.7546C100.958 88.7546 88.7546 100.958 88.7546 116.012Z" stroke="#2C5058" stroke-width="2" mask="url(#path-17-inside-1)"/>
</svg>
