<svg width="234" height="234" viewBox="0 0 234 234" fill="none" xmlns="http://www.w3.org/2000/svg">
<path d="M141 98.5072C141 107.874 136.332 114.187 128.648 118.219C120.895 122.288 110.084 124.014 98 124.014C96.8573 124.014 95.6395 124.04 94.4093 124.067C91.9258 124.119 89.3919 124.173 87.3241 124.017C86.8504 123.982 86.4433 124.162 86.1477 124.344C85.8441 124.53 85.5504 124.784 85.273 125.052C84.8433 125.467 84.3491 126.022 83.8116 126.626C83.6634 126.792 83.5119 126.962 83.3575 127.134C81.8926 128.766 79.9744 130.788 77.3492 132.483C73.1065 135.221 69.1393 135.903 66.7583 135.99C66.7786 135.966 66.7991 135.942 66.8197 135.918C67.7681 134.799 69.0456 133.122 70.3886 130.867C71.7499 128.582 72.5288 126.34 72.7866 124.562C72.9145 123.679 72.9224 122.854 72.77 122.175C72.6258 121.533 72.2696 120.763 71.4565 120.475C66.3671 118.67 62.2664 116.091 59.4374 112.542C56.6186 109.006 55 104.43 55 98.5072C55 93.4277 56.1909 89.3437 58.2993 86.0597C60.4099 82.7723 63.4804 80.2238 67.3368 78.2838C75.0837 74.3864 85.8895 73 98 73C110.084 73 120.895 74.7262 128.648 78.7952C136.332 82.8279 141 89.141 141 98.5072Z" fill="white" stroke="#2F306F" stroke-width="2"/>
<path d="M65.5336 101.56C65.5336 100.972 66.1696 100.588 67.0696 100.588C67.5016 100.588 67.9096 100.66 68.2936 100.78C68.3056 100.936 68.3056 101.08 68.3056 101.2C68.3056 101.992 68.0056 102.508 66.9976 102.508C66.1336 102.508 65.5336 102.172 65.5336 101.56ZM69.1696 93.76H68.0896C68.1136 93.964 68.1376 94.288 68.1376 94.492V95.98C67.7656 95.992 67.3816 96.004 67.0096 96.004C66.2896 96.004 65.6536 95.968 64.9696 95.908V96.808C65.6776 96.856 66.3016 96.892 66.9856 96.892C67.3696 96.892 67.7536 96.88 68.1376 96.868C68.1496 97.852 68.2216 99.028 68.2576 99.952C67.9096 99.88 67.5376 99.844 67.1416 99.844C65.5696 99.844 64.6696 100.648 64.6696 101.656C64.6696 102.736 65.5576 103.372 67.1656 103.372C68.7856 103.372 69.2416 102.424 69.2416 101.44C69.2416 101.356 69.2416 101.272 69.2416 101.188C69.8536 101.536 70.4536 102.016 71.0536 102.58L71.5816 101.776C70.9576 101.212 70.1776 100.612 69.2056 100.228C69.1576 99.22 69.0736 98.02 69.0616 96.808C69.7816 96.76 70.4776 96.688 71.1376 96.58V95.656C70.5016 95.776 69.7936 95.872 69.0616 95.932C69.0736 95.368 69.0856 94.804 69.0976 94.48C69.1096 94.24 69.1336 94 69.1696 93.76ZM63.2416 93.832L62.1856 93.748C62.1856 94 62.1496 94.324 62.1136 94.6C61.9576 95.596 61.5616 97.888 61.5616 99.652C61.5616 101.272 61.7776 102.592 62.0176 103.444L62.8576 103.384C62.8456 103.252 62.8336 103.084 62.8336 102.964C62.8216 102.82 62.8456 102.592 62.8816 102.424C63.0016 101.836 63.4456 100.612 63.7336 99.772L63.2416 99.388C63.0376 99.88 62.7496 100.612 62.5576 101.152C62.4736 100.564 62.4376 100.06 62.4376 99.484C62.4376 98.14 62.7976 95.764 63.0376 94.648C63.0736 94.432 63.1696 94.036 63.2416 93.832ZM79.4296 94.72L78.7456 95.008C79.1416 95.56 79.5616 96.316 79.8736 96.952L80.5816 96.628C80.2936 96.052 79.7296 95.152 79.4296 94.72ZM80.9776 94.108L80.3056 94.42C80.7136 94.948 81.1576 95.692 81.4696 96.316L82.1656 95.98C81.8776 95.428 81.3016 94.528 80.9776 94.108ZM76.1056 93.736L74.8936 93.724C74.9656 94.072 75.0016 94.504 75.0016 94.948C75.0016 96.196 74.8696 99.244 74.8696 101.02C74.8696 102.976 76.0696 103.696 77.7976 103.696C80.4256 103.696 81.9736 102.184 82.8016 101.044L82.1176 100.228C81.2656 101.476 80.0176 102.712 77.8216 102.712C76.6816 102.712 75.8536 102.244 75.8536 100.924C75.8536 99.136 75.9496 96.292 75.9976 94.948C76.0096 94.552 76.0456 94.132 76.1056 93.736ZM92.2096 93.712L91.1776 93.616C91.1776 93.892 91.1416 94.288 91.1056 94.528C91.0576 94.816 90.9856 95.104 90.9136 95.404C89.8696 95.416 88.8496 95.656 87.8296 96.256C87.7216 95.92 87.6136 95.596 87.5416 95.32C87.4576 94.984 87.3616 94.588 87.3016 94.252L86.3056 94.576C86.4496 94.888 86.5936 95.284 86.7016 95.656C86.8096 96.016 86.9296 96.388 87.0616 96.76C85.9696 97.648 85.2136 99.1 85.2136 100.48C85.2136 101.884 85.9696 102.64 86.8816 102.64C87.7816 102.64 88.5136 102.04 89.2576 101.14C89.4376 101.392 89.6296 101.62 89.8216 101.836L90.5776 101.212C90.3256 100.972 90.0736 100.684 89.8336 100.372C90.5176 99.388 91.1296 97.816 91.5856 96.292C93.1336 96.556 94.1056 97.732 94.1056 99.292C94.1056 101.14 92.7136 102.46 90.2056 102.676L90.7696 103.528C93.3376 103.168 95.0536 101.716 95.0536 99.328C95.0536 97.264 93.7336 95.788 91.8136 95.476C91.8856 95.188 91.9456 94.912 92.0056 94.648C92.0536 94.42 92.1256 94.012 92.2096 93.712ZM86.0776 100.408C86.0776 99.472 86.5816 98.368 87.3736 97.624C87.7216 98.536 88.1056 99.388 88.4536 99.928C88.5496 100.084 88.6336 100.24 88.7296 100.384C88.2016 101.092 87.5656 101.692 86.9776 101.692C86.4376 101.692 86.0776 101.2 86.0776 100.408ZM89.0416 99.172C88.7536 98.692 88.4056 97.888 88.1056 97.06C88.8976 96.568 89.7496 96.28 90.6856 96.232C90.3136 97.468 89.7976 98.716 89.2816 99.568C89.1976 99.436 89.1136 99.304 89.0416 99.172ZM99.2536 101.74C99.2536 101.188 99.8776 100.744 101.018 100.744C101.414 100.744 101.81 100.78 102.182 100.864C102.182 101.176 102.194 101.464 102.194 101.668C102.194 102.496 101.606 102.712 100.922 102.712C99.7336 102.712 99.2536 102.292 99.2536 101.74ZM103.058 93.472H102.038C102.062 93.64 102.086 93.988 102.086 94.192C102.086 94.444 102.086 94.732 102.086 95.044C101.894 95.044 101.714 95.044 101.534 95.044C100.73 95.044 99.2416 94.924 98.4616 94.78L98.4736 95.668C99.2296 95.752 100.706 95.872 101.546 95.872C101.726 95.872 101.906 95.872 102.074 95.872C102.074 96.364 102.074 96.892 102.074 97.372C102.074 97.432 102.074 97.492 102.074 97.552C101.858 97.552 101.642 97.552 101.426 97.552C100.634 97.552 99.2656 97.468 98.4016 97.324L98.4136 98.224C99.2776 98.32 100.598 98.392 101.414 98.392C101.642 98.392 101.87 98.392 102.098 98.392C102.11 98.908 102.134 99.484 102.146 100.024C101.822 99.976 101.486 99.952 101.138 99.952C99.4096 99.952 98.3656 100.696 98.3656 101.788C98.3656 102.94 99.3016 103.552 101.03 103.552C102.59 103.552 103.142 102.7 103.142 101.872C103.142 101.68 103.13 101.428 103.118 101.128C104.318 101.56 105.314 102.292 106.022 102.94L106.574 102.088C105.89 101.524 104.666 100.648 103.07 100.216C103.046 99.64 103.01 98.992 102.986 98.368C104.126 98.332 105.182 98.236 106.31 98.092L106.322 97.192C105.23 97.36 104.138 97.468 102.974 97.516C102.974 97.468 102.974 97.42 102.974 97.372C102.974 96.928 102.974 96.364 102.974 95.836C104.126 95.776 105.266 95.668 106.214 95.56L106.226 94.684C105.146 94.852 104.054 94.96 102.974 95.008C102.974 94.696 102.986 94.432 102.986 94.276C102.998 93.928 103.022 93.688 103.058 93.472ZM112.262 93.652L111.05 93.64C111.122 93.988 111.146 94.42 111.146 94.864C111.146 96.124 111.026 99.16 111.026 100.936C111.026 102.892 112.214 103.612 113.942 103.612C116.582 103.612 118.13 102.1 118.958 100.96L118.274 100.144C117.41 101.392 116.174 102.628 113.978 102.628C112.838 102.628 112.01 102.16 112.01 100.84C112.01 99.052 112.094 96.22 112.154 94.864C112.166 94.468 112.202 94.048 112.262 93.652ZM120.838 95.032L120.946 96.076C122.242 95.8 125.302 95.512 126.586 95.368C125.482 96.028 124.342 97.552 124.342 99.424C124.342 102.1 126.874 103.288 129.094 103.372L129.442 102.376C127.486 102.304 125.302 101.56 125.302 99.208C125.302 97.792 126.346 95.968 128.05 95.416C128.662 95.236 129.718 95.224 130.402 95.224V94.264C129.598 94.3 128.47 94.36 127.162 94.48C124.954 94.66 122.686 94.888 121.906 94.972C121.678 94.996 121.294 95.02 120.838 95.032Z" fill="#2F306F"/>
<path d="M176.316 162.57L176.316 162.57L176.316 162.571L176.317 162.571L176.317 162.571L177.84 163.94L175.822 164.298C174.329 164.564 169.025 164.704 163.283 161.01C160.738 159.373 158.902 157.434 157.576 155.961C157.42 155.788 157.273 155.623 157.134 155.468C156.669 154.948 156.296 154.531 155.971 154.218C155.763 154.017 155.617 153.902 155.521 153.843C155.515 153.84 155.51 153.837 155.505 153.834C153.6 153.97 151.225 153.92 149.008 153.873C147.946 153.851 146.92 153.83 146 153.83C135.165 153.83 125.226 152.296 117.959 148.495C110.624 144.659 106 138.492 106 129.415C106 120.338 110.624 114.171 117.959 110.334C125.226 106.534 135.165 105 146 105C156.809 105 166.753 106.221 174.025 109.868C177.679 111.699 180.686 114.157 182.776 117.401C184.868 120.648 186 124.621 186 129.415C186 135.014 184.455 139.487 181.655 142.988C178.884 146.451 174.946 148.888 170.257 150.56C170.242 150.593 170.223 150.649 170.203 150.735C170.137 151.03 170.12 151.508 170.215 152.159C170.402 153.447 170.994 155.194 172.094 157.034C173.225 158.928 174.295 160.325 175.075 161.242C175.465 161.701 175.783 162.039 175.999 162.26C176.107 162.37 176.19 162.451 176.244 162.503C176.271 162.529 176.291 162.547 176.303 162.558L176.315 162.57L176.316 162.57ZM155.463 153.813C155.463 153.813 155.465 153.813 155.468 153.814C155.465 153.813 155.463 153.813 155.463 153.813ZM170.281 150.515C170.281 150.515 170.278 150.518 170.274 150.525C170.279 150.519 170.281 150.516 170.281 150.515Z" fill="white" stroke="#2F306F" stroke-width="2"/>
<path d="M127.514 125.52L127.643 125.514L128.023 132.445C127.902 132.613 127.516 132.766 126.863 132.902C126.711 132.934 126.598 132.949 126.523 132.949L126.359 132.65L126.84 125.666C127.023 125.576 127.248 125.527 127.514 125.52ZM128.17 123.756C128.17 124.014 128.078 124.23 127.895 124.406C127.707 124.586 127.518 124.676 127.326 124.676C127.139 124.676 126.986 124.652 126.869 124.605C126.756 124.555 126.656 124.488 126.57 124.406C126.387 124.227 126.295 124.01 126.295 123.756C126.295 123.506 126.387 123.289 126.57 123.105C126.754 122.922 126.977 122.83 127.238 122.83C127.488 122.83 127.707 122.922 127.895 123.105C128.078 123.281 128.17 123.498 128.17 123.756ZM137.943 131.314C138.006 131.342 138.084 131.355 138.178 131.355C138.271 131.355 138.428 131.328 138.646 131.273L138.576 132H135.348L135.453 131.355C135.832 131.355 136.09 131.254 136.227 131.051C136.34 130.875 136.396 130.553 136.396 130.084V127.746H132.072V130.424C132.072 130.842 132.09 131.094 132.125 131.18C132.164 131.262 132.207 131.312 132.254 131.332C132.305 131.348 132.383 131.355 132.488 131.355C132.684 131.355 132.906 131.324 133.156 131.262L133.068 132H129.77L129.869 131.355C130.26 131.355 130.516 131.27 130.637 131.098C130.746 130.949 130.801 130.65 130.801 130.201V124.846C130.801 124.092 130.635 123.715 130.303 123.715C130.162 123.715 130.01 123.732 129.846 123.768L129.916 123.035H133.039L132.951 123.715C132.771 123.715 132.625 123.725 132.512 123.744C132.398 123.764 132.309 123.812 132.242 123.891C132.129 124.031 132.072 124.375 132.072 124.922V127.008H136.396V124.887C136.396 124.395 136.369 124.09 136.314 123.973C136.264 123.855 136.207 123.783 136.145 123.756C136.082 123.729 135.992 123.715 135.875 123.715C135.691 123.715 135.496 123.738 135.289 123.785L135.4 123.035H138.658L138.576 123.715C138.232 123.715 138 123.787 137.879 123.932C137.734 124.1 137.662 124.42 137.662 124.893V130.488C137.662 130.957 137.756 131.232 137.943 131.314ZM139.912 128.461C139.912 127.934 140.01 127.449 140.205 127.008C140.4 126.562 140.662 126.184 140.99 125.871C141.666 125.234 142.496 124.916 143.48 124.916C144.434 124.916 145.189 125.232 145.748 125.865C146.283 126.471 146.551 127.26 146.551 128.232C146.551 129.338 146.203 130.262 145.508 131.004C144.824 131.727 143.982 132.088 142.982 132.088C141.998 132.088 141.23 131.738 140.68 131.039C140.168 130.395 139.912 129.535 139.912 128.461ZM143.246 131.344C143.543 131.344 143.805 131.291 144.031 131.186C144.262 131.08 144.461 130.918 144.629 130.699C144.996 130.234 145.18 129.562 145.18 128.684C145.18 127.746 145 127.002 144.641 126.451C144.277 125.9 143.783 125.625 143.158 125.625C142.607 125.625 142.16 125.84 141.816 126.27C141.437 126.742 141.248 127.42 141.248 128.303C141.248 129.221 141.426 129.953 141.781 130.5C142.145 131.062 142.633 131.344 143.246 131.344ZM150.025 122.01C149.943 122.436 149.902 123.291 149.902 124.576V124.998L149.914 130.605C149.914 130.926 149.937 131.125 149.984 131.203C150.059 131.32 150.189 131.379 150.377 131.379C150.639 131.379 150.867 131.357 151.062 131.314L150.969 132H147.576L147.676 131.379C148.082 131.379 148.342 131.334 148.455 131.244C148.572 131.154 148.646 131.062 148.678 130.969C148.713 130.871 148.73 130.752 148.73 130.611V124.002C148.73 123.67 148.709 123.463 148.666 123.381C148.627 123.299 148.59 123.238 148.555 123.199C148.523 123.156 148.473 123.123 148.402 123.1C148.336 123.072 148.258 123.055 148.168 123.047C148.043 123.031 147.836 123.023 147.547 123.023L147.617 122.355L150.025 122.01ZM157.232 126.896L157.139 130.008C157.139 130.426 157.266 130.727 157.52 130.91C157.695 131.039 157.92 131.104 158.193 131.104C158.178 131.303 158.098 131.482 157.953 131.643C157.699 131.924 157.492 132.086 157.332 132.129C157.09 132.129 156.861 132.047 156.646 131.883C156.436 131.719 156.271 131.479 156.154 131.162C155.709 131.584 155.164 131.883 154.52 132.059C154.34 132.109 154.129 132.135 153.887 132.135C153.648 132.135 153.393 132.09 153.119 132C152.85 131.906 152.623 131.775 152.439 131.607C152.068 131.268 151.883 130.805 151.883 130.219C151.883 129.508 152.281 128.955 153.078 128.561C153.82 128.193 154.797 128.01 156.008 128.01H156.072C156.072 127.764 156.068 127.523 156.061 127.289L156.055 127.055C156.035 126.582 155.865 126.223 155.545 125.977C155.291 125.781 154.979 125.684 154.607 125.684C154.236 125.684 153.937 125.783 153.711 125.982C153.484 126.178 153.371 126.461 153.371 126.832C153.371 126.969 153.387 127.115 153.418 127.271H152.369L152.328 127.26C152.316 127.197 152.305 127.131 152.293 127.061C152.258 126.893 152.229 126.719 152.205 126.539C152.186 126.355 152.176 126.234 152.176 126.176C152.176 126.09 152.191 126.027 152.223 125.988C153.234 125.273 154.225 124.916 155.193 124.916C156.139 124.916 156.762 125.26 157.062 125.947C157.176 126.201 157.232 126.518 157.232 126.896ZM156.008 130.236C156.035 129.744 156.055 129.217 156.066 128.654C156.023 128.639 155.893 128.631 155.674 128.631C155.459 128.631 155.186 128.666 154.854 128.736C154.525 128.803 154.238 128.9 153.992 129.029C153.469 129.307 153.207 129.678 153.207 130.143C153.207 130.467 153.312 130.738 153.523 130.957C153.738 131.176 154.016 131.285 154.355 131.285C154.777 131.285 155.211 131.096 155.656 130.717C155.789 130.604 155.906 130.484 156.008 130.359V130.236ZM159.975 129.48L159.846 129.486L159.465 122.555C159.586 122.387 159.973 122.234 160.625 122.098C160.777 122.066 160.891 122.051 160.965 122.051L161.129 122.35L160.648 129.334C160.465 129.424 160.24 129.473 159.975 129.48ZM159.318 131.244C159.318 130.986 159.41 130.77 159.594 130.594C159.781 130.414 159.969 130.324 160.156 130.324C160.348 130.324 160.5 130.35 160.613 130.4C160.73 130.447 160.832 130.512 160.918 130.594C161.102 130.773 161.193 130.99 161.193 131.244C161.193 131.494 161.102 131.711 160.918 131.895C160.734 132.078 160.512 132.17 160.25 132.17C160 132.17 159.781 132.078 159.594 131.895C159.41 131.719 159.318 131.502 159.318 131.244Z" fill="#2F306F"/>
</svg>
