<svg width="234" height="234" viewBox="0 0 234 234" fill="none" xmlns="http://www.w3.org/2000/svg">
<path d="M101.026 95.0921C90.1197 96.2625 80.6548 97.2811 80.0011 97.3615C78.7833 97.5044 78.3535 97.6474 78.1923 97.9422C78.058 98.1924 78.5057 98.5319 79.249 98.7463C79.5803 98.8446 84.2814 100.113 89.6988 101.57C95.1163 103.026 99.6293 104.241 99.7278 104.286C99.898 104.357 99.9159 104.616 100.274 112.657C100.471 117.223 100.623 120.975 100.614 120.984C100.605 121.002 97.7579 120.43 94.3014 119.716C88.2124 118.447 88.0064 118.393 87.693 118.125C87.3169 117.795 86.5379 117.428 86.0812 117.366C85.8932 117.339 85.6156 117.375 85.4455 117.446L85.1321 117.58L78.1028 114.596C74.2345 112.952 70.7154 111.487 70.2676 111.344C68.2081 110.647 66.1486 111.219 64.0801 113.059C62.7727 114.221 61.8415 115.588 61.3042 117.116C60.955 118.116 60.9013 119.51 61.1699 120.502C61.6355 122.208 62.6653 123.468 64.1875 124.21C64.492 124.362 68.0648 125.505 72.1212 126.756L79.4907 129.034L79.9922 129.517L80.4936 130.008L80.1713 130.098C79.9922 130.151 79.3743 130.294 78.7833 130.419C77.664 130.66 77.2342 130.839 76.6343 131.313C76.4283 131.473 76.0522 131.733 75.7925 131.902C75.318 132.197 75.1478 132.438 75.1478 132.832C75.1478 132.948 75.0672 133.108 74.9777 133.189C74.7001 133.439 74.5658 133.841 74.7001 134.002C74.7986 134.118 74.7538 134.136 74.4136 134.136C73.9031 134.136 72.6227 133.913 72.1391 133.752C71.8973 133.662 71.575 133.636 71.1273 133.671C70.3751 133.725 70.393 133.85 71.1631 133.913C71.4586 133.93 72.0227 134.038 72.4167 134.145C72.8823 134.261 73.5808 134.35 74.4315 134.395C75.5955 134.449 75.7746 134.484 76.1955 134.699C76.4462 134.833 76.688 134.985 76.7238 135.038C76.8671 135.28 77.5297 135.476 78.2371 135.485H78.9535L78.2371 135.842C77.8521 136.03 77.4849 136.191 77.4223 136.191C77.3685 136.191 77.27 136.253 77.2073 136.325C77.1447 136.396 76.9477 136.495 76.7686 136.548C76.5895 136.593 76.3656 136.691 76.2671 136.754C76.1149 136.87 76.1418 136.879 76.5089 136.87C76.7417 136.861 76.9924 136.79 77.082 136.727C77.2163 136.602 77.2253 136.611 77.1715 136.816L77.1178 137.04L77.2253 136.825C77.2969 136.682 77.7446 136.423 78.6311 135.994L79.9385 135.36L80.8518 135.414C82.186 135.485 82.786 135.378 83.8157 134.86C84.2903 134.618 85.0246 134.315 85.4455 134.181C86.4125 133.868 86.8513 133.645 87.1647 133.314L87.4154 133.046L93.9253 136.781C97.5161 138.827 100.677 140.605 100.964 140.721C101.617 140.989 102.701 141.078 103.363 140.926C105.477 140.444 107.832 138.237 109.291 135.378C109.497 134.958 109.694 134.681 109.757 134.708C110.205 134.878 111.861 135.342 112.936 135.601C116.509 136.468 119.84 136.879 124.084 136.968C130.352 137.102 136.092 136.253 140.372 134.565C144.205 133.055 146.479 131.045 146.801 128.882C146.855 128.552 147.285 123.513 147.76 117.679C148.234 111.844 148.646 107.055 148.664 107.029C148.736 106.966 157.413 104.473 157.574 104.473C157.663 104.473 157.807 104.67 157.95 104.974C158.138 105.385 158.183 105.662 158.227 106.43C158.272 107.502 158.218 108.217 157.663 114.033C157.153 119.358 157.18 119.126 157.045 119.126C156.983 119.126 156.857 119.206 156.759 119.314C156.625 119.457 156.616 119.528 156.705 119.662C156.795 119.805 156.786 119.85 156.625 119.939C156.32 120.1 156.096 120.743 155.998 121.78C155.872 123.084 155.416 125.514 155.156 126.354C154.789 127.489 154.861 127.846 155.487 128.105C156.105 128.355 157.251 128.436 157.592 128.248C157.86 128.114 157.959 127.489 157.878 126.443C157.824 125.603 157.887 123.611 158.03 121.654C158.102 120.779 158.039 120.386 157.789 120.127C157.627 119.948 157.618 119.912 157.744 119.787C157.932 119.608 157.923 119.582 157.663 119.305L157.448 119.081L157.798 116.088C158.836 107.261 158.89 105.912 158.299 104.715L158.093 104.295L158.55 104.161C158.8 104.08 161.666 103.258 164.916 102.32C168.167 101.382 171.211 100.498 171.677 100.355C173.253 99.881 173.566 99.4879 172.725 99.0501C172.375 98.8714 173.226 98.9786 157.484 97.156C127.836 93.7162 122.007 93.0461 121.442 93.0014C121.039 92.9657 114.888 93.6001 101.026 95.0921ZM86.8334 117.768C87.4423 118.054 87.7915 118.367 87.4065 118.286C87.2901 118.259 86.914 118.179 86.5827 118.099C86.2514 118.027 85.8484 117.902 85.6872 117.822C85.4276 117.679 85.4186 117.661 85.5798 117.598C85.92 117.464 86.2961 117.518 86.8334 117.768ZM80.8608 129.454C81.6488 129.696 81.6846 129.767 81.0399 129.883C80.7354 129.937 80.6638 129.91 80.3235 129.588C80.1086 129.392 79.9743 129.222 80.0191 129.222C80.0549 129.222 80.4399 129.329 80.8608 129.454Z" fill="white"/>
<path fill-rule="evenodd" clip-rule="evenodd" d="M101.155 96.2852C108.085 95.5392 113.086 95.0079 116.404 94.6676C118.063 94.4974 119.298 94.3754 120.141 94.2982C120.563 94.2596 120.882 94.2327 121.104 94.2167C121.3 94.2026 121.37 94.2015 121.37 94.2C121.37 94.1994 121.362 94.1989 121.348 94.1978C121.883 94.2401 127.671 94.9051 157.346 98.348C158.281 98.4562 159.157 98.5577 159.978 98.6527C164.737 99.2036 167.654 99.5411 169.456 99.756C168.185 100.126 166.42 100.637 164.584 101.167C163.624 101.444 162.693 101.712 161.852 101.955C159.916 102.512 158.454 102.934 158.201 103.012L156.388 103.544C156.212 103.593 156.014 103.648 155.8 103.708C154.959 103.944 153.855 104.258 152.754 104.574C151.654 104.89 150.555 105.208 149.726 105.452C149.312 105.573 148.962 105.677 148.712 105.753C148.589 105.79 148.484 105.822 148.407 105.847C148.37 105.859 148.33 105.872 148.295 105.884C148.279 105.89 148.251 105.9 148.22 105.913C148.206 105.919 148.176 105.931 148.14 105.949C148.14 105.949 148.008 106.009 147.875 106.125L147.755 106.229L147.666 106.362C147.574 106.501 147.532 106.629 147.524 106.653L147.524 106.655C147.509 106.699 147.5 106.735 147.496 106.752C147.49 106.778 147.486 106.799 147.483 106.814C147.482 106.821 147.481 106.826 147.48 106.829C147.476 106.856 147.473 106.878 147.471 106.888C147.468 106.912 147.465 106.938 147.463 106.959C147.458 107.005 147.452 107.066 147.445 107.14C147.431 107.289 147.411 107.504 147.387 107.777C147.338 108.323 147.27 109.108 147.187 110.074C147.023 112.005 146.801 114.663 146.564 117.581C146.326 120.497 146.1 123.214 145.927 125.242C145.84 126.257 145.767 127.097 145.712 127.705C145.684 128.008 145.662 128.252 145.644 128.428C145.627 128.607 145.618 128.681 145.617 128.689C145.617 128.69 145.617 128.69 145.617 128.689L145.616 128.698L145.615 128.706C145.508 129.421 145.061 130.227 144.108 131.069C143.157 131.91 141.765 132.726 139.932 133.448C135.843 135.062 130.272 135.9 124.11 135.768C119.94 135.681 116.696 135.279 113.219 134.435L113.217 134.435C112.151 134.178 110.575 133.732 110.19 133.589C109.726 133.408 109.333 133.568 109.195 133.636C109.031 133.717 108.918 133.817 108.863 133.869C108.745 133.98 108.654 134.102 108.595 134.187C108.467 134.37 108.337 134.599 108.218 134.84C107.548 136.15 106.678 137.3 105.752 138.167C104.813 139.047 103.879 139.578 103.096 139.756L103.095 139.757C102.925 139.796 102.621 139.816 102.261 139.785C101.903 139.755 101.597 139.684 101.419 139.61L101.414 139.609C101.417 139.61 101.407 139.604 101.382 139.591C101.314 139.556 101.139 139.464 100.824 139.291C100.437 139.079 99.9065 138.784 99.2704 138.428C97.9993 137.715 96.3147 136.761 94.5213 135.739C94.5207 135.739 94.5201 135.738 94.5194 135.738L87.1883 131.532L86.2939 132.488C86.2932 132.489 86.2924 132.49 86.2917 132.491C86.2031 132.583 86.0209 132.733 85.0786 133.038C84.5895 133.194 83.7989 133.522 83.2745 133.789C82.8168 134.019 82.5222 134.124 82.2291 134.178C81.9233 134.235 81.5517 134.249 80.919 134.215C80.918 134.215 80.917 134.215 80.916 134.215L79.6963 134.144L78.9998 134.482L78.9535 134.285H78.2454C77.9915 134.281 77.7623 134.243 77.6091 134.198C77.5943 134.194 77.5812 134.19 77.5698 134.186C77.483 134.096 77.4065 134.04 77.3878 134.026C77.3863 134.025 77.3852 134.024 77.3844 134.024C77.3182 133.974 77.248 133.927 77.1857 133.887C77.0586 133.806 76.9081 133.719 76.7612 133.641L76.7508 133.635L76.7403 133.63C76.5792 133.548 76.4202 133.474 76.2348 133.412C76.2812 133.293 76.3241 133.145 76.3406 132.977C76.3635 132.961 76.3916 132.943 76.4258 132.922L76.4376 132.914L76.4491 132.907C76.7181 132.731 77.1271 132.45 77.3728 132.258L77.3777 132.255C77.6168 132.066 77.7798 131.968 77.9747 131.887C78.1927 131.796 78.4926 131.709 79.034 131.593C79.6016 131.473 80.2544 131.323 80.5012 131.251L81.0802 131.091C81.1453 131.083 81.1999 131.073 81.2416 131.066L81.2526 131.064C81.41 131.036 81.619 130.995 81.7986 130.931C81.8381 130.917 81.9248 130.886 82.0288 130.828L82.8207 130.608L82.5351 130.329C82.5749 130.257 82.6108 130.176 82.6384 130.084C82.7303 129.779 82.6928 129.481 82.5902 129.242C82.4298 128.869 82.1338 128.687 82.0669 128.646L82.063 128.644C81.9518 128.575 81.8415 128.527 81.7649 128.496C81.6064 128.431 81.4111 128.368 81.212 128.307L81.2027 128.304C80.9872 128.24 80.7781 128.18 80.6156 128.135C80.5353 128.112 80.4603 128.092 80.3993 128.077C80.3699 128.07 80.3349 128.061 80.3004 128.054C80.2837 128.05 80.2576 128.045 80.2272 128.04L80.2256 128.039C80.2197 128.038 80.2037 128.036 80.1803 128.033L80.1174 127.972L72.4756 125.61C70.4505 124.985 68.5468 124.388 67.1138 123.928C66.3968 123.698 65.8008 123.504 65.3671 123.358C65.1498 123.285 64.9779 123.226 64.854 123.182C64.7452 123.143 64.7055 123.126 64.7052 123.127C64.7052 123.127 64.708 123.128 64.7131 123.131C63.5148 122.547 62.7065 121.574 62.3279 120.187C62.1245 119.435 62.1657 118.29 62.4368 117.512C62.9021 116.19 63.7119 114.992 64.8771 113.957C66.726 112.311 68.3475 111.961 69.883 112.481L69.8928 112.484L69.9025 112.487C69.9025 112.487 69.9024 112.487 69.9025 112.487C69.9035 112.487 69.909 112.489 69.9197 112.493C69.9322 112.497 69.949 112.504 69.9705 112.511C70.0137 112.527 70.0699 112.549 70.1397 112.576C70.2792 112.63 70.4629 112.703 70.6872 112.794C71.1353 112.975 71.734 113.221 72.4421 113.515C73.8576 114.103 75.7013 114.879 77.6334 115.701L85.118 118.878L85.1298 118.884L85.1515 118.895C85.444 119.041 85.9531 119.189 86.314 119.268C86.5647 119.329 86.86 119.394 87.0243 119.43C87.0779 119.442 87.1176 119.451 87.1372 119.456L87.1492 119.458L87.1612 119.461C87.2482 119.479 87.4031 119.507 87.5823 119.497L87.5848 119.497C87.6041 119.496 87.6522 119.493 87.7188 119.482C87.9374 119.557 88.2077 119.629 88.5499 119.712C89.4251 119.923 91.0235 120.258 94.0567 120.89L94.0584 120.891C95.7882 121.248 97.3665 121.571 98.5143 121.801C99.0878 121.916 99.556 122.009 99.8826 122.072C100.045 122.104 100.177 122.129 100.271 122.145C100.316 122.154 100.361 122.161 100.399 122.167C100.415 122.17 100.448 122.175 100.485 122.178C100.498 122.18 100.546 122.184 100.606 122.185C100.63 122.185 100.708 122.185 100.807 122.169C100.853 122.161 100.959 122.142 101.085 122.088C101.18 122.048 101.497 121.901 101.687 121.522L101.678 121.517C101.71 121.462 101.734 121.414 101.746 121.384C101.762 121.335 101.784 121.254 101.791 121.221C101.803 121.162 101.807 121.114 101.809 121.098C101.813 121.059 101.814 121.028 101.814 121.019C101.815 120.995 101.815 120.975 101.815 120.968C101.815 120.955 101.814 120.943 101.814 120.931C101.814 120.924 101.814 120.918 101.814 120.912C101.813 120.877 101.812 120.829 101.81 120.772C101.806 120.656 101.8 120.489 101.792 120.276C101.776 119.85 101.751 119.236 101.72 118.481C101.659 116.97 101.571 114.889 101.473 112.606L101.473 112.604C101.294 108.592 101.199 106.5 101.128 105.405C101.093 104.877 101.061 104.511 101.012 104.263C100.99 104.149 100.943 103.937 100.819 103.727C100.642 103.427 100.396 103.265 100.193 103.179C100.149 103.161 100.115 103.15 100.11 103.148C100.093 103.142 100.077 103.137 100.066 103.134C100.044 103.127 100.02 103.119 99.9973 103.113C99.9692 103.104 99.9356 103.095 99.8974 103.084C99.8722 103.077 99.8449 103.069 99.8158 103.061C99.6684 103.019 99.4598 102.962 99.1983 102.89C98.6746 102.746 97.9303 102.544 97.0211 102.299C95.2024 101.807 92.719 101.139 90.0104 100.411C86.9791 99.5959 84.1841 98.843 82.2509 98.3204C85.726 97.9425 93.034 97.1567 101.155 96.2852ZM79.2393 97.469C79.2223 97.472 79.2056 97.475 79.189 97.478C78.5743 97.5909 78.3108 97.7256 78.1923 97.9422C78.0673 98.1751 78.4466 98.4853 79.099 98.7001C79.1141 98.7051 79.1293 98.71 79.1447 98.7148C79.1787 98.7256 79.2135 98.7361 79.249 98.7463C79.5803 98.8446 84.2814 100.113 89.6988 101.57C95.1163 103.026 99.6293 104.241 99.7278 104.286C99.898 104.357 99.9159 104.616 100.274 112.657C100.403 115.649 100.513 118.291 100.571 119.76C100.571 119.769 100.572 119.777 100.572 119.785C100.602 120.543 100.617 120.981 100.614 120.984C100.611 120.991 100.173 120.908 99.4352 120.762C99.4261 120.76 99.417 120.758 99.4078 120.756C98.2558 120.527 96.3897 120.147 94.3014 119.716C91.1483 119.059 89.5728 118.728 88.743 118.524C87.9703 118.334 87.8441 118.255 87.693 118.125C87.6319 118.072 87.5602 118.017 87.4809 117.963C87.4789 117.961 87.4769 117.96 87.4749 117.959C87.3055 117.844 87.1026 117.731 86.8958 117.635C86.896 117.635 86.8957 117.635 86.8958 117.635C86.8356 117.607 86.7746 117.58 86.7145 117.555C86.71 117.554 86.7055 117.552 86.701 117.55C86.689 117.545 86.677 117.54 86.6651 117.535C86.6546 117.531 86.6441 117.527 86.6336 117.523C86.4311 117.444 86.2374 117.387 86.0812 117.366C86.0389 117.36 85.9921 117.357 85.943 117.357C85.935 117.357 85.927 117.357 85.9189 117.357C85.7821 117.36 85.6308 117.383 85.5114 117.422C85.5117 117.422 85.5111 117.422 85.5114 117.422C85.4884 117.429 85.4657 117.438 85.4455 117.446L85.1321 117.58L78.1028 114.596C74.2345 112.952 70.7154 111.487 70.2676 111.344C68.2081 110.647 66.1486 111.219 64.0801 113.059C62.7727 114.221 61.8415 115.588 61.3042 117.116C60.955 118.116 60.9013 119.51 61.1699 120.502C61.6355 122.208 62.6653 123.468 64.1875 124.21C64.492 124.362 68.0648 125.505 72.1212 126.756L79.4907 129.034L79.9922 129.517L80.4936 130.008L80.1713 130.098C80.1362 130.108 80.0843 130.122 80.0191 130.139C79.9481 130.157 79.8613 130.178 79.7633 130.201C79.7553 130.203 79.7472 130.205 79.7391 130.207C79.6173 130.235 79.4792 130.267 79.3331 130.3C79.2938 130.308 79.2539 130.317 79.2135 130.326C79.2074 130.327 79.2013 130.329 79.1951 130.33C79.1713 130.335 79.1473 130.341 79.1232 130.346C79.0111 130.371 78.8967 130.395 78.7833 130.419C77.664 130.66 77.2342 130.839 76.6343 131.313C76.4283 131.473 76.0522 131.733 75.7925 131.902C75.318 132.197 75.1478 132.438 75.1478 132.832C75.1478 132.948 75.0672 133.108 74.9777 133.189C74.9666 133.199 74.9558 133.209 74.9451 133.22C74.6898 133.471 74.5711 133.848 74.7001 134.002C74.7843 134.101 74.7638 134.129 74.5437 134.135C74.5429 134.135 74.542 134.135 74.5412 134.135C74.5126 134.135 74.4806 134.136 74.4451 134.136C74.4445 134.136 74.444 134.136 74.4434 134.136C74.4337 134.136 74.4238 134.136 74.4136 134.136C74.2123 134.136 73.8912 134.101 73.5466 134.049C73.5182 134.045 73.4897 134.041 73.4611 134.036C73.1257 133.983 72.7756 133.916 72.497 133.85C72.4949 133.849 72.4928 133.849 72.4907 133.848C72.3519 133.815 72.2311 133.782 72.1391 133.752C72.0325 133.712 71.9103 133.685 71.7685 133.67C71.6022 133.652 71.4091 133.651 71.183 133.667C71.1813 133.667 71.1796 133.667 71.1779 133.668C71.1612 133.669 71.1443 133.67 71.1273 133.671C70.3812 133.725 70.3928 133.848 71.1443 133.911C71.145 133.911 71.1457 133.911 71.1464 133.911C71.1519 133.912 71.1575 133.912 71.1631 133.913C71.3115 133.922 71.5277 133.953 71.7561 133.996C71.8462 134.013 71.9381 134.031 72.0286 134.051C72.032 134.052 72.0354 134.052 72.0389 134.053C72.172 134.082 72.3016 134.114 72.4167 134.145C72.7047 134.217 73.0816 134.278 73.5286 134.325C73.5433 134.327 73.558 134.328 73.5728 134.33C73.7818 134.351 74.0056 134.37 74.2424 134.384C74.2445 134.384 74.2467 134.385 74.2488 134.385C74.3031 134.388 74.358 134.391 74.4136 134.394C74.4195 134.394 74.4255 134.395 74.4315 134.395C75.2508 134.433 75.5822 134.462 75.8533 134.55C75.9674 134.588 76.0708 134.635 76.1955 134.699C76.4462 134.833 76.688 134.985 76.7238 135.038C76.7442 135.073 76.7752 135.106 76.8154 135.138C76.9141 135.217 77.0684 135.289 77.2577 135.345C77.31 135.361 77.365 135.376 77.4223 135.389C77.6136 135.434 77.8301 135.466 78.0556 135.479C78.0571 135.479 78.0585 135.479 78.06 135.479C78.1185 135.482 78.1777 135.484 78.2371 135.485H78.9535L78.4953 135.714L78.2371 135.842C78.2356 135.843 78.2341 135.844 78.2326 135.845C78.1985 135.861 78.1646 135.878 78.131 135.894C77.7868 136.058 77.4791 136.191 77.4223 136.191C77.3782 136.191 77.3041 136.233 77.2443 136.287C77.2311 136.299 77.2186 136.312 77.2073 136.325C77.1622 136.376 77.0473 136.442 76.9196 136.494C76.9184 136.495 76.9173 136.495 76.9161 136.496C76.9042 136.501 76.8922 136.506 76.8801 136.51C76.843 136.524 76.8054 136.537 76.7686 136.548C76.7484 136.553 76.7276 136.559 76.7065 136.565C76.6394 136.585 76.5691 136.611 76.5033 136.638C76.5022 136.638 76.5011 136.639 76.5 136.639C76.4993 136.639 76.4985 136.64 76.4977 136.64C76.4905 136.643 76.4834 136.646 76.4763 136.649C76.4509 136.66 76.4264 136.671 76.4033 136.682C76.348 136.707 76.3004 136.733 76.2671 136.754C76.2326 136.78 76.2073 136.801 76.1931 136.817C76.1843 136.827 76.1798 136.836 76.1799 136.843L76.2548 136.87C76.2781 136.872 76.3072 136.872 76.3425 136.872C76.3474 136.872 76.3525 136.872 76.3577 136.872C76.3767 136.872 76.3975 136.872 76.4199 136.872C76.447 136.871 76.4766 136.871 76.5089 136.87C76.5825 136.867 76.6578 136.858 76.7293 136.845C76.7664 136.838 76.8025 136.83 76.8368 136.822C76.841 136.821 76.8453 136.82 76.8495 136.818C76.9025 136.805 76.9507 136.789 76.9912 136.773C76.9931 136.772 76.995 136.771 76.9969 136.771C77.0204 136.761 77.0411 136.751 77.0584 136.742C77.0672 136.737 77.0751 136.732 77.082 136.727C77.2127 136.605 77.2247 136.61 77.1757 136.8C77.1743 136.806 77.173 136.811 77.1715 136.816L77.1178 137.04L77.223 136.83L77.2235 136.829L77.2253 136.825C77.2448 136.786 77.2923 136.739 77.3689 136.681C77.3854 136.669 77.4031 136.656 77.4223 136.643C77.4338 136.635 77.4457 136.627 77.4582 136.619C77.4737 136.609 77.4898 136.598 77.5068 136.588C77.6729 136.482 77.9117 136.352 78.2282 136.193C78.2311 136.191 78.2341 136.19 78.2371 136.188C78.2559 136.179 78.2751 136.169 78.2944 136.16C78.32 136.147 78.3461 136.134 78.3727 136.121C78.3736 136.12 78.3744 136.12 78.3753 136.119C78.4561 136.079 78.5414 136.038 78.6311 135.994L79.9385 135.36L80.8518 135.414C82.186 135.485 82.786 135.378 83.8157 134.86C84.2903 134.618 85.0246 134.315 85.4455 134.181C86.4125 133.868 86.8513 133.645 87.1647 133.314L87.4154 133.046L93.9253 136.781C97.5161 138.827 100.677 140.605 100.964 140.721C101.617 140.989 102.701 141.078 103.363 140.926C105.477 140.444 107.832 138.237 109.291 135.378C109.497 134.958 109.694 134.681 109.757 134.708C110.205 134.878 111.861 135.342 112.936 135.601C116.509 136.468 119.84 136.879 124.084 136.968C130.352 137.102 136.092 136.253 140.372 134.565C144.205 133.055 146.479 131.045 146.801 128.882C146.855 128.552 147.285 123.513 147.76 117.679C148.234 111.844 148.646 107.055 148.664 107.029C148.724 106.976 154.884 105.201 156.926 104.641C157.31 104.536 157.548 104.473 157.574 104.473C157.597 104.473 157.623 104.486 157.652 104.511C157.728 104.574 157.821 104.713 157.915 104.903C157.916 104.903 157.916 104.903 157.916 104.904C157.927 104.926 157.938 104.95 157.95 104.974C158.138 105.385 158.183 105.662 158.227 106.43C158.272 107.502 158.218 108.217 157.663 114.033C157.588 114.821 157.524 115.487 157.47 116.05C157.47 116.05 157.47 116.05 157.47 116.05C157.263 118.196 157.194 118.849 157.138 119.045C157.127 119.084 157.117 119.104 157.106 119.116C157.099 119.122 157.093 119.125 157.086 119.127C157.086 119.127 157.085 119.127 157.086 119.127C157.074 119.129 157.06 119.126 157.045 119.126C156.983 119.126 156.857 119.206 156.759 119.314C156.732 119.342 156.71 119.368 156.693 119.391C156.637 119.47 156.633 119.53 156.673 119.609C156.682 119.625 156.692 119.643 156.705 119.662C156.727 119.697 156.743 119.726 156.752 119.751C156.773 119.806 156.761 119.843 156.71 119.884C156.689 119.901 156.661 119.919 156.625 119.939C156.621 119.941 156.617 119.943 156.614 119.945C156.562 119.974 156.513 120.017 156.467 120.074C156.243 120.347 156.078 120.932 155.998 121.78C155.872 123.084 155.416 125.514 155.156 126.354C154.789 127.489 154.861 127.846 155.487 128.105C156.105 128.355 157.251 128.436 157.592 128.248C157.86 128.114 157.959 127.489 157.878 126.443C157.824 125.603 157.887 123.611 158.03 121.654C158.092 120.9 158.054 120.504 157.882 120.243C157.855 120.201 157.823 120.163 157.789 120.127C157.784 120.122 157.78 120.117 157.776 120.113C157.748 120.082 157.725 120.055 157.707 120.031C157.63 119.929 157.645 119.886 157.744 119.787C157.78 119.753 157.809 119.724 157.83 119.698C157.88 119.636 157.888 119.59 157.846 119.521C157.815 119.468 157.754 119.402 157.663 119.305L157.448 119.081L157.798 116.088C157.883 115.366 157.961 114.695 158.033 114.069C158.033 114.069 158.033 114.069 158.033 114.069C158.524 109.8 158.717 107.671 158.671 106.412C158.671 106.409 158.671 106.407 158.671 106.404C158.655 105.996 158.615 105.68 158.552 105.411C158.497 105.18 158.426 104.984 158.338 104.796C158.337 104.795 158.337 104.793 158.336 104.792C158.324 104.766 158.312 104.74 158.299 104.715L158.093 104.295L158.55 104.161C158.587 104.149 158.683 104.12 158.829 104.077C158.943 104.044 159.088 104.001 159.261 103.951C159.895 103.767 160.899 103.478 162.099 103.132C162.959 102.885 163.92 102.608 164.916 102.32C168.167 101.382 171.211 100.498 171.677 100.355C173.253 99.881 173.566 99.4879 172.725 99.0501C172.7 99.0373 172.681 99.026 172.662 99.0154C172.597 98.9794 172.528 98.9509 172.206 98.8987C172.197 98.8973 172.188 98.8959 172.18 98.8945C171.231 98.7436 168.206 98.3974 157.484 97.156C127.836 93.7162 122.007 93.0461 121.442 93.0014C121.039 92.9657 114.888 93.6001 101.026 95.0921C90.1197 96.2625 80.6548 97.2811 80.0011 97.3615C79.7023 97.3966 79.4509 97.4316 79.2393 97.469ZM172.182 100.111C172.209 100.12 172.221 100.122 172.205 100.118ZM172.205 100.118C172.231 100.146 172.249 100.159 172.249 100.16L172.25 100.16C172.25 100.161 172.23 100.146 172.178 100.118C172.173 100.116 172.168 100.113 172.163 100.111C172.162 100.11 172.161 100.109 172.16 100.109M172.08 100.065C172.083 100.067 172.107 100.08 172.138 100.093C172.152 100.099 172.164 100.104 172.175 100.108M156.663 125.202C156.655 125.743 156.66 126.199 156.681 126.52L156.681 126.528L156.682 126.536C156.701 126.781 156.707 126.982 156.705 127.142C156.518 127.128 156.34 127.1 156.195 127.068C156.22 126.974 156.253 126.861 156.298 126.723L156.3 126.716L156.302 126.708C156.407 126.369 156.536 125.824 156.663 125.202ZM80.7279 129.888C80.7009 129.88 80.674 129.868 80.646 129.853C80.5763 129.814 80.4997 129.751 80.396 129.656C80.3732 129.635 80.3491 129.613 80.3235 129.588C80.3161 129.582 80.3089 129.575 80.3017 129.568C80.2303 129.502 80.1686 129.439 80.1207 129.386C80.1203 129.385 80.1199 129.385 80.1195 129.384C80.0693 129.329 80.0343 129.283 80.0191 129.255C80.0079 129.234 80.0073 129.222 80.0191 129.222C80.0342 129.222 80.1114 129.241 80.2273 129.272C80.2284 129.273 80.2295 129.273 80.2307 129.273C80.251 129.279 80.2724 129.285 80.2949 129.291C80.3181 129.297 80.3425 129.304 80.3679 129.311C80.4195 129.326 80.4751 129.342 80.5336 129.359C80.5355 129.359 80.5373 129.36 80.5392 129.36C80.6399 129.389 80.7491 129.421 80.8608 129.454C80.8984 129.466 80.9344 129.477 80.9686 129.488C80.9692 129.488 80.9698 129.488 80.9703 129.488C80.9788 129.491 80.9871 129.494 80.9954 129.496C81.0582 129.516 81.1149 129.535 81.1656 129.552C81.6441 129.718 81.5876 129.784 81.0399 129.883C81.0306 129.885 81.0216 129.886 81.0127 129.888C80.8941 129.908 80.8117 129.913 80.7315 129.889C80.7303 129.889 80.7291 129.889 80.7279 129.888ZM81.1898 129.01L80.8894 128.716C80.8911 128.715 80.8926 128.714 80.8941 128.714C80.8983 128.711 80.9023 128.709 80.9063 128.707C80.9302 128.709 80.9571 128.713 80.9862 128.718C81.0161 128.724 81.0452 128.731 81.0734 128.739C81.0753 128.74 81.0773 128.74 81.0792 128.741C81.0843 128.742 81.0893 128.744 81.0943 128.746C81.0988 128.747 81.1032 128.748 81.1075 128.75C81.1084 128.752 81.1093 128.754 81.1102 128.756C81.1238 128.786 81.1394 128.825 81.1541 128.87C81.1637 128.9 81.178 128.948 81.1898 129.01ZM85.5798 117.598C85.6607 117.566 85.7437 117.545 85.8304 117.534C85.8357 117.534 85.841 117.533 85.8462 117.533C85.9141 117.526 85.9844 117.525 86.0577 117.531C86.0574 117.531 86.058 117.531 86.0577 117.531C86.2051 117.543 86.366 117.581 86.5451 117.647C86.5856 117.662 86.627 117.678 86.6696 117.696C86.6705 117.696 86.6715 117.697 86.6725 117.697C86.6748 117.698 86.6771 117.699 86.6794 117.7C86.7293 117.721 86.7806 117.743 86.8334 117.768C87.0979 117.892 87.3133 118.021 87.4409 118.121C87.4419 118.122 87.4429 118.123 87.4439 118.124C87.5236 118.186 87.5682 118.237 87.5678 118.268C87.5678 118.269 87.5676 118.271 87.5674 118.272C87.5659 118.281 87.5604 118.287 87.5506 118.292C87.5487 118.293 87.5467 118.294 87.5446 118.294C87.5198 118.302 87.4746 118.3 87.4065 118.286C87.3741 118.279 87.3216 118.267 87.2556 118.252C87.1048 118.219 86.8836 118.17 86.6697 118.119C86.6693 118.119 86.6689 118.119 86.6685 118.119C86.6423 118.113 86.6161 118.107 86.5902 118.1C86.5877 118.1 86.5852 118.099 86.5827 118.099C86.5188 118.085 86.4524 118.069 86.3855 118.052C86.2537 118.018 86.1203 117.98 86.0024 117.942C86.0014 117.941 86.0003 117.941 85.9993 117.941C85.8677 117.898 85.7557 117.856 85.6872 117.822C85.6787 117.817 85.6704 117.812 85.6623 117.808C85.6618 117.807 85.6613 117.807 85.6608 117.807C85.6299 117.79 85.603 117.775 85.58 117.761C85.579 117.76 85.5779 117.76 85.5769 117.759C85.4555 117.687 85.4451 117.66 85.5199 117.623C85.5203 117.623 85.5206 117.623 85.521 117.623C85.5369 117.615 85.5566 117.607 85.5798 117.598Z" fill="#2C5058"/>
</svg>
