<svg width="234" height="234" viewBox="0 0 234 234" fill="none" xmlns="http://www.w3.org/2000/svg">
<g clip-path="url(#clip0)">
<path d="M71.6682 105.124C71.8931 105.984 71.379 106.864 70.5196 107.089C69.6606 107.314 68.7815 106.8 68.5566 105.94C68.3314 105.08 68.8458 104.2 69.7048 103.975C70.5642 103.749 71.4429 104.264 71.6682 105.124Z" fill="#2F306F"/>
<path d="M70.6669 105.71C70.773 106.116 70.5302 106.531 70.1246 106.638C69.7188 106.744 69.3038 106.501 69.1974 106.095C69.0913 105.689 69.3341 105.274 69.7397 105.167C70.1456 105.061 70.5605 105.304 70.6669 105.71Z" fill="white"/>
<path d="M69.252 104.223C69.7409 103.958 70.2298 103.693 71.0155 103.315C71.8009 102.938 72.8837 102.448 74.0438 102.06C75.2041 101.672 76.4424 101.385 77.6803 101.098M69.3329 104.16C70.1271 104.6 70.9213 105.041 71.7154 105.481L69.3329 104.16ZM77.6803 101.098C77.6512 101.398 77.6221 101.699 77.593 101.999L77.6803 101.098ZM71.7154 105.481C71.7864 105.047 71.8573 104.612 72.2308 104.245C72.6042 103.877 73.2799 103.577 74.2238 103.214C75.168 102.851 76.3805 102.425 77.593 101.999L71.7154 105.481Z" stroke="#2F306F" stroke-width="0.295"/>
<path d="M71.6658 105.113C71.6376 105.007 71.6179 104.949 71.587 104.88C71.4455 104.567 71.2278 104.321 70.9386 104.149C70.7661 104.046 70.6243 103.991 70.4248 103.951C70.2824 103.922 70.1566 103.913 70.0062 103.923C69.9144 103.928 69.9001 103.928 69.921 103.918C69.9353 103.911 70.0468 103.854 70.1696 103.791C70.8774 103.424 71.7846 102.998 72.4779 102.707C73.3091 102.358 74.0047 102.109 74.8217 101.867C75.1296 101.777 76.1797 101.501 76.594 101.403C77.0915 101.284 77.6204 101.16 77.6231 101.162C77.6265 101.163 77.5495 101.953 77.5452 101.96C77.5434 101.963 77.4889 101.984 77.424 102.008C77.3591 102.03 77.059 102.136 76.7568 102.243C73.6389 103.341 72.7944 103.697 72.2945 104.124C71.992 104.382 71.8295 104.671 71.7319 105.123L71.7037 105.255L71.6658 105.113Z" fill="#2F306F"/>
<path d="M71.6757 105.133C71.5638 104.706 71.3055 104.362 70.9306 104.141C70.6505 103.977 70.3607 103.905 70.0312 103.918C69.9627 103.921 69.933 103.919 69.9415 103.913C69.9775 103.886 70.7366 103.507 71.1206 103.324C72.4644 102.683 73.5096 102.269 74.7051 101.906C75.004 101.815 76.4202 101.447 76.9458 101.322C77.395 101.217 77.6114 101.168 77.6166 101.171C77.6196 101.172 77.589 101.505 77.5596 101.789C77.5496 101.888 77.5384 101.958 77.532 101.962C77.5193 101.97 77.3226 102.04 76.6736 102.269C73.622 103.345 72.7842 103.699 72.2895 104.125C71.997 104.376 71.8375 104.654 71.7372 105.086C71.7202 105.16 71.7048 105.223 71.7035 105.225C71.702 105.227 71.6896 105.186 71.6757 105.133Z" fill="#A0A0A0"/>
<path d="M71.6922 105.175C71.6852 105.159 71.6706 105.113 71.66 105.072C71.623 104.932 71.5324 104.74 71.4406 104.608C71.3042 104.413 71.1402 104.263 70.9265 104.138C70.6446 103.973 70.3875 103.908 70.0489 103.915C69.9928 103.916 69.9568 103.913 69.9616 103.908C69.9659 103.903 69.988 103.89 70.011 103.879C70.0341 103.868 70.0519 103.856 70.0507 103.852C70.0498 103.848 70.0529 103.846 70.0574 103.847C70.0704 103.851 70.2187 103.775 70.2114 103.768C70.2078 103.765 70.212 103.762 70.2211 103.763C70.2302 103.763 70.276 103.744 70.3232 103.72C70.6339 103.562 71.2026 103.287 71.5509 103.126C71.8986 102.965 72.5027 102.7 72.6482 102.645C72.6806 102.632 72.6913 102.625 72.6831 102.622C72.6749 102.619 72.6785 102.617 72.694 102.617C72.7204 102.616 72.8646 102.56 72.858 102.553C72.8552 102.551 72.8698 102.546 72.8904 102.543C72.9192 102.538 72.9244 102.535 72.9134 102.531C72.9028 102.527 72.905 102.525 72.9241 102.524C72.9371 102.523 73.0365 102.488 73.1444 102.446C73.5937 102.273 74.3397 102.015 74.6382 101.93C74.6919 101.915 74.6943 101.914 74.6598 101.919C74.5928 101.928 76.5958 101.409 76.9341 101.329C77.4609 101.206 77.5943 101.176 77.6046 101.179C77.6143 101.182 77.6052 101.3 77.564 101.708C77.5394 101.948 77.5385 101.953 77.5037 101.968C77.47 101.983 77.3051 102.042 76.5497 102.309C73.5376 103.375 72.7628 103.707 72.2651 104.144C72.0026 104.374 71.8449 104.644 71.7494 105.026C71.7367 105.077 71.7216 105.137 71.7155 105.16L71.7046 105.203L71.6922 105.175Z" fill="#2F306F"/>
<path d="M151.656 134.974C151.631 128.969 151.583 116.96 151.541 110.565C151.499 104.17 151.462 103.363 151.118 102.313C150.774 101.262 150.121 99.9551 149.287 98.7945C148.454 97.6339 147.439 96.6201 146.436 95.826C145.433 95.032 144.442 94.4576 143.505 94.0911C142.569 93.7249 141.687 93.5658 140.781 93.4864C139.875 93.4071 138.944 93.4071 136.944 93.6394C134.944 93.8714 131.875 94.3357 126.13 95.3007C120.384 96.2658 111.963 97.7316 107.498 98.5015C103.033 99.271 102.525 99.3443 101.764 99.4175C101.003 99.4908 99.9879 99.5643 98.991 99.6131C97.9943 99.6618 97.0155 99.6863 96.3329 99.656C95.6502 99.6253 95.2634 99.5398 94.7148 99.4178C94.1664 99.2959 93.4511 99.1365 92.6957 98.8435C91.9406 98.5502 91.1431 98.1227 90.4965 97.6707C89.8502 97.2186 89.3546 96.7421 88.9378 96.2658C88.521 95.7893 88.1827 95.3127 87.8563 94.7142C87.5301 94.1156 87.2161 93.3948 86.8896 92.6679C86.5635 91.9412 86.2252 91.2082 85.9608 90.6731C85.6965 90.1383 85.5001 89.791 85.2224 89.5468C84.9445 89.3025 84.5819 89.1557 82.5789 89.0733C80.5758 88.9909 76.9332 88.9725 75.0574 88.9633C73.1814 88.9541 73.0726 88.9541 73.0198 89.0215C72.9668 89.0886 72.9698 89.2229 72.9728 95.0347C72.9759 100.846 72.9789 112.318 72.9789 118.129C72.9789 123.939 72.9759 124.079 73.032 124.141C73.088 124.202 73.2026 124.184 74.6888 124.165C76.1751 124.147 79.0387 124.128 80.6064 124.095C82.1745 124.061 82.4491 124.013 82.6819 123.934C82.9144 123.857 83.1048 123.75 83.23 123.483C83.3552 123.216 83.4158 122.788 83.4746 122.339C83.5337 121.89 83.591 121.419 83.7074 120.828C83.8235 120.237 83.9987 119.526 84.2073 118.88C84.4158 118.234 84.6574 117.654 84.9684 117.112C85.2797 116.57 85.6604 116.066 86.0109 115.633C86.3613 115.201 86.6814 114.841 87.0318 114.48C87.3822 114.12 87.7629 113.76 88.1224 113.461C88.4816 113.161 88.8202 112.923 89.1403 112.741C89.4604 112.56 89.7626 112.434 90.1161 112.355C90.4692 112.275 90.8742 112.242 96.6696 112.224C102.465 112.205 113.657 112.202 119.273 112.201C124.888 112.199 124.931 112.199 124.955 112.199C124.979 112.199 124.985 112.199 125.243 112.223C125.502 112.247 126.03 112.297 126.512 112.402C126.994 112.507 127.438 112.67 127.808 112.848C128.178 113.027 128.474 113.222 128.698 113.403C128.923 113.584 129.078 113.754 129.25 113.988C129.421 114.222 129.613 114.526 129.764 114.89C129.915 115.253 130.027 115.678 130.092 116.177C130.157 116.676 130.175 117.251 130.151 117.767C130.127 118.283 130.06 118.747 129.982 119.173C129.903 119.599 129.812 119.99 129.67 120.485C129.528 120.98 129.335 121.578 129.03 122.371C128.725 123.163 128.308 124.15 127.746 125.304C127.184 126.459 126.477 127.781 125.798 128.956C125.118 130.13 124.466 131.156 123.879 132.048C123.293 132.94 122.774 133.697 122.395 134.277C122.016 134.858 121.777 135.261 121.576 135.635C121.375 136.009 121.212 136.354 121.037 136.764C120.862 137.173 120.674 137.646 120.523 138.135C120.372 138.623 120.258 139.127 120.182 139.543C120.106 139.958 120.07 140.285 120.054 140.515C120.037 140.746 120.04 140.88 120.046 140.944C120.052 141.008 120.061 141.003 125.202 140.996C130.344 140.99 140.89 140.984 146.14 140.981C151.39 140.978 151.48 140.978 151.544 140.978C151.607 140.978 151.644 140.978 151.662 140.978C151.68 140.978 151.68 140.978 151.656 134.973V134.974Z" fill="white"/>
<path d="M151.668 134.493C151.644 128.488 151.596 116.479 151.554 110.084C151.512 103.688 151.475 102.882 151.131 101.832C150.786 100.781 150.134 99.4739 149.3 98.3133C148.467 97.1527 147.451 96.1389 146.449 95.3449C145.446 94.5508 144.455 93.9765 143.518 93.61C142.582 93.2437 141.7 93.0847 140.794 93.0053C139.887 92.9259 138.957 92.9259 136.957 93.1582C134.957 93.3902 131.888 93.8545 126.143 94.8196C120.397 95.7847 111.975 97.2505 107.511 98.0204C103.046 98.7899 102.538 98.8631 101.777 98.9364C101.016 99.0096 100.001 99.0832 99.0038 99.1319C98.0071 99.1806 97.0283 99.2052 96.3457 99.1748C95.663 99.1442 95.2763 99.0587 94.7276 98.9367C94.1793 98.8147 93.4639 98.6554 92.7085 98.3624C91.9534 98.0691 91.1559 97.6416 90.5093 97.1895C89.8631 96.7375 89.3674 96.2609 88.9506 95.7847C88.5339 95.3081 88.1956 94.8316 87.8691 94.233C87.5429 93.6345 87.2289 92.9137 86.9024 92.1867C86.5763 91.4601 86.238 90.727 85.9737 90.1919C85.7093 89.6571 85.5129 89.3099 85.2352 89.0657C84.9573 88.8214 84.5947 88.6746 82.5917 88.5922C80.5886 88.5097 76.946 88.4913 75.0703 88.4821C73.1942 88.4729 73.0854 88.4729 73.0326 88.5404C72.9796 88.6075 72.9826 88.7417 72.9857 94.5536C72.9887 100.365 72.9917 111.837 72.9917 117.648C72.9917 123.458 72.9887 123.598 73.0448 123.66C73.1008 123.721 73.2154 123.702 74.7017 123.684C76.1879 123.666 79.0515 123.647 80.6193 123.614C82.1873 123.58 82.462 123.531 82.6948 123.453C82.9273 123.375 83.1176 123.268 83.2428 123.002C83.368 122.735 83.4286 122.306 83.4874 121.857C83.5465 121.409 83.6038 120.938 83.7202 120.347C83.8363 119.756 84.0115 119.045 84.2201 118.399C84.4286 117.753 84.6702 117.173 84.9812 116.63C85.2925 116.089 85.6733 115.584 86.0237 115.152C86.3741 114.72 86.6942 114.36 87.0446 113.999C87.395 113.639 87.7757 113.279 88.1352 112.979C88.4944 112.68 88.833 112.442 89.1531 112.26C89.4732 112.078 89.7755 111.953 90.1289 111.874C90.482 111.794 90.887 111.761 96.6825 111.742C102.478 111.724 113.67 111.721 119.286 111.72C124.901 111.718 124.944 111.718 124.968 111.718C124.992 111.718 124.998 111.718 125.256 111.742C125.514 111.766 126.043 111.816 126.525 111.921C127.007 112.026 127.451 112.188 127.821 112.367C128.191 112.546 128.487 112.741 128.711 112.922C128.936 113.103 129.091 113.272 129.263 113.507C129.434 113.741 129.626 114.045 129.777 114.408C129.928 114.772 130.04 115.196 130.104 115.696C130.17 116.195 130.187 116.77 130.164 117.286C130.14 117.802 130.073 118.266 129.994 118.692C129.916 119.118 129.825 119.509 129.683 120.004C129.541 120.499 129.348 121.097 129.043 121.89C128.738 122.682 128.321 123.669 127.759 124.823C127.197 125.978 126.49 127.3 125.81 128.474C125.131 129.649 124.478 130.675 123.892 131.567C123.306 132.459 122.787 133.216 122.407 133.796C122.029 134.376 121.79 134.779 121.589 135.154C121.388 135.528 121.225 135.873 121.05 136.282C120.875 136.691 120.687 137.165 120.536 137.653C120.385 138.142 120.27 138.646 120.195 139.061C120.119 139.477 120.083 139.804 120.066 140.034C120.05 140.265 120.053 140.399 120.059 140.463C120.065 140.527 120.074 140.521 125.215 140.515C130.357 140.509 140.902 140.503 146.152 140.5C151.403 140.497 151.493 140.497 151.557 140.497C151.62 140.497 151.657 140.497 151.674 140.497C151.693 140.497 151.693 140.497 151.668 134.493Z" fill="white" stroke="#2F306F" stroke-width="2"/>
<path d="M151.963 108.079H153.899V113.356H151.963V108.079Z" stroke="#2F306F"/>
<path d="M156.257 117.093C155.133 115.446 154.432 113.201 154.43 110.721C154.431 108.239 155.131 105.993 156.255 104.345C157.258 102.875 158.578 101.906 160.028 101.623V119.812C158.579 119.529 157.259 118.561 156.257 117.093Z" stroke="#2F306F"/>
<path d="M162.047 96.4977H163.181V124.937H162.047V96.4977Z" stroke="#2F306F"/>
<path d="M161.547 95.9977H163.681V125.437H161.547V95.9977Z" stroke="#2F306F" stroke-linecap="round" stroke-linejoin="round"/>
<path d="M74.334 141C73.108 141.12 72.1229 142.432 71.9999 144.109V151H158V144.109C157.877 142.432 156.891 141.12 155.666 141H74.334Z" fill="white" stroke="#2F306F" stroke-width="2" stroke-linejoin="round"/>
<path d="M76.126 123.721H79.7144V129.16H76.126V123.721Z" fill="#2F306F"/>
<path d="M77.326 127.273H78.6589V136.92H77.326V127.273Z" fill="#2F306F"/>
<path d="M77.294 133.009H76.8997V133.853H77.294V133.009Z" fill="#2F306F"/>
<path d="M76.0767 132.133C76.5735 132.171 76.9624 132.741 76.9627 133.431C76.9621 134.122 76.5732 134.691 76.0767 134.729V132.133Z" fill="#2F306F"/>
<path d="M75.94 131.454H75.6532V135.408H75.94V131.454Z" fill="#2F306F"/>
<path d="M75.94 131.454H75.6532V135.408H75.94V131.454Z" stroke="#2F306F" stroke-width="0.927" stroke-linecap="round" stroke-linejoin="round"/>
<path d="M140.361 81.4378H141.693V95.0874H140.361V81.4378Z" fill="#2F306F"/>
<path d="M135.08 91.8032H146.973V92.9322H135.08V91.8032Z" fill="#2F306F"/>
<path d="M75.4993 83.7754C75.4926 83.9092 75.489 84.0433 75.4886 84.1777C75.4886 87.0162 76.9094 89.3173 78.6621 89.3173C80.4144 89.3173 81.8352 87.0162 81.8355 84.1777C81.8346 84.0433 81.8303 83.9092 81.823 83.7754H75.4993Z" fill="#2F306F"/>
<path d="M72.2841 113.835H74.4181V119.656H72.2841V113.835Z" fill="#2F306F"/>
<path d="M72.2841 113.835H74.4181V119.656H72.2841V113.835Z" stroke="#2F306F" stroke-width="3.069" stroke-linecap="round" stroke-linejoin="round"/>
<path d="M77.9125 136.915H78.0725V138.14H77.9125V136.915Z" fill="#2F306F"/>
</g>
<defs>
<clipPath id="clip0">
<rect width="97" height="71" fill="white" transform="translate(68 81)"/>
</clipPath>
</defs>
</svg>
