<svg width="42" height="42" viewBox="0 0 42 42" fill="none" xmlns="http://www.w3.org/2000/svg">
<path d="M17.8109 17.8188C15.6256 20.0098 14.4635 21.3397 13.2429 23.2239C12.1552 24.9031 11.4337 26.263 11.2394 26.8413C10.6777 28.5131 11.1936 28.9415 11.8683 29.447C12.5431 29.9526 13.4415 30.609 14.0321 30.8562C14.426 31.0211 14.7842 31.1485 15.3878 30.6224C15.9913 30.0963 17.9053 28.2183 18.3864 27.7084C19.2478 26.7955 18.8365 26.535 18.5099 26.0021C18.1834 25.4691 17.2081 24.5114 17.2322 23.8806C17.2573 23.224 17.5442 22.9483 17.9801 22.3936C18.3968 21.8632 19.9829 20.275 20.125 20.1329C20.1257 20.1323 20.1309 20.127 20.1329 20.125C20.275 19.9829 21.8629 18.3965 22.3935 17.9801C22.9483 17.5442 23.2241 17.2572 23.8806 17.2321C24.5114 17.208 25.4691 18.1834 26.0021 18.5099C26.5351 18.8364 26.7956 19.2477 27.7085 18.3864C28.2184 17.9052 30.0964 15.9914 30.6224 15.3878C31.1486 14.7842 31.0211 14.426 30.8562 14.0321C30.609 13.4415 29.9526 12.543 29.447 11.8683C28.9414 11.1935 28.5131 10.6777 26.8413 11.2394C26.263 11.4336 24.9031 12.1552 23.2239 13.2429C21.3397 14.4635 20.01 15.6257 17.8188 17.8109L17.8108 17.8189L17.8109 17.8188Z" fill="#A9E9F8" stroke="#2C5058" stroke-width="0.5"/>
<path d="M21 1C32.0467 1 41 9.95326 41 21C41 32.0467 32.0467 41 21 41C9.95326 41 1 32.0467 1 21C1 9.95326 9.95326 1 21 1V1ZM21 3.49813C11.3339 3.49813 3.49793 11.3341 3.49793 21.0002C3.49793 30.6663 11.3339 38.5023 21 38.5023C30.6661 38.5023 38.5021 30.6663 38.5021 21.0002C38.5021 11.3341 30.6661 3.49813 21 3.49813V3.49813Z" fill="#A9E9F8" stroke="#2C5058" stroke-width="0.5"/>
</svg>
