<svg width="42" height="42" viewBox="0 0 42 42" fill="none" xmlns="http://www.w3.org/2000/svg">
<path fill-rule="evenodd" clip-rule="evenodd" d="M1 3.86536C1 2.2837 2.32403 1 3.95625 1H38.0438C39.6765 1 41 2.2837 41 3.86536V38.1353C41 39.7172 39.6765 41 38.0438 41H3.95625C2.32417 41 1 39.7174 1 38.1357V3.86536ZM13.1558 15.9111V33.9193H7.17014V15.9111H13.1558ZM13.5503 10.3419C13.5503 12.07 12.2511 13.4527 10.1642 13.4527L10.125 13.4526C8.11611 13.4526 6.81736 12.0698 6.81736 10.3416C6.81736 8.5744 8.15528 7.23009 10.2039 7.23009C12.2511 7.23009 13.5112 8.5744 13.5503 10.3419ZM22.454 33.9193H16.4689C16.4689 33.9193 16.5474 17.6011 16.4692 15.9116H22.4546V18.4607C23.2501 17.2339 24.6742 15.4889 27.849 15.4889C31.7871 15.4889 34.7396 18.0627 34.7396 23.5939V33.9193H28.7546V24.2864C28.7546 21.8652 27.8878 20.214 25.7225 20.214C24.0686 20.214 23.0838 21.3276 22.6513 22.4034C22.4931 22.7873 22.454 23.3262 22.454 23.8637V33.9193Z" fill="#A9E9F8" stroke="#2C5058" stroke-width="0.5"/>
</svg>
