<svg width="42" height="42" viewBox="0 0 42 42" fill="none" xmlns="http://www.w3.org/2000/svg">
<path d="M21 1C9.95496 1 1 9.95496 1 21C1 32.0463 9.95496 41 21 41C32.045 41 41 32.0463 41 21C40.9999 9.95496 32.0449 1 21 1ZM26.6024 36.2362C26.4873 34.6712 26.3586 32.7324 26.3511 31.9474C26.3011 31.3449 26.236 29.8124 24.7811 28.8337C30.5573 28.35 33.3061 25.1575 33.5036 20.9388C33.6687 18.5363 32.7136 16.4237 31.0174 14.7188C31.1037 12.8951 30.9624 10.7338 30.845 9.78388C29.5425 9.4089 26.505 11.0126 25.6562 11.6989C23.8661 11.0038 19.485 10.7601 16.8225 11.6989C14.9349 10.3714 12.7862 9.55142 11.615 9.78017C10.5337 12.1764 11.2288 14.4414 11.4399 14.7114C10.0474 15.9839 8.1049 17.5502 8.63243 20.8314C9.47865 25.6426 12.8637 28.2377 18.3136 28.8726C17.1512 29.1101 16.9548 29.9776 16.8573 30.3538C13.1973 31.8638 12.1512 29.4214 11.6886 28.7851C10.1524 26.8838 8.77358 27.4351 8.68859 27.4651C8.60607 27.495 8.5436 27.615 8.55238 27.6725C8.62982 28.0825 9.46615 28.4988 9.50735 28.5325C10.6411 29.3775 11.0611 30.9038 11.3198 31.3387C12.946 34.0125 16.7261 32.9037 16.7623 32.9263C16.7648 33.16 16.7361 35.1276 16.7136 36.6588C9.82123 34.7762 4.74997 28.4887 4.74997 21C4.74997 12.025 12.025 4.7501 20.9999 4.7501C29.9747 4.7501 37.2499 12.025 37.2499 21C37.2499 28.0037 32.8124 33.9524 26.6024 36.2362Z" fill="#A9E9F8" stroke="#2C5058" stroke-width="0.5"/>
</svg>
