<svg width="48" height="48" viewBox="0 0 48 48" fill="none" xmlns="http://www.w3.org/2000/svg">
<rect x="15.479" y="5.33621" width="16.0419" height="0.672414" stroke="#2F306F" stroke-width="0.672414"/>
<rect x="15.6428" y="8.18958" width="15.7143" height="1.68966" stroke="#2F306F"/>
<rect x="15.6428" y="12.2241" width="15.7143" height="4.37931" stroke="#2F306F"/>
<path d="M15.461 36.8901L5.36661 28.3621H15.1429H15.6429V27.8621V18.9483H31.3571V27.8621V28.3621H31.8571H41.6334L31.539 36.8901L23.5 43.3583L15.461 36.8901Z" fill="#2F306F" stroke="#2F306F"/>
<path d="M24.0156 35.8594C24.0156 35.9375 23.9629 35.9766 23.8574 35.9766L22.5391 36.0234C22.4805 36.0195 22.4375 35.9824 22.4102 35.9121L20.9395 32.1855L20.5293 35.8359C20.5176 35.9297 20.4688 35.9785 20.3828 35.9824L19.1582 36.0234C19.0723 36.0156 19.0293 35.9785 19.0293 35.9121L20.043 27.0938C20.0508 27.0234 20.0684 26.9766 20.0957 26.9531C20.123 26.9258 20.3301 26.8965 20.7168 26.8652C21.1035 26.8301 21.6191 26.8125 22.2637 26.8125C22.9082 26.8125 23.4043 26.9844 23.752 27.3281C24.1035 27.668 24.2793 28.1074 24.2793 28.6465C24.2793 29.1855 24.2148 29.6621 24.0859 30.0762C23.957 30.4863 23.7441 30.8555 23.4473 31.1836C23.1504 31.5117 22.7793 31.7559 22.334 31.916L23.998 35.7891C24.0098 35.8125 24.0156 35.8359 24.0156 35.8594ZM21.3906 28.1777L21.0625 31.0898C21.7852 31.0469 22.2832 30.7188 22.5566 30.1055C22.7051 29.7695 22.7793 29.4297 22.7793 29.0859C22.7793 28.7383 22.707 28.4961 22.5625 28.3594C22.4219 28.2188 22.2168 28.1484 21.9473 28.1484C21.6777 28.1484 21.4922 28.1582 21.3906 28.1777ZM24.9473 36.0879C24.8496 36.0879 24.8008 36.041 24.8008 35.9473L24.9473 34.7227C24.9629 34.6367 25.0137 34.5898 25.0996 34.582C25.709 34.5195 26.1113 34.4238 26.3066 34.2949C26.502 34.1621 26.5996 33.9004 26.5996 33.5098C26.5996 33.1191 26.5 32.6113 26.3008 31.9863C26.1016 31.3574 25.9727 30.9395 25.9141 30.7324C25.7266 30.0684 25.6328 29.5254 25.6328 29.1035C25.6328 28.6777 25.7012 28.3145 25.8379 28.0137C25.9746 27.7129 26.1699 27.4727 26.4238 27.293C26.916 26.9492 27.5781 26.7773 28.4102 26.7773C28.5156 26.7773 28.5684 26.8262 28.5684 26.9238L28.4102 28.1367C28.3945 28.2344 28.3457 28.2871 28.2637 28.2949C27.5059 28.3457 27.127 28.5703 27.127 28.9688C27.127 29.3359 27.2871 30.0586 27.6074 31.1367C27.9316 32.2109 28.0938 32.9805 28.0938 33.4453C28.0938 35.207 27.0449 36.0879 24.9473 36.0879Z" fill="white"/>
</svg>
