<svg width="25" height="25" viewBox="0 0 25 25" fill="none" xmlns="http://www.w3.org/2000/svg">
<path fill-rule="evenodd" clip-rule="evenodd" d="M0 1.79085C0 0.80231 0.827517 0 1.84766 0H23.1523C24.1728 0 25 0.80231 25 1.79085V23.2095C25 24.1983 24.1728 25 23.1523 25H1.84766C0.827604 25 0 24.1983 0 23.2098V1.79085ZM7.5974 9.31942V20.5746H3.85634V9.31942H7.5974ZM7.84392 5.83869C7.84392 6.91873 7.03194 7.78296 5.7276 7.78296L5.70312 7.78287C4.44757 7.78287 3.63585 6.91864 3.63585 5.83852C3.63585 4.734 4.47205 3.89381 5.75243 3.89381C7.03195 3.89381 7.81953 4.734 7.84392 5.83869ZM13.4088 20.5746H9.66806C9.66806 20.5746 9.7171 10.3757 9.66823 9.31977H13.4091V10.9129C13.9063 10.1462 14.7964 9.05553 16.7806 9.05553C19.2419 9.05553 21.0872 10.6642 21.0872 14.1212V20.5746H17.3466V14.554C17.3466 13.0408 16.8049 12.0087 15.4516 12.0087C14.4179 12.0087 13.8023 12.7048 13.532 13.3772C13.4332 13.6171 13.4088 13.9539 13.4088 14.2898V20.5746Z" fill="#2F306F" fill-opacity="0.9"/>
</svg>
