<svg width="48" height="48" viewBox="0 0 48 48" fill="none" xmlns="http://www.w3.org/2000/svg">
<rect x="15.479" y="5.33621" width="16.0419" height="0.672414" stroke="#2F306F" stroke-width="0.672414"/>
<rect x="15.6428" y="8.18958" width="15.7143" height="1.68966" stroke="#2F306F"/>
<rect x="15.6428" y="12.2241" width="15.7143" height="4.37931" stroke="#2F306F"/>
<path d="M15.461 36.8901L5.36661 28.3621H15.1429H15.6429V27.8621V18.9483H31.3571V27.8621V28.3621H31.8571H41.6334L31.539 36.8901L23.5 43.3583L15.461 36.8901Z" fill="#2F306F" stroke="#2F306F"/>
<path d="M23.1484 30.5332C22.8125 31.834 21.7617 32.4863 19.9961 32.4902L19.627 35.8125C19.6152 35.9062 19.5664 35.9551 19.4805 35.959L18.25 36.0234C18.1641 36.0156 18.1211 35.9785 18.1211 35.9121L19.1348 27.0469C19.1504 26.9648 19.2012 26.9199 19.2871 26.9121C20.0176 26.8457 20.7148 26.8125 21.3789 26.8125C22.6992 26.8125 23.3594 27.4453 23.3594 28.7109C23.3594 29.4023 23.2891 30.0098 23.1484 30.5332ZM20.4766 28.1777L20.1426 31.1367C20.8184 31.1367 21.2734 30.9961 21.5078 30.7148C21.7422 30.4336 21.8594 29.8867 21.8594 29.0742C21.8594 28.7617 21.7754 28.5312 21.6074 28.3828C21.4395 28.2344 21.2246 28.1602 20.9629 28.1602C20.7012 28.1602 20.5391 28.166 20.4766 28.1777ZM29.1074 35.8594C29.1074 35.9375 29.0547 35.9766 28.9492 35.9766L27.6309 36.0234C27.5723 36.0195 27.5293 35.9824 27.502 35.9121L26.0312 32.1855L25.6211 35.8359C25.6094 35.9297 25.5605 35.9785 25.4746 35.9824L24.25 36.0234C24.1641 36.0156 24.1211 35.9785 24.1211 35.9121L25.1348 27.0938C25.1426 27.0234 25.1602 26.9766 25.1875 26.9531C25.2148 26.9258 25.4219 26.8965 25.8086 26.8652C26.1953 26.8301 26.7109 26.8125 27.3555 26.8125C28 26.8125 28.4961 26.9844 28.8438 27.3281C29.1953 27.668 29.3711 28.1074 29.3711 28.6465C29.3711 29.1855 29.3066 29.6621 29.1777 30.0762C29.0488 30.4863 28.8359 30.8555 28.5391 31.1836C28.2422 31.5117 27.8711 31.7559 27.4258 31.916L29.0898 35.7891C29.1016 35.8125 29.1074 35.8359 29.1074 35.8594ZM26.4824 28.1777L26.1543 31.0898C26.877 31.0469 27.375 30.7188 27.6484 30.1055C27.7969 29.7695 27.8711 29.4297 27.8711 29.0859C27.8711 28.7383 27.7988 28.4961 27.6543 28.3594C27.5137 28.2188 27.3086 28.1484 27.0391 28.1484C26.7695 28.1484 26.584 28.1582 26.4824 28.1777Z" fill="white"/>
</svg>
