<svg width="48" height="48" viewBox="0 0 48 48" fill="none" xmlns="http://www.w3.org/2000/svg">
<rect x="15.479" y="5.33621" width="16.0419" height="0.672414" stroke="#2F306F" stroke-width="0.672414"/>
<rect x="15.6428" y="8.18958" width="15.7143" height="1.68966" stroke="#2F306F"/>
<rect x="15.6428" y="12.2241" width="15.7143" height="4.37931" stroke="#2F306F"/>
<path d="M15.461 36.8901L5.36661 28.3621H15.1429H15.6429V27.8621V18.9483H31.3571V27.8621V28.3621H31.8571H41.6334L31.539 36.8901L23.5 43.3583L15.461 36.8901Z" fill="#2F306F" stroke="#2F306F"/>
<path d="M21.6621 35.7363C21.6543 35.7832 21.6406 35.8164 21.6211 35.8359C21.6016 35.8555 21.4102 35.8984 21.0469 35.9648C20.6836 36.0312 20.3164 36.0645 19.9453 36.0645C19.3359 36.0645 18.8691 35.8672 18.5449 35.4727C18.2207 35.0781 18.0586 34.541 18.0586 33.8613C18.0586 32.6543 18.2031 31.252 18.4922 29.6543C18.6445 28.7949 18.832 28.1914 19.0547 27.8438C19.2891 27.4805 19.5703 27.2266 19.8984 27.082C20.3086 26.9023 20.7461 26.8125 21.2109 26.8125C21.6797 26.8125 21.9922 26.8262 22.1484 26.8535C22.3086 26.877 22.3984 26.8906 22.418 26.8945C22.4688 26.9102 22.4941 26.959 22.4941 27.041L22.3594 28.1309C22.3438 28.2324 22.3047 28.2832 22.2422 28.2832C22.1797 28.2832 22.0352 28.2676 21.8086 28.2363C21.582 28.2012 21.3984 28.1836 21.2578 28.1836C20.8828 28.1836 20.5977 28.2793 20.4023 28.4707C20.207 28.6582 20.0605 29.0215 19.9629 29.5605C19.8691 30.0957 19.7773 30.8164 19.6875 31.7227C19.5977 32.625 19.5527 33.3164 19.5527 33.7969C19.5527 34.3633 19.8027 34.6465 20.3027 34.6465C20.4473 34.6465 20.6992 34.623 21.0586 34.5762C21.418 34.5254 21.623 34.5 21.6738 34.5C21.7559 34.5 21.7969 34.5488 21.7969 34.6465L21.6621 35.7363ZM24.0293 35.877L23.3496 27.0527C23.3496 26.9629 23.4023 26.916 23.5078 26.9121L24.7266 26.8711C24.8125 26.8711 24.8555 26.9082 24.8555 26.9824L25.1309 33.5918L26.6836 27.0527C26.6953 27.002 26.709 26.9668 26.7246 26.9473C26.7441 26.9277 26.7773 26.916 26.8242 26.9121L28.0371 26.8652C28.123 26.8652 28.166 26.9023 28.166 26.9766L25.5938 35.8359C25.5664 35.9297 25.5195 35.9766 25.4531 35.9766L24.1582 36.0234C24.0801 36.0195 24.0371 35.9707 24.0293 35.877Z" fill="white"/>
</svg>
