<svg width="25" height="25" viewBox="0 0 25 25" fill="none" xmlns="http://www.w3.org/2000/svg">
<path d="M5.79016 7.20709C5.46259 7.20707 5.19406 7.47481 5.19409 7.80256V17.197C5.19396 17.5248 5.46218 17.7937 5.79016 17.7937H19.2111C19.5392 17.7937 19.8074 17.5248 19.8072 17.197V7.80256C19.8072 7.47481 19.5387 7.20707 19.2111 7.20709H5.79016V7.20709ZM7.37891 8.63422H17.6187L12.4994 13.107L7.37891 8.63422ZM18.6151 9.34654V15.9545L14.8713 12.6173L18.6151 9.34654ZM6.38627 9.35026L10.1455 12.6353L6.38627 15.9868V9.35026V9.35026ZM13.9669 13.4073L17.5285 16.5829H7.50944L11.0505 13.4259L12.106 14.3483C12.3298 14.5437 12.6665 14.5437 12.8904 14.3483L13.9669 13.4073V13.4073Z" fill="#2F306F"/>
<path d="M12.5 0C19.4042 0 25 5.59579 25 12.5C25 19.4042 19.4042 25 12.5 25C5.59579 25 0 19.4042 0 12.5C0 5.59579 5.59579 0 12.5 0V0ZM12.5 1.56133C6.45871 1.56133 1.5612 6.45884 1.5612 12.5001C1.5612 18.5414 6.45871 23.4389 12.5 23.4389C18.5413 23.4389 23.4388 18.5414 23.4388 12.5001C23.4388 6.45884 18.5413 1.56133 12.5 1.56133V1.56133Z" fill="#2F306F"/>
</svg>
