<svg width="40" height="40" viewBox="0 0 40 40" fill="none" xmlns="http://www.w3.org/2000/svg">
<rect x="12.4981" y="2.30747" width="14.6708" height="0.614944" stroke="#565795" stroke-width="0.614944"/>
<rect x="12.6907" y="4.95972" width="14.2858" height="1.45978" stroke="#565795"/>
<rect x="12.6907" y="8.64954" width="14.2858" height="3.91955" stroke="#565795"/>
<path d="M12.5086 31.1316L3.36661 23.4082H12.1905H12.6905V22.9082V14.799H26.9762V22.9082V23.4082H27.4762H36.3001L27.1581 31.1316L19.8334 37.0251L12.5086 31.1316Z" fill="#565795" stroke="#565795"/>
<path d="M14.623 23.9531C14.623 23.9792 14.6055 23.9922 14.5703 23.9922L14.1309 24.0078C14.1113 24.0065 14.097 23.9941 14.0879 23.9707L13.5977 22.7285L13.4609 23.9453C13.457 23.9766 13.4408 23.9928 13.4121 23.9941L13.0039 24.0078C12.9753 24.0052 12.9609 23.9928 12.9609 23.9707L13.2988 21.0312C13.3014 21.0078 13.3073 20.9922 13.3164 20.9844C13.3255 20.9753 13.3945 20.9655 13.5234 20.9551C13.6523 20.9434 13.8242 20.9375 14.0391 20.9375C14.2539 20.9375 14.4193 20.9948 14.5352 21.1094C14.6523 21.2227 14.7109 21.3691 14.7109 21.5488C14.7109 21.7285 14.6895 21.8874 14.6465 22.0254C14.6035 22.1621 14.5326 22.2852 14.4336 22.3945C14.3346 22.5039 14.2109 22.5853 14.0625 22.6387L14.6172 23.9297C14.6211 23.9375 14.623 23.9453 14.623 23.9531ZM13.748 21.3926L13.6387 22.3633C13.8796 22.349 14.0456 22.2396 14.1367 22.0352C14.1862 21.9232 14.2109 21.8099 14.2109 21.6953C14.2109 21.5794 14.1868 21.4987 14.1387 21.4531C14.0918 21.4062 14.0234 21.3828 13.9336 21.3828C13.8438 21.3828 13.7819 21.3861 13.748 21.3926ZM16.2031 21.002L16.4316 23.9434C16.4316 23.9733 16.4147 23.9896 16.3809 23.9922L15.9727 24.0078C15.9453 24.0078 15.9316 23.9954 15.9316 23.9707L15.9023 23.3262L15.459 23.3438L15.3125 23.9453C15.3086 23.9635 15.3034 23.9759 15.2969 23.9824C15.2904 23.9889 15.2786 23.9928 15.2617 23.9941L14.8574 24.0078C14.8314 24.0078 14.8184 23.9954 14.8184 23.9707L15.6758 21.0156C15.6849 20.987 15.7025 20.972 15.7285 20.9707L16.1582 20.9551C16.1855 20.9564 16.2005 20.972 16.2031 21.002ZM15.834 21.8066L15.5605 22.9277L15.8848 22.916L15.834 21.8066ZM18.5352 22.1777C18.4232 22.6113 18.0729 22.8288 17.4844 22.8301L17.3613 23.9375C17.3574 23.9688 17.3411 23.985 17.3125 23.9863L16.9023 24.0078C16.8737 24.0052 16.8594 23.9928 16.8594 23.9707L17.1973 21.0156C17.2025 20.9883 17.2194 20.9733 17.248 20.9707C17.4915 20.9486 17.724 20.9375 17.9453 20.9375C18.3854 20.9375 18.6055 21.1484 18.6055 21.5703C18.6055 21.8008 18.582 22.0033 18.5352 22.1777ZM17.6445 21.3926L17.5332 22.3789C17.7585 22.3789 17.9102 22.332 17.9883 22.2383C18.0664 22.1445 18.1055 21.9622 18.1055 21.6914C18.1055 21.5872 18.0775 21.5104 18.0215 21.4609C17.9655 21.4115 17.8939 21.3867 17.8066 21.3867C17.7194 21.3867 17.6654 21.3887 17.6445 21.3926ZM20.5352 22.1777C20.4232 22.6113 20.0729 22.8288 19.4844 22.8301L19.3613 23.9375C19.3574 23.9688 19.3411 23.985 19.3125 23.9863L18.9023 24.0078C18.8737 24.0052 18.8594 23.9928 18.8594 23.9707L19.1973 21.0156C19.2025 20.9883 19.2194 20.9733 19.248 20.9707C19.4915 20.9486 19.724 20.9375 19.9453 20.9375C20.3854 20.9375 20.6055 21.1484 20.6055 21.5703C20.6055 21.8008 20.582 22.0033 20.5352 22.1777ZM19.6445 21.3926L19.5332 22.3789C19.7585 22.3789 19.9102 22.332 19.9883 22.2383C20.0664 22.1445 20.1055 21.9622 20.1055 21.6914C20.1055 21.5872 20.0775 21.5104 20.0215 21.4609C19.9655 21.4115 19.8939 21.3867 19.8066 21.3867C19.7194 21.3867 19.6654 21.3887 19.6445 21.3926ZM21.5781 24.0293C21.3594 24.0293 21.194 23.9642 21.082 23.834C20.9701 23.7038 20.9141 23.541 20.9141 23.3457C20.9141 22.8483 20.9642 22.3568 21.0645 21.8711C21.1439 21.4896 21.2539 21.2344 21.3945 21.1055C21.5273 20.9857 21.7025 20.9258 21.9199 20.9258C22.1387 20.9258 22.304 20.9915 22.416 21.123C22.5293 21.2546 22.5859 21.4167 22.5859 21.6094C22.5859 21.8008 22.5736 22.0332 22.5488 22.3066C22.5241 22.5788 22.4935 22.8066 22.457 22.9902C22.4206 23.1725 22.3893 23.306 22.3633 23.3906C22.3385 23.474 22.304 23.5586 22.2598 23.6445C22.2155 23.7305 22.1641 23.7995 22.1055 23.8516C21.974 23.9701 21.7982 24.0293 21.5781 24.0293ZM21.6289 23.5684C21.7943 23.5684 21.9004 23.416 21.9473 23.1113C21.9785 22.9095 22.0098 22.6582 22.041 22.3574C22.0723 22.0566 22.0879 21.8451 22.0879 21.7227C22.0879 21.6003 22.0677 21.5137 22.0273 21.4629C21.9883 21.4121 21.9323 21.3867 21.8594 21.3867C21.7083 21.3867 21.6061 21.5397 21.5527 21.8457C21.5215 22.0254 21.4902 22.2695 21.459 22.5781C21.4277 22.8854 21.4121 23.1022 21.4121 23.2285C21.4121 23.3548 21.4323 23.4434 21.4727 23.4941C21.5143 23.5436 21.5664 23.5684 21.6289 23.5684ZM24.5684 23.9531C24.5684 23.9792 24.5508 23.9922 24.5156 23.9922L24.0762 24.0078C24.0566 24.0065 24.0423 23.9941 24.0332 23.9707L23.543 22.7285L23.4062 23.9453C23.4023 23.9766 23.3861 23.9928 23.3574 23.9941L22.9492 24.0078C22.9206 24.0052 22.9062 23.9928 22.9062 23.9707L23.2441 21.0312C23.2467 21.0078 23.2526 20.9922 23.2617 20.9844C23.2708 20.9753 23.3398 20.9655 23.4688 20.9551C23.5977 20.9434 23.7695 20.9375 23.9844 20.9375C24.1992 20.9375 24.3646 20.9948 24.4805 21.1094C24.5977 21.2227 24.6562 21.3691 24.6562 21.5488C24.6562 21.7285 24.6348 21.8874 24.5918 22.0254C24.5488 22.1621 24.4779 22.2852 24.3789 22.3945C24.2799 22.5039 24.1562 22.5853 24.0078 22.6387L24.5625 23.9297C24.5664 23.9375 24.5684 23.9453 24.5684 23.9531ZM23.6934 21.3926L23.584 22.3633C23.8249 22.349 23.9909 22.2396 24.082 22.0352C24.1315 21.9232 24.1562 21.8099 24.1562 21.6953C24.1562 21.5794 24.1322 21.4987 24.084 21.4531C24.0371 21.4062 23.9688 21.3828 23.8789 21.3828C23.7891 21.3828 23.7272 21.3861 23.6934 21.3926ZM25.1055 20.9785L26.3711 20.9336C26.401 20.9349 26.416 20.9512 26.416 20.9824L26.3652 21.3828C26.3626 21.4023 26.3581 21.416 26.3516 21.4238C26.3464 21.4316 26.3346 21.4362 26.3164 21.4375L25.9375 21.4512L25.6523 23.9453C25.6484 23.9766 25.6315 23.9928 25.6016 23.9941L25.1953 24.0078C25.1693 24.0078 25.1562 23.9954 25.1562 23.9707L25.4434 21.4668L25.0547 21.4785C25.0221 21.4772 25.0059 21.4622 25.0059 21.4336L25.0547 21.0273C25.056 20.9961 25.0729 20.9798 25.1055 20.9785ZM13.4902 26.0156C13.4928 26 13.4974 25.9889 13.5039 25.9824C13.5104 25.9759 13.5762 25.9668 13.7012 25.9551C13.8262 25.9434 13.9974 25.9375 14.2148 25.9375C14.4336 25.9375 14.6016 26.0007 14.7188 26.127C14.8359 26.252 14.8945 26.4238 14.8945 26.6426C14.8945 27.0553 14.8483 27.5306 14.7559 28.0684C14.7064 28.3535 14.6263 28.5658 14.5156 28.7051C14.4141 28.8327 14.2552 28.9167 14.0391 28.957C13.9414 28.974 13.8223 28.985 13.6816 28.9902L13.1953 29.0078C13.1667 29.0065 13.1523 28.9941 13.1523 28.9707L13.4902 26.0156ZM13.9375 26.3926L13.6992 28.5195C13.8932 28.5026 14.0273 28.4648 14.1016 28.4062C14.1771 28.3477 14.2298 28.2363 14.2598 28.0723C14.2897 27.9082 14.319 27.6842 14.3477 27.4004C14.3776 27.1165 14.3926 26.8841 14.3926 26.7031C14.3926 26.5964 14.3665 26.5169 14.3145 26.4648C14.2624 26.4128 14.1914 26.3867 14.1016 26.3867C14.013 26.3867 13.9583 26.3887 13.9375 26.3926ZM16.4648 27.6641L15.8574 27.6875L15.7656 28.4883L16.5137 28.4629C16.5475 28.4642 16.5645 28.4811 16.5645 28.5137L16.5137 28.918C16.5111 28.9453 16.4941 28.9622 16.4629 28.9688L15.2617 29.0078C15.2331 29.0078 15.2188 28.9954 15.2188 28.9707L15.5566 26.0156C15.5618 25.9883 15.5788 25.9733 15.6074 25.9707L16.6777 25.9336C16.7103 25.9375 16.7266 25.9551 16.7266 25.9863L16.6777 26.3906C16.6738 26.4232 16.6569 26.4408 16.627 26.4434L15.998 26.4609L15.9141 27.1875L16.5156 27.166C16.5495 27.1673 16.5664 27.1842 16.5664 27.2168L16.5156 27.6152C16.5104 27.6452 16.4935 27.6615 16.4648 27.6641ZM17.7656 29.0293C17.7331 29.0293 17.7168 29.0137 17.7168 28.9824L17.7656 28.5742C17.7708 28.5456 17.7878 28.5299 17.8164 28.5273C18.0195 28.5065 18.1536 28.4746 18.2188 28.4316C18.2839 28.3874 18.3164 28.3001 18.3164 28.1699C18.3164 28.0397 18.2832 27.8704 18.2168 27.6621C18.1504 27.4525 18.1074 27.3132 18.0879 27.2441C18.0254 27.0228 17.9941 26.8418 17.9941 26.7012C17.9941 26.5592 18.0169 26.4382 18.0625 26.3379C18.1081 26.2376 18.1732 26.1576 18.2578 26.0977C18.4219 25.9831 18.6426 25.9258 18.9199 25.9258C18.9551 25.9258 18.9727 25.9421 18.9727 25.9746L18.9199 26.3789C18.9147 26.4115 18.8984 26.429 18.8711 26.4316C18.6185 26.4486 18.4922 26.5234 18.4922 26.6562C18.4922 26.7786 18.5456 27.0195 18.6523 27.3789C18.7604 27.737 18.8145 27.9935 18.8145 28.1484C18.8145 28.7357 18.4648 29.0293 17.7656 29.0293ZM19.3867 25.9785L20.6523 25.9336C20.6823 25.9349 20.6973 25.9512 20.6973 25.9824L20.6465 26.3828C20.6439 26.4023 20.6393 26.416 20.6328 26.4238C20.6276 26.4316 20.6159 26.4362 20.5977 26.4375L20.2188 26.4512L19.9336 28.9453C19.9297 28.9766 19.9128 28.9928 19.8828 28.9941L19.4766 29.0078C19.4505 29.0078 19.4375 28.9954 19.4375 28.9707L19.7246 26.4668L19.3359 26.4785C19.3034 26.4772 19.2871 26.4622 19.2871 26.4336L19.3359 26.0273C19.3372 25.9961 19.3542 25.9798 19.3867 25.9785ZM21.9766 26.002L22.2051 28.9434C22.2051 28.9733 22.1882 28.9896 22.1543 28.9922L21.7461 29.0078C21.7188 29.0078 21.7051 28.9954 21.7051 28.9707L21.6758 28.3262L21.2324 28.3438L21.0859 28.9453C21.082 28.9635 21.0768 28.9759 21.0703 28.9824C21.0638 28.9889 21.0521 28.9928 21.0352 28.9941L20.6309 29.0078C20.6048 29.0078 20.5918 28.9954 20.5918 28.9707L21.4492 26.0156C21.4583 25.987 21.4759 25.972 21.502 25.9707L21.9316 25.9551C21.959 25.9564 21.974 25.972 21.9766 26.002ZM21.6074 26.8066L21.334 27.9277L21.6582 27.916L21.6074 26.8066ZM24.0801 26.4277L23.752 26.3945C23.6335 26.3945 23.5417 26.4232 23.4766 26.4805C23.4076 26.5443 23.3568 26.6673 23.3242 26.8496C23.2917 27.0306 23.2604 27.2721 23.2305 27.5742C23.2005 27.875 23.1855 28.0924 23.1855 28.2266C23.1855 28.3594 23.207 28.4538 23.25 28.5098C23.293 28.5645 23.3438 28.5918 23.4023 28.5918C23.4622 28.5918 23.5104 28.5911 23.5469 28.5898L23.6758 27.4824C23.681 27.4538 23.6979 27.4382 23.7266 27.4355L24.0938 27.4219C24.1289 27.4232 24.1465 27.4388 24.1465 27.4688L23.9824 28.9336C23.9772 28.9622 23.9596 28.9785 23.9297 28.9824C23.7565 29.0085 23.5456 29.0215 23.2969 29.0215C22.9987 29.0215 22.8073 28.8776 22.7227 28.5898C22.6992 28.5104 22.6875 28.4316 22.6875 28.3535C22.6875 28.2754 22.6901 28.1829 22.6953 28.0762C22.7109 27.6934 22.7565 27.2962 22.832 26.8848C22.8828 26.5983 22.9453 26.3971 23.0195 26.2812C23.0977 26.1602 23.1914 26.0755 23.3008 26.0273C23.4375 25.9674 23.584 25.9375 23.7402 25.9375C23.8965 25.9375 24.0007 25.9421 24.0527 25.9512C24.1048 25.959 24.1341 25.9635 24.1406 25.9648C24.1562 25.9701 24.1641 25.9863 24.1641 26.0137L24.1211 26.377C24.1159 26.4108 24.1022 26.4277 24.0801 26.4277ZM25.7539 27.6641L25.1465 27.6875L25.0547 28.4883L25.8027 28.4629C25.8366 28.4642 25.8535 28.4811 25.8535 28.5137L25.8027 28.918C25.8001 28.9453 25.7832 28.9622 25.752 28.9688L24.5508 29.0078C24.5221 29.0078 24.5078 28.9954 24.5078 28.9707L24.8457 26.0156C24.8509 25.9883 24.8678 25.9733 24.8965 25.9707L25.9668 25.9336C25.9993 25.9375 26.0156 25.9551 26.0156 25.9863L25.9668 26.3906C25.9629 26.4232 25.946 26.4408 25.916 26.4434L25.2871 26.4609L25.2031 27.1875L25.8047 27.166C25.8385 27.1673 25.8555 27.1842 25.8555 27.2168L25.8047 27.6152C25.7995 27.6452 25.7826 27.6615 25.7539 27.6641Z" fill="white"/>
</svg>
