<svg width="42" height="42" viewBox="0 0 42 42" fill="none" xmlns="http://www.w3.org/2000/svg">
<path d="M10.8974 13C10.4042 13 9.99995 13.3793 10 13.8437V27.1545C9.99981 27.619 10.4036 28 10.8974 28H31.1026C31.5964 28 32.0002 27.6191 32 27.1545V13.8437C32 13.3793 31.5957 13 31.1026 13H10.8974V13ZM13.2892 15.0221H28.7051L20.9981 21.3596L13.2892 15.0221ZM30.2052 16.0314V25.394L24.569 20.6656L30.2052 16.0314ZM11.7948 16.0366L17.4544 20.6911L11.7948 25.4398V16.0366V16.0366ZM23.2075 21.7849L28.5695 26.2844H13.4858L18.8168 21.8113L20.4058 23.1183C20.7427 23.3952 21.2497 23.3951 21.5867 23.1183L23.2075 21.7849V21.7849Z" fill="#A9E9F8" stroke="#2C5058" stroke-width="0.25"/>
<path d="M21 1C32.0467 1 41 9.95326 41 21C41 32.0467 32.0467 41 21 41C9.95326 41 1 32.0467 1 21C1 9.95326 9.95326 1 21 1V1ZM21 3.49813C11.3339 3.49813 3.49793 11.3341 3.49793 21.0002C3.49793 30.6663 11.3339 38.5023 21 38.5023C30.6661 38.5023 38.5021 30.6663 38.5021 21.0002C38.5021 11.3341 30.6661 3.49813 21 3.49813V3.49813Z" fill="#A9E9F8" stroke="#2C5058" stroke-width="0.5"/>
</svg>
