<svg width="48" height="48" viewBox="0 0 48 48" fill="none" xmlns="http://www.w3.org/2000/svg">
<rect x="15.479" y="5.33621" width="16.0419" height="0.672414" stroke="#2F306F" stroke-width="0.672414"/>
<rect x="15.6428" y="8.18958" width="15.7143" height="1.68966" stroke="#2F306F"/>
<rect x="15.6428" y="12.2241" width="15.7143" height="4.37931" stroke="#2F306F"/>
<path d="M15.461 36.8901L5.36661 28.3621H15.1429H15.6429V27.8621V18.9483H31.3571V27.8621V28.3621H31.8571H41.6334L31.539 36.8901L23.5 43.3583L15.461 36.8901Z" fill="#2F306F" stroke="#2F306F"/>
<path d="M19.0586 27.0469C19.0664 27 19.0801 26.9668 19.0996 26.9473C19.1191 26.9277 19.3164 26.9004 19.6914 26.8652C20.0664 26.8301 20.5801 26.8125 21.2324 26.8125C21.8887 26.8125 22.3926 27.002 22.7441 27.3809C23.0957 27.7559 23.2715 28.2715 23.2715 28.9277C23.2715 30.166 23.1328 31.5918 22.8555 33.2051C22.707 34.0605 22.4668 34.6973 22.1348 35.1152C21.8301 35.498 21.3535 35.75 20.7051 35.8711C20.4121 35.9219 20.0547 35.9551 19.6328 35.9707L18.1738 36.0234C18.0879 36.0195 18.0449 35.9824 18.0449 35.9121L19.0586 27.0469ZM20.4004 28.1777L19.6855 34.5586C20.2676 34.5078 20.6699 34.3945 20.8926 34.2188C21.1191 34.043 21.2773 33.709 21.3672 33.2168C21.457 32.7246 21.5449 32.0527 21.6309 31.2012C21.7207 30.3496 21.7656 29.6523 21.7656 29.1094C21.7656 28.7891 21.6875 28.5508 21.5312 28.3945C21.375 28.2383 21.1621 28.1602 20.8926 28.1602C20.627 28.1602 20.4629 28.166 20.4004 28.1777ZM29.2715 30.5332C28.9355 31.834 27.8848 32.4863 26.1191 32.4902L25.75 35.8125C25.7383 35.9062 25.6895 35.9551 25.6035 35.959L24.373 36.0234C24.2871 36.0156 24.2441 35.9785 24.2441 35.9121L25.2578 27.0469C25.2734 26.9648 25.3242 26.9199 25.4102 26.9121C26.1406 26.8457 26.8379 26.8125 27.502 26.8125C28.8223 26.8125 29.4824 27.4453 29.4824 28.7109C29.4824 29.4023 29.4121 30.0098 29.2715 30.5332ZM26.5996 28.1777L26.2656 31.1367C26.9414 31.1367 27.3965 30.9961 27.6309 30.7148C27.8652 30.4336 27.9824 29.8867 27.9824 29.0742C27.9824 28.7617 27.8984 28.5312 27.7305 28.3828C27.5625 28.2344 27.3477 28.1602 27.0859 28.1602C26.8242 28.1602 26.6621 28.166 26.5996 28.1777Z" fill="white"/>
</svg>
