<svg width="25" height="25" viewBox="0 0 25 25" fill="none" xmlns="http://www.w3.org/2000/svg">
<path d="M10.5068 10.5118C9.14099 11.8812 8.41468 12.7123 7.65181 13.8899C6.97199 14.9394 6.52107 15.7894 6.39963 16.1508C6.04855 17.1957 6.37099 17.4634 6.79269 17.7794C7.21441 18.0954 7.77595 18.5056 8.14506 18.6601C8.39127 18.7632 8.61515 18.8428 8.99237 18.514C9.36959 18.1852 10.5658 17.0114 10.8665 16.6927C11.4049 16.1222 11.1478 15.9594 10.9437 15.6263C10.7396 15.2932 10.13 14.6946 10.1451 14.3004C10.1608 13.89 10.3401 13.7177 10.6126 13.371C10.873 13.0395 11.8643 12.0469 11.9531 11.9581C11.9535 11.9577 11.9568 11.9544 11.9581 11.9531C12.0468 11.8643 13.0393 10.8728 13.371 10.6126C13.7177 10.3401 13.89 10.1607 14.3004 10.1451C14.6946 10.13 15.2932 10.7396 15.6263 10.9437C15.9594 11.1477 16.1222 11.4048 16.6928 10.8665C17.0115 10.5658 18.1853 9.36962 18.514 8.99236C18.8429 8.61515 18.7632 8.39124 18.6601 8.14504C18.5056 7.77594 18.0954 7.2144 17.7794 6.79268C17.4634 6.37097 17.1957 6.04855 16.1508 6.39964C15.7894 6.52102 14.9394 6.97199 13.8899 7.65181C12.7123 8.41467 11.8812 9.14107 10.5118 10.5068L10.5068 10.5118L10.5068 10.5118Z" fill="#2F306F"/>
<path d="M12.5 0C19.4042 0 25 5.59579 25 12.5C25 19.4042 19.4042 25 12.5 25C5.59579 25 0 19.4042 0 12.5C0 5.59579 5.59579 0 12.5 0V0ZM12.5 1.56133C6.45871 1.56133 1.5612 6.45884 1.5612 12.5001C1.5612 18.5414 6.45871 23.4389 12.5 23.4389C18.5413 23.4389 23.4388 18.5414 23.4388 12.5001C23.4388 6.45884 18.5413 1.56133 12.5 1.56133V1.56133Z" fill="#2F306F"/>
</svg>
