<svg width="98" height="96" viewBox="0 0 98 96" fill="none" xmlns="http://www.w3.org/2000/svg">
<path d="M86.3798 58.5688L90.1678 58.8675L89.6908 64.9459L85.9027 64.6487L86.3798 58.5688Z" fill="white" stroke="#4B5355" stroke-width="0.6"/>
<path d="M56.1182 64.6631C81.6537 64.6093 93.0369 68.3757 93.0369 68.3757C93.0369 68.3757 79.7429 65.7912 64.987 67.3443C53.4004 68.5638 46.1411 69.754 37.3253 71.1994L36.937 71.263C24.3558 73.3255 9.09332 75.1817 10.1246 71.263C11.1558 67.3443 31.1973 64.7156 56.1182 64.6631Z" stroke="white" stroke-width="0.8"/>
<path d="M57.3998 31.596C57.1426 32.4236 56.2802 33.4534 55.3199 34.2413C54.8436 34.6321 54.3547 34.9537 53.9223 35.1554C53.4773 35.3629 53.1376 35.422 52.9341 35.3588C52.7305 35.2955 52.4841 35.0543 52.2352 34.6311C51.9932 34.2199 51.7727 33.6778 51.6018 33.0859C51.2572 31.8925 51.1303 30.5553 51.3875 29.7277C51.9041 28.0654 53.6688 27.1364 55.3289 27.6523C56.9889 28.1681 57.9164 29.9337 57.3998 31.596Z" stroke="white" stroke-width="0.4"/>
<path d="M53.0451 28.6633C52.3172 29.25 52.1341 30.2242 51.8541 29.8767C51.574 29.5293 51.9371 28.772 52.665 28.1853C53.3929 27.5986 54.21 27.4047 54.4901 27.7522C54.7701 28.0997 53.7731 28.0767 53.0451 28.6633Z" fill="white"/>
<path d="M52.9505 35.5444C52.9505 35.5444 52.4702 35.9175 52.3852 36.5127C52.2865 37.2044 52.4152 37.6178 52.3752 38.3154C52.3416 38.9028 51.8833 39.558 51.8833 39.558" stroke="white" stroke-width="0.5"/>
<path d="M52.5588 35.4568C52.7647 35.3219 53.0394 35.4605 53.0532 35.7063L53.077 36.1295C53.0803 36.1871 53.0198 36.2267 52.9683 36.2007V36.2007C52.9623 36.1977 52.9568 36.1939 52.9518 36.1894L52.7891 36.0427C52.6932 35.9562 52.5702 35.9058 52.4412 35.9001L52.2724 35.8925C52.2442 35.8913 52.2175 35.8797 52.1973 35.8599V35.8599C52.145 35.8087 52.1535 35.7222 52.2147 35.6821L52.5588 35.4568Z" fill="white"/>
<path d="M47.0658 29.9542C47.3975 30.7548 47.3934 32.098 47.1594 33.318C47.0433 33.923 46.8733 34.4829 46.6699 34.9146C46.4607 35.3588 46.2374 35.6215 46.0405 35.7031C45.8436 35.7847 45.4999 35.7569 45.0378 35.5909C44.5888 35.4296 44.0726 35.154 43.5625 34.8084C42.5342 34.1116 41.5812 33.165 41.2495 32.3644C40.5831 30.7563 41.3452 28.9133 42.9511 28.2478C44.5571 27.5823 46.3993 28.346 47.0658 29.9542Z" stroke="white" stroke-width="0.4"/>
<path d="M41.8425 30.486C41.6583 31.4026 42.1408 32.2685 41.7033 32.1806C41.2658 32.0926 41.0604 31.2783 41.2445 30.3618C41.4287 29.4452 41.9327 28.7734 42.3702 28.8613C42.8077 28.9492 42.0267 29.5694 41.8425 30.486Z" fill="white"/>
<path d="M46.1718 35.8354C46.1718 35.8354 46.0413 36.4295 46.3568 36.9413C46.7234 37.5361 47.0867 37.7715 47.5023 38.3333C47.8522 38.8062 47.9191 39.603 47.9191 39.603" stroke="white" stroke-width="0.5"/>
<path d="M45.814 36.0179C45.8861 35.7825 46.1859 35.7134 46.3537 35.8934L46.6427 36.2034C46.6821 36.2457 46.661 36.3147 46.6047 36.3277V36.3277C46.5982 36.3292 46.5915 36.3299 46.5848 36.3296L46.3659 36.3209C46.2369 36.3158 46.1101 36.3557 46.0073 36.4338L45.8727 36.536C45.8502 36.5531 45.8223 36.5613 45.7941 36.559V36.559C45.7211 36.5531 45.6723 36.4812 45.6937 36.4112L45.814 36.0179Z" fill="white"/>
<path d="M52.6911 27.7611C52.7911 28.8735 52.2708 30.512 51.5227 31.9054C51.151 32.5977 50.7301 33.2162 50.316 33.6667C49.8925 34.1274 49.51 34.3751 49.2188 34.4013C48.9276 34.4274 48.5071 34.252 48.0082 33.8743C47.5203 33.5049 46.9958 32.9715 46.5065 32.3566C45.5218 31.1191 44.7174 29.5997 44.6174 28.4873C44.4166 26.2551 46.0614 24.2833 48.2907 24.0828C50.52 23.8823 52.4903 25.5289 52.6911 27.7611Z" fill="white" stroke="white" stroke-width="0.4"/>
<path d="M49.3233 34.5578C49.3233 34.5578 48.9201 35.5041 49.1084 36.2442C49.3273 37.1045 50.1523 37.2397 50.4431 38.0784C50.6879 38.7846 50.013 39.7883 50.013 39.7883" stroke="white" stroke-width="0.5"/>
<path d="M48.8582 34.5421C49.0348 34.284 49.4245 34.3139 49.5597 34.5958L49.7925 35.0813C49.8242 35.1475 49.7724 35.2232 49.6993 35.2176V35.2176C49.6908 35.217 49.6825 35.2152 49.6745 35.2123L49.4123 35.1188C49.2578 35.0637 49.089 35.064 48.9347 35.1197L48.7328 35.1926C48.6991 35.2047 48.6621 35.204 48.6288 35.1906V35.1906C48.5426 35.1557 48.5106 35.0501 48.5632 34.9733L48.8582 34.5421Z" fill="white"/>
<path d="M45.9254 26.5791C45.6453 27.09 45.5529 27.6425 45.4872 28.0351C45.4814 28.0697 45.4758 28.1031 45.4703 28.1351C45.453 28.2359 45.4373 28.3202 45.42 28.3896C45.4072 28.4409 45.3952 28.4769 45.3847 28.5012C45.243 28.4229 45.1323 28.1972 45.1553 27.787C45.1774 27.3923 45.3239 26.8945 45.5983 26.394C45.8726 25.8935 46.2135 25.5022 46.5343 25.2713C46.8679 25.0311 47.1177 25.0031 47.2599 25.0805C47.2449 25.1031 47.2205 25.1335 47.1829 25.1734C47.1334 25.2258 47.0704 25.285 46.9944 25.3543C46.9699 25.3767 46.9443 25.3999 46.9176 25.424C46.6211 25.6924 46.205 26.0691 45.9254 26.5791Z" fill="white" stroke="white" stroke-width="0.4"/>
<path d="M8.5165 63.3918V63.2692L8.39638 63.2448C7.57806 63.0785 7.17959 62.3222 7.17959 61.335C7.17959 60.2555 8.0142 59.3922 9.02959 59.3922C10.045 59.3922 10.8796 60.2555 10.8796 61.335C10.8796 62.1723 10.3761 62.8818 9.67597 63.156L9.56768 63.1984L9.58179 63.3139L9.86369 65.6212L8.5165 65.8789V63.3918Z" fill="white" stroke="#4B5355" stroke-width="0.3"/>
<path d="M5.04019 63.6644V63.5408L4.91879 63.5172C4.14088 63.3661 3.55363 62.6809 3.55363 61.8589C3.55363 60.9259 4.30997 60.1695 5.24297 60.1695C6.17596 60.1695 6.93231 60.9259 6.93231 61.8589C6.93231 62.5833 6.47629 63.2015 5.83515 63.4416L5.73321 63.4797L5.73788 63.5885L5.84697 66.1323H5.04019V63.6644Z" fill="white" stroke="#4B5355" stroke-width="0.3"/>
<path d="M7.85 64V63.8758L7.97198 63.8526C8.27653 63.7947 8.49196 63.6368 8.6343 63.4159C8.77892 63.1915 8.85269 62.894 8.85269 62.5568C8.85269 61.8317 8.25129 61.2384 7.50269 61.2384C6.75408 61.2384 6.15269 61.8317 6.15269 62.5568C6.15269 63.1202 6.51505 63.6036 7.02848 63.7917L7.1257 63.8273L7.12686 63.9309L7.14833 65.85H7.85V64Z" fill="white" stroke="#4B5355" stroke-width="0.3"/>
<path d="M19.076 60.4049L18.7893 56.0844L21.8167 53.1552L24.3075 54.9711L24.94 55.4322L24.903 54.6503L24.7185 50.757L32.7934 50.3743L32.9629 53.9515L32.9931 54.5894L33.5354 54.2522L34.1531 53.8681L38.8287 56.2693L39.4104 56.568L39.3744 55.9151L38.7367 44.3344L46.0071 43.9898L46.4445 53.2208L46.4817 54.0065L47.0687 53.4829L47.4899 53.1072L47.6189 52.9922L47.6152 52.8194L47.583 51.3126H48.0249V51.793V52.63L48.6495 52.0729L51.4063 49.6139L57.0179 53.4945V59.5575L57.7676 59.5721L58.4831 41.1244L65.5301 41.3477L65.079 55.5727L65.0577 56.2433L65.6401 55.91L66.0888 55.6532L66.2775 55.5452V55.3277V54.3381L66.7249 54.3675V54.6732V55.3272L67.2893 54.9969L69.9638 53.4317L71.7141 54.6778L72.2762 55.0779L72.3062 54.3886L72.3822 52.6466L73.9956 52.7169L74.3905 52.7341L74.3869 52.3389L74.3784 51.375H75.625V52.429V52.788L75.9837 52.8036L77.2661 52.8596L82.1501 53.0725L81.6615 64.2757C81.5121 64.2687 81.32 64.2599 81.0881 64.2494C80.4743 64.2215 79.5821 64.1822 78.4686 64.1362C76.2416 64.0442 73.1291 63.9255 69.5867 63.8185C62.5038 63.6045 53.6947 63.4372 46.8088 63.6251C37.6429 63.8753 28.683 64.3756 22.0153 64.8133C18.6813 65.0322 15.9199 65.2354 13.9918 65.3839C13.0278 65.4582 12.272 65.5188 11.7572 65.5608C11.6035 65.5734 11.4713 65.5843 11.3614 65.5934L11.1432 59.1902L13.7991 57.0302L16.8265 58.7778L17.2155 61.8205L17.3249 62.6767L17.8761 62.0124L18.9904 60.6691L19.0859 60.5541L19.076 60.4049Z" fill="white" stroke="#4B5355" stroke-width="0.75"/>
<path d="M83.9987 61.6596L84.012 61.5154L83.8699 61.4878C83.0965 61.3376 82.5128 60.6565 82.5128 59.8393C82.5128 58.9119 83.2646 58.16 84.1921 58.16C85.1196 58.16 85.8715 58.9119 85.8715 59.8393C85.8715 60.5594 85.4182 61.1741 84.7808 61.4127L84.6769 61.4516V61.5625V64.1028H83.7725L83.9987 61.6596Z" fill="white" stroke="#4B5355" stroke-width="0.32"/>
<path d="M91.9035 62.8783V62.7469L92.0324 62.7213C92.6474 62.5993 93.1158 62.0442 93.1158 61.3736C93.1158 60.6122 92.5126 60.0009 91.7758 60.0009C91.039 60.0009 90.4358 60.6122 90.4358 61.3736C90.4358 61.9644 90.7996 62.466 91.3072 62.6602L91.4342 62.7088L91.4067 62.842L91.0234 64.6964L91.9035 64.7698V62.8783Z" fill="white" stroke="#4B5355" stroke-width="0.32"/>
<path d="M93.4319 63.2201L93.4476 63.0745L93.3039 63.046C92.6889 62.9239 92.2205 62.3689 92.2205 61.6983C92.2205 60.9369 92.8237 60.3255 93.5605 60.3255C94.2973 60.3255 94.9005 60.9369 94.9005 61.6983C94.9005 62.289 94.5367 62.7907 94.0291 62.9848L93.9277 63.0236L93.9263 63.1322L93.9025 65.0055H93.2387L93.4319 63.2201Z" fill="white" stroke="#4B5355" stroke-width="0.32"/>
<path d="M95.6211 64.134L95.639 64.0213L95.7514 64.0015C96.1482 63.9317 96.4273 63.6209 96.4273 63.2702C96.4273 62.8731 96.0665 62.5247 95.5873 62.5247C95.108 62.5247 94.7473 62.8731 94.7473 63.2702C94.7473 63.5798 94.9634 63.8569 95.2881 63.967L95.4088 64.0079L95.3959 64.1347L95.2886 65.1894L95.4518 65.1977L95.6211 64.134Z" fill="white" stroke="#4B5355" stroke-width="0.32"/>
<path d="M97 65.9377C97 65.9377 82.9314 63.486 53.8 63.5382C25.3697 63.5891 1 67.1377 1 67.1377" stroke="white"/>
</svg>
