<svg width="96" height="96" viewBox="0 0 96 96" fill="none" xmlns="http://www.w3.org/2000/svg">
<path d="M58.7838 62.5398C58.7838 62.5398 56.674 63.7801 56.0146 66.1324C55.2481 68.8665 55.5358 70.6033 54.9997 73.3934C54.5483 75.7426 52.3735 78.1321 52.3735 78.1321" stroke="white"/>
<path d="M60.228 60.9528L60.2202 60.9512C60.2041 60.9479 60.1796 60.9428 60.1485 60.9359C60.086 60.9221 59.9989 60.9017 59.9014 60.8758C59.6901 60.8196 59.492 60.7533 59.3789 60.694C59.2706 60.6372 59.1089 60.518 58.9474 60.3833C58.8729 60.3211 58.8084 60.2641 58.7628 60.2228C58.7416 60.2036 58.7247 60.1881 58.7132 60.1773C57.9388 59.329 57.2261 57.8308 56.662 55.8602C56.1002 53.8973 55.7106 51.5541 55.5334 49.1206C55.1763 44.2148 55.6945 39.129 57.2419 36.1133C60.6038 29.5615 68.549 27.0245 74.9807 30.4227C81.4123 33.8209 83.9201 41.8809 80.5583 48.4326C79.0083 51.4532 75.183 54.795 71.0025 57.3003C68.929 58.5428 66.8073 59.5557 64.897 60.2067C62.9731 60.8622 61.3517 61.12 60.228 60.9528ZM58.0229 61.6885C58.1954 61.8279 58.4254 61.9997 58.6533 62.1192C58.8301 62.2118 59.032 62.287 59.215 62.3452L59.167 62.7122C58.7887 62.2878 58.3036 61.975 57.7637 61.8077L58.0229 61.6885ZM56.8572 61.5901C56.8575 61.5902 56.8578 61.5903 56.8581 61.5903L56.8572 61.5901Z" stroke="white" stroke-width="1.6"/>
<path d="M62.3277 34.4869C59.5886 37.0829 59.1409 41.0897 57.9197 39.7629C56.6985 38.4361 57.929 35.2561 60.6682 32.6601C63.4073 30.0642 66.6178 29.0353 67.839 30.3621C69.0602 31.6889 65.0669 31.891 62.3277 34.4869Z" fill="#E4EAFF" fill-opacity="0.5"/>
<path d="M36.8684 38.243C37.9074 41.6139 37.4073 47.0593 36.0345 51.9172C35.3534 54.3272 34.4732 56.5347 33.5059 58.2103C33.0222 59.048 32.5276 59.734 32.0399 60.2428C31.5479 60.7562 31.0987 61.0521 30.711 61.1752C30.3233 61.2982 29.7879 61.3148 29.0953 61.1774C28.4089 61.0412 27.6172 60.7636 26.7493 60.3548C25.0134 59.5372 23.0505 58.232 21.1375 56.6454C17.2814 53.4471 13.8126 49.2614 12.7736 45.8906C10.6856 39.1166 14.4014 31.9274 21.0456 29.8186C27.6898 27.7098 34.7804 31.4691 36.8684 38.243Z" stroke="white" stroke-width="1.6"/>
<path d="M16.5329 38.8403C15.4684 42.4869 17.0839 46.1712 15.3684 45.6556C13.653 45.1399 13.1253 41.7657 14.1898 38.1191C15.2543 34.4725 17.508 31.9344 19.2234 32.45C20.9389 32.9657 17.5974 35.1937 16.5329 38.8403Z" fill="white"/>
<path d="M31.1854 61.7476C31.1854 61.7476 30.4511 64.1069 31.5266 66.2954C32.7768 68.8393 34.1431 69.9253 35.6007 72.3528C36.8279 74.3968 36.809 77.6494 36.809 77.6494" stroke="white"/>
<path d="M31.5136 62.2695L32.2104 63.1794L32.1064 63.1657C31.2691 63.0552 30.4184 63.2438 29.7039 63.6982L29.5381 63.8037L30.0727 62.4711C30.3147 61.8678 31.1198 61.7552 31.5136 62.2695Z" fill="#E4EAFF" stroke="white" stroke-width="1.6"/>
<path d="M44.6152 56.1139C44.6152 56.1139 42.7785 59.587 43.2364 62.4761C43.7686 65.8344 46.8255 66.6336 47.6355 69.9342C48.3176 72.7132 45.4397 76.312 45.4397 76.312" stroke="white"/>
<path d="M45.196 55.2003L45.1839 55.2038C45.1653 55.2093 45.137 55.2174 45.101 55.2274C45.0287 55.2473 44.9274 55.274 44.8123 55.3006C44.5655 55.3576 44.3178 55.3992 44.1577 55.3998C44.0043 55.4002 43.7666 55.3635 43.5295 55.3127C43.419 55.289 43.3216 55.2652 43.2522 55.2473C43.2378 55.2436 43.2246 55.2402 43.2129 55.2371C43.1965 55.2328 43.183 55.2291 43.1725 55.2263L43.1715 55.226C41.9088 54.7689 40.3779 53.6062 38.7621 51.8904C37.152 50.1808 35.5204 47.9897 34.06 45.5931C31.1191 40.7671 28.9676 35.2665 28.9676 31.3144C28.9676 22.7341 35.8116 15.8 44.2277 15.8C52.6439 15.8 59.4879 22.7341 59.4879 31.3144C59.4879 35.2731 57.3165 40.7772 54.3547 45.6001C52.884 47.995 51.2421 50.1824 49.6246 51.8861C47.9969 53.6005 46.4585 54.756 45.196 55.2003ZM44.1628 56.9997C44.4178 56.9989 44.6966 56.9574 44.9325 56.911L45.2047 57.6727C44.4726 57.3301 43.6449 57.2561 42.8641 57.464L42.7838 57.4854L43.2455 56.888C43.4995 56.9408 43.8502 57.0007 44.1628 56.9997Z" fill="white" stroke="white" stroke-width="1.6"/>
<path d="M35.1684 23.522C32.0613 27.0827 31.9714 32.1245 30.2964 30.6194C28.6214 29.1144 29.7823 25.0078 32.8894 21.4471C35.9965 17.8865 39.8731 16.2201 41.5482 17.7251C43.2232 19.2302 38.2755 19.9613 35.1684 23.522Z" fill="white"/>
</svg>
