<svg width="96" height="96" viewBox="0 0 96 96" fill="none" xmlns="http://www.w3.org/2000/svg">
<path d="M53.1428 77H44" stroke="white" stroke-width="2" stroke-linecap="square" stroke-linejoin="bevel"/>
<path d="M53.1428 80H44" stroke="white" stroke-width="2" stroke-linecap="square" stroke-linejoin="bevel"/>
<path d="M50.8572 83H46.8572" stroke="white" stroke-width="2" stroke-linecap="square" stroke-linejoin="bevel"/>
<path d="M47.5715 13L47.5715 23.2857" stroke="white" stroke-width="1.6" stroke-linecap="round"/>
<path d="M68.0425 20.7231L62.4286 28.4285" stroke="white" stroke-width="1.6" stroke-linecap="round"/>
<path d="M84.1426 42.7144L73.8571 44.7862" stroke="white" stroke-width="1.6" stroke-linecap="round"/>
<path d="M11 42.7144L21.2857 44.9252" stroke="white" stroke-width="1.6" stroke-linecap="round"/>
<path d="M26.2603 20.7231L31.5714 29" stroke="white" stroke-width="1.6" stroke-linecap="round"/>
<path d="M32.25 49.55C32.25 41.6066 39.3688 35.0385 48.317 35.0385C57.2651 35.0385 64.384 41.6066 64.384 49.55C64.384 53.6803 62.472 57.4225 59.3731 60.0782C58.774 60.5916 58.4943 61.4586 58.3057 62.2608C58.1659 62.8556 58.0489 63.5578 57.9276 64.286C57.8778 64.585 57.8272 64.8884 57.7741 65.1905C57.3958 67.3404 56.8521 69.6364 55.4722 71.3966C54.1741 73.0524 51.5591 73.954 48.7556 73.9842C45.9506 74.0145 43.3016 73.1679 41.9865 71.7354C40.2442 69.8375 39.8597 67.8003 39.5551 65.7673C39.5369 65.6455 39.5189 65.5228 39.5009 65.3994C39.2283 63.5366 38.9317 61.5102 37.2608 60.0782C34.162 57.4225 32.25 53.6803 32.25 49.55Z" stroke="white" stroke-width="1.6"/>
</svg>
