<svg width="96" height="96" viewBox="0 0 96 96" fill="none" xmlns="http://www.w3.org/2000/svg">
<path d="M65.888 31L78 38L65.944 45L54 38L65.888 31Z" fill="#8CE6C5"/>
<path d="M66 44.6808V58L78 50.9242V38L66 44.6808Z" fill="#61C7A2"/>
<path d="M54 38V50.9242L66 58V44.6808L54 38Z" fill="#61C7A2"/>
<path d="M30.888 31L43 38L30.944 45L19 38L30.888 31Z" fill="#FFF1A4"/>
<path d="M31 44.6808V58L43 50.9242V38L31 44.6808Z" fill="#EAD668"/>
<path d="M19 38V50.9242L31 58V44.6808L19 38Z" fill="#EAD668"/>
<path d="M48.776 22L73 35.5L48.8879 49L25 35.5L48.776 22Z" fill="white"/>
<path d="M49 48.8615V75.5L73 61.3483V35.5L49 48.8615Z" fill="#F3F3F3"/>
<path d="M25 35.5V61.3483L49 75.5V48.8615L25 35.5Z" fill="#F3F3F3"/>
<path d="M65.888 52L78 59L65.944 66L54 59L65.888 52Z" fill="#81DEF2"/>
<path d="M66 65.6808V79L78 71.9242V59L66 65.6808Z" fill="#51C6E0"/>
<path d="M54 59V71.9242L66 79V65.6808L54 59Z" fill="#51C6E0"/>
<path d="M30.888 52L43 59L31 66L19 59L30.888 52Z" fill="#7882DC"/>
<path d="M31 66V79L43 72V59L31 66Z" fill="#5C67CF"/>
<path d="M19 59V72L31 79V66L19 59Z" fill="#5C67CF"/>
<path d="M48.888 16L61 23L48.944 30L37 23L48.888 16Z" fill="#F897A2"/>
<path d="M49 29.6808V43L61 35.9242V23L49 29.6808Z" fill="#E46070"/>
<path d="M37 23V35.9242L49 43V29.6808L37 23Z" fill="#E46070"/>
</svg>
