<svg width="96" height="96" viewBox="0 0 96 96" fill="none" xmlns="http://www.w3.org/2000/svg">
<path d="M41.1104 70.6917C40.7415 70.6917 40.4204 70.9439 40.3331 71.3024L38.6239 78.3193C38.5657 78.5578 38.6204 78.8098 38.772 79.0029C38.9237 79.1959 39.1556 79.3086 39.4011 79.3086H56.4538C56.7011 79.3086 56.9346 79.1942 57.0861 78.9986C57.2377 78.8031 57.2902 78.5484 57.2284 78.3089L55.4189 71.2919C55.3277 70.9386 55.0091 70.6917 54.6442 70.6917H41.1104Z" fill="white" stroke="#4B5355" stroke-width="1.6" stroke-linejoin="round"/>
<path d="M28.549 81.0645C28.2494 81.0645 27.9749 81.2319 27.8378 81.4982L26.738 83.6338C26.6103 83.8818 26.621 84.1785 26.7663 84.4166C26.9115 84.6548 27.1703 84.8001 27.4493 84.8001H68.5505C68.8329 84.8001 69.0944 84.6512 69.2385 84.4083C69.3826 84.1655 69.388 83.8646 69.2527 83.6167L68.0867 81.4811C67.9464 81.2243 67.6771 81.0645 67.3845 81.0645H28.549Z" fill="white" stroke="#4B5355" stroke-width="1.6" stroke-linejoin="round"/>
<rect x="11.2" y="11.2" width="73.6" height="57.7355" rx="7.8" stroke="#4B5355" stroke-width="1.6" stroke-linecap="round" stroke-linejoin="round"/>
<path d="M14.7343 45.8855C14.4581 45.8855 14.2343 45.6616 14.2343 45.3855V14.8616C14.2343 14.5855 14.4581 14.3616 14.7343 14.3616H31.3672H39.6836H48.0001H56.3165H64.633H81.2659C81.542 14.3616 81.7659 14.5855 81.7659 14.8616V45.3855C81.7659 45.6616 81.542 45.8855 81.2659 45.8855H14.7343Z" stroke="white" stroke-linecap="round" stroke-linejoin="round"/>
<rect x="38.7351" y="49.1101" width="18.8219" height="16.0847" stroke="white"/>
<rect x="15.1234" y="49.1101" width="18.8219" height="16.0847" stroke="white"/>
<rect x="61.8459" y="48.6101" width="19.8219" height="17.0847" fill="white"/>
</svg>
