<svg width="96" height="96" viewBox="0 0 96 96" fill="none" xmlns="http://www.w3.org/2000/svg">
<rect x="2.40906" y="75.8181" width="90.8864" height="1.40909" fill="white"/>
<rect x="2.40906" y="55.3865" width="91.5909" height="1.40909" fill="white"/>
<path d="M28.4773 38.1741C28.4773 38.1741 32.3744 40.3219 34.5412 42.1426C36.7087 43.9639 39.4966 47.434 39.4966 47.434C39.4966 47.434 43.4954 43.128 46.4469 40.8198C50.46 37.6814 57.6912 34.2055 57.6912 34.2055C57.6912 34.2055 50.9275 38.2304 47.1083 41.4812C43.8859 44.224 39.4966 49.1933 39.4966 49.1933C39.4966 49.1933 36.2584 44.462 33.8798 42.1426C31.8905 40.2028 28.4773 38.1741 28.4773 38.1741Z" fill="white"/>
<path d="M40.3831 37.7249C40.3831 37.7249 43.2425 39.3008 44.8323 40.6367C46.4227 41.973 48.4682 44.5191 48.4682 44.5191C48.4682 44.5191 51.4022 41.3597 53.5679 39.6661C56.5124 37.3634 61.8181 34.813 61.8181 34.813C61.8181 34.813 56.8554 37.7662 54.0532 40.1514C51.6888 42.1639 48.4682 45.81 48.4682 45.81C48.4682 45.81 46.0922 42.3385 44.347 40.6367C42.8874 39.2134 40.3831 37.7249 40.3831 37.7249Z" fill="white"/>
<path d="M65.8181 36.5598C65.8181 36.5598 68.6776 38.1358 70.2674 39.4717C71.8577 40.808 73.9032 43.3541 73.9032 43.3541C73.9032 43.3541 76.8373 40.1946 79.0029 38.501C81.9474 36.1983 87.2531 33.648 87.2531 33.648C87.2531 33.648 82.2904 36.6012 79.4882 38.9863C77.1239 40.9988 73.9032 44.6449 73.9032 44.6449C73.9032 44.6449 71.5273 41.1735 69.7821 39.4717C68.3224 38.0483 65.8181 36.5598 65.8181 36.5598Z" fill="white"/>
<path d="M33.7688 21.0552C33.7688 21.0552 36.009 22.2352 37.2419 23.2584C38.4752 24.2819 40.0389 26.259 40.0389 26.259C40.0389 26.259 42.4686 23.6555 44.2444 22.2436C46.659 20.3239 50.9659 18.1417 50.9659 18.1417C50.9659 18.1417 46.9218 20.6362 44.6186 22.6178C42.6753 24.2898 40.0034 27.2898 40.0034 27.2898C40.0034 27.2898 38.2014 24.5828 36.8544 23.2717C35.7278 22.1751 33.7688 21.0552 33.7688 21.0552Z" fill="white"/>
<path d="M6.51298 71.1628V63.4948H4.67698L4.80898 62.0908H10.089L9.94498 63.4948H8.26498V71.0188L6.51298 71.1628ZM10.8517 71.0908L12.7477 62.1988L15.2557 62.0908L17.1997 71.0188L15.2797 71.0908L14.9557 69.1588H12.8077L12.4237 71.0908H10.8517ZM13.1317 67.7188H14.6317L13.8037 63.4108L13.1317 67.7188ZM21.0848 67.1428H20.4008V71.0188L18.6488 71.1628V62.1628L20.7848 62.0908C21.8168 62.0908 22.6248 62.2988 23.2088 62.7148C23.7928 63.1228 24.0848 63.7508 24.0848 64.5988C24.0848 65.1588 23.9728 65.6188 23.7488 65.9788C23.5328 66.3388 23.2168 66.6388 22.8008 66.8788L23.6048 68.8348L24.4208 70.7788L22.6928 71.2468L21.0848 67.1428ZM21.0008 65.8468C21.4168 65.8468 21.7408 65.7628 21.9728 65.5948C22.2128 65.4188 22.3328 65.0908 22.3328 64.6108C22.3328 63.8668 21.9648 63.4948 21.2288 63.4948H20.4008V65.8468H21.0008ZM25.914 71.1628V62.2348L27.678 62.0908V71.0188L25.914 71.1628ZM33.8473 71.2468L32.2873 67.0588L31.6033 68.2468V71.0908H29.8393V62.2348L31.6033 62.0908V66.0268L33.7393 62.0908H35.6113L33.6793 65.8108L35.6353 70.8388L33.8473 71.2468Z" fill="white"/>
<path d="M43.8336 71.0908V62.2348L45.5856 62.0908V69.6868H48.5376L48.3576 71.0908H43.8336ZM52.3626 71.2588C51.3466 71.2588 50.6306 70.8228 50.2146 69.9508C49.8066 69.0708 49.6026 67.9348 49.6026 66.5428C49.6026 65.0628 49.8226 63.9228 50.2626 63.1228C50.7026 62.3228 51.4106 61.9228 52.3866 61.9228C54.2506 61.9228 55.1826 63.4468 55.1826 66.4948C55.1826 67.8628 54.9706 68.9988 54.5466 69.9028C54.1306 70.8068 53.4026 71.2588 52.3626 71.2588ZM52.3866 69.8428C52.8106 69.8428 53.0906 69.5668 53.2266 69.0148C53.3626 68.4548 53.4306 67.6108 53.4306 66.4828C53.4306 65.5788 53.3626 64.8308 53.2266 64.2388C53.0986 63.6388 52.8186 63.3388 52.3866 63.3388C51.9546 63.3388 51.6746 63.6348 51.5466 64.2268C51.4186 64.8188 51.3546 65.5668 51.3546 66.4708C51.3546 67.6068 51.4186 68.4548 51.5466 69.0148C51.6826 69.5668 51.9626 69.8428 52.3866 69.8428ZM59.6205 71.2588C58.7245 71.2588 58.0525 70.9708 57.6045 70.3948C57.1565 69.8188 56.9325 69.0628 56.9325 68.1268V62.1628L58.6965 62.0908V68.2708C58.6965 68.5828 58.7125 68.8468 58.7445 69.0628C58.7845 69.2788 58.8765 69.4628 59.0205 69.6148C59.1645 69.7668 59.3845 69.8428 59.6805 69.8428C59.9605 69.8428 60.1645 69.7668 60.2925 69.6148C60.4285 69.4548 60.5125 69.2708 60.5445 69.0628C60.5765 68.8468 60.5925 68.5748 60.5925 68.2468V62.2348L62.2005 62.0908V67.9228C62.2005 68.7708 62.0325 69.5388 61.6965 70.2268C61.3685 70.9148 60.6765 71.2588 59.6205 71.2588ZM63.6088 71.0908L65.5048 62.1988L68.0128 62.0908L69.9568 71.0188L68.0368 71.0908L67.7128 69.1588H65.5648L65.1808 71.0908H63.6088ZM65.8888 67.7188H67.3888L66.5608 63.4108L65.8888 67.7188ZM72.5699 71.1628V63.4948H70.7339L70.8659 62.0908H76.1459L76.0019 63.4948H74.3219V71.0188L72.5699 71.1628ZM76.9087 71.0908L78.8047 62.1988L81.3127 62.0908L83.2567 71.0188L81.3367 71.0908L81.0127 69.1588H78.8647L78.4807 71.0908H76.9087ZM79.1887 67.7188H80.6887L79.8607 63.4108L79.1887 67.7188ZM84.7058 71.1628V62.2348L86.4698 62.0908V65.7388H88.1498V62.2348L89.9138 62.0908V71.0188L88.1498 71.1628V67.3468H86.4698V71.0188L84.7058 71.1628Z" fill="white"/>
</svg>
