<svg width="96" height="96" viewBox="0 0 96 96" fill="none" xmlns="http://www.w3.org/2000/svg">
<path d="M41.1104 70.8917C40.8337 70.8917 40.5929 71.0809 40.5274 71.3497L38.8182 78.3666C38.7746 78.5455 38.8156 78.7345 38.9293 78.8793C39.0431 79.0241 39.217 79.1086 39.4011 79.1086H56.4538C56.6393 79.1086 56.8144 79.0228 56.928 78.8761C57.0417 78.7295 57.0811 78.5385 57.0347 78.3588L55.2252 71.3419C55.1568 71.0769 54.9179 70.8917 54.6442 70.8917H41.1104Z" fill="white" stroke="#4B5355" stroke-width="1.2" stroke-linejoin="round"/>
<path d="M28.549 81.2645C28.3243 81.2645 28.1185 81.39 28.0156 81.5898L26.9159 83.7254C26.8201 83.9114 26.8281 84.1339 26.937 84.3125C27.046 84.4911 27.2401 84.6001 27.4493 84.6001H68.5505C68.7623 84.6001 68.9584 84.4884 69.0665 84.3063C69.1746 84.1241 69.1786 83.8985 69.0771 83.7126L67.9111 81.577C67.8059 81.3843 67.604 81.2645 67.3845 81.2645H28.549Z" fill="white" stroke="#4B5355" stroke-width="1.2" stroke-linejoin="round"/>
<rect x="11.4" y="11.4" width="73.2" height="57.3355" rx="7.6" stroke="#4B5355" stroke-width="1.2" stroke-linecap="round" stroke-linejoin="round"/>
<path d="M14.7343 45.8855C14.4581 45.8855 14.2343 45.6616 14.2343 45.3855V14.8616C14.2343 14.5855 14.4581 14.3616 14.7343 14.3616H31.3672H39.6836H48.0001H56.3165H64.633H81.2659C81.542 14.3616 81.7659 14.5855 81.7659 14.8616V45.3855C81.7659 45.6616 81.542 45.8855 81.2659 45.8855H14.7343Z" stroke="white" stroke-linecap="round" stroke-linejoin="round"/>
<rect x="38.7351" y="49.1101" width="18.8219" height="16.0847" stroke="white"/>
<rect x="15.1234" y="49.1101" width="18.8219" height="16.0847" stroke="white"/>
<rect x="61.8459" y="48.6101" width="19.8219" height="17.0847" fill="white"/>
</svg>
