<svg width="96" height="96" viewBox="0 0 96 96" fill="none" xmlns="http://www.w3.org/2000/svg">
<path d="M63.1918 16.8859L63.4394 16.3948L63.1918 16.8859L75.7853 23.2351L76.0329 22.744L75.7853 23.2351C75.829 23.2571 75.872 23.28 75.9144 23.3039C75.2054 23.2396 74.4584 23.4341 73.7958 23.9604L24.1493 63.3974C24.1493 63.3974 24.1493 63.3974 24.1492 63.3974C23.388 64.0019 22.3285 63.9544 21.6183 63.2782L21.6182 63.2782L18.2507 60.0727C17.3679 59.2323 17.3668 57.7671 18.2485 56.9252L59.4753 17.5656L59.4845 17.5568L59.4933 17.5476C60.4736 16.5212 61.9548 16.2622 63.1918 16.8859Z" stroke="#4B5355" stroke-width="1.1"/>
<path d="M17.8341 35.4284L18.2139 35.8262L21.5834 32.6098C21.5834 32.6098 21.5834 32.6098 21.5834 32.6098C22.2942 31.9313 23.3538 31.8837 24.1153 32.4903L24.1153 32.4903L73.792 72.0601C74.4576 72.5903 75.2079 72.7851 75.9193 72.7186C75.8744 72.7441 75.8289 72.7685 75.7826 72.7919L63.1815 79.1625C63.1815 79.1625 63.1815 79.1625 63.1815 79.1625C61.9442 79.7879 60.4625 79.5283 59.4814 78.4984L59.4726 78.4892L59.4635 78.4804L18.2117 38.9881L17.8333 39.3833L18.2117 38.9881C17.3285 38.1426 17.3296 36.6703 18.2139 35.8262L17.8341 35.4284Z" fill="white" stroke="#4B5355" stroke-width="1.1"/>
<path d="M63.3724 18.8347C63.3724 17.9159 62.9802 17.1471 62.3949 16.6304C62.6348 16.6862 62.8711 16.7713 63.0991 16.8864L63.0991 16.8865L75.6981 23.2483L75.6981 23.2484C76.8276 23.8187 77.5618 25.0289 77.5618 26.3744V69.5107C77.5618 70.8561 76.8276 72.0663 75.6981 72.6366L75.946 73.1276L75.6981 72.6366L63.0991 78.9983L63.347 79.4892L63.0991 78.9983C62.8711 79.1134 62.6348 79.1985 62.3949 79.2543C62.9803 78.7376 63.3724 77.9688 63.3724 77.05V18.8347Z" fill="white" stroke="#4B5355" stroke-width="1.1"/>
</svg>
