<svg width="96" height="96" viewBox="0 0 96 96" fill="none" xmlns="http://www.w3.org/2000/svg">
<path d="M24.6641 19.8H71.3359C74.0223 19.8 76.2 21.9777 76.2 24.6641V71.3359C76.2 74.0223 74.0223 76.2 71.3359 76.2H24.6641C21.9777 76.2 19.8 74.0223 19.8 71.3359V24.6641C19.8 21.9777 21.9777 19.8 24.6641 19.8Z" stroke="#4B5355" stroke-width="1.6"/>
<path d="M54.4887 27.04H66.7412C67.9666 27.04 68.96 28.0334 68.96 29.2588V49.1963C68.96 50.4217 67.9666 51.415 66.7412 51.415H54.4887C53.2633 51.415 52.27 50.4217 52.27 49.1963V29.2588C52.27 28.0334 53.2633 27.04 54.4887 27.04Z" stroke="white"/>
<path d="M29.2587 27.04H41.5112C42.7365 27.04 43.7299 28.0334 43.7299 29.2588V63.6963C43.7299 64.9217 42.7365 65.915 41.5112 65.915H29.2587C28.0333 65.915 27.0399 64.9217 27.0399 63.6963V29.2588C27.0399 28.0334 28.0333 27.04 29.2587 27.04Z" fill="white" stroke="white"/>
</svg>
