<svg width="96" height="96" viewBox="0 0 96 96" fill="none" xmlns="http://www.w3.org/2000/svg">
<path d="M34.3117 30.2121L41.4053 24.098L43.1535 33.2983L34.3117 30.2121Z" fill="white" stroke="white" stroke-width="1.6"/>
<path d="M60.7735 39.4485L67.8671 33.3343L69.6153 42.5346L60.7735 39.4485Z" fill="white" stroke="white" stroke-width="1.6"/>
<path d="M47.5425 34.8303L54.6361 28.7162L56.3843 37.9165L47.5425 34.8303Z" fill="white" stroke="white" stroke-width="1.6"/>
<path d="M44.0943 23.447L45.8425 32.6473L52.9361 26.5332L44.0943 23.447Z" fill="white" stroke="white" stroke-width="1.6"/>
<path d="M30.8635 18.8291L32.6117 28.0294L39.7053 21.9153L30.8635 18.8291Z" fill="white" stroke="white" stroke-width="1.6"/>
<path d="M70.5561 32.6834L72.3043 41.8837L79.3979 35.7695L70.5561 32.6834Z" fill="white" stroke="white" stroke-width="1.6"/>
<path d="M57.3253 28.0654L59.0735 37.2657L66.1671 31.1516L57.3253 28.0654Z" fill="white" stroke="white" stroke-width="1.6"/>
<path d="M36.7708 44.4289L43.8644 38.3148L45.6126 47.5151L36.7708 44.4289Z" fill="white" stroke="white" stroke-width="1.6"/>
<path d="M50.0016 49.0471L57.0952 42.933L58.8434 52.1333L50.0016 49.0471Z" fill="white" stroke="white" stroke-width="1.6"/>
<path d="M46.5534 37.6641L48.3016 46.8644L55.3952 40.7502L46.5534 37.6641Z" fill="white" stroke="white" stroke-width="1.6"/>
<path d="M33.3226 33.0459L35.0708 42.2462L42.1644 36.1321L33.3226 33.0459Z" fill="white" stroke="white" stroke-width="1.6"/>
<path d="M39.2299 58.646L46.3235 52.5319L48.0717 61.7321L39.2299 58.646Z" fill="white" stroke="white" stroke-width="1.6"/>
<path d="M49.0126 51.8809L50.7607 61.0812L57.8543 54.967L49.0126 51.8809Z" fill="white" stroke="white" stroke-width="1.6"/>
<path d="M35.7817 47.2627L37.5299 56.463L44.6235 50.3489L35.7817 47.2627Z" fill="white" stroke="white" stroke-width="1.6"/>
<path d="M38.2408 61.4795L39.989 70.6798L47.0826 64.5657L38.2408 61.4795Z" fill="white" stroke="white" stroke-width="1.6"/>
<path d="M59.7843 42.282L61.5325 51.4823L68.6261 45.3682L59.7843 42.282Z" fill="white" stroke="white" stroke-width="1.6"/>
</svg>
