<svg width="96" height="96" viewBox="0 0 96 96" fill="none" xmlns="http://www.w3.org/2000/svg">
<path d="M12 67.15C11.825 67.15 11.6588 67.2264 11.5448 67.3591C11.4308 67.4918 11.3804 67.6677 11.4069 67.8407L11.8239 70.568C11.8687 70.8609 12.1206 71.0773 12.417 71.0773H83.444C83.7292 71.0773 83.975 70.8765 84.0319 70.5971L84.5879 67.8699C84.6239 67.6933 84.5787 67.51 84.4647 67.3705C84.3508 67.2309 84.1801 67.15 84 67.15H66H57C56.7711 67.15 56.5621 67.2802 56.4613 67.4858L56.3828 67.6459H39.6172L39.5387 67.4858C39.4379 67.2802 39.2289 67.15 39 67.15H30H12Z" fill="white" stroke="#4B5355" stroke-width="1.2" stroke-linecap="round" stroke-linejoin="round"/>
<rect x="18.15" y="24.4" width="59.7" height="39.45" stroke="#4B5355" stroke-width="1.2" stroke-linecap="round" stroke-linejoin="round"/>
<path d="M21 46H75V27H61.5H54.75H48H41.25H34.5H21V46Z" stroke="white" stroke-linecap="round" stroke-linejoin="round"/>
<rect x="58" y="48" width="17" height="12" fill="white" stroke="white"/>
<rect x="40" y="48" width="16" height="12" stroke="white"/>
<rect x="21" y="48" width="17" height="12" stroke="white"/>
<path d="M29.454 51.1781L29.7222 51.7595C29.9407 52.2332 30.3896 52.5594 30.9077 52.6208L31.5435 52.6962C31.9672 52.7464 32.1374 53.2701 31.8241 53.5598L31.354 53.9945C30.971 54.3487 30.7995 54.8764 30.9012 55.3881L31.026 56.0161C31.1091 56.4346 30.6637 56.7582 30.2914 56.5498L29.7327 56.2371C29.2775 55.9823 28.7225 55.9823 28.2673 56.2371L27.7086 56.5498C27.3363 56.7582 26.8909 56.4346 26.974 56.0161L27.0988 55.3881C27.2005 54.8764 27.029 54.3487 26.646 53.9945L26.1759 53.5598C25.8627 53.2701 26.0328 52.7464 26.4565 52.6962L27.0923 52.6208C27.6104 52.5594 28.0593 52.2332 28.2778 51.7595L28.546 51.1781C28.7247 50.7907 29.2753 50.7907 29.454 51.1781Z" stroke="white"/>
</svg>
