<svg width="96" height="96" viewBox="0 0 96 96" fill="none" xmlns="http://www.w3.org/2000/svg">
<path d="M32.2528 26.8417L35.5219 28.466C35.8563 28.1789 36.2901 28.0044 36.7653 28.0044H38.7213C37.0953 26.5953 35.9945 24.5957 35.7607 22.3409L34.7407 21.8342C33.3572 21.1472 31.6799 21.7113 30.9929 23.0941C30.3061 24.4767 30.8702 26.1546 32.2528 26.8417Z" stroke="white" stroke-width="1.6"/>
<path d="M44.4035 27.8151C45.1261 27.8151 45.8197 27.6933 46.4673 27.4718C46.6792 25.9425 47.9405 24.5758 49.9544 24.5758C50.4792 23.6492 50.7804 22.5792 50.7804 21.4383C50.7804 17.9165 47.9254 15.0615 44.4036 15.0615C40.8819 15.0615 38.0269 17.9165 38.0269 21.4383C38.0267 24.9601 40.8817 27.8151 44.4035 27.8151Z" stroke="white" stroke-width="1.6"/>
<path d="M49.7939 36.4546C48.7943 36.4546 47.8959 36.0152 47.2801 35.3202C47.2693 35.308 47.2587 35.2956 47.248 35.2832C46.7417 34.695 46.4348 33.9307 46.4348 33.0956V29.9159C45.507 29.9159 38.8342 29.9159 37.7765 29.9159C35.9079 29.9719 34.1736 30.8279 32.9942 32.2887L29.9627 36.0432L27.1216 30.3969C26.4504 29.0624 24.8239 28.5252 23.4896 29.1965C22.1551 29.868 21.6178 31.4942 22.2893 32.8286L27.0161 42.222C27.8987 43.9761 30.3012 44.2354 31.5369 42.7052L37.0193 35.915C37.0193 35.915 37.0207 76.9524 37.0207 79.5818C37.0207 81.3744 38.4739 82.8276 40.2665 82.8276C42.0591 82.8276 43.5124 81.3744 43.5124 79.5818V55.8318H44.914V79.5818C44.914 81.3744 46.3672 82.8276 48.1598 82.8276C49.9524 82.8276 51.4056 81.3744 51.4056 79.5818C51.4053 40.4796 51.3465 62.3895 51.3465 36.4546H49.7939Z" stroke="white" stroke-width="1.6"/>
<path d="M72.3773 30.8855C71.4194 29.5067 69.8382 28.7473 67.925 28.7473H61.203V30.5653C61.7609 31.315 65.683 36.5868 66.3124 37.4329L66.8963 36.4232L65.6988 40.3344L59.1167 31.4873C58.195 30.2485 56.4433 29.9912 55.2047 30.9131C53.9659 31.8348 53.7089 33.5862 54.6305 34.825C65.1028 48.901 64.5307 48.1364 64.6147 48.2364C66.0378 49.9289 68.7796 49.3723 69.4276 47.2554L72.2428 38.0605V38.0607L72.8057 36.2221C73.5285 34.2178 73.3773 32.3254 72.3773 30.8855Z" stroke="white" stroke-width="1.6"/>
<path d="M57.8437 24.5757C59.1527 24.5757 60.2885 25.3287 60.8425 26.424C64.3672 26.2175 67.1621 23.2948 67.1621 19.7185C67.1619 16.0079 64.154 13 60.4436 13C56.7332 13 53.7253 16.0079 53.7253 19.7183C53.7253 21.6291 54.5244 23.3523 55.805 24.5757H57.8437Z" stroke="white" stroke-width="1.6"/>
<path d="M62.7266 49.4335L53.0703 36.4545H52.9705L52.9718 79.5817C52.9718 81.4346 54.4739 82.9366 56.3267 82.9366C58.1796 82.9366 59.6816 81.4346 59.6816 79.5817V55.5404H61.1303V79.5817C61.1303 81.4346 62.6323 82.9366 64.4852 82.9366C66.338 82.9366 67.84 81.4346 67.84 79.5817C67.8402 54.0473 67.7793 52.071 67.7793 52.071C64.8072 52.5721 63.423 50.3696 62.7266 49.4335Z" stroke="white" stroke-width="1.6"/>
<path d="M53.8769 29.1285C55.3025 28.0677 57.1058 27.8779 58.653 28.4629V27.9348C58.653 27.4878 58.2907 27.1255 57.8437 27.1255H49.7939C49.347 27.1255 48.9846 27.4878 48.9846 27.9348V33.0954C48.9846 33.5423 49.347 33.9046 49.7939 33.9046H51.9092C51.6434 32.1315 52.338 30.2735 53.8769 29.1285Z" stroke="white" stroke-width="1.6"/>
</svg>
