<svg width="96" height="96" viewBox="0 0 96 96" fill="none" xmlns="http://www.w3.org/2000/svg">
<mask id="path-1-inside-1" fill="white">
<path d="M63.5938 40.2969C63.5938 53.1634 53.1634 63.5938 40.2969 63.5938C27.4304 63.5938 17 53.1634 17 40.2969C17 27.4304 27.4304 17 40.2969 17C53.1634 17 63.5938 27.4304 63.5938 40.2969ZM20.3413 40.2969C20.3413 51.318 29.2757 60.2524 40.2969 60.2524C51.318 60.2524 60.2524 51.318 60.2524 40.2969C60.2524 29.2757 51.318 20.3413 40.2969 20.3413C29.2757 20.3413 20.3413 29.2757 20.3413 40.2969Z"/>
</mask>
<path d="M63.5938 40.2969C63.5938 53.1634 53.1634 63.5938 40.2969 63.5938C27.4304 63.5938 17 53.1634 17 40.2969C17 27.4304 27.4304 17 40.2969 17C53.1634 17 63.5938 27.4304 63.5938 40.2969ZM20.3413 40.2969C20.3413 51.318 29.2757 60.2524 40.2969 60.2524C51.318 60.2524 60.2524 51.318 60.2524 40.2969C60.2524 29.2757 51.318 20.3413 40.2969 20.3413C29.2757 20.3413 20.3413 29.2757 20.3413 40.2969Z" stroke="#4B5355" stroke-width="1.6" mask="url(#path-1-inside-1)"/>
<path d="M57.2929 58.5268L61.0755 54.019L62.3884 55.1207L58.6059 59.6285L57.2929 58.5268Z" stroke="#4B5355"/>
<path d="M62.2402 58.2196L62.2461 58.2128L62.2519 58.2057L63.9827 56.0733C64.4756 55.466 65.3705 55.3804 65.9696 55.8831L83.5858 70.6648C84.1781 71.1618 84.2554 72.0449 83.7584 72.6372L79.6586 77.5231C79.1616 78.1154 78.2785 78.1927 77.6862 77.6957L60.0663 62.9109C59.4682 62.409 59.3962 61.5148 59.9064 60.9237L62.2402 58.2196Z" fill="white" stroke="#4B5355" stroke-width="1.2"/>
<path d="M36.431 35.476L33.875 35.26L34.307 30.58C35.219 29.884 36.263 29.32 37.439 28.888C38.615 28.456 39.755 28.24 40.859 28.24C42.779 28.24 44.399 28.684 45.719 29.572C47.039 30.46 47.699 31.684 47.699 33.244C47.699 34.468 47.327 35.476 46.583 36.268C45.863 37.036 45.023 37.708 44.063 38.284C43.127 38.836 42.287 39.388 41.543 39.94C40.823 40.468 40.463 41.092 40.463 41.812C40.463 42.7 41.063 43.144 42.263 43.144V45.232C40.463 45.376 39.143 45.148 38.303 44.548C37.487 43.948 37.079 43.132 37.079 42.1C37.079 40.996 37.439 40.108 38.159 39.436C38.879 38.764 39.695 38.176 40.607 37.672C41.543 37.144 42.371 36.592 43.091 36.016C43.811 35.416 44.171 34.648 44.171 33.712C44.171 31.984 42.959 31.12 40.535 31.12C39.119 31.12 37.919 31.504 36.935 32.272L36.431 35.476ZM38.123 52V48.004H42.011V52H38.123Z" fill="white"/>
<path d="M36.431 35.476L36.4205 35.6006L36.5364 35.6104L36.5545 35.4954L36.431 35.476ZM33.875 35.26L33.7505 35.2485L33.739 35.3739L33.8645 35.3846L33.875 35.26ZM34.307 30.58L34.2312 30.4806L34.1876 30.5139L34.1825 30.5685L34.307 30.58ZM37.439 28.888L37.4821 29.0053L37.4821 29.0053L37.439 28.888ZM46.583 36.268L46.4919 36.1824L46.4918 36.1825L46.583 36.268ZM44.063 38.284L44.1265 38.3917L44.1273 38.3912L44.063 38.284ZM41.543 39.94L41.6169 40.0408L41.6175 40.0404L41.543 39.94ZM42.263 43.144H42.388V43.019H42.263V43.144ZM42.263 45.232L42.273 45.3566L42.388 45.3474V45.232H42.263ZM38.303 44.548L38.229 44.6487L38.2304 44.6497L38.303 44.548ZM40.607 37.672L40.6675 37.7814L40.6684 37.7809L40.607 37.672ZM43.091 36.016L43.1691 36.1136L43.171 36.112L43.091 36.016ZM36.935 32.272L36.8581 32.1735L36.8192 32.2038L36.8115 32.2526L36.935 32.272ZM38.123 52H37.998V52.125H38.123V52ZM38.123 48.004V47.879H37.998V48.004H38.123ZM42.011 48.004H42.136V47.879H42.011V48.004ZM42.011 52V52.125H42.136V52H42.011ZM36.4415 35.3514L33.8855 35.1354L33.8645 35.3846L36.4205 35.6006L36.4415 35.3514ZM33.9995 35.2715L34.4315 30.5915L34.1825 30.5685L33.7505 35.2485L33.9995 35.2715ZM34.3828 30.6794C35.284 29.9916 36.3168 29.4334 37.4821 29.0053L37.3959 28.7707C36.2092 29.2066 35.154 29.7764 34.2312 30.4806L34.3828 30.6794ZM37.4821 29.0053C38.6462 28.5777 39.7716 28.365 40.859 28.365V28.115C39.7385 28.115 38.5839 28.3343 37.3959 28.7707L37.4821 29.0053ZM40.859 28.365C42.7594 28.365 44.3538 28.8042 45.6492 29.6757L45.7888 29.4683C44.4442 28.5638 42.7987 28.115 40.859 28.115V28.365ZM45.6492 29.6757C46.9355 30.541 47.574 31.7266 47.574 33.244H47.824C47.824 31.6414 47.1425 30.379 45.7888 29.4683L45.6492 29.6757ZM47.574 33.244C47.574 34.4405 47.2113 35.4166 46.4919 36.1824L46.6741 36.3536C47.4427 35.5354 47.824 34.4955 47.824 33.244H47.574ZM46.4918 36.1825C45.7802 36.9415 44.9494 37.6064 43.9987 38.1768L44.1273 38.3912C45.0966 37.8096 45.9458 37.1305 46.6742 36.3535L46.4918 36.1825ZM43.9995 38.1763C43.0604 38.7302 42.2166 39.2846 41.4685 39.8396L41.6175 40.0404C42.3574 39.4914 43.1937 38.9418 44.1265 38.3917L43.9995 38.1763ZM41.4691 39.8392C40.7256 40.3844 40.338 41.0426 40.338 41.812H40.588C40.588 41.1414 40.9204 40.5516 41.6169 40.0408L41.4691 39.8392ZM40.338 41.812C40.338 42.2871 40.5005 42.6613 40.8387 42.9115C41.1697 43.1565 41.6513 43.269 42.263 43.269V43.019C41.6748 43.019 41.2563 42.9095 40.9874 42.7105C40.7255 42.5167 40.588 42.2249 40.588 41.812H40.338ZM42.138 43.144V45.232H42.388V43.144H42.138ZM42.253 45.1074C40.4625 45.2506 39.1793 45.0203 38.3757 44.4463L38.2304 44.6497C39.1067 45.2757 40.4635 45.5014 42.273 45.3566L42.253 45.1074ZM38.3771 44.4473C37.5938 43.8714 37.204 43.0931 37.204 42.1H36.954C36.954 43.1709 37.3802 44.0246 38.229 44.6487L38.3771 44.4473ZM37.204 42.1C37.204 41.026 37.5528 40.1728 38.2443 39.5274L38.0737 39.3446C37.3252 40.0432 36.954 40.966 36.954 42.1H37.204ZM38.2443 39.5274C38.9564 38.8628 39.7639 38.2807 40.6675 37.7814L40.5466 37.5626C39.6261 38.0713 38.8017 38.6652 38.0737 39.3446L38.2443 39.5274ZM40.6684 37.7809C41.6093 37.2501 42.4431 36.6944 43.1691 36.1136L43.0129 35.9184C42.2989 36.4896 41.4767 37.0379 40.5456 37.5631L40.6684 37.7809ZM43.171 36.112C43.9195 35.4883 44.296 34.6852 44.296 33.712H44.046C44.046 34.6108 43.7025 35.3437 43.011 35.92L43.171 36.112ZM44.296 33.712C44.296 32.815 43.9791 32.1257 43.3346 31.6662C42.6978 31.2123 41.7581 30.995 40.535 30.995V31.245C41.7359 31.245 42.6142 31.4597 43.1895 31.8698C43.7569 32.2743 44.046 32.881 44.046 33.712H44.296ZM40.535 30.995C39.0951 30.995 37.867 31.386 36.8581 32.1735L37.0119 32.3705C37.971 31.622 39.1429 31.245 40.535 31.245V30.995ZM36.8115 32.2526L36.3075 35.4566L36.5545 35.4954L37.0585 32.2914L36.8115 32.2526ZM38.248 52V48.004H37.998V52H38.248ZM38.123 48.129H42.011V47.879H38.123V48.129ZM41.886 48.004V52H42.136V48.004H41.886ZM42.011 51.875H38.123V52.125H42.011V51.875Z" fill="#4B5355"/>
</svg>
