<svg width="96" height="96" viewBox="0 0 96 96" fill="none" xmlns="http://www.w3.org/2000/svg">
<path d="M36.2013 31.6763L38.8163 32.9291C39.0837 32.7077 39.4308 32.5731 39.8109 32.5731H41.3755C40.0748 31.4862 39.1943 29.9439 39.0073 28.2048L38.1914 27.8139C37.0847 27.2841 35.743 27.7191 35.1935 28.7857C34.6441 29.8521 35.0953 31.1463 36.2013 31.6763Z" fill="white" stroke="#4B5355"/>
<path d="M45.9209 32.4271C46.4988 32.4271 47.0537 32.3331 47.5717 32.1622C47.7412 30.9827 48.7501 29.9286 50.3611 29.9286C50.7809 29.2139 51.0218 28.3886 51.0218 27.5086C51.0218 24.7922 48.7381 22.5901 45.921 22.5901C43.1039 22.5901 40.8201 24.7922 40.8201 27.5086C40.82 30.225 43.1038 32.4271 45.9209 32.4271Z" stroke="#4B5355"/>
<path d="M50.2326 39.0908C49.433 39.0908 48.7144 38.7519 48.2218 38.2158C48.2131 38.2064 48.2046 38.1968 48.1961 38.1873C47.7911 37.7336 47.5456 37.1441 47.5456 36.5V34.0475C46.8034 34.0475 41.4658 34.0475 40.6197 34.0475C39.1251 34.0906 37.7378 34.7509 36.7944 35.8776L34.3695 38.7735L32.0968 34.4185C31.5599 33.3891 30.2589 32.9748 29.1916 33.4926C28.1241 34.0105 27.6943 35.2648 28.2314 36.294L32.0124 43.5392C32.7185 44.8922 34.6402 45.0923 35.6286 43.912L40.0141 38.6746C40.0141 38.6746 40.0152 70.3272 40.0152 72.3553C40.0152 73.738 41.1776 74.8589 42.6116 74.8589C44.0455 74.8589 45.2079 73.738 45.2079 72.3553V54.0367H46.3291V72.3553C46.3291 73.738 47.4916 74.8589 48.9255 74.8589C50.3594 74.8589 51.5218 73.738 51.5218 72.3553C51.5216 42.1953 51.4745 59.0947 51.4745 39.0908H50.2326Z" stroke="#4B5355"/>
<path d="M68.2973 34.7952C67.531 33.7317 66.2663 33.146 64.7359 33.146H59.3589V34.5482C59.8051 35.1265 62.9425 39.1926 63.4459 39.8453L63.913 39.0665L62.9551 42.0833L57.69 35.2594C56.9527 34.3038 55.5516 34.1054 54.5608 34.8165C53.5698 35.5274 53.3643 36.8782 54.1015 37.8338C62.4784 48.6908 62.0207 48.101 62.0879 48.1781C63.2262 49.4836 65.4195 49.0543 65.9378 47.4215L68.1897 40.3294V40.3295L68.6399 38.9114C69.2182 37.3654 69.0972 35.9058 68.2973 34.7952Z" fill="white" stroke="#4B5355"/>
<path d="M56.6718 29.9285C57.7189 29.9285 58.6273 30.5093 59.0705 31.3541C61.8899 31.1948 64.1256 28.9405 64.1256 26.182C64.1255 23.32 61.7194 21 58.7515 21C55.7835 21 53.3774 23.32 53.3774 26.1819C53.3774 27.6557 54.0166 28.9849 55.041 29.9285H56.6718Z" fill="white" stroke="#4B5355"/>
<path d="M60.5776 49.1014L52.8534 39.0906H52.7736L52.7747 72.3551C52.7747 73.7842 53.9762 74.9428 55.4583 74.9428C56.9404 74.9428 58.1419 73.7842 58.1419 72.3551V53.8118H59.3007V72.3551C59.3007 73.7842 60.5022 74.9428 61.9843 74.9428C63.4664 74.9428 64.6679 73.7842 64.6679 72.3551C64.668 52.6602 64.6193 51.1358 64.6193 51.1358C62.2419 51.5223 61.1347 49.8235 60.5776 49.1014Z" fill="white" stroke="#4B5355"/>
<path d="M53.4985 33.4402C54.639 32.622 56.0814 32.4756 57.319 32.9269V32.5195C57.319 32.1748 57.0292 31.8953 56.6717 31.8953H50.2326C49.8751 31.8953 49.5852 32.1748 49.5852 32.5195V36.4999C49.5852 36.8446 49.8751 37.1241 50.2326 37.1241H51.9246C51.712 35.7565 52.2676 34.3234 53.4985 33.4402Z" fill="white" stroke="#4B5355"/>
</svg>
