<svg width="96" height="96" viewBox="0 0 96 96" fill="none" xmlns="http://www.w3.org/2000/svg">
<path d="M17.8 78.2V16.8H79.2V78.2H17.8Z" stroke="#4B5355" stroke-width="1.6"/>
<path d="M64.9662 61.744L64.9646 61.7433L63.4846 61.1083L63.4841 61.1081C61.3593 60.2028 59.6207 59.1948 58.4124 57.8345C57.2115 56.4824 56.52 54.7657 56.52 52.4089C56.52 50.2523 57.3404 48.3621 58.7958 47.0097C60.2519 45.6566 62.3582 44.8289 64.95 44.8289C66.8045 44.8289 68.3796 45.1515 69.7256 45.8835C71.0171 46.5857 72.1145 47.6739 73.0473 49.2508L68.8426 51.9506C68.3616 51.1361 67.8479 50.5381 67.2446 50.1379C66.5838 49.6995 65.8361 49.5119 64.95 49.5119C64.0318 49.5119 63.2625 49.8038 62.7203 50.3053C62.1774 50.8075 61.877 51.5067 61.877 52.2889C61.877 53.24 62.1773 53.9297 62.823 54.5174C63.4491 55.0872 64.3953 55.5557 65.6616 56.1041L65.6625 56.1045L67.1424 56.7384C67.1424 56.7384 67.1425 56.7385 67.1425 56.7385C69.6516 57.8144 71.5798 58.8874 72.8826 60.2863C74.1751 61.674 74.867 63.3989 74.867 65.8179C74.867 68.4133 73.8508 70.4054 72.1609 71.754C70.4647 73.1077 68.0699 73.8279 65.297 73.8279C59.9955 73.8279 56.5592 71.3586 54.8275 68.1064L59.2395 65.5432C59.8559 66.513 60.5727 67.3678 61.4855 67.9915C62.4642 68.6602 63.6547 69.0539 65.16 69.0539C66.424 69.0539 67.4832 68.7382 68.2329 68.1818C68.9874 67.622 69.42 66.8228 69.42 65.8939C69.42 65.3531 69.3124 64.8887 69.0992 64.4787C68.8865 64.0698 68.5753 63.7277 68.1857 63.4217C67.4163 62.8175 66.3059 62.33 64.9662 61.744ZM38.3199 66.0652C38.7422 66.8075 39.1741 67.5144 39.7324 68.0468C40.3565 68.6419 41.1349 69.0169 42.217 69.0169C43.2137 69.0169 44.0866 68.8231 44.7037 68.1946C45.3185 67.5683 45.629 66.5613 45.629 65.0569V45.1669H51.069V65.1369C51.069 68.1545 50.1857 70.3139 48.6917 71.7209C47.1952 73.1303 45.0518 73.8169 42.469 73.8169C37.9377 73.8169 35.2879 71.5346 33.8993 68.7414L38.3199 66.0652Z" fill="white" stroke="#4B5355" stroke-width="0.48"/>
</svg>
