<svg width="96" height="96" viewBox="0 0 96 96" fill="none" xmlns="http://www.w3.org/2000/svg">
<path d="M11 67H29.5H38.75L39 67.5455H57L57.25 67H66.5H85C85 67 84.5 70 83 70C81.5 70 14.5 70 13 70C11.5 70 11 67 11 67Z" stroke="#4B5355" stroke-width="1.2" stroke-linecap="round" stroke-linejoin="round"/>
<rect x="18.4" y="25.4" width="59.7" height="39.45" stroke="#4B5355" stroke-width="1.2" stroke-linecap="round" stroke-linejoin="round"/>
<path d="M21 47H75V29H61.5H54.75H48H41.25H34.5H21V47Z" stroke="white" stroke-width="0.75" stroke-linecap="round" stroke-linejoin="round"/>
<rect x="58.25" y="49" width="17" height="12" fill="white" stroke="white" stroke-width="0.75"/>
<rect x="40.25" y="49" width="16" height="12" stroke="white" stroke-width="0.75"/>
<rect x="21.25" y="49" width="17" height="12" stroke="white" stroke-width="0.75"/>
<path d="M28.796 53.1781C28.9747 52.7907 29.5253 52.7907 29.704 53.1781L29.9722 53.7595C30.1907 54.2332 30.6396 54.5594 31.1577 54.6208L31.7935 54.6962C32.2172 54.7464 32.3874 55.2701 32.0741 55.5598L31.604 55.9945C31.221 56.3487 31.0495 56.8764 31.1512 57.3881L31.276 58.0161C31.3591 58.4346 30.9137 58.7582 30.5414 58.5498L29.9827 58.2371C29.5275 57.9823 28.9725 57.9823 28.5173 58.2371L27.9586 58.5498C27.5863 58.7582 27.1409 58.4346 27.224 58.0161L27.3488 57.3881C27.4505 56.8764 27.279 56.3487 26.896 55.9945L26.4259 55.5598C26.1126 55.2701 26.2828 54.7464 26.7065 54.6962L27.3423 54.6208C27.8604 54.5594 28.3093 54.2332 28.5278 53.7595L28.796 53.1781Z" stroke="white"/>
</svg>
