<svg width="96" height="96" viewBox="0 0 96 96" fill="none" xmlns="http://www.w3.org/2000/svg">
<rect x="44.5" y="54.5" width="7" height="7" rx="1.5" fill="white" stroke="#4B5355"/>
<mask id="path-2-inside-1" fill="white">
<path d="M73 35H23C21.3431 35 20 36.3431 20 38V54V70C20 71.6569 21.3431 73 23 73H73C74.6569 73 76 71.6569 76 70V54V38C76 36.3431 74.6569 35 73 35Z"/>
</mask>
<path d="M20 54C19.7864 54.5607 19.7866 54.5608 19.7868 54.5608C19.7869 54.5609 19.7871 54.561 19.7873 54.561C19.7877 54.5612 19.7883 54.5614 19.789 54.5617C19.7903 54.5622 19.7922 54.5629 19.7945 54.5638C19.7992 54.5655 19.8058 54.568 19.8145 54.5712C19.8317 54.5776 19.8568 54.5869 19.8898 54.5989C19.9556 54.6228 20.0527 54.6575 20.1805 54.7016C20.4359 54.7899 20.8139 54.9158 21.3099 55.0688C22.3017 55.3747 23.7653 55.7889 25.6633 56.2259C29.4593 57.0999 34.9937 58.0655 41.9679 58.4397L42.0321 57.2414C35.1342 56.8713 29.6686 55.9167 25.9326 55.0565C24.0646 54.6264 22.6292 54.22 21.6636 53.9221C21.1808 53.7732 20.8154 53.6514 20.5722 53.5674C20.4506 53.5254 20.3595 53.4928 20.2996 53.471C20.2696 53.4601 20.2474 53.4519 20.233 53.4466C20.2258 53.4439 20.2206 53.442 20.2174 53.4407C20.2158 53.4401 20.2146 53.4397 20.214 53.4395C20.2137 53.4393 20.2135 53.4393 20.2134 53.4392C20.2134 53.4392 20.2134 53.4392 20.2134 53.4392C20.2135 53.4393 20.2136 53.4393 20 54ZM54.0322 58.4397C61.0063 58.0655 66.5407 57.0999 70.3367 56.2259C72.2347 55.7889 73.6983 55.3747 74.6901 55.0688C75.1861 54.9158 75.5641 54.7899 75.8195 54.7016C75.9473 54.6575 76.0444 54.6228 76.1102 54.5989C76.1432 54.5869 76.1683 54.5776 76.1855 54.5712C76.1942 54.568 76.2008 54.5655 76.2055 54.5638C76.2078 54.5629 76.2097 54.5622 76.211 54.5617C76.2117 54.5614 76.2123 54.5612 76.2127 54.561C76.2129 54.561 76.2131 54.5609 76.2132 54.5608C76.2134 54.5608 76.2136 54.5607 76 54C75.7864 53.4393 75.7865 53.4393 75.7866 53.4392C75.7866 53.4392 75.7866 53.4392 75.7866 53.4392C75.7865 53.4393 75.7863 53.4393 75.786 53.4395C75.7854 53.4397 75.7842 53.4401 75.7826 53.4407C75.7794 53.442 75.7742 53.4439 75.767 53.4466C75.7526 53.4519 75.7304 53.4601 75.7004 53.471C75.6405 53.4928 75.5494 53.5254 75.4278 53.5674C75.1846 53.6514 74.8192 53.7732 74.3364 53.9221C73.3708 54.22 71.9354 54.6264 70.0674 55.0565C66.3314 55.9167 60.8658 56.8713 53.9679 57.2414L54.0322 58.4397ZM23 36.2H73V33.8H23V36.2ZM73 71.8H23V74.2H73V71.8ZM21.2 70V54H18.8V70H21.2ZM21.2 54V38H18.8V54H21.2ZM74.8 38V54H77.2V38H74.8ZM74.8 54V70H77.2V54H74.8ZM23 71.8C22.0059 71.8 21.2 70.9941 21.2 70H18.8C18.8 72.3196 20.6804 74.2 23 74.2V71.8ZM73 74.2C75.3196 74.2 77.2 72.3196 77.2 70H74.8C74.8 70.9941 73.9941 71.8 73 71.8V74.2ZM73 36.2C73.9941 36.2 74.8 37.0059 74.8 38H77.2C77.2 35.6804 75.3196 33.8 73 33.8V36.2ZM23 33.8C20.6804 33.8 18.8 35.6804 18.8 38H21.2C21.2 37.0059 22.0059 36.2 23 36.2V33.8Z" fill="#4B5355" mask="url(#path-2-inside-1)"/>
<path d="M57 36V32C57 30.8954 56.1046 30 55 30H41C39.8954 30 39 30.8954 39 32V36" stroke="#4B5355" stroke-width="1.4"/>
</svg>
