<svg width="96" height="96" viewBox="0 0 96 96" fill="none" xmlns="http://www.w3.org/2000/svg">
<rect x="41" y="29" width="27" height="44" fill="white"/>
<path d="M26 25.6H70C70.2209 25.6 70.4 25.7791 70.4 26V76C70.4 76.2209 70.2209 76.4 70 76.4H26C25.7791 76.4 25.6 76.2209 25.6 76V26C25.6 25.7791 25.7791 25.6 26 25.6Z" stroke="#4B5355" stroke-width="1.2"/>
<path d="M52.2406 23.8074V24.3074L52.7406 24.3074L57.9465 24.3074C58.0008 24.3074 58.0423 24.3275 58.0674 24.3507C58.0919 24.3733 58.0972 24.394 58.0972 24.4083V27.413C58.0972 27.4273 58.0919 27.4479 58.0674 27.4705C58.0423 27.4938 58.0008 27.5139 57.9465 27.5139H37.123C37.0687 27.5139 37.0272 27.4938 37.002 27.4705C36.9776 27.4479 36.9722 27.4273 36.9722 27.413V24.4083C36.9722 24.394 36.9776 24.3733 37.002 24.3507C37.0272 24.3275 37.0687 24.3074 37.123 24.3074L42.3288 24.3074L42.8202 24.3074L42.8288 23.8162C42.8383 23.2708 42.9612 22.6631 43.1813 22.1723C43.4145 21.6525 43.7575 21.1774 44.1928 20.7754C44.6282 20.3733 45.1472 20.0525 45.7212 19.8329C46.2951 19.6134 46.9115 19.5 47.5347 19.5C48.158 19.5 48.7744 19.6134 49.3483 19.8329C49.9222 20.0525 50.4412 20.3733 50.8766 20.7754C51.3119 21.1774 51.6549 21.6525 51.8881 22.1723C52.1213 22.6921 52.2406 23.2476 52.2406 23.8074Z" fill="white" stroke="#4B5355"/>
<line x1="43.8472" y1="62.5532" x2="59.3511" y2="62.5532" stroke="#4B5355"/>
<line x1="43.8472" y1="65.3721" x2="65.6936" y2="65.3721" stroke="#4B5355"/>
<line x1="43.8472" y1="68.1909" x2="65.6936" y2="68.1909" stroke="#4B5355"/>
<circle cx="34.0139" cy="65.5117" r="2.77778" stroke="#E46070"/>
<path d="M30.7361 50.4504L33.6042 53.7282L38.5208 48.8115" stroke="#61C7A2" stroke-width="2"/>
<line x1="43.8472" y1="48.7212" x2="59.3511" y2="48.7212" stroke="#4B5355"/>
<line x1="43.8472" y1="51.54" x2="65.6936" y2="51.54" stroke="#4B5355"/>
<line x1="43.8472" y1="54.3589" x2="65.6936" y2="54.3589" stroke="#4B5355"/>
<path d="M30.7361 37.0276L33.6042 40.3053L38.5208 35.3887" stroke="#61C7A2" stroke-width="2"/>
<line x1="43.8472" y1="35.2988" x2="59.3511" y2="35.2988" stroke="#4B5355"/>
<line x1="43.8472" y1="38.1177" x2="65.6936" y2="38.1177" stroke="#4B5355"/>
<line x1="43.8472" y1="40.9365" x2="65.6936" y2="40.9365" stroke="#4B5355"/>
</svg>
