<svg width="96" height="96" viewBox="0 0 96 96" fill="none" xmlns="http://www.w3.org/2000/svg">
<path d="M46.8 67.8334C46.8 73.0536 42.5276 77.3001 37.2521 77.3001C31.9765 77.3001 27.7041 73.0536 27.7041 67.8334C27.7041 62.6133 31.9765 58.3667 37.2521 58.3667H46.8V67.8334Z" stroke="white" stroke-width="1.4"/>
<path d="M27.7041 47.4999C27.7041 42.2798 31.9765 38.0333 37.2521 38.0333H46.8V56.9666H37.2521C31.9765 56.9666 27.7041 52.7201 27.7041 47.4999Z" fill="white" stroke="white" stroke-width="1.4"/>
<path d="M27.7051 27.1667C27.7051 21.9465 31.9775 17.7 37.253 17.7H46.801V36.6333H37.253C31.9775 36.6333 27.7051 32.3868 27.7051 27.1667Z" stroke="white" stroke-width="1.4"/>
<path d="M48.2 17.7H57.748C63.0235 17.7 67.2959 21.9465 67.2959 27.1667C67.2959 32.3868 63.0235 36.6333 57.748 36.6333H48.2V17.7Z" fill="white" stroke="white" stroke-width="1.4"/>
<path d="M66.8597 47.2096C66.8597 52.4298 62.5873 56.6763 57.3118 56.6763C52.0362 56.6763 47.7638 52.4298 47.7638 47.2096C47.7638 41.9895 52.0362 37.743 57.3118 37.743C62.5873 37.743 66.8597 41.9895 66.8597 47.2096Z" stroke="white" stroke-width="1.4"/>
</svg>
