<svg width="96" height="96" viewBox="0 0 96 96" fill="none" xmlns="http://www.w3.org/2000/svg">
<path d="M31.2915 31.5952C31.2915 31.0429 31.7392 30.5952 32.2915 30.5952H39.0303C39.5826 30.5952 40.0303 31.0429 40.0303 31.5952V38.334C40.0303 38.8863 39.5826 39.334 39.0303 39.334H32.2915C31.7392 39.334 31.2915 38.8863 31.2915 38.334V31.5952Z" fill="white"/>
<path d="M40.0281 73.2891C40.0281 73.8413 39.5804 74.2891 39.0281 74.2891L32.2893 74.2891C31.737 74.2891 31.2893 73.8413 31.2893 73.2891L31.2893 66.5502C31.2893 65.998 31.737 65.5502 32.2893 65.5502L39.0281 65.5502C39.5804 65.5502 40.0281 65.998 40.0281 66.5502L40.0281 73.2891Z" fill="white"/>
<path d="M56.5071 48.0728C57.0594 48.0728 57.5071 48.5205 57.5071 49.0728L57.5071 55.8116C57.5071 56.3639 57.0594 56.8116 56.5071 56.8116L49.7683 56.8116C49.216 56.8116 48.7683 56.3639 48.7683 55.8116L48.7683 49.0728C48.7683 48.5205 49.216 48.0728 49.7683 48.0728L56.5071 48.0728Z" fill="white"/>
<path d="M14.8125 56.812C14.2602 56.812 13.8125 56.3643 13.8125 55.812L13.8125 49.0732C13.8125 48.5209 14.2602 48.0732 14.8125 48.0732L21.5513 48.0732C22.1036 48.0732 22.5513 48.5209 22.5513 49.0732L22.5513 55.812C22.5513 56.3643 22.1036 56.812 21.5513 56.812L14.8125 56.812Z" fill="white"/>
<path d="M47.308 34.6114C47.6986 34.2209 48.3317 34.2209 48.7222 34.6114L53.4873 39.3765C53.8778 39.767 53.8778 40.4002 53.4873 40.7907L48.7222 45.5557C48.3317 45.9463 47.6986 45.9463 47.308 45.5557L42.543 40.7907C42.1524 40.4002 42.1524 39.767 42.543 39.3765L47.308 34.6114Z" fill="white"/>
<path d="M24.0101 70.2734C23.6196 70.6639 22.9864 70.6639 22.5959 70.2734L17.8308 65.5083C17.4403 65.1178 17.4403 64.4846 17.8308 64.0941L22.5959 59.329C22.9864 58.9385 23.6196 58.9385 24.0101 59.329L28.7751 64.0941C29.1657 64.4846 29.1657 65.1178 28.7751 65.5083L24.0101 70.2734Z" fill="white"/>
<path d="M53.4902 64.0917C53.8807 64.4822 53.8807 65.1154 53.4902 65.5059L48.7251 70.271C48.3346 70.6615 47.7014 70.6615 47.3109 70.271L42.5458 65.5059C42.1553 65.1154 42.1553 64.4822 42.5458 64.0917L47.3109 59.3267C47.7014 58.9361 48.3346 58.9361 48.7251 59.3267L53.4902 64.0917Z" fill="white"/>
<path d="M17.828 40.7916C17.4374 40.4011 17.4374 39.7679 17.828 39.3774L22.593 34.6123C22.9835 34.2218 23.6167 34.2218 24.0072 34.6123L28.7723 39.3774C29.1628 39.7679 29.1628 40.4011 28.7723 40.7916L24.0072 45.5566C23.6167 45.9472 22.9835 45.9472 22.593 45.5566L17.828 40.7916Z" fill="white"/>
<path d="M51.6806 52.4421C51.6806 61.2903 44.5077 68.4632 35.6595 68.4632C26.8112 68.4632 19.6383 61.2903 19.6383 52.4421C19.6383 43.5938 26.8112 36.4209 35.6595 36.4209C44.5077 36.4209 51.6806 43.5938 51.6806 52.4421ZM23.9673 52.4421C23.9673 58.8994 29.2021 64.1342 35.6595 64.1342C42.1169 64.1342 47.3516 58.8994 47.3516 52.4421C47.3516 45.9847 42.1169 40.7499 35.6595 40.7499C29.2021 40.7499 23.9673 45.9847 23.9673 52.4421Z" fill="white"/>
<path d="M64.603 21.229C64.603 20.6767 65.0507 20.229 65.603 20.229H69.1315C69.6837 20.229 70.1315 20.6767 70.1315 21.229V24.7574C70.1315 25.3097 69.6837 25.7574 69.1315 25.7574H65.603C65.0507 25.7574 64.603 25.3097 64.603 24.7574V21.229Z" fill="white"/>
<path d="M70.1315 46.8711C70.1315 47.4234 69.6838 47.8711 69.1315 47.8711L65.603 47.8711C65.0507 47.8711 64.603 47.4234 64.603 46.8711L64.603 43.3427C64.603 42.7904 65.0508 42.3427 65.603 42.3427L69.1315 42.3427C69.6838 42.3427 70.1315 42.7904 70.1315 43.3427L70.1315 46.8711Z" fill="white"/>
<path d="M80.1881 31.2856C80.7404 31.2856 81.1881 31.7334 81.1881 32.2856L81.1881 35.8141C81.1881 36.3664 80.7404 36.8141 80.1881 36.8141L76.6597 36.8141C76.1074 36.8141 75.6597 36.3664 75.6597 35.8141L75.6597 32.2856C75.6597 31.7334 76.1074 31.2856 76.6597 31.2856L80.1881 31.2856Z" fill="white"/>
<path d="M54.5464 36.8145C53.9941 36.8145 53.5464 36.3667 53.5464 35.8145L53.5464 32.286C53.5464 31.7337 53.9941 31.286 54.5464 31.286L58.0748 31.286C58.6271 31.286 59.0748 31.7337 59.0748 32.286L59.0748 35.8145C59.0748 36.3667 58.6271 36.8145 58.0748 36.8145L54.5464 36.8145Z" fill="white"/>
<path d="M74.4793 23.0294C74.8698 22.6388 75.503 22.6388 75.8935 23.0294L78.3885 25.5244C78.779 25.9149 78.779 26.548 78.3885 26.9386L75.8935 29.4335C75.503 29.8241 74.8698 29.8241 74.4793 29.4335L71.9843 26.9386C71.5938 26.548 71.5938 25.9149 71.9843 25.5244L74.4793 23.0294Z" fill="white"/>
<path d="M60.2581 45.0707C59.8676 45.4612 59.2344 45.4612 58.8439 45.0707L56.3489 42.5757C55.9584 42.1852 55.9584 41.5521 56.3489 41.1615L58.8439 38.6666C59.2344 38.276 59.8676 38.276 60.2581 38.6666L62.7531 41.1615C63.1436 41.5521 63.1436 42.1852 62.7531 42.5757L60.2581 45.0707Z" fill="white"/>
<path d="M78.3882 41.1601C78.7788 41.5506 78.7788 42.1838 78.3882 42.5743L75.8932 45.0693C75.5027 45.4598 74.8696 45.4598 74.479 45.0693L71.9841 42.5743C71.5935 42.1838 71.5935 41.5506 71.9841 41.1601L74.479 38.6651C74.8696 38.2746 75.5027 38.2746 75.8933 38.6651L78.3882 41.1601Z" fill="white"/>
<path d="M56.3447 26.939C55.9542 26.5485 55.9542 25.9154 56.3447 25.5248L58.8397 23.0298C59.2302 22.6393 59.8634 22.6393 60.2539 23.0298L62.7489 25.5248C63.1394 25.9154 63.1394 26.5485 62.7489 26.939L60.2539 29.434C59.8633 29.8245 59.2302 29.8245 58.8397 29.434L56.3447 26.939Z" fill="white"/>
<path d="M77.5033 34.05C77.5033 39.6477 72.9655 44.1855 67.3679 44.1855C61.7702 44.1855 57.2324 39.6477 57.2324 34.05C57.2324 28.4524 61.7702 23.9146 67.3679 23.9146C72.9655 23.9146 77.5033 28.4524 77.5033 34.05ZM64.3272 34.05C64.3272 35.7293 65.6886 37.0907 67.3679 37.0907C69.0472 37.0907 70.4085 35.7293 70.4085 34.05C70.4085 32.3707 69.0472 31.0094 67.3679 31.0094C65.6886 31.0094 64.3272 32.3707 64.3272 34.05Z" fill="white"/>
<mask id="path-19-inside-1" fill="white">
<path d="M41.2728 45.2413C41.4403 45.0716 41.6393 44.937 41.8582 44.8452C42.0771 44.7534 42.3117 44.7061 42.5487 44.7061C42.7857 44.7061 43.0203 44.7534 43.2392 44.8452C43.4582 44.937 43.6571 45.0716 43.8246 45.2413C43.9922 45.411 44.1251 45.6124 44.2158 45.834C44.3065 46.0557 44.3531 46.2933 44.3531 46.5333C44.3531 46.7732 44.3065 47.0108 44.2158 47.2325C44.1251 47.4541 43.9922 47.6556 43.8246 47.8252L42.5487 46.5333L41.2728 45.2413Z"/>
</mask>
<path d="M41.2728 45.2413C41.4403 45.0716 41.6393 44.937 41.8582 44.8452C42.0771 44.7534 42.3117 44.7061 42.5487 44.7061C42.7857 44.7061 43.0203 44.7534 43.2392 44.8452C43.4582 44.937 43.6571 45.0716 43.8246 45.2413C43.9922 45.411 44.1251 45.6124 44.2158 45.834C44.3065 46.0557 44.3531 46.2933 44.3531 46.5333C44.3531 46.7732 44.3065 47.0108 44.2158 47.2325C44.1251 47.4541 43.9922 47.6556 43.8246 47.8252L42.5487 46.5333L41.2728 45.2413Z" stroke="white" stroke-width="2" mask="url(#path-19-inside-1)"/>
<path d="M36.4803 43.0757V43.5042C36.1303 43.462 35.7741 43.4402 35.4128 43.4402C35.0194 43.4402 34.632 43.466 34.2521 43.516V43.0757H36.4803ZM35.4104 44.4471L36.8956 44.7024L37.4803 44.8029V44.7172C40.8935 45.6519 43.4186 48.8455 43.4186 52.6591C43.4186 57.21 39.8227 60.878 35.4128 60.878C31.0029 60.878 27.407 57.21 27.407 52.6591C27.407 48.8803 29.8862 45.7103 33.2521 44.7434V44.7973L33.8322 44.7032L35.4104 44.4471ZM35.2439 59.7377C39.0299 59.7377 42.0781 56.5952 42.0781 52.7449C42.0781 48.8946 39.0299 45.7521 35.2439 45.7521C31.458 45.7521 28.4098 48.8946 28.4098 52.7449C28.4098 56.5952 31.458 59.7377 35.2439 59.7377Z" fill="white" stroke="white"/>
<path d="M37.1471 51.5313C37.103 51.6 37.058 51.6699 37.0124 51.7402C36.7807 52.0971 36.536 52.4616 36.3189 52.7601C36.0867 53.0794 35.9268 53.2647 35.859 53.318C35.515 53.5887 35.1072 53.51 34.9283 53.2768C34.7494 53.0437 34.7749 52.6242 35.1189 52.3535C35.1867 52.3002 35.4036 52.1891 35.7665 52.0402C36.1058 51.9009 36.5151 51.751 36.9139 51.6118C36.9925 51.5844 37.0704 51.5575 37.1471 51.5313Z" stroke="white"/>
</svg>
