<svg width="96" height="96" viewBox="0 0 96 96" fill="none" xmlns="http://www.w3.org/2000/svg">
<path d="M22.25 16.8H73.75C76.76 16.8 79.2 19.24 79.2 22.25V73.75C79.2 76.7599 76.7599 79.2 73.75 79.2H22.25C19.24 79.2 16.8 76.76 16.8 73.75V22.25C16.8 19.24 19.24 16.8 22.25 16.8Z" stroke="white" stroke-width="1.6"/>
<path d="M55.16 24.8198H68.68C70.0607 24.8198 71.18 25.9391 71.18 27.3198V49.3198C71.18 50.7005 70.0607 51.8198 68.68 51.8198H55.16C53.7793 51.8198 52.66 50.7005 52.66 49.3198V27.3198C52.66 25.9391 53.7793 24.8198 55.16 24.8198Z" fill="white" stroke="white"/>
<path d="M27.3199 24.8198H40.8399C42.2207 24.8198 43.3399 25.9391 43.3399 27.3198V65.3198C43.3399 66.7005 42.2207 67.8198 40.8399 67.8198H27.3199C25.9392 67.8198 24.8199 66.7005 24.8199 65.3198V27.3198C24.8199 25.9391 25.9392 24.8198 27.3199 24.8198Z" fill="white" stroke="white"/>
</svg>
