<svg width="98" height="96" viewBox="0 0 98 96" fill="none" xmlns="http://www.w3.org/2000/svg">
<g filter="url(#filter0_f)">
<path d="M55.1633 60.5988C55.1633 60.5988 54.0646 60.9763 52.9657 61.3017C51.8337 61.637 50.6197 61.8574 50.6197 61.8574L49.4676 59.7311C49.4676 59.7311 50.7445 59.1776 51.6354 58.5772C52.562 57.9527 53.4 57.3443 53.4 57.3443L55.1633 60.5988Z" fill="white"/>
<path d="M55.1633 60.5988C55.1633 60.5988 54.0646 60.9763 52.9657 61.3017C51.8337 61.637 50.6197 61.8574 50.6197 61.8574L49.4676 59.7311C49.4676 59.7311 50.7445 59.1776 51.6354 58.5772C52.562 57.9527 53.4 57.3443 53.4 57.3443L55.1633 60.5988Z" fill="url(#paint0_linear)"/>
</g>
<path d="M30.4181 56.3372L29.232 57.2554L29.2183 56.3555L29.2 55.1556L30.3998 55.1373L30.4181 56.3372Z" fill="white"/>
<path d="M86.1042 58.2461L90.4906 58.592L90.4905 58.5903L89.9863 65.0157L85.6 64.6715L86.1042 58.2461Z" fill="white"/>
<path d="M24.3262 50.3999L33.1525 49.9816L33.1502 49.9818L33.8167 64.0481L24.9926 64.4662L24.3262 50.3999Z" fill="white"/>
<path d="M10.7621 59.0166L13.7629 56.576L17.1749 58.5457L17.6831 65.467L11.2703 65.9379L10.7621 59.0166Z" fill="white"/>
<path d="M18.4037 55.9355L21.7826 52.666L24.5284 54.6678L24.9926 64.4662L18.9346 64.9198L18.4037 55.9355Z" fill="white"/>
<path d="M28.8478 57.3214L34.1355 53.4373L39.8439 56.6716L40.2646 63.7901L29.2684 64.4399L28.8478 57.3214Z" fill="white"/>
<path d="M48.3999 52.1374L47.1999 53.0374L47.1999 50.9374H48.3999V52.1374Z" fill="white"/>
<path d="M67.0413 54.9064L65.8 55.4953L65.9025 53.9374L67.0999 54.0162L67.0413 54.9064Z" fill="white"/>
<path d="M72.0239 52.2553L82.5438 52.714L82.541 52.714L82.0197 64.6678L71.5026 64.2092L72.0239 52.2553Z" fill="white"/>
<path d="M74.8 52.3764L73.6 52.3241L73.6342 51.5373L74.833 51.5902L74.8 52.3764Z" fill="white"/>
<path d="M38.3415 43.9775L46.3661 43.5972L46.364 43.5974L47.3113 63.5931L39.2889 63.9732L38.3415 43.9775Z" fill="white"/>
<path d="M58.1228 40.7375L65.9189 40.9846L65.9168 40.9847L65.1941 63.7731L57.4001 63.5259L58.1228 40.7375Z" fill="white"/>
<path d="M45.9999 53.9335L51.3769 49.1374L57.3929 53.2976L57.3928 63.5374L46.0445 63.4747L45.9999 53.9335Z" fill="white"/>
<path d="M57.392 55.7071L60.9999 58.4098L60.9924 63.5374H57.3928L57.392 55.7071Z" fill="white"/>
<path d="M64.3211 56.2992L69.9837 52.9853L75.3252 56.7951L75.0042 63.9188L64.0001 63.4229L64.3211 56.2992Z" fill="white"/>
<path d="M97 65.9375C97 65.9375 82.9314 63.4858 53.8 63.5379C25.3697 63.5888 0.999996 67.1374 0.999996 67.1374" stroke="white"/>
<path d="M56.1182 64.6631C81.6536 64.6093 93.0369 68.3757 93.0369 68.3757C93.0369 68.3757 79.7428 65.7912 64.9869 67.3443C53.4004 68.5638 46.141 69.754 37.3253 71.1994L36.937 71.263C24.3557 73.3255 9.09326 75.1817 10.1245 71.263C11.1558 67.3443 31.1973 64.7156 56.1182 64.6631Z" stroke="white" stroke-width="1.6"/>
<path d="M8.79993 63.0334L9.56289 62.9376L9.91588 65.746L9.15292 65.8419L8.79993 63.0334Z" fill="white"/>
<circle cx="9.09998" cy="62.0374" r="1.5" fill="white"/>
<path d="M7.46436 63.9512L8.14101 63.8661L8.45408 66.3569L7.77742 66.4419L7.46436 63.9512Z" fill="white"/>
<circle cx="7.73035" cy="63.0676" r="1.33033" fill="white"/>
<path d="M4.87134 62.9983L5.8069 62.8807L6.23975 66.3245L5.30419 66.4421L4.87134 62.9983Z" fill="white"/>
<circle cx="5.23937" cy="61.7768" r="1.33934" fill="white" stroke="white"/>
<path d="M92.6663 62.603L93.4343 62.64L93.2982 65.4673L92.5301 65.4303L92.6663 62.603Z" fill="white"/>
<circle cx="93.1332" cy="61.6735" r="1.5" transform="rotate(9.92148 93.1332 61.6735)" fill="white"/>
<path d="M90.6945 62.4712L91.3763 62.4867L91.3192 64.9964L90.6374 64.9809L90.6945 62.4712Z" fill="white"/>
<circle cx="91.0875" cy="61.6365" r="1.33033" transform="rotate(8.4667 91.0875 61.6365)" fill="white"/>
<path d="M95.0533 63.5249L95.5689 63.5959L95.3077 65.4938L94.7921 65.4228L95.0533 63.5249Z" fill="white"/>
<circle cx="95.424" cy="62.9263" r="1.01526" transform="rotate(15 95.424 62.9263)" fill="white"/>
<path d="M84.2345 60.8967L85.1771 60.921L85.0876 64.3908L84.145 64.3665L84.2345 60.8967Z" fill="white"/>
<circle cx="84.7816" cy="59.7447" r="1.83934" transform="rotate(8.64157 84.7816 59.7447)" fill="white"/>
<path d="M57.7522 60.6929L58.494 60.712L58.4236 63.4427L57.6818 63.4235L57.7522 60.6929Z" fill="white"/>
<circle cx="58.1826" cy="59.7861" r="1.44754" transform="rotate(8.64157 58.1826 59.7861)" fill="white"/>
<path d="M60.0071 62.3093L60.383 62.3239L60.3688 63.5689L59.9928 63.5543L60.0071 62.3093Z" fill="white"/>
<ellipse cx="60.2184" cy="61.899" rx="0.735006" ry="0.658545" transform="rotate(8.64157 60.2184 61.899)" fill="white"/>
<path d="M57.3997 31.5958C57.1426 32.4234 56.2801 33.4532 55.3198 34.2411C54.8435 34.6319 54.3547 34.9535 53.9222 35.1552C53.4773 35.3627 53.1375 35.4218 52.934 35.3585C52.7305 35.2953 52.4841 35.0541 52.2351 34.6309C51.9932 34.2196 51.7727 33.6776 51.6018 33.0857C51.2571 31.8923 51.1303 30.555 51.3874 29.7275C51.904 28.0651 53.6688 27.1362 55.3288 27.652C56.9889 28.1679 57.9163 29.9335 57.3997 31.5958Z" stroke="white" stroke-width="0.4"/>
<path d="M53.0452 28.6631C52.3173 29.2498 52.1342 30.224 51.8541 29.8765C51.5741 29.529 51.9371 28.7717 52.665 28.1851C53.3929 27.5984 54.2101 27.4045 54.4901 27.752C54.7702 28.0994 53.7731 28.0764 53.0452 28.6631Z" fill="white"/>
<path d="M52.9506 35.5444C52.9506 35.5444 52.4703 35.9175 52.3853 36.5127C52.2865 37.2044 52.4152 37.6178 52.3752 38.3154C52.3416 38.9028 51.8833 39.558 51.8833 39.558" stroke="white" stroke-width="0.5"/>
<path d="M52.5588 35.4563C52.7647 35.3214 53.0394 35.4601 53.0532 35.7058L53.077 36.129C53.0803 36.1867 53.0198 36.2262 52.9683 36.2002V36.2002C52.9623 36.1972 52.9568 36.1934 52.9518 36.1889L52.7891 36.0422C52.6932 35.9557 52.5702 35.9053 52.4412 35.8996L52.2724 35.892C52.2442 35.8908 52.2175 35.8792 52.1973 35.8594V35.8594C52.145 35.8082 52.1535 35.7217 52.2147 35.6816L52.5588 35.4563Z" fill="white"/>
<path d="M47.0657 29.9542C47.3975 30.7548 47.3934 32.098 47.1593 33.318C47.0432 33.923 46.8733 34.4829 46.6699 34.9146C46.4607 35.3588 46.2374 35.6215 46.0405 35.7031C45.8436 35.7847 45.4999 35.7569 45.0378 35.5909C44.5887 35.4296 44.0725 35.154 43.5625 34.8084C42.5341 34.1116 41.5812 33.165 41.2494 32.3644C40.583 30.7563 41.3452 28.9133 42.9511 28.2478C44.557 27.5823 46.3993 28.346 47.0657 29.9542Z" stroke="white" stroke-width="0.4"/>
<path d="M41.8425 30.4857C41.6584 31.4023 42.1409 32.2682 41.7033 32.1803C41.2658 32.0924 41.0604 31.2781 41.2445 30.3615C41.4287 29.4449 41.9327 28.7732 42.3702 28.8611C42.8078 28.949 42.0267 29.5692 41.8425 30.4857Z" fill="white"/>
<path d="M46.1719 35.8352C46.1719 35.8352 46.0414 36.4292 46.3568 36.941C46.7234 37.5359 47.0868 37.7713 47.5023 38.333C47.8522 38.806 47.9191 39.6027 47.9191 39.6027" stroke="white" stroke-width="0.5"/>
<path d="M45.814 36.0179C45.886 35.7825 46.1858 35.7134 46.3537 35.8934L46.6427 36.2034C46.6821 36.2457 46.661 36.3147 46.6047 36.3277V36.3277C46.5982 36.3292 46.5915 36.3299 46.5848 36.3296L46.3659 36.3209C46.2368 36.3158 46.1101 36.3557 46.0073 36.4338L45.8727 36.536C45.8502 36.5531 45.8222 36.5613 45.7941 36.559V36.559C45.7211 36.5531 45.6723 36.4812 45.6937 36.4112L45.814 36.0179Z" fill="white"/>
<path d="M52.6911 27.7609C52.7911 28.8732 52.2708 30.5118 51.5227 31.9052C51.151 32.5975 50.7301 33.216 50.316 33.6665C49.8925 34.1271 49.51 34.3748 49.2188 34.401C48.9276 34.4272 48.5071 34.2517 48.0082 33.874C47.5203 33.5047 46.9958 32.9712 46.5065 32.3564C45.5218 31.1188 44.7174 29.5994 44.6174 28.4871C44.4166 26.2549 46.0614 24.2831 48.2907 24.0826C50.52 23.8821 52.4903 25.5287 52.6911 27.7609Z" fill="white" stroke="white" stroke-width="0.4"/>
<path d="M49.3233 34.5578C49.3233 34.5578 48.9201 35.5041 49.1084 36.2442C49.3273 37.1045 50.1523 37.2397 50.4431 38.0784C50.688 38.7846 50.013 39.7883 50.013 39.7883" stroke="white" stroke-width="0.5"/>
<path d="M48.8582 34.5416C49.0347 34.2835 49.4245 34.3134 49.5597 34.5953L49.7925 35.0808C49.8242 35.147 49.7724 35.2227 49.6993 35.2171V35.2171C49.6908 35.2165 49.6825 35.2147 49.6745 35.2119L49.4123 35.1183C49.2578 35.0632 49.089 35.0635 48.9347 35.1192L48.7328 35.1921C48.6991 35.2042 48.662 35.2035 48.6288 35.1901V35.1901C48.5425 35.1553 48.5106 35.0496 48.5632 34.9728L48.8582 34.5416Z" fill="white"/>
<path d="M45.9254 26.5788C45.6453 27.0898 45.5529 27.6423 45.4872 28.0349C45.4814 28.0695 45.4758 28.1028 45.4703 28.1348C45.453 28.2356 45.4373 28.32 45.42 28.3893C45.4072 28.4407 45.3952 28.4766 45.3846 28.5009C45.243 28.4226 45.1323 28.197 45.1553 27.7868C45.1774 27.392 45.3239 26.8942 45.5982 26.3937C45.8726 25.8932 46.2135 25.502 46.5343 25.271C46.8678 25.0309 47.1177 25.0029 47.2599 25.0803C47.2449 25.1029 47.2205 25.1333 47.1829 25.1731C47.1334 25.2255 47.0704 25.2847 46.9944 25.3541C46.9699 25.3764 46.9442 25.3997 46.9176 25.4238C46.6211 25.6922 46.205 26.0688 45.9254 26.5788Z" fill="white" stroke="white" stroke-width="0.4"/>
<defs>
<filter id="filter0_f" x="48.9677" y="56.8442" width="6.69574" height="5.51305" filterUnits="userSpaceOnUse" color-interpolation-filters="sRGB">
<feFlood flood-opacity="0" result="BackgroundImageFix"/>
<feBlend mode="normal" in="SourceGraphic" in2="BackgroundImageFix" result="shape"/>
<feGaussianBlur stdDeviation="0.25" result="effect1_foregroundBlur"/>
</filter>
<linearGradient id="paint0_linear" x1="58.5866" y1="58.3652" x2="50.1044" y2="62.3667" gradientUnits="userSpaceOnUse">
<stop stop-color="white"/>
<stop offset="1" stop-color="white" stop-opacity="0"/>
</linearGradient>
</defs>
</svg>
