<svg width="96" height="96" viewBox="0 0 96 96" fill="none" xmlns="http://www.w3.org/2000/svg">
<g clip-path="url(#clip0)">
<path d="M71.7236 76.325L71.7259 76.3322C71.9984 77.1787 72.2601 77.9964 72.5126 78.7851C72.718 79.4266 72.9172 80.0489 73.111 80.6519C73.392 81.528 73.6429 82.3543 73.879 83.1317C73.9563 83.3863 74.0321 83.6357 74.1068 83.8799C73.9541 83.6254 73.7975 83.3663 73.6374 83.1014C73.237 82.4388 72.8143 81.7393 72.3744 80.9829L72.3738 80.9819C72.0782 80.4752 71.7722 79.951 71.4568 79.4109C71.0172 78.6579 70.5596 77.8741 70.0875 77.0644L70.084 77.0585C69.5609 76.1787 69.0469 75.2661 68.514 74.3201C68.212 73.7838 67.9039 73.2369 67.5847 72.6791C67.093 71.8035 66.5895 70.9095 66.0794 70.0039C65.7018 69.3333 65.3205 68.6564 64.9377 67.9757C64.4808 67.1398 64.0179 66.2945 63.5533 65.4459C63.124 64.6617 62.6931 63.8748 62.264 63.09L62.2625 63.0872C60.9697 60.7451 59.7052 58.3921 58.4915 56.1051L58.266 55.6801H57.7849H48.9378H48.1378V56.4801V60.8166H47.1686V56.4801V55.6801H46.3686H38.0454H37.5637L37.3383 56.1058C36.0299 58.5773 34.6581 61.1389 33.2513 63.6844L33.2497 63.6872C32.3532 65.325 31.4567 66.9638 30.576 68.5749C30.1748 69.2882 29.7755 69.9975 29.3801 70.6996C28.8887 71.5722 28.4036 72.4338 27.9287 73.2788C27.6057 73.8433 27.2938 74.3968 26.988 74.9394C26.459 75.8781 25.9484 76.7843 25.43 77.659L25.4275 77.6632C24.6149 79.0534 23.8467 80.3685 23.1402 81.5833L23.1401 81.5835C22.6638 82.4031 22.2031 83.1642 21.7707 83.8787C21.6478 84.0818 21.5271 84.2812 21.409 84.4771C21.4818 84.2388 21.5557 83.9955 21.6311 83.7472C21.8685 82.9651 22.121 82.1335 22.4037 81.2519C22.6044 80.6274 22.8103 79.9844 23.0228 79.3209C23.2686 78.5532 23.5232 77.758 23.7887 76.9326L23.7907 76.9262C24.1043 75.9224 24.4498 74.899 24.808 73.838C24.9951 73.2837 25.1857 72.7191 25.3771 72.1417C25.8519 70.7375 26.3395 69.2928 26.8344 67.8264L27.1031 67.03C27.1036 67.0285 27.1042 67.027 27.1047 67.0255C27.3334 66.3739 27.5637 65.718 27.7949 65.0595C28.1782 63.9679 28.564 62.8689 28.9495 61.7698L28.9503 61.7673C29.5345 60.0832 30.1318 58.4037 30.7302 56.7515L31.1187 55.6791H29.9781H26.8774V54.4509H31.0038H31.5625L31.7549 53.9264C31.8017 53.7986 31.8484 53.6712 31.8951 53.544C32.153 52.8405 32.4078 52.1457 32.6611 51.4623L32.6616 51.4609C33.8701 48.1825 35.0221 45.1325 36.02 42.5218C36.7655 40.5879 37.4201 38.8934 37.9482 37.5262C38.1317 37.0512 38.2999 36.6158 38.4513 36.2236C38.5801 35.9015 38.6843 35.6267 38.7739 35.3903C38.8648 35.1508 38.9406 34.9506 39.0121 34.7805L39.6547 34.5086L39.164 33.7148C38.2189 32.1858 37.6643 30.3955 37.6643 28.4771C37.6643 23.7068 41.0313 19.7086 45.5123 18.7255L46.1409 18.5876V17.9441V6.8H49.1636V17.9431V18.5868L49.7923 18.7245C54.2779 19.7076 57.6411 23.7056 57.6411 28.4761C57.6411 30.204 57.2014 31.8291 56.4276 33.2449L56.2312 33.6043L56.408 33.9738C56.5135 34.1944 56.6164 34.4652 56.7511 34.8199C56.8384 35.0495 56.939 35.3142 57.0623 35.6232C57.3923 36.4766 57.8008 37.5348 58.2736 38.7598C58.6435 39.7182 59.0529 40.7788 59.4949 41.9233C60.4918 44.534 61.6436 47.5825 62.8519 50.8613L62.852 50.8615C63.2213 51.863 63.5985 52.888 63.9776 53.9239L64.1698 54.4489H64.7289H68.4311V55.6761H65.7506H64.6134L64.9976 56.7464C65.5219 58.2068 66.0468 59.683 66.5635 61.1676L66.5643 61.1699C67.1832 62.9301 67.802 64.6909 68.4088 66.4247C68.7624 67.4723 69.1132 68.5106 69.4585 69.5324C69.6871 70.2091 69.9134 70.8785 70.1364 71.5388C70.3324 72.1311 70.5277 72.7088 70.7192 73.2754C71.0733 74.3226 71.4144 75.3319 71.7236 76.325ZM48.1388 53.6509V54.4511L48.9391 54.4509L56.2923 54.4489L57.6189 54.4485L56.9996 53.2754C55.3998 50.2448 53.9338 47.4045 52.68 44.9595C51.7594 43.143 50.9481 41.5466 50.2903 40.2523C50.0452 39.77 49.8214 39.3297 49.6213 38.9356L49.6166 38.9265L49.6117 38.9174C49.5998 38.8953 49.5936 38.8822 49.5707 38.8365L49.3213 38.3376L48.7668 38.3992C48.3957 38.4404 48.0254 38.465 47.6542 38.465C47.4836 38.465 47.3167 38.4532 47.1198 38.4393C47.0813 38.4366 47.0417 38.4338 47.0007 38.431L46.48 38.3954L46.2376 38.8577C46.1279 39.067 46.0141 39.2895 45.8913 39.5381C45.3717 40.5618 44.6949 41.8947 43.8982 43.4634C43.5639 44.1218 43.2085 44.8217 42.8347 45.5577C41.6657 47.8389 40.303 50.4748 38.8291 53.2775L38.2125 54.4499H39.5371H46.3696H47.1696V53.6499V50.597H48.1388V53.6509ZM56.159 28.4771C56.159 23.7861 52.3434 19.9703 47.6532 19.9703C42.9621 19.9703 39.1464 23.786 39.1464 28.4771C39.1464 33.1672 42.9611 36.9829 47.6532 36.9829C52.3422 36.9829 56.159 33.1683 56.159 28.4771Z" stroke="white" stroke-width="1.6"/>
<path d="M51.4214 28.2202C51.4214 30.2403 49.7763 31.8838 47.7568 31.8838C45.7371 31.8838 44.0922 30.2411 44.0922 28.2212C44.0922 26.2011 45.7374 24.5566 47.7568 24.5566C49.7763 24.5566 51.4214 26.2002 51.4214 28.2202Z" fill="white" stroke="white"/>
</g>
<defs>
<clipPath id="clip0">
<rect width="84" height="84" fill="white" transform="translate(6 6)"/>
</clipPath>
</defs>
</svg>
