<svg width="96" height="96" viewBox="0 0 96 96" fill="none" xmlns="http://www.w3.org/2000/svg">
<path d="M84 61.7999V74.9999C84 78.2999 81.3 80.9999 78 80.9999H18C14.7 80.9999 12 78.2999 12 74.9999V61.7999" stroke="white" stroke-width="1.6" stroke-miterlimit="10" stroke-linecap="round" stroke-linejoin="round"/>
<path d="M48 72C44.7 72 42 69.3 42 66V57H54V66C54 69.3 51.3 72 48 72Z" stroke="white" stroke-width="1.6" stroke-miterlimit="10" stroke-linecap="round" stroke-linejoin="round"/>
<path d="M42.1428 66H21.1428C14.5428 66 9.14282 60.6 9.14282 54V30C9.14282 26.7 11.8428 24 15.1428 24H81.1428C84.4428 24 87.1428 26.7 87.1428 30V54C87.1428 60.6 81.7428 66 75.1428 66H54.1428" stroke="white" stroke-width="1.6" stroke-miterlimit="10" stroke-linecap="round" stroke-linejoin="round"/>
<path d="M60 24H36V18C36 14.7 38.7 12 42 12H54C57.3 12 60 14.7 60 18V24Z" stroke="white" stroke-width="1.6" stroke-miterlimit="10" stroke-linecap="round" stroke-linejoin="round"/>
<path d="M21 84V81" stroke="white" stroke-width="1.6" stroke-miterlimit="10" stroke-linecap="round" stroke-linejoin="round"/>
<path d="M75 84V81" stroke="white" stroke-width="1.6" stroke-miterlimit="10" stroke-linecap="round" stroke-linejoin="round"/>
</svg>
