<svg width="96" height="96" viewBox="0 0 96 96" fill="none" xmlns="http://www.w3.org/2000/svg">
<path d="M48 67.8332C48 73.1653 43.6365 77.4999 38.252 77.4999C32.8676 77.4999 28.5041 73.1653 28.5041 67.8332C28.5041 62.5011 32.8676 58.1665 38.252 58.1665H48V67.8332Z" stroke="#4B5355"/>
<path d="M28.5041 47.5002C28.5041 42.168 32.8676 37.8335 38.252 37.8335H48V57.1668H38.252C32.8676 57.1668 28.5041 52.8323 28.5041 47.5002Z" fill="white" stroke="#4B5355"/>
<path fill-rule="evenodd" clip-rule="evenodd" d="M38.252 38.3335C33.1399 38.3335 29.0041 42.4479 29.0041 47.5002C29.0041 52.5524 33.1399 56.6668 38.252 56.6668H47.5V38.3335H38.252ZM38.252 37.3335C32.5952 37.3335 28.0041 41.8882 28.0041 47.5002C28.0041 53.1122 32.5952 57.6668 38.252 57.6668H48.5V37.3335H38.252Z" fill="#4B5355"/>
<path fill-rule="evenodd" clip-rule="evenodd" d="M38.252 38.7335C33.3578 38.7335 29.4041 42.6719 29.4041 47.5002C29.4041 52.3285 33.3578 56.2668 38.252 56.2668H47.1V38.7335H38.252ZM38.252 37.3335C32.5952 37.3335 28.0041 41.8882 28.0041 47.5002C28.0041 53.1122 32.5952 57.6668 38.252 57.6668H48.5V37.3335H38.252Z" fill="#4B5355"/>
<path d="M28.5051 27.1667C28.5051 21.8346 32.8685 17.5 38.253 17.5H48.001V36.8333H38.253C32.8685 36.8333 28.5051 32.4988 28.5051 27.1667Z" stroke="#4B5355"/>
<path d="M48.5 17.5H58C63.2439 17.5 67.5 21.7561 67.5 27C67.5 32.2439 63.2439 36.5 58 36.5H48.5V17.5Z" fill="white" stroke="#4B5355"/>
<path d="M67.9959 47.1667C67.9959 52.4988 63.6324 56.8333 58.248 56.8333C52.8635 56.8333 48.5 52.4988 48.5 47.1667C48.5 41.8346 52.8635 37.5 58.248 37.5C63.6324 37.5 67.9959 41.8346 67.9959 47.1667Z" stroke="#4B5355"/>
</svg>
