<svg width="96" height="96" viewBox="0 0 96 96" fill="none" xmlns="http://www.w3.org/2000/svg">
<path d="M24.2187 22.3223C24.2011 22.2303 24.2939 22.1551 24.3864 22.1863L79.4184 40.7505C79.5105 40.7816 79.5345 40.8954 79.4619 40.9569L35.1441 78.5496C35.0696 78.6128 34.9508 78.5732 34.9328 78.4792L24.2187 22.3223Z" stroke="#4B5355" stroke-width="0.75"/>
<path d="M38.1627 28.8154L40.4355 40.214L28.9406 36.3905L38.1627 28.8154Z" fill="white"/>
<path d="M64.7093 37.6455L66.982 49.0441L55.4871 45.2205L64.7093 37.6455Z" fill="white"/>
<path d="M51.436 33.2305L53.7088 44.6291L42.2138 40.8055L51.436 33.2305Z" fill="white"/>
<path d="M41.5563 39.877L50.7785 32.302L39.2835 28.4784L41.5563 39.877Z" fill="white"/>
<path d="M28.283 35.4624L37.5052 27.8874L26.0103 24.0638L28.283 35.4624Z" fill="white"/>
<path d="M68.1029 48.7075L77.3251 41.1325L65.8301 37.309L68.1029 48.7075Z" fill="white"/>
<path d="M54.8296 44.2925L64.0517 36.7175L52.5568 32.8939L54.8296 44.2925Z" fill="white"/>
<path d="M40.6297 42.4072L42.9025 53.8058L31.4075 49.9822L40.6297 42.4072Z" fill="white"/>
<path d="M53.903 46.8223L56.1758 58.2209L44.6808 54.3973L53.903 46.8223Z" fill="white"/>
<path d="M44.0233 53.4693L53.2455 45.8942L41.7505 42.0707L44.0233 53.4693Z" fill="white"/>
<path d="M30.7501 49.0537L39.9723 41.4787L28.4773 37.6552L30.7501 49.0537Z" fill="white"/>
<path d="M43.0967 55.999L45.3695 67.3976L33.8745 63.574L43.0967 55.999Z" fill="white"/>
<path d="M46.4903 67.0606L55.7124 59.4856L44.2175 55.662L46.4903 67.0606Z" fill="white"/>
<path d="M33.2171 62.6455L42.4393 55.0705L30.9443 51.247L33.2171 62.6455Z" fill="white"/>
<path d="M35.684 76.2373L44.9062 68.6623L33.4112 64.8387L35.684 76.2373Z" fill="white"/>
<path d="M57.2965 57.8838L66.5187 50.3088L55.0238 46.4852L57.2965 57.8838Z" fill="white"/>
</svg>
