<svg width="116" height="114" viewBox="0 0 116 114" fill="none" xmlns="http://www.w3.org/2000/svg">
<path d="M62.182 45.2582L106 57.0001L62.182 80.6129L9.99996 56.9999L62.182 45.2582Z" fill="white" stroke="white" stroke-width="1.2" stroke-linecap="round" stroke-linejoin="round"/>
<path d="M62.9661 43.0567L115 57.0001L62.9661 87.5L0.999949 57L62.9661 43.0567Z" stroke="#4B5355" stroke-width="1.2" stroke-linecap="round" stroke-linejoin="round"/>
<path d="M50.3612 32.2272C50.2118 32.2048 50.0603 32.251 49.9489 32.3531C49.8376 32.4552 49.7783 32.6021 49.7878 32.7529L50.4241 42.9224L51.0603 53.0919C51.0736 53.3034 51.2187 53.4836 51.4225 53.5416L64.265 57.1956L77.1075 60.8497C77.3704 60.9245 77.6445 60.7744 77.7232 60.5128L81.1167 49.2284L84.5102 37.944C84.5519 37.8052 84.5314 37.655 84.4537 37.5325C84.3761 37.41 84.2492 37.3272 84.1058 37.3056L67.2335 34.7664L50.3612 32.2272Z" fill="white" stroke="#4B5355" stroke-linejoin="round"/>
<path d="M53.7044 52.0635L53.5072 48.9124L64.1429 42.4953L66.2068 45.242L74.7153 40.1083L78.9507 47.3205L75.5124 57.8887L53.7044 52.0635Z" fill="#E4EAFF"/>
<ellipse rx="3.45897" ry="3.53295" transform="matrix(0.989927 0.141578 -0.0699919 0.997548 55.9104 38.5262)" fill="#E4EAFF"/>
<path d="M42.1701 34.5261C42.0207 34.5036 41.8691 34.5499 41.7578 34.6519C41.6464 34.754 41.5872 34.901 41.5966 35.0517L42.2329 45.2212L42.8692 55.3907C42.8824 55.6022 43.0275 55.7824 43.2314 55.8404L56.0739 59.4945L68.9164 63.1485C69.1792 63.2233 69.4534 63.0733 69.532 62.8116L72.9255 51.5272L76.319 40.2429C76.3608 40.104 76.3402 39.9538 76.2626 39.8313C76.185 39.7088 76.058 39.626 75.9146 39.6044L59.0423 37.0653L42.1701 34.5261Z" fill="white" stroke="#4B5355" stroke-linejoin="round"/>
<path d="M45.5132 54.3624L45.316 51.2113L55.9517 44.7941L58.0156 47.5408L66.5242 42.4071L70.7596 49.6193L67.3213 60.1875L45.5132 54.3624Z" fill="#E4EAFF"/>
<ellipse rx="3.45897" ry="3.53295" transform="matrix(0.989927 0.141578 -0.0699919 0.997548 47.7193 40.8245)" fill="#E4EAFF"/>
<path d="M33.3859 36.8615C33.2365 36.839 33.085 36.8853 32.9736 36.9874C32.8622 37.0895 32.803 37.2364 32.8124 37.3872L33.4487 47.5567L34.085 57.7261C34.0982 57.9376 34.2433 58.1178 34.4472 58.1758L47.2897 61.8299L60.1322 65.484C60.395 65.5587 60.6692 65.4087 60.7479 65.147L64.1413 53.8627L67.5348 42.5783C67.5766 42.4394 67.556 42.2893 67.4784 42.1668C67.4008 42.0442 67.2738 41.9615 67.1304 41.9399L50.2582 39.4007L33.3859 36.8615Z" fill="white" stroke="#4B5355" stroke-linejoin="round"/>
<path d="M36.729 56.6978L36.5319 53.5467L47.1675 47.1296L49.2315 49.8763L57.74 44.7426L61.9754 51.9548L58.5371 62.523L36.729 56.6978Z" stroke="#4B5355"/>
<path d="M41.8642 43.5789C41.7463 45.2599 40.3307 46.4155 38.7228 46.1855C37.1149 45.9555 35.888 44.422 36.0059 42.7411C36.1239 41.0601 37.5395 39.9045 39.1474 40.1345C40.7553 40.3644 41.9822 41.898 41.8642 43.5789Z" stroke="#4B5355"/>
</svg>
