<svg width="96" height="96" viewBox="0 0 96 96" fill="none" xmlns="http://www.w3.org/2000/svg">
<rect x="16.5839" y="17.2" width="63.6927" height="50.4108" stroke="white" stroke-width="1.6" stroke-linecap="round" stroke-linejoin="round"/>
<path d="M20.3729 44.0676C20.0968 44.0676 19.8729 43.8438 19.8729 43.5676V20.6564C19.8729 20.3803 20.0968 20.1564 20.3729 20.1564H34.3189H41.2918H48.2648H55.2378H62.2108H76.1567C76.4328 20.1564 76.6567 20.3803 76.6567 20.6564V43.5676C76.6567 43.8438 76.4328 44.0676 76.1567 44.0676H20.3729Z" stroke="white" stroke-linecap="round" stroke-linejoin="round"/>
<path d="M5 73.8819C4.7702 73.8819 4.5515 73.9807 4.39963 74.1532C4.24775 74.3256 4.17737 74.555 4.20642 74.783L4.70449 78.6921C4.75539 79.0916 5.09533 79.391 5.49807 79.391H90.3359C90.726 79.391 91.0593 79.1096 91.1246 78.725L91.7887 74.8159C91.8282 74.5836 91.7632 74.3457 91.6112 74.1657C91.4592 73.9857 91.2356 73.8819 91 73.8819H69.5H58.75C58.4251 73.8819 58.1324 74.0784 58.0095 74.3792L57.9222 74.5926H38.0778L37.9905 74.3792C37.8676 74.0784 37.5749 73.8819 37.25 73.8819H26.5H5Z" stroke="white" stroke-width="1.6" stroke-linecap="round" stroke-linejoin="round"/>
<rect x="50.757" y="47.3879" width="24.8996" height="15.9344" stroke="white"/>
<rect x="20.8729" y="47.3879" width="25.5637" height="15.9344" stroke="white"/>
<path d="M33.9417 51.3905L34.5324 52.6709C34.7509 53.1447 35.1998 53.4708 35.7178 53.5322L37.1181 53.6983C37.5418 53.7485 37.712 54.2722 37.3987 54.5619L36.3635 55.5193C35.9804 55.8735 35.809 56.4012 35.9106 56.9129L36.1855 58.296C36.2686 58.7144 35.8231 59.0381 35.4508 58.8297L34.2204 58.1409C33.7652 57.8861 33.2103 57.8861 32.755 58.1409L31.5246 58.8297C31.1523 59.0381 30.7068 58.7144 30.79 58.296L31.0648 56.9129C31.1664 56.4012 30.995 55.8735 30.612 55.5193L29.5767 54.5619C29.2634 54.2722 29.4336 53.7485 29.8573 53.6983L31.2576 53.5322C31.7756 53.4708 32.2246 53.1447 32.4431 52.6709L33.0337 51.3905C33.2124 51.0031 33.763 51.0031 33.9417 51.3905Z" stroke="white"/>
</svg>
