<svg width="96" height="96" viewBox="0 0 96 96" fill="none" xmlns="http://www.w3.org/2000/svg">
<path d="M58.7838 62.5398C58.7838 62.5398 56.674 63.7801 56.0146 66.1324C55.2481 68.8665 55.5358 70.6033 54.9997 73.3934C54.5483 75.7426 52.3735 78.1321 52.3735 78.1321" stroke="white"/>
<path d="M57.7637 61.8077L58.0229 61.6885C58.1953 61.8279 58.4253 61.9997 58.6533 62.1192C58.83 62.2118 59.0319 62.287 59.215 62.3452L59.1669 62.7122C58.7886 62.2878 58.3035 61.975 57.7637 61.8077ZM64.8969 60.2067C62.9731 60.8622 61.3516 61.12 60.228 60.9528L60.2201 60.9512C60.2061 60.9483 60.1855 60.9441 60.1598 60.9384C60.1561 60.9376 60.1523 60.9368 60.1485 60.9359C60.086 60.9221 59.9988 60.9017 59.9014 60.8758C59.69 60.8196 59.4919 60.7533 59.3789 60.694C59.2705 60.6372 59.1088 60.518 58.9473 60.3833C58.8729 60.3212 58.8084 60.2641 58.7627 60.2228C58.7415 60.2036 58.7247 60.1881 58.7131 60.1774C57.9388 59.329 57.226 57.8309 56.662 55.8602C56.1002 53.8973 55.7106 51.5541 55.5334 49.1206C55.1762 44.2148 55.6944 39.129 57.2419 36.1133C60.6037 29.5615 68.549 27.0245 74.9806 30.4227C81.4123 33.8209 83.92 41.8809 80.5582 48.4326C79.0083 51.4532 75.1829 54.795 71.0024 57.3003C68.9289 58.5428 66.8072 59.5557 64.8969 60.2067Z" stroke="#4B5355" stroke-width="1.6"/>
<path d="M62.6193 35.5272C59.8801 38.1232 59.4324 42.13 58.2112 40.8032C56.99 39.4764 58.2206 36.2963 60.9597 33.7004C63.6989 31.1044 66.9093 30.0756 68.1305 31.4024C69.3517 32.7292 65.3584 32.9313 62.6193 35.5272Z" fill="#4B5355" fill-opacity="0.2"/>
<path d="M36.8684 38.243C37.9074 41.6139 37.4073 47.0593 36.0345 51.9172C35.3534 54.3272 34.4732 56.5347 33.5059 58.2103C33.0222 59.048 32.5276 59.734 32.0399 60.2428C31.5479 60.7561 31.0987 61.0521 30.711 61.1752C30.3233 61.2982 29.7879 61.3148 29.0953 61.1774C28.4089 61.0412 27.6172 60.7636 26.7493 60.3548C25.0134 59.5372 23.0505 58.232 21.1375 56.6454C17.2814 53.4471 13.8126 49.2614 12.7736 45.8906C10.6856 39.1166 14.4014 31.9274 21.0456 29.8186C27.6898 27.7098 34.7804 31.4691 36.8684 38.243Z" stroke="#4B5355" stroke-width="1.6"/>
<path d="M17.2706 39.3239C16.206 42.9705 17.8215 46.6548 16.1061 46.1392C14.3906 45.6235 13.4355 42.1466 14.5 38.5C15.5645 34.8534 18.2456 32.418 19.9611 32.9336C21.6765 33.4493 18.3351 35.6773 17.2706 39.3239Z" fill="white"/>
<path d="M31.1854 61.7476C31.1854 61.7476 30.451 64.1069 31.5266 66.2954C32.7768 68.8393 34.143 69.9253 35.6006 72.3528C36.8278 74.3968 36.8089 77.6494 36.8089 77.6494" stroke="white"/>
<path d="M30.0727 62.4711C30.3147 61.8678 31.1198 61.7552 31.5136 62.2695L32.2104 63.1794L32.1064 63.1657C31.2691 63.0552 30.4184 63.2438 29.7039 63.6982L30.1309 64.3734L29.7039 63.6982L29.5381 63.8037L30.0727 62.4711Z" fill="#4B5355" stroke="#4B5355" stroke-width="1.6"/>
<path d="M44.6153 56.1139C44.6153 56.1139 42.7785 59.587 43.2364 62.4761C43.7687 65.8344 46.8256 66.6336 47.6356 69.9342C48.3176 72.7132 45.4397 76.312 45.4397 76.312" stroke="white"/>
<path d="M42.7839 57.4854L43.2455 56.888C43.4995 56.9408 43.8503 57.0007 44.1628 56.9997C44.4179 56.9989 44.6967 56.9574 44.9325 56.911L45.2048 57.6727C44.4726 57.3301 43.6449 57.2561 42.8641 57.464L42.7839 57.4854ZM49.6247 51.8861C47.997 53.6005 46.4586 54.756 45.196 55.2003L45.184 55.2038C45.1653 55.2093 45.137 55.2174 45.1011 55.2274C45.0288 55.2473 44.9274 55.274 44.8124 55.3006C44.5655 55.3576 44.3178 55.3992 44.1577 55.3998C44.0044 55.4002 43.7666 55.3635 43.5296 55.3127C43.4191 55.289 43.3217 55.2652 43.2523 55.2473C43.2177 55.2385 43.1905 55.2312 43.1726 55.2263L43.1716 55.226C41.9089 54.7689 40.378 53.6062 38.7621 51.8904C37.1521 50.1808 35.5204 47.9897 34.06 45.5931C31.1192 40.7671 28.9677 35.2665 28.9677 31.3144C28.9677 22.7341 35.8117 15.8 44.2278 15.8C52.6439 15.8 59.4879 22.7341 59.4879 31.3144C59.4879 35.2731 57.3166 40.7772 54.3548 45.6001C52.884 47.995 51.2422 50.1824 49.6247 51.8861Z" fill="white" stroke="#4B5355" stroke-width="1.6"/>
<path d="M36.719 24.3549C35.2586 26.0285 34.4526 28.0208 33.8535 29.5018C33.8018 29.6297 33.7516 29.7538 33.7026 29.8735C33.5477 30.2526 33.4068 30.5847 33.2697 30.8601C33.1314 31.138 33.0045 31.3418 32.8826 31.4737C32.7626 31.6037 32.6699 31.6405 32.5942 31.6408C32.5123 31.6412 32.385 31.5997 32.1973 31.431C31.4554 30.7645 31.1614 29.4867 31.4669 27.8786C31.77 26.2827 32.6572 24.4191 34.186 22.6671C35.7154 20.9144 37.5859 19.6186 39.2705 18.9473C40.1129 18.6116 40.8991 18.436 41.5665 18.4311C42.2349 18.4262 42.7625 18.592 43.1203 18.9135C43.3076 19.0818 43.3631 19.2051 43.3723 19.288C43.3808 19.3654 43.3552 19.4648 43.2409 19.6034C43.1252 19.7438 42.9395 19.8979 42.6829 20.0727C42.4285 20.2459 42.1189 20.4299 41.7652 20.6337C41.6514 20.6993 41.5333 20.7668 41.4116 20.8363C40.0302 21.6255 38.1769 22.6842 36.719 24.3549Z" fill="white" stroke="#4B5355" stroke-width="0.5"/>
</svg>
