<svg width="96" height="96" viewBox="0 0 96 96" fill="none" xmlns="http://www.w3.org/2000/svg">
<path d="M71.0686 79.5033C70.8847 78.8624 70.6526 78.0885 70.3801 77.2042C70.1068 76.3206 69.8118 75.3178 69.4643 74.2343C69.116 73.1508 68.742 71.9771 68.3429 70.7372C67.9552 69.4917 67.5005 68.1994 67.0539 66.8499C66.6 65.5061 66.13 64.1163 65.6536 62.7047C65.1619 61.2995 64.6604 59.8727 64.159 58.4466C63.7398 57.2422 63.3141 56.045 62.8893 54.8616H65.7068V52.5729H62.0622C61.755 51.7337 61.4495 50.9034 61.1504 50.0924C60.1709 47.4345 59.2374 44.9636 58.4297 42.8483C57.6138 40.7361 56.935 38.9755 56.4586 37.7437C56.224 37.156 56.0628 36.6844 55.9104 36.366C56.5876 35.1269 56.9721 33.7049 56.9721 32.1949C56.9721 28.0215 54.0305 24.5276 50.1093 23.6682V14H46.3671V23.669C42.45 24.5284 39.5052 28.0223 39.5052 32.1957C39.5052 33.8758 39.9913 35.4421 40.816 36.7763C40.795 36.7852 40.7716 36.794 40.7555 36.8077C40.5983 37.1246 40.4322 37.6171 40.1872 38.2298C39.7115 39.4616 39.0311 41.2214 38.2169 43.3336C37.4083 45.4489 36.4748 47.9206 35.4953 50.5777C35.2527 51.2323 35.0084 51.8998 34.7609 52.5745H30.7729V54.864H33.9306C33.4453 56.2038 32.9608 57.5662 32.4868 58.9327C31.9861 60.3604 31.4847 61.7873 30.9922 63.1908C30.5157 64.6024 30.0465 65.993 29.5919 67.3377C29.1453 68.6855 28.6922 69.9794 28.3036 71.2233C27.9046 72.464 27.5305 73.6369 27.1823 74.7204C26.8348 75.8039 26.5398 76.8068 26.2665 77.6911C25.994 78.5755 25.761 79.3486 25.578 79.9895C25.2112 81.2696 25 82.0008 25 82.0008C25 82.0008 25.4047 81.3559 26.1109 80.2273C26.464 79.6638 26.8856 78.9721 27.3588 78.1788C27.8336 77.3856 28.3834 76.4956 28.955 75.5121C29.5266 74.5294 30.1481 73.4652 30.8059 72.3398C31.471 71.2177 32.1296 70.0157 32.835 68.7831C33.5299 67.5464 34.2506 66.2687 34.981 64.97C35.6945 63.6648 36.4208 62.3371 37.1471 61.0101C38.2887 58.9448 39.4012 56.8673 40.4613 54.8648H47.1991V59.023H49.279V54.8648H56.4409C57.4244 56.7182 58.4498 58.6263 59.4986 60.5264C60.2242 61.8534 60.9513 63.1795 61.6648 64.4847C62.3951 65.7834 63.1166 67.0619 63.8107 68.2978C64.5161 69.5304 65.1739 70.7332 65.8406 71.8545C66.4968 72.9799 67.1192 74.0449 67.6916 75.026C68.2639 76.0103 68.8137 76.8978 69.287 77.6943C69.761 78.4884 70.181 79.1777 70.5357 79.742C71.2419 80.8706 71.6466 81.5163 71.6466 81.5163C71.6466 81.5163 71.4354 80.7835 71.0686 79.5033ZM48.239 25.9569C51.6781 25.9569 54.4771 28.7559 54.4771 32.1957C54.4771 35.6356 51.6773 38.4338 48.239 38.4338C44.7984 38.4338 42.0002 35.6348 42.0002 32.1957C42.0002 28.7559 44.7992 25.9569 48.239 25.9569ZM49.2798 52.5745V49.4547H47.1999V52.5737H41.6689C42.8636 50.302 43.968 48.1657 44.9153 46.3172C45.9399 44.2993 46.7944 42.6169 47.3918 41.4399C47.4893 41.2424 47.5796 41.0659 47.6667 40.8998C47.8553 40.9127 48.0464 40.9288 48.2398 40.9288C48.5688 40.9288 48.8928 40.907 49.2121 40.8716C49.2266 40.9006 49.2387 40.9256 49.2548 40.9554C49.8522 42.1316 50.7083 43.814 51.7313 45.8327C52.7471 47.8134 53.9353 50.1158 55.2324 52.5729L49.2798 52.5745Z" fill="white" stroke="#4B5355" stroke-width="0.85"/>
</svg>
