<svg width="96" height="96" viewBox="0 0 96 96" fill="none" xmlns="http://www.w3.org/2000/svg">
<path d="M43.0334 50.9346H37.5605" stroke="white" stroke-width="4"/>
<path d="M42.1213 52.501H38.4727" stroke="white" stroke-width="4"/>
<path d="M40.1951 25.1357L40.1951 30.8199" stroke="white" stroke-width="4"/>
<path d="M48.108 28.1675L44.949 32.626" stroke="white" stroke-width="4"/>
<path d="M53.9778 36.8833L48.8677 37.831" stroke="white" stroke-width="4"/>
<path d="M26.6139 36.8291L31.6354 37.979" stroke="white" stroke-width="4"/>
<path d="M31.7058 28.1675L34.8648 32.626" stroke="white" stroke-width="4"/>
<path d="M34.4115 38.4428C34.4115 35.444 37.1052 32.9326 40.5322 32.9326C43.9593 32.9326 46.653 35.444 46.653 38.4428C46.653 40.0042 45.9306 41.4233 44.751 42.4342C44.4651 42.6792 44.3456 43.0764 44.272 43.3895C44.2157 43.6293 44.1681 43.9149 44.12 44.2035C44.1007 44.3194 44.0813 44.4358 44.0612 44.5499C43.913 45.3924 43.705 46.2521 43.1945 46.9034C42.7351 47.4894 41.7771 47.8363 40.7024 47.8479C39.6268 47.8595 38.6498 47.5324 38.1844 47.0253C37.541 46.3245 37.3958 45.5745 37.2769 44.7809C37.2694 44.7306 37.2619 44.6793 37.2544 44.6272C37.1498 43.9071 37.0245 43.0435 36.3134 42.4342C35.1339 41.4233 34.4115 40.0042 34.4115 38.4428Z" stroke="white"/>
<path d="M36.4303 35.869L36.4421 35.8573L36.4531 35.8447C37.0512 35.1611 37.5894 34.7306 38.0564 34.5382C38.4006 34.3965 38.7005 34.3839 38.985 34.501C38.9591 34.5132 38.9322 34.5258 38.9043 34.5389C38.3997 34.775 37.5696 35.1635 37.0414 35.9504C36.64 36.5485 36.4611 37.0826 36.3465 37.425C36.3155 37.5175 36.2892 37.5959 36.2645 37.6579C36.2039 37.81 36.1688 37.8366 36.1534 37.8468C36.1364 37.8581 36.0834 37.8865 35.9404 37.8993C35.717 37.6969 35.6536 37.4374 35.7082 37.1212C35.7769 36.7236 36.0389 36.2605 36.4303 35.869Z" fill="white" stroke="white"/>
<mask id="path-10-inside-1" fill="white">
<path d="M63.5938 40.2969C63.5938 53.1634 53.1634 63.5938 40.2969 63.5938C27.4304 63.5938 17 53.1634 17 40.2969C17 27.4304 27.4304 17 40.2969 17C53.1634 17 63.5938 27.4304 63.5938 40.2969ZM20.3413 40.2969C20.3413 51.318 29.2757 60.2524 40.2969 60.2524C51.318 60.2524 60.2524 51.318 60.2524 40.2969C60.2524 29.2757 51.318 20.3413 40.2969 20.3413C29.2757 20.3413 20.3413 29.2757 20.3413 40.2969Z"/>
</mask>
<path d="M63.5938 40.2969C63.5938 53.1634 53.1634 63.5938 40.2969 63.5938C27.4304 63.5938 17 53.1634 17 40.2969C17 27.4304 27.4304 17 40.2969 17C53.1634 17 63.5938 27.4304 63.5938 40.2969ZM20.3413 40.2969C20.3413 51.318 29.2757 60.2524 40.2969 60.2524C51.318 60.2524 60.2524 51.318 60.2524 40.2969C60.2524 29.2757 51.318 20.3413 40.2969 20.3413C29.2757 20.3413 20.3413 29.2757 20.3413 40.2969Z" stroke="white" stroke-width="3.2" mask="url(#path-10-inside-1)"/>
<path d="M39.8164 44.72C40.4041 44.72 40.8041 44.9649 41.0164 45.4547C41.0653 45.6016 41.0898 45.7976 41.0898 46.0425C41.0898 46.2874 40.9837 46.5078 40.7715 46.7037C40.396 47.0465 39.9715 47.12 39.498 46.9241C39.0409 46.7282 38.8123 46.4098 38.8123 45.969C38.8123 45.5119 38.9184 45.1935 39.1306 45.0139C39.3429 44.818 39.5715 44.72 39.8164 44.72ZM40.4531 42.1486C40.4531 42.671 40.5347 43.1527 40.698 43.5935H40.0613C39.6204 43.3323 39.2857 42.9731 39.0572 42.5159C38.9919 42.369 38.9592 42.1812 38.9592 41.9527C38.9592 41.7241 39.0245 41.4955 39.1551 41.267C39.4164 40.8588 39.8 40.418 40.3062 39.9445C41.2041 39.1119 41.6531 38.32 41.6531 37.569C41.6531 37.0465 41.5143 36.6221 41.2368 36.2955C40.9755 35.969 40.6082 35.8057 40.1347 35.8057C38.9919 35.8057 38.3225 36.2547 38.1266 37.1527H36.9755C36.9755 36.2874 37.3511 35.6425 38.1021 35.218C38.6898 34.8751 39.3021 34.7037 39.9388 34.7037C41.0653 34.7037 41.9388 34.9649 42.5592 35.4874C43.1796 36.0098 43.4898 36.7363 43.4898 37.667C43.4898 38.5812 42.9755 39.4792 41.947 40.3608C41.3102 40.9323 40.9021 41.3323 40.7225 41.5608C40.5429 41.7731 40.4531 41.969 40.4531 42.1486Z" fill="white"/>
<path d="M57.2929 58.5268L61.0755 54.019L62.3884 55.1207L58.6059 59.6285L57.2929 58.5268Z" stroke="white"/>
<path d="M62.3916 58.3503L62.3995 58.3412L62.4071 58.3318L64.138 56.1993C64.5605 55.6788 65.3275 55.6054 65.8411 56.0363L83.4572 70.818C83.9649 71.244 84.0312 72.0009 83.6051 72.5086L79.5054 77.3946C79.0793 77.9023 78.3224 77.9685 77.8147 77.5425L60.1949 62.7577C59.6822 62.3275 59.6205 61.561 60.0578 61.0543L62.3916 58.3503Z" fill="white" stroke="white" stroke-width="1.6"/>
</svg>
