<svg width="96" height="96" viewBox="0 0 96 96" fill="none" xmlns="http://www.w3.org/2000/svg">
<path d="M1.2 48.5772C1.2 58.7869 9.65795 66.2065 19.9512 66.2065C25.0574 66.2065 30.2629 64.896 33.7463 61.496L63.4023 61.496C66.7391 64.4239 71.1801 66.2065 76.0488 66.2065C86.3724 66.2065 94.8 58.1779 94.8 48.2033C94.8 38.2286 86.3724 30.2 76.0488 30.2L19.9512 30.2C9.61117 30.2 1.2 38.412 1.2 48.5772Z" fill="#E4EAFF" stroke="#7588CF" stroke-width="1.6"/>
<path d="M37.7089 50.0074L40.9706 47.5986C40.9706 47.5986 42.0079 46.8114 42.7847 47.8064C43.5615 48.8014 42.5586 49.5181 42.5586 49.5181L38.9717 52.0884C38.9717 52.0884 38.026 52.7018 37.3205 51.7983C36.615 50.8947 37.7089 50.0074 37.7089 50.0074Z" stroke="#7588CF" stroke-linecap="round" stroke-linejoin="round"/>
<path d="M47.7005 50.0091L50.9651 47.6043C50.9651 47.6043 52.0035 46.8185 52.7697 47.8031C53.536 48.7877 52.5324 49.5034 52.5324 49.5034L48.9428 52.0698C48.9428 52.0698 47.9969 52.6827 47.3009 51.7886C46.605 50.8945 47.7005 50.0091 47.7005 50.0091Z" stroke="#7588CF" stroke-linecap="round" stroke-linejoin="round"/>
<g filter="url(#filter0_d)">
<path d="M31.1121 47.953C31.1121 50.3381 29.8235 52.7131 27.8067 54.5063C25.7925 56.2971 23.1025 57.4601 20.3926 57.4601C14.9837 57.4601 10.795 52.8185 10.795 47.953C10.795 43.1742 15.7196 39.041 21.2215 39.041C26.6893 39.041 31.1121 43.1443 31.1121 47.953Z" stroke="#7588CF"/>
</g>
<path d="M93.1602 47.623C93.1602 56.2979 85.7897 63.8331 76.2886 63.8331C66.7875 63.8331 58.3798 56.2979 58.3798 47.623C58.3798 38.9481 65.9584 32.1609 75.4595 32.1609C84.9606 32.1609 93.1602 38.9481 93.1602 47.623Z" stroke="#7588CF"/>
<path d="M72.5921 50.8789L82.3165 44.38C82.3165 44.38 85.9079 42.2978 88.4223 45.6432C90.9367 48.9886 87.1783 51.1117 87.1783 51.1117L78.2027 57.4694C78.2027 57.4694 75.0785 59.2782 72.5922 56.3476C70.1059 53.4171 72.5921 50.8789 72.5921 50.8789Z" fill="#E4EAFF" stroke="#7588CF" stroke-width="0.5" stroke-linecap="round" stroke-linejoin="round"/>
<g filter="url(#filter1_iiii)">
<path d="M79.1983 53.8627C79.1983 55.5151 77.6913 56.8546 75.8324 56.8546C73.9735 56.8546 72.4666 55.5151 72.4666 53.8627C72.4666 52.2104 73.9735 50.8708 75.8324 50.8708C77.6913 50.8708 79.1983 52.2104 79.1983 53.8627Z" fill="#F5E06D"/>
</g>
<path d="M79.0733 53.8627C79.0733 55.4326 77.6365 56.7296 75.8324 56.7296C74.0283 56.7296 72.5916 55.4326 72.5916 53.8627C72.5916 52.2928 74.0283 50.9958 75.8324 50.9958C77.6365 50.9958 79.0733 52.2928 79.0733 53.8627Z" stroke="black" stroke-opacity="0.48" stroke-width="0.25"/>
<g filter="url(#filter2_iii)">
<path d="M87.9951 47.5893C87.9951 49.2416 86.4882 50.5812 84.6293 50.5812C82.7704 50.5812 81.2634 49.2416 81.2634 47.5893C81.2634 45.9369 82.7704 44.5974 84.6293 44.5974C86.4882 44.5974 87.9951 45.9369 87.9951 47.5893Z" fill="#E46070"/>
</g>
<path d="M87.8701 47.5893C87.8701 49.1592 86.4334 50.4562 84.6293 50.4562C82.8252 50.4562 81.3884 49.1592 81.3884 47.5893C81.3884 46.0194 82.8252 44.7224 84.6293 44.7224C86.4334 44.7224 87.8701 46.0194 87.8701 47.5893Z" stroke="black" stroke-opacity="0.48" stroke-width="0.25"/>
<path d="M63.3061 44.9092L73.0305 38.4103C73.0305 38.4103 76.6219 36.328 79.1363 39.6734C81.6507 43.0188 77.8923 45.142 77.8923 45.142L68.9167 51.4997C68.9167 51.4997 65.7925 53.3084 63.3062 50.3779C60.8199 47.4473 63.3061 44.9092 63.3061 44.9092Z" fill="#E4EAFF" stroke="#7588CF" stroke-width="0.5" stroke-linecap="round" stroke-linejoin="round"/>
<g filter="url(#filter3_iiiii)">
<path d="M70.0864 47.3844C70.0864 49.0368 68.5795 50.3763 66.7206 50.3763C64.8617 50.3763 63.3547 49.0368 63.3547 47.3844C63.3547 45.7321 64.8617 44.3926 66.7206 44.3926C68.5795 44.3926 70.0864 45.7321 70.0864 47.3844Z" fill="#61C7A2"/>
</g>
<path d="M69.9614 47.3844C69.9614 48.9543 68.5247 50.2513 66.7206 50.2513C64.9165 50.2513 63.4797 48.9543 63.4797 47.3844C63.4797 45.8146 64.9165 44.5176 66.7206 44.5176C68.5247 44.5176 69.9614 45.8146 69.9614 47.3844Z" stroke="black" stroke-opacity="0.48" stroke-width="0.25"/>
<g filter="url(#filter4_iii)">
<path d="M78.6904 41.288C78.6904 42.9404 77.1835 44.2799 75.3246 44.2799C73.4657 44.2799 71.9587 42.9404 71.9587 41.288C71.9587 39.6356 73.4657 38.2961 75.3246 38.2961C77.1835 38.2961 78.6904 39.6356 78.6904 41.288Z" fill="#5C67CF"/>
</g>
<path d="M78.5654 41.288C78.5654 42.8579 77.1287 44.1549 75.3246 44.1549C73.5205 44.1549 72.0837 42.8579 72.0837 41.288C72.0837 39.7181 73.5205 38.4211 75.3246 38.4211C77.1287 38.4211 78.5654 39.7181 78.5654 41.288Z" stroke="black" stroke-opacity="0.48" stroke-width="0.25"/>
<path d="M23.4091 40.8032H18.5473V45.291H13.3115L13.3119 50.6722H18.1733L18.1737 55.0146H23.4091V50.6722H28.5002V45.291H23.4095L23.4091 40.8032Z" fill="#E4EAFF"/>
<path d="M23.4091 40.8032H18.5473V45.291H13.3115L13.3119 50.6722H18.1733L18.1737 55.0146H23.4091V50.6722H28.5002V45.291H23.4095L23.4091 40.8032Z" fill="url(#paint0_radial)" fill-opacity="0.5"/>
<path d="M23.4091 40.8032H18.5473V45.291H13.3115L13.3119 50.6722H18.1733L18.1737 55.0146H23.4091V50.6722H28.5002V45.291H23.4095L23.4091 40.8032Z" stroke="#8A9CE0" stroke-opacity="0.48" stroke-linecap="round" stroke-linejoin="round"/>
<path d="M20.086 43.0559C20.4145 42.3164 21.464 42.3164 21.7924 43.0559V43.0559C22.0666 43.6732 21.6147 44.3683 20.9392 44.3683V44.3683C20.2638 44.3683 19.8119 43.6732 20.086 43.0559V43.0559Z" stroke="#7588CF" stroke-linecap="round" stroke-linejoin="round"/>
<path d="M21.7926 51.8162C21.4642 52.5557 20.4147 52.5557 20.0862 51.8162V51.8162C19.8121 51.1989 20.264 50.5038 20.9394 50.5038V50.5038C21.6149 50.5038 22.0668 51.1989 21.7926 51.8162V51.8162Z" stroke="#7588CF" stroke-linecap="round" stroke-linejoin="round"/>
<path d="M25.6534 46.6925C26.3929 47.0209 26.3929 48.0704 25.6534 48.3989V48.3989C25.0361 48.673 24.3409 48.2211 24.3409 47.5457V47.5457C24.3409 46.8702 25.0361 46.4183 25.6534 46.6925V46.6925Z" stroke="#7588CF" stroke-linecap="round" stroke-linejoin="round"/>
<path d="M16.2274 48.5092C15.4879 48.1807 15.4879 47.1312 16.2274 46.8028V46.8028C16.8447 46.5286 17.5398 46.9805 17.5398 47.656V47.656C17.5398 48.3314 16.8447 48.7833 16.2274 48.5092V48.5092Z" stroke="#7588CF" stroke-linecap="round" stroke-linejoin="round"/>
<defs>
<filter id="filter0_d" x="9.29504" y="37.541" width="23.3171" height="21.4191" filterUnits="userSpaceOnUse" color-interpolation-filters="sRGB">
<feFlood flood-opacity="0" result="BackgroundImageFix"/>
<feColorMatrix in="SourceAlpha" type="matrix" values="0 0 0 0 0 0 0 0 0 0 0 0 0 0 0 0 0 0 127 0"/>
<feOffset/>
<feGaussianBlur stdDeviation="0.5"/>
<feColorMatrix type="matrix" values="0 0 0 0 0 0 0 0 0 0 0 0 0 0 0 0 0 0 0.16 0"/>
<feBlend mode="normal" in2="BackgroundImageFix" result="effect1_dropShadow"/>
<feBlend mode="normal" in="SourceGraphic" in2="effect1_dropShadow" result="shape"/>
</filter>
<filter id="filter1_iiii" x="71.7166" y="50.3708" width="8.48171" height="7.48374" filterUnits="userSpaceOnUse" color-interpolation-filters="sRGB">
<feFlood flood-opacity="0" result="BackgroundImageFix"/>
<feBlend mode="normal" in="SourceGraphic" in2="BackgroundImageFix" result="shape"/>
<feColorMatrix in="SourceAlpha" type="matrix" values="0 0 0 0 0 0 0 0 0 0 0 0 0 0 0 0 0 0 127 0" result="hardAlpha"/>
<feOffset dx="0.25" dy="-1"/>
<feGaussianBlur stdDeviation="0.25"/>
<feComposite in2="hardAlpha" operator="arithmetic" k2="-1" k3="1"/>
<feColorMatrix type="matrix" values="0 0 0 0 0 0 0 0 0 0 0 0 0 0 0 0 0 0 0.25 0"/>
<feBlend mode="normal" in2="shape" result="effect1_innerShadow"/>
<feColorMatrix in="SourceAlpha" type="matrix" values="0 0 0 0 0 0 0 0 0 0 0 0 0 0 0 0 0 0 127 0" result="hardAlpha"/>
<feOffset dx="0.25" dy="-0.5"/>
<feGaussianBlur stdDeviation="0.125"/>
<feComposite in2="hardAlpha" operator="arithmetic" k2="-1" k3="1"/>
<feColorMatrix type="matrix" values="0 0 0 0 0 0 0 0 0 0 0 0 0 0 0 0 0 0 0.3 0"/>
<feBlend mode="normal" in2="effect1_innerShadow" result="effect2_innerShadow"/>
<feColorMatrix in="SourceAlpha" type="matrix" values="0 0 0 0 0 0 0 0 0 0 0 0 0 0 0 0 0 0 127 0" result="hardAlpha"/>
<feOffset dx="-1" dy="1"/>
<feGaussianBlur stdDeviation="0.375"/>
<feComposite in2="hardAlpha" operator="arithmetic" k2="-1" k3="1"/>
<feColorMatrix type="matrix" values="0 0 0 0 1 0 0 0 0 1 0 0 0 0 1 0 0 0 0.25 0"/>
<feBlend mode="normal" in2="effect2_innerShadow" result="effect3_innerShadow"/>
<feColorMatrix in="SourceAlpha" type="matrix" values="0 0 0 0 0 0 0 0 0 0 0 0 0 0 0 0 0 0 127 0" result="hardAlpha"/>
<feOffset dx="1" dy="1"/>
<feGaussianBlur stdDeviation="0.5"/>
<feComposite in2="hardAlpha" operator="arithmetic" k2="-1" k3="1"/>
<feColorMatrix type="matrix" values="0 0 0 0 1 0 0 0 0 1 0 0 0 0 1 0 0 0 0.25 0"/>
<feBlend mode="normal" in2="effect3_innerShadow" result="effect4_innerShadow"/>
</filter>
<filter id="filter2_iii" x="80.5134" y="44.3474" width="8.48171" height="7.23374" filterUnits="userSpaceOnUse" color-interpolation-filters="sRGB">
<feFlood flood-opacity="0" result="BackgroundImageFix"/>
<feBlend mode="normal" in="SourceGraphic" in2="BackgroundImageFix" result="shape"/>
<feColorMatrix in="SourceAlpha" type="matrix" values="0 0 0 0 0 0 0 0 0 0 0 0 0 0 0 0 0 0 127 0" result="hardAlpha"/>
<feOffset dx="0.25" dy="-0.5"/>
<feGaussianBlur stdDeviation="0.125"/>
<feComposite in2="hardAlpha" operator="arithmetic" k2="-1" k3="1"/>
<feColorMatrix type="matrix" values="0 0 0 0 0 0 0 0 0 0 0 0 0 0 0 0 0 0 0.3 0"/>
<feBlend mode="normal" in2="shape" result="effect1_innerShadow"/>
<feColorMatrix in="SourceAlpha" type="matrix" values="0 0 0 0 0 0 0 0 0 0 0 0 0 0 0 0 0 0 127 0" result="hardAlpha"/>
<feOffset dx="-1" dy="1"/>
<feGaussianBlur stdDeviation="0.375"/>
<feComposite in2="hardAlpha" operator="arithmetic" k2="-1" k3="1"/>
<feColorMatrix type="matrix" values="0 0 0 0 1 0 0 0 0 1 0 0 0 0 1 0 0 0 0.25 0"/>
<feBlend mode="normal" in2="effect1_innerShadow" result="effect2_innerShadow"/>
<feColorMatrix in="SourceAlpha" type="matrix" values="0 0 0 0 0 0 0 0 0 0 0 0 0 0 0 0 0 0 127 0" result="hardAlpha"/>
<feOffset dx="1" dy="1"/>
<feGaussianBlur stdDeviation="0.5"/>
<feComposite in2="hardAlpha" operator="arithmetic" k2="-1" k3="1"/>
<feColorMatrix type="matrix" values="0 0 0 0 1 0 0 0 0 1 0 0 0 0 1 0 0 0 0.25 0"/>
<feBlend mode="normal" in2="effect2_innerShadow" result="effect3_innerShadow"/>
</filter>
<filter id="filter3_iiiii" x="62.6047" y="43.8926" width="8.48171" height="7.48374" filterUnits="userSpaceOnUse" color-interpolation-filters="sRGB">
<feFlood flood-opacity="0" result="BackgroundImageFix"/>
<feBlend mode="normal" in="SourceGraphic" in2="BackgroundImageFix" result="shape"/>
<feColorMatrix in="SourceAlpha" type="matrix" values="0 0 0 0 0 0 0 0 0 0 0 0 0 0 0 0 0 0 127 0" result="hardAlpha"/>
<feOffset dx="1" dy="-1"/>
<feGaussianBlur stdDeviation="0.125"/>
<feComposite in2="hardAlpha" operator="arithmetic" k2="-1" k3="1"/>
<feColorMatrix type="matrix" values="0 0 0 0 0.258824 0 0 0 0 0.615686 0 0 0 0 0.486275 0 0 0 0.5 0"/>
<feBlend mode="normal" in2="shape" result="effect1_innerShadow"/>
<feColorMatrix in="SourceAlpha" type="matrix" values="0 0 0 0 0 0 0 0 0 0 0 0 0 0 0 0 0 0 127 0" result="hardAlpha"/>
<feOffset dx="0.25" dy="-1"/>
<feGaussianBlur stdDeviation="0.25"/>
<feComposite in2="hardAlpha" operator="arithmetic" k2="-1" k3="1"/>
<feColorMatrix type="matrix" values="0 0 0 0 0 0 0 0 0 0 0 0 0 0 0 0 0 0 0.25 0"/>
<feBlend mode="normal" in2="effect1_innerShadow" result="effect2_innerShadow"/>
<feColorMatrix in="SourceAlpha" type="matrix" values="0 0 0 0 0 0 0 0 0 0 0 0 0 0 0 0 0 0 127 0" result="hardAlpha"/>
<feOffset dx="0.25" dy="-0.5"/>
<feGaussianBlur stdDeviation="0.125"/>
<feComposite in2="hardAlpha" operator="arithmetic" k2="-1" k3="1"/>
<feColorMatrix type="matrix" values="0 0 0 0 0 0 0 0 0 0 0 0 0 0 0 0 0 0 0.3 0"/>
<feBlend mode="normal" in2="effect2_innerShadow" result="effect3_innerShadow"/>
<feColorMatrix in="SourceAlpha" type="matrix" values="0 0 0 0 0 0 0 0 0 0 0 0 0 0 0 0 0 0 127 0" result="hardAlpha"/>
<feOffset dx="-1" dy="1"/>
<feGaussianBlur stdDeviation="0.375"/>
<feComposite in2="hardAlpha" operator="arithmetic" k2="-1" k3="1"/>
<feColorMatrix type="matrix" values="0 0 0 0 1 0 0 0 0 1 0 0 0 0 1 0 0 0 0.25 0"/>
<feBlend mode="normal" in2="effect3_innerShadow" result="effect4_innerShadow"/>
<feColorMatrix in="SourceAlpha" type="matrix" values="0 0 0 0 0 0 0 0 0 0 0 0 0 0 0 0 0 0 127 0" result="hardAlpha"/>
<feOffset dx="1" dy="1"/>
<feGaussianBlur stdDeviation="0.5"/>
<feComposite in2="hardAlpha" operator="arithmetic" k2="-1" k3="1"/>
<feColorMatrix type="matrix" values="0 0 0 0 1 0 0 0 0 1 0 0 0 0 1 0 0 0 0.25 0"/>
<feBlend mode="normal" in2="effect4_innerShadow" result="effect5_innerShadow"/>
</filter>
<filter id="filter4_iii" x="71.2087" y="38.0461" width="8.48171" height="7.23374" filterUnits="userSpaceOnUse" color-interpolation-filters="sRGB">
<feFlood flood-opacity="0" result="BackgroundImageFix"/>
<feBlend mode="normal" in="SourceGraphic" in2="BackgroundImageFix" result="shape"/>
<feColorMatrix in="SourceAlpha" type="matrix" values="0 0 0 0 0 0 0 0 0 0 0 0 0 0 0 0 0 0 127 0" result="hardAlpha"/>
<feOffset dx="0.25" dy="-0.5"/>
<feGaussianBlur stdDeviation="0.125"/>
<feComposite in2="hardAlpha" operator="arithmetic" k2="-1" k3="1"/>
<feColorMatrix type="matrix" values="0 0 0 0 0 0 0 0 0 0 0 0 0 0 0 0 0 0 0.3 0"/>
<feBlend mode="normal" in2="shape" result="effect1_innerShadow"/>
<feColorMatrix in="SourceAlpha" type="matrix" values="0 0 0 0 0 0 0 0 0 0 0 0 0 0 0 0 0 0 127 0" result="hardAlpha"/>
<feOffset dx="-1" dy="1"/>
<feGaussianBlur stdDeviation="0.375"/>
<feComposite in2="hardAlpha" operator="arithmetic" k2="-1" k3="1"/>
<feColorMatrix type="matrix" values="0 0 0 0 1 0 0 0 0 1 0 0 0 0 1 0 0 0 0.25 0"/>
<feBlend mode="normal" in2="effect1_innerShadow" result="effect2_innerShadow"/>
<feColorMatrix in="SourceAlpha" type="matrix" values="0 0 0 0 0 0 0 0 0 0 0 0 0 0 0 0 0 0 127 0" result="hardAlpha"/>
<feOffset dx="1" dy="1"/>
<feGaussianBlur stdDeviation="0.5"/>
<feComposite in2="hardAlpha" operator="arithmetic" k2="-1" k3="1"/>
<feColorMatrix type="matrix" values="0 0 0 0 1 0 0 0 0 1 0 0 0 0 1 0 0 0 0.25 0"/>
<feBlend mode="normal" in2="effect2_innerShadow" result="effect3_innerShadow"/>
</filter>
<radialGradient id="paint0_radial" cx="0" cy="0" r="1" gradientUnits="userSpaceOnUse" gradientTransform="translate(20.9059 47.9089) rotate(89.5885) scale(4.66786 4.98886)">
<stop stop-color="white" stop-opacity="0.81"/>
<stop offset="1" stop-color="white" stop-opacity="0"/>
</radialGradient>
</defs>
</svg>
