<svg width="96" height="96" viewBox="0 0 96 96" fill="none" xmlns="http://www.w3.org/2000/svg">
<path d="M65.6009 17.7553C65.6009 17.3381 65.9493 17 66.379 17H71.6227C72.0525 17 72.4008 17.3381 72.4008 17.7553V22.8448C72.4008 23.2619 72.0525 23.6001 71.6227 23.6001H66.379C65.9493 23.6001 65.6009 23.2619 65.6009 22.8448V17.7553Z" fill="white"/>
<path d="M72.3991 49.2447C72.3991 49.6619 72.0507 50 71.621 50H66.3773C65.9475 50 65.5992 49.6619 65.5992 49.2447V44.1552C65.5992 43.7381 65.9475 43.3999 66.3773 43.3999H71.621C72.0507 43.3999 72.3991 43.7381 72.3991 44.1552V49.2447Z" fill="white"/>
<path d="M85.2219 30.1999C85.6516 30.1999 86 30.538 86 30.9551V36.0447C86 36.4618 85.6516 36.8 85.2219 36.8H79.9782C79.5485 36.8 79.2001 36.4618 79.2001 36.0447V30.9551C79.2001 30.538 79.5485 30.1999 79.9782 30.1999H85.2219Z" fill="white"/>
<path d="M52.7781 36.8003C52.3484 36.8003 52 36.4622 52 36.045L52 30.9555C52 30.5384 52.3484 30.2002 52.7781 30.2002H58.0218C58.4515 30.2002 58.7999 30.5384 58.7999 30.9555L58.7999 36.045C58.7999 36.4622 58.4515 36.8003 58.0218 36.8003H52.7781Z" fill="white"/>
<path d="M78.0639 20.0331C78.3678 19.7381 78.8604 19.7381 79.1643 20.0331L82.8721 23.6319C83.176 23.9269 83.176 24.4051 82.8721 24.7L79.1643 28.2989C78.8604 28.5938 78.3678 28.5938 78.0639 28.2989L74.356 24.7C74.0522 24.4051 74.0522 23.9269 74.356 23.6319L78.0639 20.0331Z" fill="white"/>
<path d="M59.935 46.9671C59.6312 47.2621 59.1385 47.2621 58.8346 46.9671L55.1268 43.3682C54.8229 43.0733 54.8229 42.5951 55.1268 42.3001L58.8346 38.7013C59.1385 38.4063 59.6312 38.4063 59.935 38.7013L63.6429 42.3002C63.9467 42.5951 63.9467 43.0733 63.6429 43.3682L59.935 46.9671Z" fill="white"/>
<path d="M82.8744 42.2984C83.1782 42.5933 83.1782 43.0715 82.8744 43.3665L79.1665 46.9653C78.8627 47.2603 78.37 47.2603 78.0661 46.9653L74.3583 43.3665C74.0544 43.0715 74.0544 42.5933 74.3583 42.2984L78.0661 38.6995C78.37 38.4046 78.8627 38.4046 79.1665 38.6995L82.8744 42.2984Z" fill="white"/>
<path d="M55.1245 24.7007C54.8207 24.4058 54.8207 23.9276 55.1245 23.6326L58.8324 20.0338C59.1363 19.7388 59.6289 19.7388 59.9328 20.0338L63.6406 23.6326C63.9445 23.9276 63.9445 24.4058 63.6406 24.7007L59.9328 28.2996C59.6289 28.5945 59.1362 28.5945 58.8324 28.2996L55.1245 24.7007Z" fill="white"/>
<path d="M81.4663 33.5C81.4663 40.1828 75.8849 45.6002 68.9998 45.6002C62.1147 45.6002 56.5333 40.1828 56.5333 33.5C56.5333 26.8173 62.1147 21.3999 68.9998 21.3999C75.8849 21.3999 81.4663 26.8173 81.4663 33.5ZM59.9018 33.5C59.9018 38.377 63.9751 42.3306 68.9998 42.3306C74.0245 42.3306 78.0978 38.377 78.0978 33.5C78.0978 28.623 74.0245 24.6694 68.9998 24.6694C63.9751 24.6694 59.9018 28.623 59.9018 33.5Z" fill="white"/>
<path d="M65.1097 20.9457L63.1753 21.7065L60.4672 19.0435C60.1666 18.7571 59.2195 18.3759 58.9197 18.663L53.7824 23.6736C53.4691 23.9736 53.5313 24.6872 53.8465 24.9853L56.9245 27.8243L56.168 29.3544L51.9126 29.4009C51.4853 29.4003 51.0092 30.1555 51.0086 30.5757L51 37.0431C50.9994 37.4633 51.3454 37.8044 51.7727 37.8049L56.4152 37.811L57.0534 39.2367L54.2214 42.25C53.934 42.5492 53.9815 43.1 54.2772 43.3913L58.8656 48.2325C59.1746 48.5368 59.6784 48.5291 59.9775 48.2155L63.1753 45.2935L64.866 45.8313V49.8587C64.8707 50.2789 65.4562 51.0047 65.8835 51H72.0735C72.5008 50.9953 73.2389 50.2789 73.2341 49.8587V45.8313L74.9566 45.0287L77.8766 47.9565C78.174 48.2461 79.1211 48.2404 79.4242 47.9565L84.0667 43.3913C84.3833 43.0947 84.3292 42.3805 84.0174 42.079L80.9717 39.2065L81.7454 37.6848H86.001C86.4284 37.69 86.9129 36.9401 86.9183 36.5199L86.9999 30.0531C87.0052 29.6329 86.6632 29.288 86.2359 29.2828L81.5937 29.2261L80.9717 27.7935L83.8563 24.4635C84.1471 24.1675 84.1458 23.6977 83.8534 23.4033L79.2612 18.7784C78.9557 18.4707 78.4518 18.4729 78.1492 18.7833L75.0737 21.9366L73.2341 21.1139V16.7609C73.2341 16.3407 72.8877 16 72.4604 16L65.8835 16C65.4561 16 65.1097 16.3407 65.1097 16.7609L65.1097 20.9457Z" stroke="#4B5355"/>
<path d="M27.2354 39.5L24.7354 40.5L21.2354 37C20.8469 36.6237 19.6229 36.1226 19.2354 36.5L12.596 43.0853C12.1911 43.4796 12.2715 44.4175 12.6789 44.8092L16.6569 48.5405L15.6791 50.5515L10.1795 50.6126C9.62719 50.6118 9.01188 51.6043 9.01116 52.1566L9 60.6566C8.99928 61.2089 9.4464 61.6572 9.99868 61.6579L15.9986 61.6658L16.8235 63.5396L13.1634 67.5C12.7919 67.8932 12.8532 68.6172 13.2354 69L19.1655 75.3627C19.5648 75.7627 20.2159 75.7525 20.6026 75.3403L24.7354 71.5L26.9204 72.2068V77.5C26.9265 78.0523 27.6832 79.0061 28.2354 79H36.2354C36.7877 78.9939 37.7415 78.0522 37.7354 77.5V72.2068L39.9615 71.152L43.7354 75C44.1197 75.3806 45.3437 75.3731 45.7354 75L51.7354 69C52.1447 68.6102 52.0747 67.6715 51.6717 67.2752L47.7354 63.5L48.7354 61.5H54.2354C54.7877 61.5069 55.4139 60.5213 55.4208 59.969L55.5264 51.4697C55.5332 50.9175 55.0911 50.4643 54.5389 50.4574L48.5394 50.3828L47.7354 48.5L51.4635 44.1234C51.8393 43.7344 51.8377 43.117 51.4598 42.73L45.5248 36.6516C45.13 36.2472 44.4788 36.2501 44.0876 36.658L40.1129 40.8025L37.7354 39.7212V34C37.7354 33.4477 37.2877 33 36.7354 33L28.2354 33C27.6831 33.0001 27.2354 33.4478 27.2354 34L27.2354 39.5Z" stroke="#4B5355"/>
<path d="M28.0269 35.0952C28.0269 34.5429 28.4746 34.0952 29.0269 34.0952H35.7657C36.318 34.0952 36.7657 34.5429 36.7657 35.0952V41.834C36.7657 42.3863 36.318 42.834 35.7657 42.834H29.0269C28.4746 42.834 28.0269 42.3863 28.0269 41.834V35.0952Z" fill="white"/>
<path d="M36.7635 76.7888C36.7635 77.3411 36.3158 77.7888 35.7635 77.7888L29.0247 77.7888C28.4724 77.7888 28.0247 77.3411 28.0247 76.7888L28.0247 70.05C28.0247 69.4977 28.4724 69.05 29.0247 69.05L35.7635 69.05C36.3158 69.05 36.7635 69.4977 36.7635 70.05L36.7635 76.7888Z" fill="white"/>
<path d="M53.2425 51.5725C53.7948 51.5725 54.2425 52.0202 54.2425 52.5725L54.2425 59.3113C54.2425 59.8636 53.7948 60.3113 53.2425 60.3113L46.5037 60.3113C45.9514 60.3113 45.5037 59.8636 45.5037 59.3113L45.5037 52.5725C45.5037 52.0202 45.9514 51.5725 46.5037 51.5725L53.2425 51.5725Z" fill="white"/>
<path d="M11.5479 60.3118C10.9956 60.3118 10.5479 59.8641 10.5479 59.3118L10.5479 52.5729C10.5479 52.0207 10.9956 51.573 11.5479 51.573L18.2867 51.573C18.839 51.573 19.2867 52.0207 19.2867 52.573L19.2867 59.3118C19.2867 59.8641 18.839 60.3118 18.2867 60.3118L11.5479 60.3118Z" fill="white"/>
<path d="M44.0435 38.1112C44.434 37.7206 45.0672 37.7206 45.4577 38.1112L50.2228 42.8762C50.6133 43.2667 50.6133 43.8999 50.2228 44.2904L45.4577 49.0555C45.0672 49.446 44.434 49.446 44.0435 49.0555L39.2784 44.2904C38.8879 43.8999 38.8879 43.2667 39.2784 42.8762L44.0435 38.1112Z" fill="white"/>
<path d="M20.7455 73.7731C20.355 74.1636 19.7218 74.1636 19.3313 73.7731L14.5662 69.0081C14.1757 68.6175 14.1757 67.9844 14.5662 67.5938L19.3313 62.8288C19.7218 62.4383 20.355 62.4383 20.7455 62.8288L25.5106 67.5938C25.9011 67.9844 25.9011 68.6175 25.5106 69.0081L20.7455 73.7731Z" fill="white"/>
<path d="M50.2256 67.5915C50.6162 67.982 50.6162 68.6152 50.2256 69.0057L45.4606 73.7708C45.07 74.1613 44.4369 74.1613 44.0464 73.7708L39.2813 69.0057C38.8908 68.6152 38.8908 67.982 39.2813 67.5915L44.0464 62.8264C44.4369 62.4359 45.07 62.4359 45.4606 62.8264L50.2256 67.5915Z" fill="white"/>
<path d="M14.5634 44.2913C14.1728 43.9008 14.1728 43.2676 14.5634 42.8771L19.3284 38.1121C19.719 37.7215 20.3521 37.7215 20.7426 38.1121L25.5077 42.8771C25.8982 43.2676 25.8982 43.9008 25.5077 44.2913L20.7426 49.0564C20.3521 49.4469 19.719 49.4469 19.3284 49.0564L14.5634 44.2913Z" fill="white"/>
<path d="M48.4161 55.9421C48.4161 64.7903 41.2432 71.9632 32.3949 71.9632C23.5467 71.9632 16.3738 64.7903 16.3738 55.9421C16.3738 47.0938 23.5467 39.9209 32.3949 39.9209C41.2432 39.9209 48.4161 47.0938 48.4161 55.9421ZM20.7028 55.9421C20.7028 62.3994 25.9376 67.6342 32.3949 67.6342C38.8523 67.6342 44.0871 62.3994 44.0871 55.9421C44.0871 49.4847 38.8523 44.2499 32.3949 44.2499C25.9376 44.2499 20.7028 49.4847 20.7028 55.9421Z" fill="white"/>
<mask id="path-13-inside-1" fill="white">
<path d="M38.0082 48.741C38.1758 48.5714 38.3747 48.4368 38.5936 48.345C38.8125 48.2532 39.0472 48.2059 39.2841 48.2059C39.5211 48.2059 39.7557 48.2532 39.9746 48.345C40.1936 48.4368 40.3925 48.5714 40.56 48.741C40.7276 48.9107 40.8605 49.1121 40.9512 49.3338C41.0419 49.5555 41.0885 49.7931 41.0885 50.033C41.0885 50.273 41.0419 50.5105 40.9512 50.7322C40.8605 50.9539 40.7276 51.1553 40.56 51.325L39.2841 50.033L38.0082 48.741Z"/>
</mask>
<path d="M38.0082 48.741C38.1758 48.5714 38.3747 48.4368 38.5936 48.345C38.8125 48.2532 39.0472 48.2059 39.2841 48.2059C39.5211 48.2059 39.7557 48.2532 39.9746 48.345C40.1936 48.4368 40.3925 48.5714 40.56 48.741C40.7276 48.9107 40.8605 49.1121 40.9512 49.3338C41.0419 49.5555 41.0885 49.7931 41.0885 50.033C41.0885 50.273 41.0419 50.5105 40.9512 50.7322C40.8605 50.9539 40.7276 51.1553 40.56 51.325L39.2841 50.033L38.0082 48.741Z" stroke="white" stroke-width="2" mask="url(#path-13-inside-1)"/>
<path d="M33.2157 46.5757V47.0042C32.8657 46.962 32.5095 46.9402 32.1482 46.9402C31.7548 46.9402 31.3674 46.966 30.9875 47.016V46.5757H33.2157ZM32.1458 47.9471L33.631 48.2024L34.2157 48.3029V48.2172C37.6289 49.1519 40.154 52.3455 40.154 56.1591C40.154 60.71 36.5581 64.378 32.1482 64.378C27.7383 64.378 24.1424 60.71 24.1424 56.1591C24.1424 52.3803 26.6216 49.2103 29.9875 48.2434V48.2973L30.5676 48.2032L32.1458 47.9471ZM31.9793 63.2377C35.7653 63.2377 38.8135 60.0952 38.8135 56.2449C38.8135 52.3946 35.7653 49.2521 31.9793 49.2521C28.1934 49.2521 25.1452 52.3946 25.1452 56.2449C25.1452 60.0952 28.1934 63.2377 31.9793 63.2377Z" fill="white" stroke="white"/>
<path d="M33.8826 55.0313C33.8385 55.1 33.7935 55.1699 33.7479 55.2402C33.5162 55.5971 33.2715 55.9616 33.0544 56.2601C32.8222 56.5794 32.6622 56.7647 32.5945 56.818C32.2505 57.0887 31.8427 57.01 31.6638 56.7768C31.4849 56.5437 31.5104 56.1242 31.8544 55.8535C31.9222 55.8002 32.1391 55.6891 32.502 55.5402C32.8413 55.4009 33.2506 55.251 33.6494 55.1118C33.728 55.0844 33.8059 55.0575 33.8826 55.0313Z" stroke="white"/>
</svg>
