<svg width="96" height="96" viewBox="0 0 96 96" fill="none" xmlns="http://www.w3.org/2000/svg">
<rect x="8.2" y="23.2" width="52.4601" height="40.221" stroke="white" stroke-width="1.6" stroke-linecap="round" stroke-linejoin="round"/>
<path d="M10.6318 46.8462L58.5002 46.8462V25.3598L46.5331 25.3598H40.5495H34.566H28.5825L22.5989 25.3598H10.6318L10.6318 46.8462Z" stroke="white" stroke-linecap="round" stroke-linejoin="round"/>
<rect x="27.9945" y="50.0662" width="13.1429" height="10.9671" stroke="white"/>
<path d="M11.1318 50.0662H24.2748V61.0332H11.1318L11.1318 50.0662Z" stroke="white"/>
<rect x="44.8572" y="50.0662" width="13.1429" height="10.9671" stroke="white"/>
<path d="M15.8207 54.5799C16.3864 54.5275 16.8782 54.1701 17.1029 53.6484C17.2945 53.2034 17.9254 53.2034 18.117 53.6484C18.3417 54.1701 18.8335 54.5275 19.3992 54.5799C19.8816 54.6247 20.0766 55.2247 19.7126 55.5444C19.2858 55.9194 19.0979 56.4975 19.2228 57.0517C19.3294 57.5243 18.819 57.8951 18.4024 57.6478C17.9139 57.3577 17.306 57.3577 16.8175 57.6478C16.401 57.8951 15.8906 57.5243 15.9971 57.0517C16.122 56.4975 15.9341 55.9194 15.5073 55.5444C15.1434 55.2247 15.3383 54.6247 15.8207 54.5799Z" stroke="white"/>
<path d="M70.6586 36.3667L87.5227 40.8854L79.4535 70.9999L62.5894 66.4812L70.6586 36.3667Z" stroke="white" stroke-width="1.6" stroke-linecap="round" stroke-linejoin="round"/>
<path d="M68.8186 52.1905C68.5519 52.119 68.3936 51.8448 68.465 51.5781L71.6961 39.5195C71.7676 39.2528 72.0418 39.0945 72.3085 39.1659L75.43 40.0023L76.9907 40.4205L78.5515 40.8387L80.1122 41.2569L81.6729 41.6751L84.7944 42.5115C85.0611 42.583 85.2194 42.8572 85.148 43.1239L81.9169 55.1825C81.8454 55.4492 81.5712 55.6075 81.3045 55.5361L68.8186 52.1905Z" stroke="white" stroke-linecap="round" stroke-linejoin="round"/>
<path d="M65.48 64.0328C65.2132 63.9613 65.0549 63.6871 65.1264 63.4204L67.7077 53.7867C67.7792 53.52 68.0534 53.3617 68.3201 53.4332L71.4416 54.2696L73.0023 54.6878L74.5631 55.106L76.1238 55.5242L77.6845 55.9424L80.806 56.7788C81.0728 56.8502 81.231 57.1244 81.1596 57.3911L78.5782 67.0248C78.5068 67.2915 78.2326 67.4498 77.9659 67.3784L65.48 64.0328Z" stroke="white" stroke-linecap="round" stroke-linejoin="round"/>
<path d="M76.605 39.1943L81.2225 40.4316L81.1466 40.7149L76.5291 39.4777L76.605 39.1943Z" stroke="white" stroke-width="0.5" stroke-linecap="round" stroke-linejoin="round"/>
<ellipse cx="71.4008" cy="67.3245" rx="0.602035" ry="0.586398" transform="rotate(15 71.4008 67.3245)" fill="white"/>
</svg>
