<svg width="100" height="100" viewBox="0 0 100 100" fill="none" xmlns="http://www.w3.org/2000/svg">
<path d="M54.182 38.2582L98.0001 50.0001L54.182 73.6129L2.00002 49.9999L54.182 38.2582Z" stroke="white" stroke-width="1.6" stroke-linecap="round" stroke-linejoin="round"/>
<path d="M42.3613 25.2272C42.2119 25.2048 42.0604 25.251 41.949 25.3531C41.8376 25.4552 41.7784 25.6021 41.7878 25.7529L42.4241 35.9224L43.0604 46.0919C43.0736 46.3034 43.2187 46.4836 43.4226 46.5416L56.2651 50.1956L69.1076 53.8497C69.3704 53.9245 69.6446 53.7744 69.7233 53.5128L73.1168 42.2284L76.5102 30.944C76.552 30.8052 76.5314 30.655 76.4538 30.5325C76.3762 30.41 76.2492 30.3272 76.1058 30.3056L59.2336 27.7664L42.3613 25.2272Z" fill="white" stroke="#23263D" stroke-linejoin="round"/>
<path d="M45.7044 45.0638L45.5073 41.9127L56.1429 35.4955L58.2069 38.2422L66.7154 33.1085L70.9508 40.3208L67.5125 50.889L45.7044 45.0638Z" fill="#E4EAFF"/>
<ellipse rx="3.45897" ry="3.53295" transform="matrix(0.989927 0.141578 -0.0699919 0.997548 47.9105 31.526)" fill="#E4EAFF"/>
<path d="M34.1701 27.5258C34.0207 27.5034 33.8692 27.5496 33.7578 27.6517C33.6465 27.7538 33.5872 27.9007 33.5967 28.0515L34.2329 38.221L34.8692 48.3905C34.8825 48.602 35.0276 48.7821 35.2314 48.8401L48.0739 52.4942L60.9164 56.1483C61.1793 56.223 61.4534 56.073 61.5321 55.8114L64.9256 44.527L68.3191 33.2426C68.3608 33.1037 68.3403 32.9536 68.2626 32.8311C68.185 32.7086 68.0581 32.6258 67.9147 32.6042L51.0424 30.065L34.1701 27.5258Z" fill="white" stroke="#23263D" stroke-linejoin="round"/>
<path d="M37.5133 47.3621L37.3161 44.211L47.9518 37.7939L50.0157 40.5406L58.5242 35.4069L62.7596 42.6191L59.3213 53.1873L37.5133 47.3621Z" fill="#E4EAFF"/>
<ellipse rx="3.45897" ry="3.53295" transform="matrix(0.989927 0.141578 -0.0699919 0.997548 39.7193 33.8245)" fill="#E4EAFF"/>
<path d="M25.3859 29.8615C25.2366 29.839 25.085 29.8853 24.9737 29.9874C24.8623 30.0895 24.8031 30.2364 24.8125 30.3872L25.4488 40.5567L26.085 50.7261C26.0983 50.9377 26.2434 51.1178 26.4472 51.1758L39.2898 54.8299L52.1323 58.484C52.3951 58.5587 52.6692 58.4087 52.7479 58.147L56.1414 46.8627L59.5349 35.5783C59.5767 35.4394 59.5561 35.2893 59.4785 35.1668C59.4009 35.0442 59.2739 34.9615 59.1305 34.9399L42.2582 32.4007L25.3859 29.8615Z" fill="white" stroke="#23263D" stroke-linejoin="round"/>
<path d="M28.7291 49.6981L28.5319 46.5469L39.1676 40.1298L41.2315 42.8765L49.74 37.7428L53.9755 44.955L50.5372 55.5232L28.7291 49.6981Z" stroke="#23263D"/>
<path d="M33.8643 36.5792C33.7464 38.2601 32.3308 39.4157 30.7229 39.1858C29.115 38.9558 27.888 37.4223 28.006 35.7413C28.1239 34.0604 29.5395 32.9048 31.1474 33.1347C32.7553 33.3647 33.9823 34.8982 33.8643 36.5792Z" stroke="#23263D"/>
</svg>
