<svg width="96" height="96" viewBox="0 0 96 96" fill="none" xmlns="http://www.w3.org/2000/svg">
<path d="M6.4 47.8577C6.4 56.9923 13.9665 63.6406 23.1951 63.6406C27.8029 63.6406 32.4801 62.453 35.591 59.391L62.4415 59.391C65.4339 62.0312 69.4258 63.6406 73.8049 63.6406C83.0562 63.6406 90.6 56.4471 90.6 47.5203C90.6 38.5935 83.0562 31.4 73.8049 31.4L23.1951 31.4C13.9314 31.4 6.4 38.7565 6.4 47.8577Z" fill="white" stroke="#4B5355" stroke-width="1.2"/>
<path d="M39.2157 49.1479L42.1583 46.9747C42.1583 46.9747 43.0941 46.2645 43.7949 47.1621C44.4957 48.0598 43.5909 48.7064 43.5909 48.7064L40.355 51.0252C40.355 51.0252 39.5017 51.5787 38.8652 50.7635C38.2287 49.9484 39.2157 49.1479 39.2157 49.1479Z" stroke="#4B5355" stroke-width="0.8" stroke-linecap="round" stroke-linejoin="round"/>
<path d="M48.2299 49.1494L51.1751 46.9799C51.1751 46.9799 52.1119 46.2709 52.8032 47.1592C53.4944 48.0475 52.589 48.6932 52.589 48.6932L49.3506 51.0085C49.3506 51.0085 48.4972 51.5615 47.8693 50.7548C47.2415 49.9482 48.2299 49.1494 48.2299 49.1494Z" stroke="#4B5355" stroke-width="0.8" stroke-linecap="round" stroke-linejoin="round"/>
<g filter="url(#filter0_d)">
<path d="M33.3154 47.2945C33.3154 49.4646 32.1434 51.6202 30.3161 53.2449C28.491 54.8676 26.0524 55.9226 23.5934 55.9226C18.6841 55.9226 14.8836 51.711 14.8836 47.2945C14.8836 42.9474 19.3576 39.2032 24.3412 39.2032C29.2976 39.2032 33.3154 42.9235 33.3154 47.2945Z" stroke="#2A6572" stroke-opacity="0.5" stroke-width="0.8"/>
</g>
<path d="M89.2424 46.9964C89.2424 54.8227 82.5929 61.6207 74.0213 61.6207C65.4497 61.6207 57.8644 54.8227 57.8644 46.9964C57.8644 39.1701 64.7017 33.0469 73.2733 33.0469C81.8449 33.0469 89.2424 39.1701 89.2424 46.9964Z" stroke="#2A6572" stroke-opacity="0.5" stroke-width="0.8"/>
<path d="M70.6862 49.9345L79.4593 44.0714C79.4593 44.0714 82.6994 42.1929 84.9679 45.211C87.2363 48.2291 83.8456 50.1446 83.8456 50.1446L75.748 55.8804C75.748 55.8804 72.9294 57.5121 70.6864 54.8683C68.4433 52.2244 70.6862 49.9345 70.6862 49.9345Z" fill="white" stroke="#4B5355" stroke-width="0.5" stroke-linecap="round" stroke-linejoin="round"/>
<g filter="url(#filter1_iiii)">
<path d="M76.6462 52.6264C76.6462 54.1172 75.2866 55.3256 73.6096 55.3256C71.9325 55.3256 70.573 54.1172 70.573 52.6264C70.573 51.1357 71.9325 49.9272 73.6096 49.9272C75.2866 49.9272 76.6462 51.1357 76.6462 52.6264Z" fill="#F5E06D"/>
</g>
<path d="M76.5212 52.6264C76.5212 54.0347 75.2319 55.2006 73.6096 55.2006C71.9873 55.2006 70.698 54.0347 70.698 52.6264C70.698 51.2182 71.9873 50.0522 73.6096 50.0522C75.2319 50.0522 76.5212 51.2182 76.5212 52.6264Z" stroke="black" stroke-opacity="0.48" stroke-width="0.25"/>
<g filter="url(#filter2_iii)">
<path d="M84.5825 46.9668C84.5825 48.4575 83.223 49.666 81.5459 49.666C79.8689 49.666 78.5093 48.4575 78.5093 46.9668C78.5093 45.476 79.8689 44.2676 81.5459 44.2676C83.223 44.2676 84.5825 45.476 84.5825 46.9668Z" fill="#E46070"/>
</g>
<path d="M84.4575 46.9668C84.4575 48.375 83.1682 49.541 81.5459 49.541C79.9237 49.541 78.6343 48.375 78.6343 46.9668C78.6343 45.5585 79.9237 44.3926 81.5459 44.3926C83.1682 44.3926 84.4575 45.5585 84.4575 46.9668Z" stroke="black" stroke-opacity="0.48" stroke-width="0.25"/>
<path d="M62.3087 44.5488L71.0818 38.6857C71.0818 38.6857 74.3219 36.8071 76.5904 39.8253C78.8588 42.8434 75.4681 44.7588 75.4681 44.7588L67.3705 50.4946C67.3705 50.4946 64.5519 52.1264 62.3088 49.4825C60.0658 46.8387 62.3087 44.5488 62.3087 44.5488Z" fill="white" stroke="#4B5355" stroke-width="0.5" stroke-linecap="round" stroke-linejoin="round"/>
<g filter="url(#filter3_iiiii)">
<path d="M68.4258 46.7822C68.4258 48.2729 67.0663 49.4814 65.3892 49.4814C63.7122 49.4814 62.3527 48.2729 62.3527 46.7822C62.3527 45.2915 63.7122 44.083 65.3892 44.083C67.0663 44.083 68.4258 45.2915 68.4258 46.7822Z" fill="#61C7A2"/>
</g>
<path d="M68.3008 46.7822C68.3008 48.1904 67.0115 49.3564 65.3892 49.3564C63.767 49.3564 62.4777 48.1904 62.4777 46.7822C62.4777 45.3739 63.767 44.208 65.3892 44.208C67.0115 44.208 68.3008 45.3739 68.3008 46.7822Z" stroke="black" stroke-opacity="0.48" stroke-width="0.25"/>
<g filter="url(#filter4_iii)">
<path d="M76.1882 41.2817C76.1882 42.7724 74.8286 43.9809 73.1516 43.9809C71.4745 43.9809 70.115 42.7724 70.115 41.2817C70.115 39.791 71.4745 38.5825 73.1516 38.5825C74.8286 38.5825 76.1882 39.791 76.1882 41.2817Z" fill="#5C67CF"/>
</g>
<path d="M76.0632 41.2817C76.0632 42.69 74.7738 43.8559 73.1516 43.8559C71.5293 43.8559 70.24 42.69 70.24 41.2817C70.24 39.8735 71.5293 38.7075 73.1516 38.7075C74.7738 38.7075 76.0632 39.8735 76.0632 41.2817Z" stroke="black" stroke-opacity="0.48" stroke-width="0.25"/>
<path d="M26.3147 40.8442H21.9285V44.893H17.2049L17.2052 49.7478H21.5911L21.5914 53.6654H26.3147V49.7478H30.9077V44.893H26.315L26.3147 40.8442Z" fill="white"/>
<path d="M26.3147 40.8442H21.9285V44.893H17.2049L17.2052 49.7478H21.5911L21.5914 53.6654H26.3147V49.7478H30.9077V44.893H26.315L26.3147 40.8442Z" fill="url(#paint0_radial)" fill-opacity="0.5"/>
<path d="M26.3147 40.8442H21.9285V44.893H17.2049L17.2052 49.7478H21.5911L21.5914 53.6654H26.3147V49.7478H30.9077V44.893H26.315L26.3147 40.8442Z" stroke="#2A6572" stroke-opacity="0.48" stroke-width="0.8" stroke-linecap="round" stroke-linejoin="round"/>
<path d="M23.3167 42.8762C23.613 42.2091 24.5599 42.2091 24.8562 42.8762V42.8762C25.1035 43.4331 24.6958 44.0603 24.0865 44.0603V44.0603C23.4771 44.0603 23.0694 43.4331 23.3167 42.8762V42.8762Z" stroke="#4B5355" stroke-width="0.5" stroke-linecap="round" stroke-linejoin="round"/>
<path d="M24.8563 50.7795C24.56 51.4467 23.6131 51.4467 23.3168 50.7795V50.7795C23.0695 50.2226 23.4772 49.5955 24.0866 49.5955V49.5955C24.6959 49.5955 25.1036 50.2226 24.8563 50.7795V50.7795Z" stroke="#4B5355" stroke-width="0.5" stroke-linecap="round" stroke-linejoin="round"/>
<path d="M28.3394 46.1567C29.0066 46.453 29.0066 47.3999 28.3394 47.6962V47.6962C27.7825 47.9435 27.1553 47.5358 27.1553 46.9264V46.9264C27.1553 46.3171 27.7825 45.9094 28.3394 46.1567V46.1567Z" stroke="#4B5355" stroke-width="0.5" stroke-linecap="round" stroke-linejoin="round"/>
<path d="M19.8355 47.7964C19.1684 47.5001 19.1684 46.5533 19.8355 46.257V46.257C20.3924 46.0096 21.0196 46.4173 21.0196 47.0267V47.0267C21.0196 47.6361 20.3924 48.0437 19.8355 47.7964V47.7964Z" stroke="#4B5355" stroke-width="0.5" stroke-linecap="round" stroke-linejoin="round"/>
<defs>
<filter id="filter0_d" x="13.4836" y="37.8032" width="21.2317" height="19.5194" filterUnits="userSpaceOnUse" color-interpolation-filters="sRGB">
<feFlood flood-opacity="0" result="BackgroundImageFix"/>
<feColorMatrix in="SourceAlpha" type="matrix" values="0 0 0 0 0 0 0 0 0 0 0 0 0 0 0 0 0 0 127 0"/>
<feOffset/>
<feGaussianBlur stdDeviation="0.5"/>
<feColorMatrix type="matrix" values="0 0 0 0 0 0 0 0 0 0 0 0 0 0 0 0 0 0 0.16 0"/>
<feBlend mode="normal" in2="BackgroundImageFix" result="effect1_dropShadow"/>
<feBlend mode="normal" in="SourceGraphic" in2="effect1_dropShadow" result="shape"/>
</filter>
<filter id="filter1_iiii" x="69.823" y="49.4272" width="7.82317" height="6.89837" filterUnits="userSpaceOnUse" color-interpolation-filters="sRGB">
<feFlood flood-opacity="0" result="BackgroundImageFix"/>
<feBlend mode="normal" in="SourceGraphic" in2="BackgroundImageFix" result="shape"/>
<feColorMatrix in="SourceAlpha" type="matrix" values="0 0 0 0 0 0 0 0 0 0 0 0 0 0 0 0 0 0 127 0" result="hardAlpha"/>
<feOffset dx="0.25" dy="-1"/>
<feGaussianBlur stdDeviation="0.25"/>
<feComposite in2="hardAlpha" operator="arithmetic" k2="-1" k3="1"/>
<feColorMatrix type="matrix" values="0 0 0 0 0 0 0 0 0 0 0 0 0 0 0 0 0 0 0.25 0"/>
<feBlend mode="normal" in2="shape" result="effect1_innerShadow"/>
<feColorMatrix in="SourceAlpha" type="matrix" values="0 0 0 0 0 0 0 0 0 0 0 0 0 0 0 0 0 0 127 0" result="hardAlpha"/>
<feOffset dx="0.25" dy="-0.5"/>
<feGaussianBlur stdDeviation="0.125"/>
<feComposite in2="hardAlpha" operator="arithmetic" k2="-1" k3="1"/>
<feColorMatrix type="matrix" values="0 0 0 0 0 0 0 0 0 0 0 0 0 0 0 0 0 0 0.3 0"/>
<feBlend mode="normal" in2="effect1_innerShadow" result="effect2_innerShadow"/>
<feColorMatrix in="SourceAlpha" type="matrix" values="0 0 0 0 0 0 0 0 0 0 0 0 0 0 0 0 0 0 127 0" result="hardAlpha"/>
<feOffset dx="-1" dy="1"/>
<feGaussianBlur stdDeviation="0.375"/>
<feComposite in2="hardAlpha" operator="arithmetic" k2="-1" k3="1"/>
<feColorMatrix type="matrix" values="0 0 0 0 1 0 0 0 0 1 0 0 0 0 1 0 0 0 0.25 0"/>
<feBlend mode="normal" in2="effect2_innerShadow" result="effect3_innerShadow"/>
<feColorMatrix in="SourceAlpha" type="matrix" values="0 0 0 0 0 0 0 0 0 0 0 0 0 0 0 0 0 0 127 0" result="hardAlpha"/>
<feOffset dx="1" dy="1"/>
<feGaussianBlur stdDeviation="0.5"/>
<feComposite in2="hardAlpha" operator="arithmetic" k2="-1" k3="1"/>
<feColorMatrix type="matrix" values="0 0 0 0 1 0 0 0 0 1 0 0 0 0 1 0 0 0 0.25 0"/>
<feBlend mode="normal" in2="effect3_innerShadow" result="effect4_innerShadow"/>
</filter>
<filter id="filter2_iii" x="77.7593" y="44.0176" width="7.82317" height="6.64837" filterUnits="userSpaceOnUse" color-interpolation-filters="sRGB">
<feFlood flood-opacity="0" result="BackgroundImageFix"/>
<feBlend mode="normal" in="SourceGraphic" in2="BackgroundImageFix" result="shape"/>
<feColorMatrix in="SourceAlpha" type="matrix" values="0 0 0 0 0 0 0 0 0 0 0 0 0 0 0 0 0 0 127 0" result="hardAlpha"/>
<feOffset dx="0.25" dy="-0.5"/>
<feGaussianBlur stdDeviation="0.125"/>
<feComposite in2="hardAlpha" operator="arithmetic" k2="-1" k3="1"/>
<feColorMatrix type="matrix" values="0 0 0 0 0 0 0 0 0 0 0 0 0 0 0 0 0 0 0.3 0"/>
<feBlend mode="normal" in2="shape" result="effect1_innerShadow"/>
<feColorMatrix in="SourceAlpha" type="matrix" values="0 0 0 0 0 0 0 0 0 0 0 0 0 0 0 0 0 0 127 0" result="hardAlpha"/>
<feOffset dx="-1" dy="1"/>
<feGaussianBlur stdDeviation="0.375"/>
<feComposite in2="hardAlpha" operator="arithmetic" k2="-1" k3="1"/>
<feColorMatrix type="matrix" values="0 0 0 0 1 0 0 0 0 1 0 0 0 0 1 0 0 0 0.25 0"/>
<feBlend mode="normal" in2="effect1_innerShadow" result="effect2_innerShadow"/>
<feColorMatrix in="SourceAlpha" type="matrix" values="0 0 0 0 0 0 0 0 0 0 0 0 0 0 0 0 0 0 127 0" result="hardAlpha"/>
<feOffset dx="1" dy="1"/>
<feGaussianBlur stdDeviation="0.5"/>
<feComposite in2="hardAlpha" operator="arithmetic" k2="-1" k3="1"/>
<feColorMatrix type="matrix" values="0 0 0 0 1 0 0 0 0 1 0 0 0 0 1 0 0 0 0.25 0"/>
<feBlend mode="normal" in2="effect2_innerShadow" result="effect3_innerShadow"/>
</filter>
<filter id="filter3_iiiii" x="61.6027" y="43.583" width="7.82317" height="6.89837" filterUnits="userSpaceOnUse" color-interpolation-filters="sRGB">
<feFlood flood-opacity="0" result="BackgroundImageFix"/>
<feBlend mode="normal" in="SourceGraphic" in2="BackgroundImageFix" result="shape"/>
<feColorMatrix in="SourceAlpha" type="matrix" values="0 0 0 0 0 0 0 0 0 0 0 0 0 0 0 0 0 0 127 0" result="hardAlpha"/>
<feOffset dx="1" dy="-1"/>
<feGaussianBlur stdDeviation="0.125"/>
<feComposite in2="hardAlpha" operator="arithmetic" k2="-1" k3="1"/>
<feColorMatrix type="matrix" values="0 0 0 0 0.258824 0 0 0 0 0.615686 0 0 0 0 0.486275 0 0 0 0.5 0"/>
<feBlend mode="normal" in2="shape" result="effect1_innerShadow"/>
<feColorMatrix in="SourceAlpha" type="matrix" values="0 0 0 0 0 0 0 0 0 0 0 0 0 0 0 0 0 0 127 0" result="hardAlpha"/>
<feOffset dx="0.25" dy="-1"/>
<feGaussianBlur stdDeviation="0.25"/>
<feComposite in2="hardAlpha" operator="arithmetic" k2="-1" k3="1"/>
<feColorMatrix type="matrix" values="0 0 0 0 0 0 0 0 0 0 0 0 0 0 0 0 0 0 0.25 0"/>
<feBlend mode="normal" in2="effect1_innerShadow" result="effect2_innerShadow"/>
<feColorMatrix in="SourceAlpha" type="matrix" values="0 0 0 0 0 0 0 0 0 0 0 0 0 0 0 0 0 0 127 0" result="hardAlpha"/>
<feOffset dx="0.25" dy="-0.5"/>
<feGaussianBlur stdDeviation="0.125"/>
<feComposite in2="hardAlpha" operator="arithmetic" k2="-1" k3="1"/>
<feColorMatrix type="matrix" values="0 0 0 0 0 0 0 0 0 0 0 0 0 0 0 0 0 0 0.3 0"/>
<feBlend mode="normal" in2="effect2_innerShadow" result="effect3_innerShadow"/>
<feColorMatrix in="SourceAlpha" type="matrix" values="0 0 0 0 0 0 0 0 0 0 0 0 0 0 0 0 0 0 127 0" result="hardAlpha"/>
<feOffset dx="-1" dy="1"/>
<feGaussianBlur stdDeviation="0.375"/>
<feComposite in2="hardAlpha" operator="arithmetic" k2="-1" k3="1"/>
<feColorMatrix type="matrix" values="0 0 0 0 1 0 0 0 0 1 0 0 0 0 1 0 0 0 0.25 0"/>
<feBlend mode="normal" in2="effect3_innerShadow" result="effect4_innerShadow"/>
<feColorMatrix in="SourceAlpha" type="matrix" values="0 0 0 0 0 0 0 0 0 0 0 0 0 0 0 0 0 0 127 0" result="hardAlpha"/>
<feOffset dx="1" dy="1"/>
<feGaussianBlur stdDeviation="0.5"/>
<feComposite in2="hardAlpha" operator="arithmetic" k2="-1" k3="1"/>
<feColorMatrix type="matrix" values="0 0 0 0 1 0 0 0 0 1 0 0 0 0 1 0 0 0 0.25 0"/>
<feBlend mode="normal" in2="effect4_innerShadow" result="effect5_innerShadow"/>
</filter>
<filter id="filter4_iii" x="69.365" y="38.3325" width="7.82317" height="6.64837" filterUnits="userSpaceOnUse" color-interpolation-filters="sRGB">
<feFlood flood-opacity="0" result="BackgroundImageFix"/>
<feBlend mode="normal" in="SourceGraphic" in2="BackgroundImageFix" result="shape"/>
<feColorMatrix in="SourceAlpha" type="matrix" values="0 0 0 0 0 0 0 0 0 0 0 0 0 0 0 0 0 0 127 0" result="hardAlpha"/>
<feOffset dx="0.25" dy="-0.5"/>
<feGaussianBlur stdDeviation="0.125"/>
<feComposite in2="hardAlpha" operator="arithmetic" k2="-1" k3="1"/>
<feColorMatrix type="matrix" values="0 0 0 0 0 0 0 0 0 0 0 0 0 0 0 0 0 0 0.3 0"/>
<feBlend mode="normal" in2="shape" result="effect1_innerShadow"/>
<feColorMatrix in="SourceAlpha" type="matrix" values="0 0 0 0 0 0 0 0 0 0 0 0 0 0 0 0 0 0 127 0" result="hardAlpha"/>
<feOffset dx="-1" dy="1"/>
<feGaussianBlur stdDeviation="0.375"/>
<feComposite in2="hardAlpha" operator="arithmetic" k2="-1" k3="1"/>
<feColorMatrix type="matrix" values="0 0 0 0 1 0 0 0 0 1 0 0 0 0 1 0 0 0 0.25 0"/>
<feBlend mode="normal" in2="effect1_innerShadow" result="effect2_innerShadow"/>
<feColorMatrix in="SourceAlpha" type="matrix" values="0 0 0 0 0 0 0 0 0 0 0 0 0 0 0 0 0 0 127 0" result="hardAlpha"/>
<feOffset dx="1" dy="1"/>
<feGaussianBlur stdDeviation="0.5"/>
<feComposite in2="hardAlpha" operator="arithmetic" k2="-1" k3="1"/>
<feColorMatrix type="matrix" values="0 0 0 0 1 0 0 0 0 1 0 0 0 0 1 0 0 0 0.25 0"/>
<feBlend mode="normal" in2="effect2_innerShadow" result="effect3_innerShadow"/>
</filter>
<radialGradient id="paint0_radial" cx="0" cy="0" r="1" gradientUnits="userSpaceOnUse" gradientTransform="translate(24.0563 47.2548) rotate(89.5885) scale(4.21122 4.50082)">
<stop stop-color="white" stop-opacity="0.81"/>
<stop offset="1" stop-color="white" stop-opacity="0"/>
</radialGradient>
</defs>
</svg>
