<svg width="96" height="96" viewBox="0 0 96 96" fill="none" xmlns="http://www.w3.org/2000/svg">
<path d="M46.7001 67.8332C46.7001 72.9974 42.4732 77.1999 37.2521 77.1999C32.031 77.1999 27.8042 72.9974 27.8042 67.8332C27.8042 62.669 32.031 58.4665 37.2521 58.4665H46.7001V67.8332Z" fill="white" stroke="white" stroke-width="1.6"/>
<path d="M27.8042 47.5002C27.8042 42.336 32.031 38.1335 37.2521 38.1335H46.7001V56.8668H37.2521C32.031 56.8668 27.8042 52.6643 27.8042 47.5002Z" fill="white" stroke="white" stroke-width="1.6"/>
<path d="M27.805 27.1667C27.805 22.0025 32.0319 17.8 37.253 17.8H46.7009V36.5333H37.253C32.0319 36.5333 27.805 32.3308 27.805 27.1667Z" stroke="white" stroke-width="1.6"/>
<path d="M48.3 17.8H57.748C62.969 17.8 67.1959 22.0025 67.1959 27.1667C67.1959 32.3308 62.969 36.5333 57.748 36.5333H48.3V17.8Z" fill="white" stroke="white" stroke-width="1.6"/>
<path d="M66.7598 47.2096C66.7598 52.3738 62.5329 56.5763 57.3118 56.5763C52.0907 56.5763 47.8638 52.3738 47.8638 47.2096C47.8638 42.0455 52.0907 37.843 57.3118 37.843C62.5329 37.843 66.7598 42.0455 66.7598 47.2096Z" fill="white" stroke="white" stroke-width="1.6"/>
</svg>
