<svg width="96" height="96" viewBox="0 0 96 96" fill="none" xmlns="http://www.w3.org/2000/svg">
<path d="M52.4513 70.8752H44.3263" stroke="#4B5355" stroke-width="2" stroke-linecap="square" stroke-linejoin="bevel"/>
<path d="M52.4513 73.5413H44.3263" stroke="#4B5355" stroke-width="2" stroke-linecap="square" stroke-linejoin="bevel"/>
<path d="M50.4201 76.2073H46.8654" stroke="#4B5355" stroke-width="2" stroke-linecap="square" stroke-linejoin="bevel"/>
<path d="M47.5002 14L47.5002 23.1407" stroke="#4B5355" stroke-width="1.6" stroke-linecap="round"/>
<path d="M65.6923 20.8633L60.7033 27.7109" stroke="#4B5355" stroke-width="1.6" stroke-linecap="round"/>
<path d="M80 40.4065L70.8595 42.2477" stroke="#4B5355" stroke-width="1.6" stroke-linecap="round"/>
<path d="M15 40.4065L24.1407 42.3712" stroke="#4B5355" stroke-width="1.6" stroke-linecap="round"/>
<path d="M28.5614 20.8633L33.2812 28.2187" stroke="#4B5355" stroke-width="1.6" stroke-linecap="round"/>
<path d="M62.5519 46.4812C62.5519 50.1874 60.836 53.5427 58.0601 55.9216C57.558 56.3519 57.3152 57.0884 57.1474 57.8024C57.0241 58.3272 56.9211 58.9453 56.8135 59.5908C56.7691 59.8574 56.7239 60.1286 56.6762 60.3998C56.3399 62.311 55.8534 64.3763 54.6086 65.9642C53.4251 67.4738 51.0604 68.2792 48.5536 68.3062C46.0457 68.3332 43.6541 67.5778 42.4552 66.2718C40.8827 64.5588 40.5376 62.7189 40.2665 60.9096C40.2506 60.8034 40.2349 60.6966 40.2192 60.5895C39.9754 58.9264 39.7173 57.1661 38.2651 55.9216C35.4893 53.5427 33.7733 50.1874 33.7733 46.4812C33.7733 39.351 40.1597 33.4743 48.1626 33.4743C56.1656 33.4743 62.5519 39.351 62.5519 46.4812Z" fill="white" stroke="#4B5355" stroke-width="1.2"/>
<path d="M38.8236 41.9844C37.7974 43.445 37.3476 45.1236 37.0155 46.363C36.9867 46.4704 36.9588 46.5745 36.9315 46.6749C36.8451 46.9925 36.7658 47.2691 36.6836 47.4991C36.6005 47.7318 36.5207 47.8985 36.4403 48.0059C36.3625 48.1098 36.3035 48.1341 36.2588 48.1377C36.2044 48.1422 36.1026 48.1219 35.9316 47.9981C35.2791 47.5253 35.0108 46.5228 35.2127 45.1757C35.412 43.8447 36.0636 42.2569 37.1308 40.738C38.1979 39.219 39.4644 38.0768 40.6388 37.4523C41.8275 36.8203 42.8483 36.7518 43.5007 37.2246C43.6713 37.3482 43.7228 37.4394 43.7361 37.4933C43.7473 37.5382 43.7433 37.6043 43.6707 37.7145C43.5957 37.8282 43.4653 37.9606 43.2745 38.1177C43.086 38.2729 42.853 38.4408 42.5844 38.6287C42.4978 38.6892 42.4079 38.7515 42.3151 38.8158C41.2655 39.5435 39.848 40.5263 38.8236 41.9844Z" stroke="#4B5355" stroke-width="0.5"/>
</svg>
