<svg width="96" height="96" viewBox="0 0 96 96" fill="none" xmlns="http://www.w3.org/2000/svg">
<path d="M43.1665 46.0143L43.1666 46.0137L42.7298 47.5613L43.1665 46.0143Z" fill="#4B5355"/>
<path d="M45.4123 49.374L44.931 49.3711L45.4123 49.374Z" fill="#4B5355"/>
<path d="M45.2885 51.6851H45.2889L42.4062 51.6955L45.2885 51.6851Z" fill="#4B5355"/>
<path d="M45.8928 49.3768L45.4115 49.374L45.8928 49.3768Z" fill="#4B5355"/>
<path d="M45.5413 51.4889L46.0433 49.5737L45.5413 51.4893V51.4889Z" fill="#4B5355"/>
<path d="M56.1552 42.6689L55.2198 47.0666L56.1552 42.6689Z" fill="#4B5355"/>
<path d="M53.7506 42.6692L53.0403 45.9545L53.7506 42.6689V42.6692Z" fill="#4B5355"/>
<path d="M55.9949 42.4712H53.9944C53.8835 42.4712 53.7733 42.5603 53.7498 42.6687L53.0395 45.9542L52.3293 49.2399C52.3059 49.3483 52.1959 49.4373 52.0848 49.4373H50.8712H50.669C49.2683 49.4373 49.4301 48.4682 49.7173 47.1408C49.7201 47.1275 49.7229 47.1145 49.7256 47.1008L49.757 46.9334C49.7592 46.9226 49.7612 46.9119 49.7629 46.9021L49.827 46.5614L49.8955 46.1963C49.9164 46.0863 49.9479 45.9253 49.9688 45.8242L50.2913 44.2468L50.6146 42.6694C50.6369 42.5605 50.5641 42.4712 50.4528 42.4712H48.3997C48.289 42.4712 48.1788 42.5605 48.1562 42.6691L47.7146 44.7636L47.2732 46.8577C47.2727 46.8588 47.2725 46.8601 47.2725 46.861L47.2315 47.0556C46.7229 49.3771 46.8577 51.591 49.6215 51.6602C49.6667 51.6616 49.7017 51.662 49.7017 51.662H54.0397C54.1508 51.662 54.2606 51.5728 54.2837 51.4642L55.2194 47.0668L56.1548 42.669C56.178 42.5603 56.1062 42.4712 55.9949 42.4712Z" fill="#4B5355"/>
<path d="M63.9752 49.46C64.0862 49.46 64.159 49.5489 64.1367 49.6577L63.9423 50.607" fill="#4B5355"/>
<path d="M63.7484 51.5568L63.9424 50.6069L63.7481 51.5571C63.7481 51.5568 63.7484 51.5568 63.7484 51.5568Z" fill="#4B5355"/>
<path d="M63.5048 51.7566C63.5052 51.7566 63.5056 51.7563 63.5059 51.7563C62.917 51.761 61.1479 51.7746 59.8184 51.7746C61.4365 51.7746 63.5048 51.7569 63.5048 51.7569V51.7566Z" fill="#4B5355"/>
<path d="M58.6251 48.2374C58.6235 48.1334 58.7418 47.9542 58.8528 47.9542L58.6031 47.9502C58.4906 49.0824 58.6251 48.2374 58.6251 48.2374Z" fill="#4B5355"/>
<path d="M60.0007 51.7739C59.9879 51.7739 59.9749 51.7739 59.9621 51.7742C59.9748 51.7739 59.9879 51.7739 60.0007 51.7739Z" fill="#4B5355"/>
<path d="M63.9752 49.46C64.0862 49.46 64.159 49.5489 64.1367 49.6577L63.9423 50.607L63.9107 50.7618" fill="#4B5355"/>
<path d="M60.3067 51.7739C60.2909 51.7739 60.2754 51.7739 60.2596 51.7742C60.2754 51.7739 60.2909 51.7739 60.3067 51.7739Z" fill="#4B5355"/>
<path d="M60.4278 51.7734C60.3872 51.7734 60.3467 51.7737 60.3067 51.7737C60.3468 51.7737 60.3874 51.7734 60.4278 51.7734Z" fill="#4B5355"/>
<path d="M60.9398 51.772C60.7781 51.7725 60.6166 51.7732 60.4571 51.7734C60.6166 51.7732 60.7782 51.7725 60.9398 51.772Z" fill="#4B5355"/>
<path d="M63.5063 51.7563C63.0748 51.7597 62.0094 51.7678 60.9469 51.7718C62.0088 51.768 63.0745 51.7598 63.5063 51.7563Z" fill="#4B5355"/>
<path d="M63.7484 51.5578L63.911 50.7622L63.7481 51.5582C63.7481 51.558 63.7484 51.558 63.7484 51.5576V51.5578Z" fill="#4B5355"/>
<path d="M30.8511 48.2613L31.1617 46.8838L30.8065 48.4584L30.4657 50.0623L30.7645 48.6563C30.7876 48.5474 30.8267 48.3697 30.8511 48.2613Z" fill="#4B5355"/>
<path d="M34.5702 42.4482H32.3733C32.2622 42.4482 32.1514 42.537 32.1265 42.6451L31.9183 43.5644L31.7099 44.4842C31.6854 44.5923 31.7562 44.681 31.8674 44.681H34.0812C34.1921 44.681 34.3026 44.5922 34.3264 44.4838L34.5278 43.5643L34.7291 42.6456V42.6453C34.7528 42.537 34.6813 42.4482 34.5702 42.4482Z" fill="#4B5355"/>
<path d="M34.0922 45.5066V45.5063L33.448 48.4872L34.0922 45.5066Z" fill="#4B5355"/>
<path d="M27.7104 55.3829C27.7104 55.3829 28.8179 55.3971 29.5217 55.3971C28.9871 55.3971 28.1038 55.3874 27.7095 55.3828C27.7099 55.3828 27.7101 55.3829 27.7104 55.3829Z" fill="#4B5355"/>
<path d="M31.4725 45.5063L31.1615 46.8837L31.4725 45.5063Z" fill="#4B5355"/>
<path d="M33.9332 45.3091H31.7191C31.6082 45.3091 31.4972 45.3979 31.4728 45.5063L31.1617 46.8838L30.8511 48.2613C30.8267 48.3696 30.7874 48.5473 30.7643 48.656L30.4655 50.0621L30.1669 51.4681C30.1436 51.5764 30.0959 51.7517 30.0605 51.8571C30.0605 51.8571 29.6468 53.0878 28.9514 53.0739C28.9218 53.0732 28.8931 53.0729 28.8646 53.0722C28.5278 53.0657 28.2629 53.061 28.2629 53.061H28.2623C28.1516 53.0594 28.04 53.146 28.0142 53.2538L27.7844 54.2193L27.5551 55.1841C27.5293 55.292 27.599 55.3811 27.7092 55.3828C28.1036 55.3874 28.9869 55.3973 29.5214 55.3973C31.2585 55.3973 32.1742 54.435 32.761 51.6659L33.448 48.4875L34.0922 45.5066C34.1158 45.3979 34.0441 45.3092 33.9332 45.3091Z" fill="#4B5355"/>
<path d="M65.386 51.6621C65.2749 51.6621 65.2028 51.573 65.2263 51.4642L66.8918 43.6626" fill="#4B5355"/>
<path d="M67.7006 51.4638L68.3744 48.1338L67.7006 51.4638Z" fill="#4B5355"/>
<path d="M65.2503 51.5631C65.2369 51.5088 65.2447 51.3755 65.2683 51.2667L66.059 47.5635L65.2261 51.4643C65.2027 51.573 65.2747 51.6621 65.3857 51.6621H65.5881C65.4768 51.662 65.264 51.6175 65.2503 51.5631Z" fill="#4B5355"/>
<path d="M67.5692 51.6177C67.5086 51.6422 67.3682 51.6622 67.257 51.6622H67.4593C67.5703 51.6622 67.6794 51.5731 67.7011 51.464L67.7416 51.2661C67.7193 51.3749 67.6296 51.5931 67.5692 51.6177Z" fill="#4B5355"/>
<path d="M68.0381 49.7991L68.3355 48.3296C68.3353 48.3305 68.3353 48.3317 68.335 48.3324L68.0381 49.7991Z" fill="#4B5355"/>
<path d="M74.61 44.1851L74.7017 44.5642C74.727 44.6727 74.6569 44.7607 74.5461 44.761" fill="#4B5355"/>
<path d="M67.741 51.2663L68.0375 49.7993L67.741 51.2663Z" fill="#4B5355"/>
<path d="M74.5187 43.7969L74.6095 44.1851L74.5187 43.7969Z" fill="#4B5355"/>
<path d="M68.335 48.3292C68.357 48.2205 68.3938 48.0441 68.4167 47.9367L68.7343 46.4487L68.3746 48.134L68.335 48.3292Z" fill="#4B5355"/>
<path d="M66.9192 43.5347C66.897 43.6396 66.8688 43.7723 66.8497 43.8601L66.0594 47.5633L66.8921 43.6624L66.9192 43.5347Z" fill="#4B5355"/>
<path d="M74.7012 44.5643L74.6093 44.1852L74.5185 43.7969L74.4724 43.6003C74.2928 42.9017 73.7648 42.4984 72.6185 42.4984L70.8339 42.4965L69.1903 42.4946H69.0492H67.3408C67.23 42.4946 67.1201 42.5833 67.0974 42.6921L67.0154 43.0785L66.9189 43.5349L66.8921 43.6628L66.0592 47.5637L65.2687 51.2669C65.2452 51.3758 65.2375 51.509 65.2508 51.5633C65.2643 51.6177 65.4774 51.6622 65.5886 51.6622H67.2567C67.3679 51.6622 67.5086 51.6421 67.5689 51.6177C67.6294 51.5932 67.719 51.3749 67.7412 51.2662L68.0378 49.7991L68.3346 48.3324C68.3347 48.3319 68.3349 48.3305 68.3351 48.3296L68.3748 48.1344L68.7344 46.4491L69.0522 44.9606C69.0757 44.8525 69.1849 44.7641 69.2959 44.7638L74.5455 44.7611C74.6563 44.7607 74.7264 44.6727 74.7012 44.5643Z" fill="#4B5355"/>
<path d="M81.4594 41.1364C81.348 41.1372 81.1664 41.1378 81.0551 41.1378H79.3749C79.2636 41.1378 79.1213 41.2129 79.0587 41.3046L75.3431 46.7482C75.2804 46.8401 75.2086 46.8262 75.1839 46.7181L74.9106 45.5189C74.886 45.4104 74.7747 45.322 74.6638 45.322H72.2751C72.1638 45.322 72.0981 45.4092 72.1285 45.516L73.1987 49.2656C73.2294 49.3724 73.2316 49.5482 73.2041 49.6557L72.7375 51.4705C72.7098 51.5781 72.7782 51.6662 72.8895 51.6662H75.2501C75.361 51.6662 75.4746 51.5781 75.502 51.4705L75.969 49.6557C75.9964 49.548 76.0738 49.3872 76.1406 49.2984L82.1725 41.2925C82.2396 41.2037 82.2033 41.1317 82.0923 41.1323L81.4594 41.1364Z" fill="#4B5355"/>
<path d="M62.4823 45.8323V45.83C62.4683 45.9505 62.3571 46.0389 62.246 46.0389H59.2176C59.1129 46.0389 59.0597 45.9677 59.075 45.8799C59.076 45.8773 59.0762 45.875 59.0778 45.8729C59.0778 45.8729 59.0768 45.8731 59.0758 45.8737C59.0765 45.8702 59.0765 45.8671 59.0776 45.8636C59.0776 45.8636 59.0832 45.8422 59.0914 45.812C59.3805 45.043 59.9698 44.5384 61.0771 44.5384C62.3238 44.5386 62.5668 45.1477 62.4823 45.8323ZM61.5937 42.3369C57.7065 42.3369 56.7853 44.6964 56.2684 47.0777C55.7517 49.5049 55.7963 51.7744 59.8188 51.7744H59.9615C59.9744 51.7741 59.9871 51.7741 59.9999 51.7741H60.1126H60.1539H60.2593C60.2752 51.7738 60.2908 51.7738 60.3065 51.7738C60.3468 51.7738 60.3872 51.7735 60.4277 51.7735H60.4563C60.6155 51.7733 60.7771 51.7726 60.9387 51.7721H60.9469C62.0094 51.7679 63.0748 51.7597 63.5066 51.7563C63.6166 51.7547 63.7246 51.6658 63.7475 51.5579L63.9103 50.762L63.9419 50.607L64.1361 49.6578C64.1586 49.5488 64.0858 49.4599 63.9746 49.4599H60.3583C58.9201 49.4599 58.4929 49.0777 58.6502 47.9541H64.431L64.4305 47.9546C64.4321 47.9546 64.4333 47.9541 64.4347 47.9541C64.5264 47.9524 64.6115 47.8891 64.6449 47.8048C64.6512 47.7886 64.6567 47.7718 64.6589 47.7545L64.6582 47.755C65.5165 44.5174 65.2705 42.337 61.5933 42.337L61.5937 42.3369Z" fill="#4B5355"/>
<path d="M43.2212 45.8202L43.1665 46.0138C43.1665 46.0145 43.1663 46.0145 43.1663 46.0145L42.7298 47.5614L42.2935 49.1081C42.2632 49.215 42.1477 49.3023 42.0365 49.3023H39.726C37.9737 49.3023 37.5469 47.9318 37.9737 45.9099C38.4003 43.8422 39.2369 42.5567 40.9617 42.4264C43.3188 42.2488 43.7903 43.9065 43.2212 45.8202ZM44.8055 49.1834C44.8055 49.1834 45.8949 46.5384 46.1423 45.0107C46.4797 42.9657 45.4558 40 41.5009 40C37.5685 40 35.861 42.8316 35.2094 45.9098C34.558 49.0102 35.4116 51.7293 39.3215 51.7072L42.4062 51.6957L45.2889 51.6853C45.4 51.6842 45.5136 51.5963 45.5418 51.489L46.044 49.5734C46.0719 49.4658 46.0041 49.3774 45.8931 49.3768L45.4117 49.374L44.9306 49.3712C44.836 49.3704 44.7822 49.3095 44.7935 49.2284C44.7956 49.2137 44.7988 49.1987 44.8055 49.1834Z" fill="#4B5355"/>
<path d="M64.2721 47.413C64.2721 47.4862 64.2128 47.5456 64.1395 47.5456C64.0663 47.5456 64.007 47.4862 64.007 47.413C64.007 47.3399 64.0663 47.2808 64.1395 47.2808C64.2127 47.2808 64.2721 47.3399 64.2721 47.413Z" fill="#4B5355"/>
<path d="M14.7788 43.9743C13.693 45.535 13.8283 47.5653 14.6576 49.2236C14.6774 49.2633 14.698 49.3024 14.7185 49.3416C14.7315 49.3664 14.7437 49.3918 14.7573 49.4162C14.765 49.4309 14.7735 49.4452 14.7815 49.4592C14.7956 49.4857 14.8101 49.5108 14.8247 49.5366C14.8505 49.582 14.877 49.6271 14.9039 49.6723C14.9188 49.6971 14.9336 49.7219 14.949 49.7467C14.979 49.7949 15.0096 49.8429 15.0409 49.8905C15.0539 49.9108 15.0667 49.9312 15.0801 49.9508C15.1234 50.0153 15.1676 50.0798 15.2131 50.143C15.2144 50.1447 15.2157 50.1463 15.2169 50.1479C15.2242 50.1581 15.2321 50.168 15.2393 50.1782C15.2787 50.2327 15.3195 50.2864 15.3605 50.3396C15.3757 50.3589 15.391 50.3783 15.4062 50.3978C15.4429 50.444 15.4802 50.4898 15.5183 50.5355C15.5325 50.5525 15.5467 50.5697 15.5611 50.5865C15.612 50.6465 15.6642 50.7064 15.7174 50.765C15.7183 50.766 15.7195 50.7672 15.7204 50.7682C15.7226 50.7707 15.7245 50.7722 15.7264 50.7746C15.7782 50.8313 15.8313 50.8868 15.8852 50.9422C15.9018 50.9592 15.9189 50.9764 15.9359 50.9935C15.9776 51.0354 16.0199 51.0764 16.0626 51.1178C16.08 51.1341 16.0972 51.1511 16.1145 51.1669C16.1716 51.2207 16.2292 51.2735 16.2881 51.3249C16.2892 51.326 16.2898 51.3268 16.2909 51.3272C16.3008 51.3361 16.3112 51.3447 16.3211 51.3529C16.373 51.3979 16.4258 51.4425 16.4789 51.4863C16.5005 51.5037 16.5224 51.5211 16.5442 51.5384C16.5875 51.5732 16.6315 51.6075 16.6757 51.6412C16.6991 51.6591 16.7224 51.6769 16.7459 51.6947C16.7947 51.7304 16.8439 51.7659 16.8935 51.8004C16.9116 51.8136 16.9291 51.8261 16.9472 51.8385C16.9522 51.842 16.9567 51.8458 16.9618 51.8492C17.009 51.8814 17.057 51.9128 17.1051 51.9439C17.1258 51.9577 17.1463 51.9718 17.1671 51.9853C17.2409 52.0319 17.3157 52.078 17.3915 52.1227C17.4121 52.1344 17.4329 52.1459 17.4534 52.1576C17.5091 52.1897 17.5651 52.2213 17.6218 52.2521C17.6524 52.2686 17.684 52.2842 17.7149 52.2999C17.7551 52.321 17.7948 52.3422 17.8354 52.3625C17.8447 52.3672 17.8542 52.3716 17.8633 52.3761C17.8796 52.384 17.8961 52.3917 17.9126 52.4C17.9758 52.4302 18.0393 52.4596 18.1036 52.4884C18.1173 52.4944 18.1304 52.5005 18.144 52.5064C18.2175 52.5385 18.2918 52.5697 18.3667 52.5991C18.3848 52.6064 18.4029 52.6132 18.421 52.6205C18.4903 52.6471 18.5606 52.6735 18.6311 52.6983C18.6402 52.7013 18.6487 52.7043 18.6576 52.7073C18.7351 52.7344 18.8133 52.7595 18.8921 52.784C18.9109 52.7895 18.9297 52.7955 18.9486 52.801C19.0288 52.8252 19.108 52.854 19.1907 52.8693C24.4417 53.8268 25.9669 49.7138 25.9669 49.7138C24.6859 51.3827 22.412 51.823 20.2576 51.3329C20.1759 51.3144 20.0968 51.2891 20.0171 51.2654C19.9968 51.2594 19.9771 51.2533 19.9571 51.2471C19.8793 51.2232 19.8023 51.1982 19.7256 51.1718C19.7151 51.1681 19.7045 51.1641 19.6937 51.1603C19.6251 51.1362 19.5572 51.1108 19.4895 51.0847C19.4704 51.077 19.4514 51.0699 19.4323 51.0623C19.3581 51.033 19.2845 51.0025 19.2118 50.9705C19.1968 50.9642 19.1825 50.9575 19.1677 50.9509C19.1053 50.9227 19.0435 50.8942 18.9817 50.8645C18.9639 50.8559 18.9461 50.8474 18.9281 50.8387C18.8798 50.8152 18.8319 50.7902 18.7843 50.7656C18.7523 50.7488 18.72 50.7328 18.6884 50.7154C18.6301 50.6842 18.573 50.6517 18.516 50.6186C18.4967 50.6078 18.4772 50.5974 18.4577 50.5863C18.3821 50.5417 18.3072 50.4954 18.2332 50.4487C18.2128 50.4357 18.1928 50.4218 18.1726 50.4084C18.119 50.3737 18.0655 50.3385 18.013 50.3021C17.9955 50.2906 17.9786 50.2777 17.9615 50.266C17.9108 50.2301 17.8605 50.1937 17.8105 50.1569C17.788 50.1402 17.7657 50.1229 17.7436 50.1062C17.698 50.0712 17.6524 50.0361 17.6074 49.9997C17.5871 49.9836 17.5667 49.9673 17.5467 49.9511C17.4894 49.9039 17.4329 49.8567 17.377 49.8082C17.3712 49.803 17.3648 49.798 17.3584 49.7927C17.2981 49.7395 17.2386 49.685 17.18 49.6304C17.163 49.6141 17.1464 49.5984 17.1298 49.582C17.0863 49.5408 17.0435 49.4991 17.0016 49.4564C16.9848 49.4396 16.9679 49.4229 16.9514 49.4063C16.8979 49.3515 16.8455 49.2961 16.794 49.2398C16.7915 49.237 16.7888 49.2346 16.7863 49.2315C16.7318 49.1721 16.6788 49.1112 16.6266 49.0498C16.6125 49.033 16.5988 49.0168 16.5849 49.0003C16.546 48.9535 16.5076 48.9062 16.4701 48.8583C16.456 48.8412 16.4419 48.8235 16.4279 48.8059C16.3828 48.7471 16.3386 48.6888 16.2953 48.6293C15.0992 46.9978 14.6694 44.7474 15.6255 42.8994" fill="#4B5355"/>
<path d="M18.1492 42.6596C17.364 43.7897 17.4067 45.3022 18.0192 46.4972C18.122 46.6975 18.2374 46.892 18.3665 47.077C18.484 47.2456 18.6145 47.4462 18.7706 47.5816C18.8273 47.6439 18.8864 47.7048 18.9469 47.7644C18.9622 47.7801 18.9778 47.7951 18.9934 47.8105C19.0519 47.8672 19.1116 47.9232 19.1732 47.9775C19.1758 47.9797 19.1781 47.9821 19.1806 47.9838C19.1813 47.9846 19.182 47.9849 19.1824 47.9857C19.2506 48.0454 19.321 48.103 19.3926 48.1596C19.4085 48.1716 19.4242 48.1844 19.4403 48.1968C19.5121 48.2517 19.5852 48.3059 19.6603 48.3573C19.6626 48.3589 19.6644 48.3604 19.6666 48.3623C19.6996 48.385 19.7335 48.4064 19.7669 48.4283C19.7831 48.4387 19.7984 48.4499 19.8145 48.4597C19.868 48.4939 19.9223 48.5274 19.9775 48.5595C19.9853 48.5643 19.9929 48.5682 20.0004 48.5728C20.048 48.6002 20.0962 48.6272 20.1446 48.6534C20.1614 48.663 20.1786 48.6713 20.1958 48.6802C20.2292 48.6976 20.2626 48.7154 20.2966 48.7324C20.3015 48.7348 20.3068 48.7371 20.3117 48.7393C20.3809 48.7734 20.4508 48.8062 20.522 48.8372C20.5372 48.8439 20.5529 48.85 20.5685 48.8564C20.6253 48.8806 20.6829 48.9041 20.7407 48.9264C20.7653 48.9357 20.79 48.9446 20.8146 48.9536C20.867 48.973 20.9198 48.9908 20.9729 49.0086C20.9969 49.0163 21.0204 49.0241 21.0445 49.0315C21.12 49.0549 21.1945 49.0846 21.2733 49.0976C25.3274 49.7693 26.2636 46.6478 26.2636 46.6478C25.4197 47.8628 23.7859 48.4428 22.0423 47.9901C21.9649 47.9698 21.8886 47.9477 21.8128 47.9238C21.7896 47.9166 21.7667 47.9091 21.7438 47.9015C21.6899 47.884 21.6363 47.8653 21.5831 47.8461C21.5588 47.8374 21.5345 47.8284 21.5105 47.8192C21.4522 47.7968 21.3947 47.7737 21.3376 47.7494C21.322 47.7427 21.3063 47.7367 21.291 47.7298C21.2194 47.6987 21.149 47.6657 21.0794 47.6317C21.0437 47.6141 21.0086 47.5955 20.9734 47.5777C20.9531 47.5671 20.9326 47.5566 20.9121 47.5461C20.867 47.5215 20.8221 47.4963 20.7778 47.4705C20.7673 47.4644 20.7564 47.4588 20.7458 47.4523C20.6909 47.4202 20.6367 47.3872 20.5833 47.3532C20.5667 47.3426 20.5509 47.3311 20.5344 47.3204C20.499 47.2974 20.4637 47.2742 20.429 47.2507C20.3543 47.1992 20.2815 47.1452 20.2099 47.0904C20.1934 47.0774 20.1767 47.0647 20.1606 47.0517C19.3973 46.4491 18.7925 45.6256 18.5049 44.692C18.2034 43.7236 18.2683 42.6365 18.7905 41.7544" fill="#4B5355"/>
<path d="M20.9839 41.6773C20.5211 42.3585 20.4755 43.2046 20.7967 43.957C21.1354 44.7556 21.8295 45.382 22.6396 45.6789C22.6731 45.6914 22.7064 45.7025 22.7403 45.714C22.755 45.7186 22.7697 45.7236 22.7846 45.728C22.8323 45.743 22.8797 45.7605 22.929 45.7698C25.1676 46.2024 25.7748 44.6209 25.9365 44.3882C25.4046 45.154 24.5107 45.3378 23.414 45.0717C23.3274 45.0505 23.2321 45.0193 23.1487 44.9897C23.0416 44.9516 22.9361 44.908 22.8335 44.8589C22.6388 44.7652 22.4531 44.6517 22.281 44.5218C21.2998 43.7772 20.6899 42.3566 21.3304 41.1997" fill="#4B5355"/>
</svg>
