<svg width="96" height="96" viewBox="0 0 96 96" fill="none" xmlns="http://www.w3.org/2000/svg">
<rect x="9.4" y="25.4" width="49.7784" height="38.0884" stroke="#4B5355" stroke-width="1.2" stroke-linecap="round" stroke-linejoin="round"/>
<path d="M11.5587 47.8213L57.2796 47.8213V27.2988L45.8494 27.2988H40.1343H34.4192H28.704L22.9889 27.2988H11.5587L11.5587 47.8213Z" stroke="white" stroke-linecap="round" stroke-linejoin="round"/>
<rect x="28.1648" y="50.9189" width="12.5084" height="10.4302" stroke="white"/>
<path d="M12.0587 50.9189H24.5672V61.3492H12.0587L12.0587 50.9189Z" stroke="white"/>
<rect x="44.2711" y="50.9189" width="12.5084" height="10.4302" fill="white" stroke="white"/>
<path d="M17.7599 54.327C17.9352 53.9201 18.5121 53.9201 18.6874 54.327C18.9052 54.8329 19.3821 55.1794 19.9306 55.2302C20.3717 55.2712 20.55 55.8199 20.2171 56.1123C19.8033 56.4758 19.6212 57.0364 19.7423 57.5737C19.8397 58.0059 19.3729 58.3451 18.992 58.1189C18.5184 57.8376 17.9289 57.8376 17.4553 58.1189C17.0744 58.3451 16.6076 58.0059 16.705 57.5737C16.8261 57.0364 16.644 56.4758 16.2302 56.1123C15.8973 55.8199 16.0756 55.2712 16.5167 55.2302C17.0652 55.1794 17.5421 54.8329 17.7599 54.327Z" stroke="white"/>
<path d="M68.8925 37.812L85 42.128L77.2929 70.8915L61.1853 66.5755L68.8925 37.812Z" stroke="#4B5355" stroke-width="1.2" stroke-linecap="round" stroke-linejoin="round"/>
<path d="M67.1291 52.9476C66.8624 52.8761 66.7041 52.6019 66.7756 52.3352L69.8617 40.8175C69.9332 40.5508 70.2074 40.3925 70.4741 40.464L73.4555 41.2629L74.9463 41.6623L76.437 42.0617L77.9277 42.4612L79.4184 42.8606L82.3999 43.6595C82.6666 43.731 82.8249 44.0051 82.7534 44.2719L79.6673 55.7895C79.5958 56.0562 79.3216 56.2145 79.0549 56.1431L67.1291 52.9476Z" stroke="white" stroke-linecap="round" stroke-linejoin="round"/>
<path d="M63.9404 64.2586C63.6736 64.1871 63.5153 63.913 63.5868 63.6462L66.0523 54.4448C66.1238 54.178 66.398 54.0197 66.6647 54.0912L69.6461 54.8901L71.1369 55.2895L72.6276 55.6889L74.1183 56.0884L75.609 56.4878L78.5905 57.2867C78.8572 57.3582 79.0155 57.6323 78.944 57.8991L76.4785 67.1005C76.407 67.3673 76.1328 67.5256 75.8661 67.4541L63.9404 64.2586Z" fill="white" stroke="white" stroke-linecap="round" stroke-linejoin="round"/>
<path d="M74.572 40.5127L78.9824 41.6945L78.9099 41.9651L74.4995 40.7833L74.572 40.5127Z" stroke="white" stroke-width="0.5" stroke-linecap="round" stroke-linejoin="round"/>
<ellipse cx="69.6014" cy="67.3812" rx="0.575027" ry="0.560091" transform="rotate(15 69.6014 67.3812)" fill="white"/>
</svg>
