<svg width="96" height="96" viewBox="0 0 96 96" fill="none" xmlns="http://www.w3.org/2000/svg">
<path d="M41.6844 67.3055C41.3186 67.3055 40.9995 67.5535 40.9092 67.9078L39.3423 74.0536C39.2813 74.2929 39.3343 74.547 39.4858 74.7421C39.6374 74.9371 39.8706 75.0512 40.1176 75.0512H55.7491C55.9981 75.0512 56.2329 74.9353 56.3843 74.7376C56.5356 74.54 56.5864 74.2831 56.5215 74.0428L54.8627 67.897C54.7685 67.548 54.4519 67.3055 54.0904 67.3055H41.6844Z" fill="white" stroke="white" stroke-width="1.6" stroke-linejoin="round"/>
<path d="M30.1701 76.3904C29.8759 76.3904 29.6054 76.5519 29.4659 76.8109L28.4578 78.6813C28.3241 78.9292 28.3307 79.2292 28.4751 79.471C28.6195 79.7128 28.8804 79.8609 29.162 79.8609H66.8381C67.1233 79.8609 67.3869 79.7091 67.53 79.4624C67.6732 79.2158 67.6742 78.9116 67.5327 78.664L66.4639 76.7935C66.3214 76.5443 66.0564 76.3904 65.7693 76.3904H30.1701Z" fill="white" stroke="white" stroke-width="1.6" stroke-linejoin="round"/>
<rect x="14.2" y="15.2" width="67.6" height="50.766" rx="7.8" stroke="white" stroke-width="1.6" stroke-linecap="round" stroke-linejoin="round"/>
<path d="M17.5062 45.7405C17.2301 45.7405 17.0062 45.5166 17.0062 45.2405V18.5063C17.0062 18.2302 17.2301 18.0063 17.5062 18.0063H32.7531H40.3765H47.9999H55.6233H63.2467H78.4936C78.7697 18.0063 78.9936 18.2302 78.9936 18.5063V45.2405C78.9936 45.5166 78.7697 45.7405 78.4936 45.7405H17.5062Z" stroke="white" stroke-linecap="round" stroke-linejoin="round"/>
<rect x="39.5487" y="48.5647" width="17.17" height="13.9636" stroke="white"/>
<rect x="17.9048" y="48.5647" width="17.17" height="13.9636" stroke="white"/>
<rect x="60.6921" y="48.0647" width="18.17" height="14.9636" fill="white"/>
</svg>
