<svg width="96" height="96" viewBox="0 0 96 96" fill="none" xmlns="http://www.w3.org/2000/svg">
<path d="M1.3 48.5772C1.3 58.7242 9.70534 66.1065 19.9512 66.1065C25.0583 66.1065 30.2482 64.7916 33.7055 61.396L63.44 61.396C66.762 64.3229 71.1911 66.1065 76.0488 66.1065C86.3212 66.1065 94.7 58.1187 94.7 48.2033C94.7 38.2878 86.3212 30.3 76.0488 30.3L19.9512 30.3C9.6644 30.3 1.3 38.4692 1.3 48.5772Z" fill="white" stroke="#4B5355" stroke-width="1.4"/>
<path d="M37.709 50.0074L40.9707 47.5986C40.9707 47.5986 42.008 46.8114 42.7847 47.8064C43.5615 48.8014 42.5587 49.5181 42.5587 49.5181L38.9718 52.0884C38.9718 52.0884 38.026 52.7018 37.3205 51.7983C36.615 50.8947 37.709 50.0074 37.709 50.0074Z" stroke="#4B5355" stroke-linecap="round" stroke-linejoin="round"/>
<path d="M47.7006 50.0091L50.9652 47.6043C50.9652 47.6043 52.0036 46.8185 52.7698 47.8031C53.536 48.7877 52.5324 49.5034 52.5324 49.5034L48.9429 52.0698C48.9429 52.0698 47.9969 52.6827 47.301 51.7886C46.605 50.8945 47.7006 50.0091 47.7006 50.0091Z" stroke="#4B5355" stroke-linecap="round" stroke-linejoin="round"/>
<g filter="url(#filter0_d)">
<path d="M31.1122 47.953C31.1122 50.3381 29.8236 52.7131 27.8067 54.5063C25.7926 56.2971 23.1026 57.4601 20.3927 57.4601C14.9837 57.4601 10.7951 52.8186 10.7951 47.953C10.7951 43.1742 15.7196 39.041 21.2216 39.041C26.6894 39.041 31.1122 43.1443 31.1122 47.953Z" stroke="#2A6572" stroke-opacity="0.5"/>
</g>
<path d="M93.1603 47.6228C93.1603 56.2977 85.7898 63.8328 76.2887 63.8328C66.7876 63.8328 58.3798 56.2977 58.3798 47.6228C58.3798 38.9478 65.9585 32.1606 75.4596 32.1606C84.9607 32.1606 93.1603 38.9478 93.1603 47.6228Z" stroke="#2A6572" stroke-opacity="0.5"/>
<path d="M72.592 50.8791L82.3164 44.3802C82.3164 44.3802 85.9079 42.298 88.4223 45.6434C90.9367 48.9888 87.1783 51.112 87.1783 51.112L78.2027 57.4697C78.2027 57.4697 75.0784 59.2784 72.5922 56.3479C70.1059 53.4173 72.592 50.8791 72.592 50.8791Z" fill="white" stroke="#4B5355" stroke-width="0.5" stroke-linecap="round" stroke-linejoin="round"/>
<g filter="url(#filter1_iiii)">
<path d="M79.1982 53.863C79.1982 55.5153 77.6913 56.8548 75.8323 56.8548C73.9734 56.8548 72.4665 55.5153 72.4665 53.863C72.4665 52.2106 73.9734 50.8711 75.8323 50.8711C77.6913 50.8711 79.1982 52.2106 79.1982 53.863Z" fill="#F5E06D"/>
</g>
<path d="M79.0732 53.863C79.0732 55.4329 77.6365 56.7298 75.8323 56.7298C74.0282 56.7298 72.5915 55.4329 72.5915 53.863C72.5915 52.2931 74.0282 50.9961 75.8323 50.9961C77.6365 50.9961 79.0732 52.2931 79.0732 53.863Z" stroke="black" stroke-opacity="0.48" stroke-width="0.25"/>
<g filter="url(#filter2_iii)">
<path d="M87.9951 47.5895C87.9951 49.2419 86.4882 50.5814 84.6293 50.5814C82.7704 50.5814 81.2634 49.2419 81.2634 47.5895C81.2634 45.9372 82.7704 44.5977 84.6293 44.5977C86.4882 44.5977 87.9951 45.9372 87.9951 47.5895Z" fill="#E46070"/>
</g>
<path d="M87.8701 47.5895C87.8701 49.1594 86.4334 50.4564 84.6293 50.4564C82.8252 50.4564 81.3884 49.1594 81.3884 47.5895C81.3884 46.0196 82.8252 44.7227 84.6293 44.7227C86.4334 44.7227 87.8701 46.0196 87.8701 47.5895Z" stroke="black" stroke-opacity="0.48" stroke-width="0.25"/>
<path d="M63.3061 44.9094L73.0305 38.4105C73.0305 38.4105 76.6219 36.3283 79.1363 39.6737C81.6507 43.0191 77.8923 45.1422 77.8923 45.1422L68.9167 51.5C68.9167 51.5 65.7925 53.3087 63.3062 50.3781C60.8199 47.4476 63.3061 44.9094 63.3061 44.9094Z" fill="white" stroke="#4B5355" stroke-width="0.5" stroke-linecap="round" stroke-linejoin="round"/>
<g filter="url(#filter3_iiiii)">
<path d="M70.0865 47.3849C70.0865 49.0373 68.5796 50.3768 66.7207 50.3768C64.8617 50.3768 63.3548 49.0373 63.3548 47.3849C63.3548 45.7326 64.8617 44.3931 66.7207 44.3931C68.5796 44.3931 70.0865 45.7326 70.0865 47.3849Z" fill="#61C7A2"/>
</g>
<path d="M69.9615 47.3849C69.9615 48.9548 68.5248 50.2518 66.7207 50.2518C64.9165 50.2518 63.4798 48.9548 63.4798 47.3849C63.4798 45.815 64.9165 44.5181 66.7207 44.5181C68.5248 44.5181 69.9615 45.815 69.9615 47.3849Z" stroke="black" stroke-opacity="0.48" stroke-width="0.25"/>
<g filter="url(#filter4_iii)">
<path d="M78.6905 41.2883C78.6905 42.9406 77.1836 44.2801 75.3247 44.2801C73.4657 44.2801 71.9588 42.9406 71.9588 41.2883C71.9588 39.6359 73.4657 38.2964 75.3247 38.2964C77.1836 38.2964 78.6905 39.6359 78.6905 41.2883Z" fill="#5C67CF"/>
</g>
<path d="M78.5655 41.2883C78.5655 42.8582 77.1288 44.1551 75.3247 44.1551C73.5205 44.1551 72.0838 42.8582 72.0838 41.2883C72.0838 39.7184 73.5205 38.4214 75.3247 38.4214C77.1288 38.4214 78.5655 39.7184 78.5655 41.2883Z" stroke="black" stroke-opacity="0.48" stroke-width="0.25"/>
<path d="M23.409 40.8032H18.5472V45.291H13.3115L13.3118 50.6722H18.1733L18.1736 55.0146H23.409V50.6722H28.5001V45.291H23.4094L23.409 40.8032Z" fill="white"/>
<path d="M23.409 40.8032H18.5472V45.291H13.3115L13.3118 50.6722H18.1733L18.1736 55.0146H23.409V50.6722H28.5001V45.291H23.4094L23.409 40.8032Z" fill="url(#paint0_radial)" fill-opacity="0.5"/>
<path d="M23.409 40.8032H18.5472V45.291H13.3115L13.3118 50.6722H18.1733L18.1736 55.0146H23.409V50.6722H28.5001V45.291H23.4094L23.409 40.8032Z" stroke="#2A6572" stroke-opacity="0.48" stroke-linecap="round" stroke-linejoin="round"/>
<path d="M20.086 43.0559C20.4144 42.3164 21.4639 42.3164 21.7924 43.0559V43.0559C22.0665 43.6732 21.6146 44.3683 20.9392 44.3683V44.3683C20.2637 44.3683 19.8118 43.6732 20.086 43.0559V43.0559Z" stroke="#4B5355" stroke-linecap="round" stroke-linejoin="round"/>
<path d="M21.7925 51.8162C21.4641 52.5557 20.4145 52.5557 20.0861 51.8162V51.8162C19.812 51.1989 20.2638 50.5038 20.9393 50.5038V50.5038C21.6148 50.5038 22.0667 51.1989 21.7925 51.8162V51.8162Z" stroke="#4B5355" stroke-linecap="round" stroke-linejoin="round"/>
<path d="M25.6533 46.6923C26.3928 47.0207 26.3928 48.0702 25.6533 48.3986V48.3986C25.036 48.6728 24.3409 48.2209 24.3409 47.5454V47.5454C24.3409 46.87 25.036 46.4181 25.6533 46.6923V46.6923Z" stroke="#4B5355" stroke-linecap="round" stroke-linejoin="round"/>
<path d="M16.2273 48.5094C15.4878 48.181 15.4878 47.1315 16.2273 46.803V46.803C16.8446 46.5289 17.5398 46.9808 17.5398 47.6562V47.6562C17.5398 48.3317 16.8446 48.7836 16.2273 48.5094V48.5094Z" stroke="#4B5355" stroke-linecap="round" stroke-linejoin="round"/>
<defs>
<filter id="filter0_d" x="9.2951" y="37.541" width="23.3171" height="21.4191" filterUnits="userSpaceOnUse" color-interpolation-filters="sRGB">
<feFlood flood-opacity="0" result="BackgroundImageFix"/>
<feColorMatrix in="SourceAlpha" type="matrix" values="0 0 0 0 0 0 0 0 0 0 0 0 0 0 0 0 0 0 127 0"/>
<feOffset/>
<feGaussianBlur stdDeviation="0.5"/>
<feColorMatrix type="matrix" values="0 0 0 0 0 0 0 0 0 0 0 0 0 0 0 0 0 0 0.16 0"/>
<feBlend mode="normal" in2="BackgroundImageFix" result="effect1_dropShadow"/>
<feBlend mode="normal" in="SourceGraphic" in2="effect1_dropShadow" result="shape"/>
</filter>
<filter id="filter1_iiii" x="71.7165" y="50.3711" width="8.48171" height="7.48374" filterUnits="userSpaceOnUse" color-interpolation-filters="sRGB">
<feFlood flood-opacity="0" result="BackgroundImageFix"/>
<feBlend mode="normal" in="SourceGraphic" in2="BackgroundImageFix" result="shape"/>
<feColorMatrix in="SourceAlpha" type="matrix" values="0 0 0 0 0 0 0 0 0 0 0 0 0 0 0 0 0 0 127 0" result="hardAlpha"/>
<feOffset dx="0.25" dy="-1"/>
<feGaussianBlur stdDeviation="0.25"/>
<feComposite in2="hardAlpha" operator="arithmetic" k2="-1" k3="1"/>
<feColorMatrix type="matrix" values="0 0 0 0 0 0 0 0 0 0 0 0 0 0 0 0 0 0 0.25 0"/>
<feBlend mode="normal" in2="shape" result="effect1_innerShadow"/>
<feColorMatrix in="SourceAlpha" type="matrix" values="0 0 0 0 0 0 0 0 0 0 0 0 0 0 0 0 0 0 127 0" result="hardAlpha"/>
<feOffset dx="0.25" dy="-0.5"/>
<feGaussianBlur stdDeviation="0.125"/>
<feComposite in2="hardAlpha" operator="arithmetic" k2="-1" k3="1"/>
<feColorMatrix type="matrix" values="0 0 0 0 0 0 0 0 0 0 0 0 0 0 0 0 0 0 0.3 0"/>
<feBlend mode="normal" in2="effect1_innerShadow" result="effect2_innerShadow"/>
<feColorMatrix in="SourceAlpha" type="matrix" values="0 0 0 0 0 0 0 0 0 0 0 0 0 0 0 0 0 0 127 0" result="hardAlpha"/>
<feOffset dx="-1" dy="1"/>
<feGaussianBlur stdDeviation="0.375"/>
<feComposite in2="hardAlpha" operator="arithmetic" k2="-1" k3="1"/>
<feColorMatrix type="matrix" values="0 0 0 0 1 0 0 0 0 1 0 0 0 0 1 0 0 0 0.25 0"/>
<feBlend mode="normal" in2="effect2_innerShadow" result="effect3_innerShadow"/>
<feColorMatrix in="SourceAlpha" type="matrix" values="0 0 0 0 0 0 0 0 0 0 0 0 0 0 0 0 0 0 127 0" result="hardAlpha"/>
<feOffset dx="1" dy="1"/>
<feGaussianBlur stdDeviation="0.5"/>
<feComposite in2="hardAlpha" operator="arithmetic" k2="-1" k3="1"/>
<feColorMatrix type="matrix" values="0 0 0 0 1 0 0 0 0 1 0 0 0 0 1 0 0 0 0.25 0"/>
<feBlend mode="normal" in2="effect3_innerShadow" result="effect4_innerShadow"/>
</filter>
<filter id="filter2_iii" x="80.5134" y="44.3477" width="8.48171" height="7.23374" filterUnits="userSpaceOnUse" color-interpolation-filters="sRGB">
<feFlood flood-opacity="0" result="BackgroundImageFix"/>
<feBlend mode="normal" in="SourceGraphic" in2="BackgroundImageFix" result="shape"/>
<feColorMatrix in="SourceAlpha" type="matrix" values="0 0 0 0 0 0 0 0 0 0 0 0 0 0 0 0 0 0 127 0" result="hardAlpha"/>
<feOffset dx="0.25" dy="-0.5"/>
<feGaussianBlur stdDeviation="0.125"/>
<feComposite in2="hardAlpha" operator="arithmetic" k2="-1" k3="1"/>
<feColorMatrix type="matrix" values="0 0 0 0 0 0 0 0 0 0 0 0 0 0 0 0 0 0 0.3 0"/>
<feBlend mode="normal" in2="shape" result="effect1_innerShadow"/>
<feColorMatrix in="SourceAlpha" type="matrix" values="0 0 0 0 0 0 0 0 0 0 0 0 0 0 0 0 0 0 127 0" result="hardAlpha"/>
<feOffset dx="-1" dy="1"/>
<feGaussianBlur stdDeviation="0.375"/>
<feComposite in2="hardAlpha" operator="arithmetic" k2="-1" k3="1"/>
<feColorMatrix type="matrix" values="0 0 0 0 1 0 0 0 0 1 0 0 0 0 1 0 0 0 0.25 0"/>
<feBlend mode="normal" in2="effect1_innerShadow" result="effect2_innerShadow"/>
<feColorMatrix in="SourceAlpha" type="matrix" values="0 0 0 0 0 0 0 0 0 0 0 0 0 0 0 0 0 0 127 0" result="hardAlpha"/>
<feOffset dx="1" dy="1"/>
<feGaussianBlur stdDeviation="0.5"/>
<feComposite in2="hardAlpha" operator="arithmetic" k2="-1" k3="1"/>
<feColorMatrix type="matrix" values="0 0 0 0 1 0 0 0 0 1 0 0 0 0 1 0 0 0 0.25 0"/>
<feBlend mode="normal" in2="effect2_innerShadow" result="effect3_innerShadow"/>
</filter>
<filter id="filter3_iiiii" x="62.6048" y="43.8931" width="8.48171" height="7.48374" filterUnits="userSpaceOnUse" color-interpolation-filters="sRGB">
<feFlood flood-opacity="0" result="BackgroundImageFix"/>
<feBlend mode="normal" in="SourceGraphic" in2="BackgroundImageFix" result="shape"/>
<feColorMatrix in="SourceAlpha" type="matrix" values="0 0 0 0 0 0 0 0 0 0 0 0 0 0 0 0 0 0 127 0" result="hardAlpha"/>
<feOffset dx="1" dy="-1"/>
<feGaussianBlur stdDeviation="0.125"/>
<feComposite in2="hardAlpha" operator="arithmetic" k2="-1" k3="1"/>
<feColorMatrix type="matrix" values="0 0 0 0 0.258824 0 0 0 0 0.615686 0 0 0 0 0.486275 0 0 0 0.5 0"/>
<feBlend mode="normal" in2="shape" result="effect1_innerShadow"/>
<feColorMatrix in="SourceAlpha" type="matrix" values="0 0 0 0 0 0 0 0 0 0 0 0 0 0 0 0 0 0 127 0" result="hardAlpha"/>
<feOffset dx="0.25" dy="-1"/>
<feGaussianBlur stdDeviation="0.25"/>
<feComposite in2="hardAlpha" operator="arithmetic" k2="-1" k3="1"/>
<feColorMatrix type="matrix" values="0 0 0 0 0 0 0 0 0 0 0 0 0 0 0 0 0 0 0.25 0"/>
<feBlend mode="normal" in2="effect1_innerShadow" result="effect2_innerShadow"/>
<feColorMatrix in="SourceAlpha" type="matrix" values="0 0 0 0 0 0 0 0 0 0 0 0 0 0 0 0 0 0 127 0" result="hardAlpha"/>
<feOffset dx="0.25" dy="-0.5"/>
<feGaussianBlur stdDeviation="0.125"/>
<feComposite in2="hardAlpha" operator="arithmetic" k2="-1" k3="1"/>
<feColorMatrix type="matrix" values="0 0 0 0 0 0 0 0 0 0 0 0 0 0 0 0 0 0 0.3 0"/>
<feBlend mode="normal" in2="effect2_innerShadow" result="effect3_innerShadow"/>
<feColorMatrix in="SourceAlpha" type="matrix" values="0 0 0 0 0 0 0 0 0 0 0 0 0 0 0 0 0 0 127 0" result="hardAlpha"/>
<feOffset dx="-1" dy="1"/>
<feGaussianBlur stdDeviation="0.375"/>
<feComposite in2="hardAlpha" operator="arithmetic" k2="-1" k3="1"/>
<feColorMatrix type="matrix" values="0 0 0 0 1 0 0 0 0 1 0 0 0 0 1 0 0 0 0.25 0"/>
<feBlend mode="normal" in2="effect3_innerShadow" result="effect4_innerShadow"/>
<feColorMatrix in="SourceAlpha" type="matrix" values="0 0 0 0 0 0 0 0 0 0 0 0 0 0 0 0 0 0 127 0" result="hardAlpha"/>
<feOffset dx="1" dy="1"/>
<feGaussianBlur stdDeviation="0.5"/>
<feComposite in2="hardAlpha" operator="arithmetic" k2="-1" k3="1"/>
<feColorMatrix type="matrix" values="0 0 0 0 1 0 0 0 0 1 0 0 0 0 1 0 0 0 0.25 0"/>
<feBlend mode="normal" in2="effect4_innerShadow" result="effect5_innerShadow"/>
</filter>
<filter id="filter4_iii" x="71.2088" y="38.0464" width="8.48171" height="7.23374" filterUnits="userSpaceOnUse" color-interpolation-filters="sRGB">
<feFlood flood-opacity="0" result="BackgroundImageFix"/>
<feBlend mode="normal" in="SourceGraphic" in2="BackgroundImageFix" result="shape"/>
<feColorMatrix in="SourceAlpha" type="matrix" values="0 0 0 0 0 0 0 0 0 0 0 0 0 0 0 0 0 0 127 0" result="hardAlpha"/>
<feOffset dx="0.25" dy="-0.5"/>
<feGaussianBlur stdDeviation="0.125"/>
<feComposite in2="hardAlpha" operator="arithmetic" k2="-1" k3="1"/>
<feColorMatrix type="matrix" values="0 0 0 0 0 0 0 0 0 0 0 0 0 0 0 0 0 0 0.3 0"/>
<feBlend mode="normal" in2="shape" result="effect1_innerShadow"/>
<feColorMatrix in="SourceAlpha" type="matrix" values="0 0 0 0 0 0 0 0 0 0 0 0 0 0 0 0 0 0 127 0" result="hardAlpha"/>
<feOffset dx="-1" dy="1"/>
<feGaussianBlur stdDeviation="0.375"/>
<feComposite in2="hardAlpha" operator="arithmetic" k2="-1" k3="1"/>
<feColorMatrix type="matrix" values="0 0 0 0 1 0 0 0 0 1 0 0 0 0 1 0 0 0 0.25 0"/>
<feBlend mode="normal" in2="effect1_innerShadow" result="effect2_innerShadow"/>
<feColorMatrix in="SourceAlpha" type="matrix" values="0 0 0 0 0 0 0 0 0 0 0 0 0 0 0 0 0 0 127 0" result="hardAlpha"/>
<feOffset dx="1" dy="1"/>
<feGaussianBlur stdDeviation="0.5"/>
<feComposite in2="hardAlpha" operator="arithmetic" k2="-1" k3="1"/>
<feColorMatrix type="matrix" values="0 0 0 0 1 0 0 0 0 1 0 0 0 0 1 0 0 0 0.25 0"/>
<feBlend mode="normal" in2="effect2_innerShadow" result="effect3_innerShadow"/>
</filter>
<radialGradient id="paint0_radial" cx="0" cy="0" r="1" gradientUnits="userSpaceOnUse" gradientTransform="translate(20.9058 47.9089) rotate(89.5885) scale(4.66786 4.98886)">
<stop stop-color="white" stop-opacity="0.81"/>
<stop offset="1" stop-color="white" stop-opacity="0"/>
</radialGradient>
</defs>
</svg>
