<svg width="96" height="96" viewBox="0 0 96 96" fill="none" xmlns="http://www.w3.org/2000/svg">
<path d="M63.0932 18.0971L63.4137 17.4297L63.0932 18.0972L74.8929 23.7629C74.4653 23.8656 74.0451 24.0587 73.6553 24.3536L24.0088 61.9127C24.0088 61.9127 24.0088 61.9127 24.0087 61.9127C23.3379 62.4201 22.3992 62.3784 21.7765 61.8138L21.7764 61.8137L18.4089 58.7609C17.6484 58.0714 17.6475 56.8802 18.407 56.1896L59.6338 18.7041L59.6474 18.6917L59.6605 18.6786C60.5641 17.7776 61.9411 17.5439 63.0932 18.0971Z" stroke="white" stroke-width="1.6"/>
<path d="M59.6488 76.3182L59.6357 76.3052L59.6221 76.2928L18.3704 38.6808L17.8874 39.2105L18.3704 38.6808C17.6091 37.9867 17.61 36.7882 18.3722 36.0953L18.3722 36.0953L21.7418 33.032C22.365 32.4655 23.3035 32.4238 23.9744 32.9328L23.9744 32.9328L73.6512 70.6186L74.1347 69.9812L73.6512 70.6186C74.0436 70.9163 74.4667 71.1107 74.8969 71.2134L63.0826 76.9018C61.9305 77.4565 60.5532 77.2225 59.6488 76.3182Z" fill="white" stroke="white" stroke-width="1.6"/>
<path d="M75.6828 70.8434L63.33 76.7837C63.5671 76.3576 63.7059 75.8574 63.7059 75.3V19.857C63.7059 19.2995 63.5671 18.7994 63.33 18.3733L75.6828 24.3138L75.6828 24.3138C76.7297 24.8172 77.3953 25.876 77.3953 27.0376V68.1197C77.3953 69.2812 76.7297 70.34 75.6828 70.8434Z" fill="white" stroke="white" stroke-width="1.6"/>
</svg>
