<svg width="96" height="96" viewBox="0 0 96 96" fill="none" xmlns="http://www.w3.org/2000/svg">
<path d="M12.8 12.8H83.2V83.2H12.8V12.8Z" stroke="white" stroke-width="1.6"/>
<path d="M66.909 64.0721L66.9058 64.0707L65.2143 63.345L65.2132 63.3445C62.7954 62.3145 60.845 61.1784 59.4973 59.661C58.1649 58.1609 57.3915 56.2538 57.3915 53.6102C57.3915 51.2052 58.3052 49.1059 59.9203 47.6051C61.5369 46.1029 63.8866 45.1731 66.8 45.1731C68.8936 45.1731 70.6539 45.5373 72.15 46.3509C73.5333 47.1031 74.7235 48.2572 75.7477 49.9296L71.3218 52.7713C70.7948 51.9216 70.2222 51.2746 69.5472 50.8267C68.7472 50.296 67.8467 50.0737 66.8 50.0737C65.7024 50.0737 64.7658 50.4233 64.0985 51.0405C63.4297 51.6592 63.0623 52.5193 63.0623 53.4731C63.0623 54.6195 63.4293 55.4698 64.2172 56.1869C64.9644 56.8669 66.0797 57.4152 67.5236 58.0405L67.5254 58.0413L69.2167 58.7658C69.2168 58.7658 69.2168 58.7658 69.2169 58.7658C72.0788 59.9931 74.2455 61.2044 75.7007 62.7669C77.1343 64.306 77.908 66.2202 77.908 68.9348C77.908 71.8357 76.7754 74.0462 74.9003 75.5426C73.0119 77.0495 70.3292 77.8634 67.1966 77.8634C61.3238 77.8634 57.5053 75.1822 55.5346 71.6352L60.2009 68.9243C60.8894 69.9741 61.6948 70.9095 62.7133 71.6054C63.8716 72.3967 65.2771 72.8588 67.04 72.8588C68.5199 72.8588 69.7813 72.4894 70.6864 71.8178C71.6014 71.1388 72.1343 70.1603 72.1343 69.0217C72.1343 68.3724 72.0048 67.8051 71.7422 67.3002C71.4808 66.7976 71.1011 66.383 70.6374 66.0189C69.7304 65.3066 68.4303 64.7376 66.909 64.0721ZM36.2846 69.5303C36.7337 70.309 37.2131 71.0629 37.8241 71.6455C38.577 72.3634 39.5215 72.8165 40.8195 72.8165C41.9812 72.8165 43.0541 72.5918 43.8224 71.8092C44.5861 71.0313 44.9446 69.8079 44.9446 68.0651V45.5594H50.7103V68.1565C50.7103 71.5606 49.7151 73.9622 48.0644 75.5168C46.4083 77.0764 44.0213 77.8508 41.1075 77.8508C36.1253 77.8508 33.1869 75.4004 31.6097 72.3606L36.2846 69.5303Z" stroke="white"/>
</svg>
