<svg width="96" height="96" viewBox="0 0 96 96" fill="none" xmlns="http://www.w3.org/2000/svg">
<line x1="21.2" y1="61" x2="21.2" y2="72" stroke="#4B5355" stroke-width="0.4" stroke-dasharray="1.2 1.2"/>
<line x1="75.2" y1="61" x2="75.2" y2="72" stroke="#4B5355" stroke-width="0.4" stroke-dasharray="1.2 1.2"/>
<path d="M77.4615 59.6875V69.8847C77.4615 72.5501 75.2808 74.7308 72.6154 74.7308H24.1538C21.4884 74.7308 19.3077 72.5501 19.3077 69.8847V59.2231" stroke="#4B5355" stroke-width="1.4" stroke-miterlimit="10" stroke-linecap="round" stroke-linejoin="round"/>
<path d="M43 62.6155H26.6923C21.3615 62.6155 17 58.2539 17 52.9232V33.5385C17 30.8732 19.1808 28.6924 21.8462 28.6924H75.1538C77.8192 28.6924 80 30.8732 80 33.5385V52.9232C80 58.2539 75.6385 62.6155 70.3077 62.6155H53.3462" stroke="#4B5355" stroke-width="1.4" stroke-miterlimit="10" stroke-linecap="round" stroke-linejoin="round"/>
<path d="M43 61H28.0769C23.0846 61 19 56.8857 19 51.8571V33V29H78V33.5714V51.8571C78 56.8857 73.9154 61 68.9231 61H53.0385" stroke="#4B5355" stroke-width="0.4" stroke-miterlimit="10" stroke-linecap="round" stroke-linejoin="round" stroke-dasharray="2 2"/>
<path d="M57 28H39V25.8282C39 24.2727 41.025 23 43.5 23H52.5C54.975 23 57 24.2727 57 25.8282V28Z" stroke="#4B5355" stroke-width="2" stroke-miterlimit="10" stroke-linecap="round" stroke-linejoin="round"/>
<path d="M48 66C45.25 66 43 64.92 43 63.6V60H53V63.6C53 64.92 50.75 66 48 66Z" stroke="#4B5355" stroke-width="1.4" stroke-miterlimit="10" stroke-linecap="round" stroke-linejoin="round"/>
<path d="M48 64.5C46.35 64.5 45 63.8829 45 63.1286V61.5H51V63.1286C51 63.8829 49.65 64.5 48 64.5Z" fill="white"/>
<path d="M26 76.2C26 76.64 27.575 77 29.5 77C31.425 77 33 76.64 33 76.2V75H26V76.2Z" fill="white" stroke="#4B5355" stroke-miterlimit="10" stroke-linecap="round" stroke-linejoin="round"/>
<path d="M65 76.2C65 76.64 66.575 77 68.5 77C70.425 77 72 76.64 72 76.2V75H65V76.2Z" fill="white" stroke="#4B5355" stroke-miterlimit="10" stroke-linecap="round" stroke-linejoin="round"/>
</svg>
