<svg width="32" height="32" viewBox="0 0 32 32" fill="none" xmlns="http://www.w3.org/2000/svg">
<path d="M29 9.98304V25.2188L18.0864 29L3 25.2188V9.98304L9.09877 3.95223L23.5432 3L29 9.98304Z" fill="white"/>
<path d="M17.7654 9.98304L18.0864 29M17.7654 9.98304L23.5432 3M17.7654 9.98304H3M18.0864 29L3 25.2188V9.98304M18.0864 29L29 25.2188V9.98304L23.5432 3M23.5432 3L9.09877 3.95223L3 9.98304" stroke="#2F306F"/>
<path d="M6 23.1V19.05V15H10H14V19.5V24L10 23.55L6 23.1Z" fill="white"/>
<path d="M6 19.05V23.1L10 23.55M6 19.05V15H10M6 19.05L14 19.5M14 19.5V24L10 23.55M14 19.5V15H10M10 15V23.55" stroke="#2F306F"/>
<path d="M22 27.5377V16H25.5V26.3069L22 27.5377Z" fill="#2F306F" stroke="#2F306F"/>
</svg>
