<svg width="32" height="32" viewBox="0 0 32 32" fill="none" xmlns="http://www.w3.org/2000/svg">
<path d="M26 7.48486H6V18.6364H26V7.48486Z" fill="white" stroke="#2C5058" stroke-linejoin="round"/>
<path d="M21.676 27.1945C21.8686 27.3651 22.1592 27.3616 22.3477 27.1866L23 26.5809C23.1043 26.4841 23.1624 26.3474 23.1597 26.2051C23.1571 26.0629 23.0939 25.9285 22.9861 25.8356L17.2846 20.9244C17.1939 20.8462 17.0781 20.8032 16.9583 20.8032H14.6919C14.569 20.8032 14.4505 20.8485 14.3588 20.9303L8.8671 25.8359C8.76211 25.9297 8.70153 26.0634 8.70022 26.2042C8.69891 26.3449 8.757 26.4797 8.86023 26.5755L9.5116 27.1794C9.70339 27.3573 9.99982 27.3573 10.1916 27.1794L14.4745 23.2069V26.9999C14.4745 27.2761 14.6983 27.4999 14.9745 27.4999H16.6709C16.9471 27.4999 17.1709 27.2761 17.1709 26.9999V23.2059L21.676 27.1945Z" fill="white" stroke="#2C5058" stroke-linejoin="round"/>
<path d="M18.0383 4C18.0383 3.72386 17.8145 3.5 17.5383 3.5H14.4614C14.1853 3.5 13.9614 3.72386 13.9614 4V5.39394C13.9614 5.67008 14.1853 5.89394 14.4614 5.89394H17.5383C17.8145 5.89394 18.0383 5.67008 18.0383 5.39394V4Z" fill="white" stroke="#2C5058" stroke-linejoin="round"/>
</svg>
