<svg width="40" height="40" viewBox="0 0 40 40" fill="none" xmlns="http://www.w3.org/2000/svg">
<path d="M20 0.375C30.8396 0.375 39.625 9.16037 39.625 20C39.625 30.8396 30.8396 39.625 20 39.625C9.16037 39.625 0.375 30.8396 0.375 20C0.375 9.16037 9.16037 0.375 20 0.375ZM20 2.12313C10.1268 2.12313 2.12293 10.127 2.12293 20.0002C2.12293 29.8734 10.1268 37.8773 20 37.8773C29.8732 37.8773 37.8771 29.8734 37.8771 20.0002C37.8771 10.127 29.8732 2.12313 20 2.12313Z" fill="white" stroke="#2C5058" stroke-width="0.75"/>
<path d="M20.0586 15.0625C19.6758 15.0625 19.3672 15.0547 19.1328 15.0391C18.9062 15.0234 18.7305 14.9922 18.6055 14.9453C18.4883 14.8984 18.4062 14.832 18.3594 14.7461C18.3203 14.6602 18.3008 14.543 18.3008 14.3945L18.1602 12.1094C18.1602 11.9453 18.1758 11.8086 18.207 11.6992C18.2461 11.582 18.332 11.4922 18.4648 11.4297C18.5977 11.3672 18.7891 11.3242 19.0391 11.3008C19.2969 11.2695 19.6367 11.2539 20.0586 11.2539C20.4805 11.2539 20.8164 11.2695 21.0664 11.3008C21.3242 11.3242 21.5195 11.3672 21.6523 11.4297C21.7852 11.4922 21.8672 11.582 21.8984 11.6992C21.9375 11.8086 21.957 11.9453 21.957 12.1094L21.8281 14.3945C21.8281 14.543 21.8047 14.6602 21.7578 14.7461C21.7188 14.832 21.6367 14.8984 21.5117 14.9453C21.3867 14.9922 21.207 15.0234 20.9727 15.0391C20.7461 15.0547 20.4414 15.0625 20.0586 15.0625ZM18.0898 17.7695C18.0898 17.6055 18.1055 17.4688 18.1367 17.3594C18.1758 17.2422 18.2617 17.1523 18.3945 17.0898C18.5273 17.0273 18.7188 16.9844 18.9688 16.9609C19.2266 16.9297 19.5664 16.9141 19.9883 16.9141C20.4102 16.9141 20.7461 16.9297 20.9961 16.9609C21.2539 16.9844 21.4492 17.0273 21.582 17.0898C21.7148 17.1523 21.7969 17.2422 21.8281 17.3594C21.8672 17.4688 21.8867 17.6055 21.8867 17.7695L21.5234 30.332C21.5234 30.4805 21.5039 30.5977 21.4648 30.6836C21.4258 30.7695 21.3516 30.8359 21.2422 30.8828C21.1328 30.9297 20.9766 30.9609 20.7734 30.9766C20.5781 30.9922 20.3164 31 19.9883 31C19.6602 31 19.3945 30.9922 19.1914 30.9766C18.9961 30.9609 18.8438 30.9297 18.7344 30.8828C18.6328 30.8359 18.5625 30.7695 18.5234 30.6836C18.4844 30.5977 18.4648 30.4805 18.4648 30.332L18.0898 17.7695Z" fill="white"/>
<path d="M19.1328 15.0391L19.107 15.4132L19.1079 15.4132L19.1328 15.0391ZM18.6055 14.9453L18.4662 15.2936L18.4738 15.2964L18.6055 14.9453ZM18.3594 14.7461L18.018 14.9013L18.0236 14.9137L18.0302 14.9257L18.3594 14.7461ZM18.3008 14.3945H18.6758V14.383L18.6751 14.3715L18.3008 14.3945ZM18.1602 12.1094H17.7852V12.1209L17.7859 12.1324L18.1602 12.1094ZM18.207 11.6992L17.8513 11.5806L17.8487 11.5884L17.8465 11.5962L18.207 11.6992ZM19.0391 11.3008L19.0741 11.6743L19.0842 11.6731L19.0391 11.3008ZM21.0664 11.3008L21.0199 11.6731L21.0325 11.6742L21.0664 11.3008ZM21.8984 11.6992L21.5361 11.7958L21.5401 11.8108L21.5453 11.8253L21.8984 11.6992ZM21.957 12.1094L22.3314 12.1305L22.332 12.1199V12.1094H21.957ZM21.8281 14.3945L21.4537 14.3734L21.4531 14.384V14.3945H21.8281ZM21.7578 14.7461L21.4286 14.5665L21.4221 14.5785L21.4164 14.5909L21.7578 14.7461ZM20.9727 15.0391L20.9477 14.6649L20.9469 14.665L20.9727 15.0391ZM18.0898 17.7695H17.7147L17.715 17.7807L18.0898 17.7695ZM18.1367 17.3594L17.781 17.2408L17.7784 17.2485L17.7761 17.2564L18.1367 17.3594ZM18.9688 16.9609L19.0038 17.3344L19.0139 17.3332L18.9688 16.9609ZM20.9961 16.9609L20.9496 17.3333L20.9621 17.3344L20.9961 16.9609ZM21.8281 17.3594L21.4658 17.456L21.4698 17.4709L21.475 17.4855L21.8281 17.3594ZM21.8867 17.7695L22.2617 17.7804V17.7695H21.8867ZM21.5234 30.332L21.1484 30.3212V30.332H21.5234ZM20.7734 30.9766L20.7447 30.6027L20.7435 30.6028L20.7734 30.9766ZM19.1914 30.9766L19.1615 31.3504L19.1626 31.3505L19.1914 30.9766ZM18.7344 30.8828L18.5772 31.2234L18.5867 31.2275L18.7344 30.8828ZM18.4648 30.332H18.84L18.8397 30.3208L18.4648 30.332ZM20.0586 14.6875C19.6796 14.6875 19.3803 14.6797 19.1578 14.6649L19.1079 15.4132C19.354 15.4296 19.6719 15.4375 20.0586 15.4375V14.6875ZM19.1586 14.665C18.9467 14.6503 18.8126 14.6225 18.7371 14.5942L18.4738 15.2964C18.6484 15.3619 18.8658 15.3965 19.107 15.4132L19.1586 14.665ZM18.7447 14.5971C18.7144 14.585 18.6988 14.5743 18.692 14.5689C18.6861 14.5641 18.6868 14.5632 18.6886 14.5665L18.0302 14.9257C18.1296 15.108 18.2918 15.2238 18.4662 15.2935L18.7447 14.5971ZM18.7008 14.5909C18.6929 14.5736 18.6758 14.5168 18.6758 14.3945H17.9258C17.9258 14.5691 17.9477 14.7467 18.018 14.9013L18.7008 14.5909ZM18.6751 14.3715L18.5344 12.0863L17.7859 12.1324L17.9265 14.4176L18.6751 14.3715ZM18.5352 12.1094C18.5352 11.9662 18.5491 11.8669 18.5676 11.8022L17.8465 11.5962C17.8024 11.7503 17.7852 11.9244 17.7852 12.1094H18.5352ZM18.5628 11.8178C18.5647 11.8121 18.5668 11.8083 18.5718 11.8032C18.5777 11.797 18.5924 11.7841 18.6245 11.769L18.3052 11.0904C18.0985 11.1877 17.9288 11.348 17.8513 11.5806L18.5628 11.8178ZM18.6245 11.769C18.6998 11.7336 18.8411 11.696 19.0741 11.6741L19.0041 10.9274C18.737 10.9525 18.4955 11.0008 18.3052 11.0904L18.6245 11.769ZM19.0842 11.6731C19.3207 11.6444 19.6437 11.6289 20.0586 11.6289V10.8789C19.6297 10.8789 19.273 10.8947 18.9939 10.9285L19.0842 11.6731ZM20.0586 11.6289C20.4738 11.6289 20.7921 11.6444 21.0199 11.6729L21.1129 10.9287C20.8407 10.8946 20.4872 10.8789 20.0586 10.8789V11.6289ZM21.0325 11.6742C21.2747 11.6963 21.4187 11.7342 21.4927 11.769L21.812 11.0904C21.6203 11.0002 21.3737 10.9522 21.1004 10.9273L21.0325 11.6742ZM21.4927 11.769C21.5237 11.7836 21.5347 11.7947 21.5365 11.7968C21.5375 11.7978 21.5372 11.7977 21.5365 11.7965C21.5358 11.7953 21.5358 11.7948 21.5361 11.7958L22.2608 11.6026C22.1951 11.3562 22.0218 11.1891 21.812 11.0904L21.4927 11.769ZM21.5453 11.8253C21.5653 11.8813 21.582 11.972 21.582 12.1094H22.332C22.332 11.9186 22.3097 11.7359 22.2516 11.5731L21.5453 11.8253ZM21.5826 12.0883L21.4537 14.3734L22.2025 14.4157L22.3314 12.1305L21.5826 12.0883ZM21.4531 14.3945C21.4531 14.51 21.4338 14.5569 21.4286 14.5665L22.087 14.9257C22.1755 14.7634 22.2031 14.576 22.2031 14.3945H21.4531ZM21.4164 14.5909C21.4197 14.5836 21.4235 14.5778 21.4269 14.5735C21.4302 14.5694 21.4321 14.5681 21.431 14.5689C21.4284 14.571 21.4143 14.5813 21.38 14.5942L21.6434 15.2964C21.8225 15.2293 22.0045 15.1097 22.0992 14.9013L21.4164 14.5909ZM21.38 14.5942C21.3058 14.622 21.1688 14.6502 20.9477 14.6649L20.9976 15.4132C21.2453 15.3967 21.4676 15.3624 21.6434 15.2964L21.38 14.5942ZM20.9469 14.665C20.7327 14.6797 20.4378 14.6875 20.0586 14.6875V15.4375C20.4451 15.4375 20.7595 15.4297 20.9985 15.4132L20.9469 14.665ZM18.4648 17.7695C18.4648 17.6264 18.4788 17.5271 18.4973 17.4624L17.7761 17.2564C17.7321 17.4104 17.7148 17.5846 17.7148 17.7695H18.4648ZM18.4925 17.478C18.4944 17.4723 18.4965 17.4685 18.5015 17.4633C18.5074 17.4571 18.5221 17.4442 18.5542 17.4292L18.2349 16.7505C18.0282 16.8478 17.8585 17.0081 17.781 17.2408L18.4925 17.478ZM18.5542 17.4292C18.6295 17.3937 18.7708 17.3561 19.0038 17.3343L18.9337 16.5876C18.6667 16.6126 18.4252 16.661 18.2349 16.7505L18.5542 17.4292ZM19.0139 17.3332C19.2504 17.3045 19.5734 17.2891 19.9883 17.2891V16.5391C19.5594 16.5391 19.2027 16.5548 18.9236 16.5887L19.0139 17.3332ZM19.9883 17.2891C20.4035 17.2891 20.7218 17.3046 20.9496 17.333L21.0426 16.5888C20.7704 16.5548 20.4168 16.5391 19.9883 16.5391V17.2891ZM20.9621 17.3344C21.2044 17.3564 21.3484 17.3944 21.4224 17.4292L21.7417 16.7505C21.55 16.6603 21.3034 16.6123 21.03 16.5875L20.9621 17.3344ZM21.4224 17.4292C21.4533 17.4437 21.4643 17.4549 21.4662 17.457C21.4672 17.458 21.4668 17.4578 21.4662 17.4566C21.4655 17.4554 21.4655 17.4549 21.4658 17.456L22.1905 17.2628C22.1248 17.0163 21.9514 16.8492 21.7417 16.7505L21.4224 17.4292ZM21.475 17.4855C21.495 17.5415 21.5117 17.6321 21.5117 17.7695H22.2617C22.2617 17.5788 22.2394 17.396 22.1813 17.2332L21.475 17.4855ZM21.5119 17.7587L21.1486 30.3212L21.8983 30.3429L22.2616 17.7804L21.5119 17.7587ZM21.1484 30.332C21.1484 30.4543 21.1313 30.5111 21.1235 30.5284L21.8062 30.8388C21.8765 30.6842 21.8984 30.5066 21.8984 30.332H21.1484ZM21.1235 30.5284C21.1248 30.5255 21.1264 30.5228 21.128 30.5206C21.1296 30.5185 21.1305 30.5178 21.1298 30.5184C21.1283 30.5197 21.1188 30.5277 21.0945 30.5381L21.3899 31.2275C21.5619 31.1538 21.7192 31.0303 21.8062 30.8388L21.1235 30.5284ZM21.0945 30.5381C21.0404 30.5613 20.9316 30.5883 20.7447 30.6027L20.8022 31.3505C21.0215 31.3336 21.2252 31.2981 21.3899 31.2275L21.0945 30.5381ZM20.7435 30.6028C20.5626 30.6172 20.3121 30.625 19.9883 30.625V31.375C20.3207 31.375 20.5937 31.3671 20.8033 31.3504L20.7435 30.6028ZM19.9883 30.625C19.6647 30.625 19.4098 30.6173 19.2202 30.6027L19.1626 31.3505C19.3793 31.3671 19.6556 31.375 19.9883 31.375V30.625ZM19.2213 30.6028C19.0439 30.5886 18.9377 30.562 18.8821 30.5381L18.5867 31.2275C18.7498 31.2974 18.9483 31.3333 19.1615 31.3504L19.2213 30.6028ZM18.8915 30.5423C18.872 30.5333 18.8643 30.5265 18.863 30.5252C18.8622 30.5245 18.8625 30.5247 18.8632 30.5257C18.8639 30.5267 18.8645 30.5277 18.8648 30.5284L18.1821 30.8388C18.265 31.0212 18.4099 31.1461 18.5772 31.2233L18.8915 30.5423ZM18.8648 30.5284C18.857 30.5111 18.8398 30.4543 18.8398 30.332H18.0898C18.0898 30.5066 18.1118 30.6842 18.1821 30.8388L18.8648 30.5284ZM18.8397 30.3208L18.4647 17.7583L17.715 17.7807L18.09 30.3432L18.8397 30.3208Z" fill="#2C5058"/>
</svg>
