<svg width="32" height="32" viewBox="0 0 32 32" fill="none" xmlns="http://www.w3.org/2000/svg">
<path d="M23.6894 6.31036L9.03442 17.411L23.6896 27" stroke="#2F306F" stroke-width="2"/>
<path d="M26.638 27C26.638 28.6283 25.318 29.9482 23.6897 29.9482C22.0614 29.9482 20.7415 28.6283 20.7415 27C20.7415 25.3717 22.0614 24.0517 23.6897 24.0517C25.318 24.0517 26.638 25.3717 26.638 27Z" fill="white" stroke="#2F306F"/>
<path d="M15.431 17.0862C15.431 20.3808 12.7602 23.0517 9.46552 23.0517C6.17086 23.0517 3.5 20.3808 3.5 17.0862C3.5 13.7915 6.17086 11.1207 9.46552 11.1207C12.7602 11.1207 15.431 13.7915 15.431 17.0862Z" fill="white" stroke="#2F306F"/>
<path d="M27.5001 6.31034C27.5001 8.37096 25.6471 10.1207 23.2587 10.1207C20.8704 10.1207 19.0173 8.37096 19.0173 6.31034C19.0173 4.24973 20.8704 2.5 23.2587 2.5C25.6471 2.5 27.5001 4.24973 27.5001 6.31034Z" fill="white" stroke="#2F306F"/>
</svg>
