<svg width="32" height="33" viewBox="0 0 32 33" fill="none" xmlns="http://www.w3.org/2000/svg">
<path d="M12.8289 23.5646L12.5056 23.5352L12.3475 23.8181L12.3474 23.8182L12.3473 23.8183L12.3473 23.8183L12.3472 23.8185L12.3462 23.8204L12.3399 23.8313C12.3341 23.8414 12.3249 23.8573 12.3124 23.8783C12.2873 23.9204 12.2492 23.9833 12.1985 24.0629C12.097 24.2224 11.946 24.4481 11.7507 24.7085C11.3578 25.2322 10.7958 25.8823 10.1073 26.4171C9.23943 27.0913 8.42478 27.3584 7.83315 27.4535C8.06231 27.1044 8.3347 26.646 8.61725 26.0751C8.98975 25.3226 9.20336 24.5838 9.27429 23.9949C9.30939 23.7034 9.31253 23.4247 9.26869 23.1896C9.23234 22.9947 9.12938 22.6493 8.793 22.5058C7.46529 21.9392 6.4017 21.1331 5.66668 20.0235C4.93167 18.914 4.49999 17.4629 4.5 15.5639C4.50001 12.3336 5.74558 10.3639 7.71876 9.16926C9.73737 7.94715 12.5778 7.5 15.8125 7.5C19.0315 7.5 21.8751 8.05427 23.8982 9.33204C25.8871 10.5882 27.125 12.5675 27.125 15.5639C27.125 18.5603 25.8871 20.5396 23.8982 21.7957C21.8751 23.0735 19.0315 23.6278 15.8125 23.6278C15.7129 23.6278 15.6094 23.6279 15.5027 23.628C14.6297 23.6291 13.5538 23.6304 12.8289 23.5646Z" fill="white" stroke="#2C5058"/>
<path d="M6.85859 15.5391C6.84557 15.4023 6.85534 15.2884 6.88789 15.1973C6.92044 15.0996 6.99206 15.0247 7.10273 14.9727C7.21341 14.9206 7.37617 14.8848 7.59102 14.8652C7.80586 14.8392 8.08906 14.8262 8.44063 14.8262C8.79219 14.8262 9.07214 14.8392 9.28047 14.8652C9.49531 14.8848 9.65807 14.9206 9.76875 14.9727C9.88594 15.0247 9.95755 15.0996 9.98359 15.1973C10.0161 15.2884 10.0292 15.4023 10.0227 15.5391L9.91523 17.4434C9.90872 17.5671 9.88594 17.6647 9.84688 17.7363C9.81432 17.8079 9.74596 17.8633 9.6418 17.9023C9.53763 17.9414 9.39115 17.9674 9.20234 17.9805C9.01354 17.9935 8.75964 18 8.44063 18C8.12161 18 7.86771 17.9935 7.67891 17.9805C7.4901 17.9674 7.34362 17.9414 7.23945 17.9023C7.1418 17.8633 7.07344 17.8079 7.03438 17.7363C7.00182 17.6647 6.98229 17.5671 6.97578 17.4434L6.85859 15.5391ZM13.918 15.5391C13.9049 15.4023 13.9147 15.2884 13.9473 15.1973C13.9798 15.0996 14.0514 15.0247 14.1621 14.9727C14.2728 14.9206 14.4355 14.8848 14.6504 14.8652C14.8652 14.8392 15.1484 14.8262 15.5 14.8262C15.8516 14.8262 16.1315 14.8392 16.3398 14.8652C16.5547 14.8848 16.7174 14.9206 16.8281 14.9727C16.9453 15.0247 17.0169 15.0996 17.043 15.1973C17.0755 15.2884 17.0885 15.4023 17.082 15.5391L16.9746 17.4434C16.9681 17.5671 16.9453 17.6647 16.9062 17.7363C16.8737 17.8079 16.8053 17.8633 16.7012 17.9023C16.597 17.9414 16.4505 17.9674 16.2617 17.9805C16.0729 17.9935 15.819 18 15.5 18C15.181 18 14.9271 17.9935 14.7383 17.9805C14.5495 17.9674 14.403 17.9414 14.2988 17.9023C14.2012 17.8633 14.1328 17.8079 14.0938 17.7363C14.0612 17.6647 14.0417 17.5671 14.0352 17.4434L13.918 15.5391ZM20.9773 15.5391C20.9643 15.4023 20.9741 15.2884 21.0066 15.1973C21.0392 15.0996 21.1108 15.0247 21.2215 14.9727C21.3322 14.9206 21.4949 14.8848 21.7098 14.8652C21.9246 14.8392 22.2078 14.8262 22.5594 14.8262C22.9109 14.8262 23.1909 14.8392 23.3992 14.8652C23.6141 14.8848 23.7768 14.9206 23.8875 14.9727C24.0047 15.0247 24.0763 15.0996 24.1023 15.1973C24.1349 15.2884 24.1479 15.4023 24.1414 15.5391L24.034 17.4434C24.0275 17.5671 24.0047 17.6647 23.9656 17.7363C23.9331 17.8079 23.8647 17.8633 23.7605 17.9023C23.6564 17.9414 23.5099 17.9674 23.3211 17.9805C23.1323 17.9935 22.8784 18 22.5594 18C22.2404 18 21.9865 17.9935 21.7977 17.9805C21.6089 17.9674 21.4624 17.9414 21.3582 17.9023C21.2605 17.8633 21.1922 17.8079 21.1531 17.7363C21.1206 17.6647 21.101 17.5671 21.0945 17.4434L20.9773 15.5391Z" fill="#2C5058"/>
</svg>
