<svg width="40" height="40" viewBox="0 0 40 40" fill="none" xmlns="http://www.w3.org/2000/svg">
<rect x="1" y="1" width="38" height="38" rx="3" stroke="#2C5058" stroke-width="2"/>
<g filter="url(#filter0_ii)">
<path d="M27.9269 19.2907C28.853 19.8309 28.853 21.1691 27.9269 21.7093L14.1054 29.7718C13.1721 30.3163 12 29.643 12 28.5625L12 12.4374C12 11.3569 13.1721 10.6837 14.1054 11.2282L27.9269 19.2907Z" fill="white"/>
</g>
<path d="M27.9269 19.2907C28.853 19.8309 28.853 21.1691 27.9269 21.7093L14.1054 29.7718C13.1721 30.3163 12 29.643 12 28.5625L12 12.4374C12 11.3569 13.1721 10.6837 14.1054 11.2282L27.9269 19.2907Z" stroke="#2C5058"/>
<defs>
<filter id="filter0_ii" x="10.5" y="9.53455" width="19.6215" height="21.9308" filterUnits="userSpaceOnUse" color-interpolation-filters="sRGB">
<feFlood flood-opacity="0" result="BackgroundImageFix"/>
<feBlend mode="normal" in="SourceGraphic" in2="BackgroundImageFix" result="shape"/>
<feColorMatrix in="SourceAlpha" type="matrix" values="0 0 0 0 0 0 0 0 0 0 0 0 0 0 0 0 0 0 127 0" result="hardAlpha"/>
<feOffset dx="1" dy="1"/>
<feGaussianBlur stdDeviation="1"/>
<feComposite in2="hardAlpha" operator="arithmetic" k2="-1" k3="1"/>
<feColorMatrix type="matrix" values="0 0 0 0 0 0 0 0 0 0 0 0 0 0 0 0 0 0 0.25 0"/>
<feBlend mode="normal" in2="shape" result="effect1_innerShadow"/>
<feColorMatrix in="SourceAlpha" type="matrix" values="0 0 0 0 0 0 0 0 0 0 0 0 0 0 0 0 0 0 127 0" result="hardAlpha"/>
<feOffset dx="-1" dy="-1"/>
<feGaussianBlur stdDeviation="1"/>
<feComposite in2="hardAlpha" operator="arithmetic" k2="-1" k3="1"/>
<feColorMatrix type="matrix" values="0 0 0 0 0 0 0 0 0 0 0 0 0 0 0 0 0 0 0.25 0"/>
<feBlend mode="normal" in2="effect1_innerShadow" result="effect2_innerShadow"/>
</filter>
</defs>
</svg>
