<svg width="38" height="38" viewBox="0 0 38 38" fill="none" xmlns="http://www.w3.org/2000/svg">
<path d="M36.2942 23.0329L34.0029 21.215C34.1183 20.4837 34.1767 19.7407 34.1767 19C34.1767 18.2593 34.1183 17.5161 34.0029 16.7849L36.2942 14.9669C37.0265 14.386 37.2135 13.3905 36.7394 12.6002L33.623 7.40048C33.2797 6.82581 32.6392 6.46884 31.9514 6.46884C31.7186 6.46884 31.4897 6.50912 31.2725 6.58802L28.491 7.59166C27.2834 6.65749 25.9475 5.91337 24.5095 5.374L24.0218 2.55573C23.8665 1.65433 23.0655 1 22.1169 1H15.8831C14.9346 1 14.1335 1.6544 13.9785 2.55524L13.4906 5.37393C12.0525 5.91344 10.7166 6.65748 9.50892 7.59173L6.73066 6.58928C6.51177 6.50927 6.28251 6.4687 6.0491 6.4687C5.36199 6.4687 4.72138 6.82546 4.37747 7.3997L1.26075 12.6C0.786408 13.3906 0.973548 14.3862 1.70576 14.967L3.99713 16.7849C3.88181 17.5162 3.82342 18.2593 3.82342 19C3.82342 19.7407 3.88181 20.4838 3.99713 21.2151L1.70576 23.0331C0.973548 23.614 0.786481 24.6095 1.26061 25.3998L4.37739 30.6003C4.7216 31.1748 5.36214 31.5317 6.0491 31.5317C6.28302 31.5317 6.51271 31.4909 6.72744 31.412L9.50878 30.4083C10.7165 31.3425 12.0524 32.0866 13.4903 32.626L13.978 35.4438C14.1329 36.3455 14.9341 37 15.8832 37H22.1169C23.0651 37 23.8662 36.3458 24.0216 35.4448L24.5094 32.6261C25.9476 32.0866 27.2835 31.3425 28.4911 30.4083L31.2698 31.411C31.4887 31.4909 31.718 31.5314 31.9512 31.5314C32.6381 31.5314 33.2785 31.1747 33.6226 30.6004L36.7394 25.4C37.2135 24.6093 37.0264 23.6138 36.2942 23.0329ZM22.1169 35.5306H18.2358V32.0553C18.2358 31.6495 17.8944 31.3206 17.4732 31.3206C17.052 31.3206 16.7105 31.6495 16.7105 32.0553V35.5306H15.9134V27.4729C16.9064 27.8135 17.9615 27.9915 19.042 27.992H19.0471C20.1311 27.992 21.1874 27.8142 22.1803 27.4734V35.5252C22.1595 35.5283 22.1385 35.5306 22.1169 35.5306ZM19.0469 26.5226H19.0427C14.7391 26.5206 11.2379 23.1458 11.238 18.9999C11.2381 16.5872 12.4186 14.3723 14.388 12.9709V18.3308C14.388 18.5889 14.5286 18.828 14.7583 18.9608L18.6544 21.2127C18.8959 21.3522 19.1976 21.3522 19.4392 21.2127L23.3353 18.9608C23.565 18.8279 23.7056 18.5888 23.7056 18.3308V12.9709C25.675 14.3723 26.8556 16.5872 26.8555 19C26.8555 21.0059 26.0422 22.894 24.5656 24.3166C23.0889 25.7392 21.129 26.5226 19.0469 26.5226ZM35.4185 24.6651L32.3015 29.8657C32.2048 30.0272 32.0007 30.1064 31.8075 30.0359L28.6127 28.883C28.3531 28.7894 28.0613 28.8387 27.8504 29.0119C26.6151 30.0264 25.2209 30.8112 23.7054 31.3472V26.7924C24.405 26.4021 25.0566 25.9215 25.644 25.3556C27.4087 23.6555 28.3806 21.3984 28.3806 19C28.3807 15.608 26.4298 12.5431 23.289 11.0017C23.0526 10.8856 22.7706 10.8963 22.5443 11.0299C22.3182 11.1635 22.1802 11.4007 22.1802 11.6563V17.9149L19.0467 19.726L15.9132 17.9149V11.6563C15.9132 11.4007 15.7753 11.1635 15.5491 11.0299C15.3229 10.8963 15.0409 10.8857 14.8044 11.0017C11.6637 12.5431 9.71278 15.6078 9.71263 18.9999C9.71256 21.4427 10.704 23.7216 12.5042 25.4166C13.0777 25.9566 13.7107 26.4171 14.3879 26.7936V31.3805C12.8364 30.844 11.4104 30.0475 10.1495 29.0121C10.0092 28.8969 9.83321 28.8365 9.65461 28.8365C9.56469 28.8365 9.47411 28.8518 9.38725 28.8832L6.18821 30.0377C6.14347 30.0541 6.09661 30.0625 6.04917 30.0625C5.90546 30.0625 5.77109 29.9872 5.69847 29.8659L2.58146 24.665C2.48183 24.499 2.52147 24.2897 2.67547 24.1675L5.30674 22.0797C5.5203 21.9102 5.6219 21.6426 5.57205 21.3805C5.42389 20.5986 5.34864 19.7978 5.34864 19C5.34864 18.2022 5.42381 17.4014 5.5722 16.6196C5.6219 16.3574 5.52045 16.0898 5.30682 15.9205L2.67554 13.8328C2.52139 13.7105 2.48183 13.5012 2.58161 13.335L5.69854 8.13426C5.7951 7.97296 5.99845 7.89316 6.19259 7.96417L9.3874 9.11702C9.64687 9.21053 9.93875 9.16131 10.1497 8.98813C11.4209 7.9442 12.8596 7.14285 14.4259 6.60623C14.6869 6.51679 14.8772 6.29812 14.9226 6.03487L15.4831 2.79634C15.5157 2.60692 15.684 2.46946 15.8832 2.46946H22.1169C22.3162 2.46946 22.4845 2.60692 22.5173 2.79684L23.0777 6.03494C23.1233 6.29819 23.3135 6.517 23.5745 6.6063C25.1407 7.14285 26.5794 7.94413 27.8505 8.98806C28.0615 9.16124 28.3533 9.2106 28.6128 9.11695L31.8092 7.96347C31.8553 7.94673 31.9032 7.9383 31.9516 7.9383C32.0953 7.9383 32.2293 8.01311 32.3018 8.1344L35.4188 13.3352C35.5184 13.5012 35.4788 13.7105 35.3248 13.8327L32.6934 15.9205C32.4798 16.09 32.3782 16.3574 32.4281 16.6196C32.5763 17.4014 32.6515 18.2023 32.6515 19.0001C32.6515 19.7978 32.5763 20.5986 32.4279 21.3804C32.3782 21.6425 32.4797 21.9102 32.6933 22.0795L35.3246 24.1672C35.4787 24.2894 35.5182 24.4988 35.4185 24.6651Z" fill="white" fill-opacity="0.8"/>
<path d="M35.4185 24.6651L32.3015 29.8657C32.2048 30.0272 32.0007 30.1064 31.8075 30.0359L28.6127 28.883C28.3531 28.7894 28.0613 28.8387 27.8504 29.0119C26.6151 30.0264 25.2209 30.8112 23.7054 31.3472V26.7924C24.405 26.4021 25.0566 25.9215 25.644 25.3556C27.4087 23.6555 28.3806 21.3984 28.3806 19C28.3807 15.608 26.4298 12.5431 23.289 11.0017C23.0526 10.8856 22.7706 10.8963 22.5443 11.0299C22.3182 11.1635 22.1802 11.4007 22.1802 11.6563V17.9149L19.0467 19.726L15.9132 17.9149V11.6563C15.9132 11.4007 15.7753 11.1635 15.5491 11.0299C15.3229 10.8963 15.0409 10.8857 14.8044 11.0017C11.6637 12.5431 9.71278 15.6078 9.71263 18.9999C9.71256 21.4427 10.704 23.7216 12.5042 25.4166C13.0777 25.9566 13.7107 26.4171 14.3879 26.7936V31.3805C12.8364 30.844 11.4104 30.0475 10.1495 29.0121C10.0092 28.8969 9.83321 28.8365 9.65461 28.8365C9.56469 28.8365 9.47411 28.8518 9.38725 28.8832L6.18821 30.0377C6.14347 30.0541 6.09661 30.0625 6.04917 30.0625C5.90546 30.0625 5.77109 29.9872 5.69847 29.8659L2.58146 24.665C2.48183 24.499 2.52147 24.2897 2.67547 24.1675L5.30674 22.0797C5.5203 21.9102 5.6219 21.6426 5.57205 21.3805C5.42389 20.5986 5.34864 19.7978 5.34864 19C5.34864 18.2022 5.42381 17.4014 5.5722 16.6196C5.6219 16.3574 5.52045 16.0898 5.30682 15.9205L2.67554 13.8328C2.52139 13.7105 2.48183 13.5012 2.58161 13.335L5.69854 8.13426C5.7951 7.97296 5.99845 7.89316 6.19259 7.96417L9.3874 9.11702C9.64687 9.21053 9.93875 9.16131 10.1497 8.98813C11.4209 7.9442 12.8596 7.14285 14.4259 6.60623C14.6869 6.51679 14.8772 6.29812 14.9226 6.03487L15.4831 2.79634C15.5157 2.60692 15.684 2.46946 15.8832 2.46946H22.1169C22.3162 2.46946 22.4845 2.60692 22.5173 2.79684L23.0777 6.03494C23.1233 6.29819 23.3135 6.517 23.5745 6.6063C25.1407 7.14285 26.5794 7.94413 27.8505 8.98806C28.0615 9.16124 28.3533 9.2106 28.6128 9.11695L31.8092 7.96347C31.8553 7.94673 31.9032 7.9383 31.9516 7.9383C32.0953 7.9383 32.2293 8.01311 32.3018 8.1344L35.4188 13.3352C35.5184 13.5012 35.4788 13.7105 35.3248 13.8327L32.6934 15.9205C32.4798 16.09 32.3782 16.3574 32.4281 16.6196C32.5763 17.4014 32.6515 18.2023 32.6515 19.0001C32.6515 19.7978 32.5763 20.5986 32.4279 21.3804C32.3782 21.6425 32.4797 21.9102 32.6933 22.0795L35.3246 24.1672C35.4787 24.2894 35.5182 24.4988 35.4185 24.6651Z" fill="white" fill-opacity="0.8"/>
<path d="M36.2942 23.0329L34.0029 21.215C34.1183 20.4837 34.1767 19.7407 34.1767 19C34.1767 18.2593 34.1183 17.5161 34.0029 16.7849L36.2942 14.9669C37.0265 14.386 37.2135 13.3905 36.7394 12.6002L33.623 7.40048C33.2797 6.82581 32.6392 6.46884 31.9514 6.46884C31.7186 6.46884 31.4897 6.50912 31.2725 6.58802L28.491 7.59166C27.2834 6.65749 25.9475 5.91337 24.5095 5.374L24.0218 2.55573C23.8665 1.65433 23.0655 1 22.1169 1H15.8831C14.9346 1 14.1335 1.6544 13.9785 2.55524L13.4906 5.37393C12.0525 5.91344 10.7166 6.65748 9.50892 7.59173L6.73066 6.58928C6.51177 6.50927 6.28251 6.4687 6.0491 6.4687C5.36199 6.4687 4.72138 6.82546 4.37747 7.3997L1.26075 12.6C0.786408 13.3906 0.973548 14.3862 1.70576 14.967L3.99713 16.7849C3.88181 17.5162 3.82342 18.2593 3.82342 19C3.82342 19.7407 3.88181 20.4838 3.99713 21.2151L1.70576 23.0331C0.973548 23.614 0.786481 24.6095 1.26061 25.3998L4.37739 30.6003C4.7216 31.1748 5.36214 31.5317 6.0491 31.5317C6.28302 31.5317 6.51271 31.4909 6.72744 31.412L9.50878 30.4083C10.7165 31.3425 12.0524 32.0866 13.4903 32.626L13.978 35.4438C14.1329 36.3455 14.9341 37 15.8832 37H22.1169C23.0651 37 23.8662 36.3458 24.0216 35.4448L24.5094 32.6261C25.9476 32.0866 27.2835 31.3425 28.4911 30.4083L31.2698 31.411C31.4887 31.4909 31.718 31.5314 31.9512 31.5314C32.6381 31.5314 33.2785 31.1747 33.6226 30.6004L36.7394 25.4C37.2135 24.6093 37.0264 23.6138 36.2942 23.0329ZM22.1169 35.5306H18.2358V32.0553C18.2358 31.6495 17.8944 31.3206 17.4732 31.3206C17.052 31.3206 16.7105 31.6495 16.7105 32.0553V35.5306H15.9134V27.4729C16.9064 27.8135 17.9615 27.9915 19.042 27.992H19.0471C20.1311 27.992 21.1874 27.8142 22.1803 27.4734V35.5252C22.1595 35.5283 22.1385 35.5306 22.1169 35.5306ZM19.0469 26.5226H19.0427C14.7391 26.5206 11.2379 23.1458 11.238 18.9999C11.2381 16.5872 12.4186 14.3723 14.388 12.9709V18.3308C14.388 18.5889 14.5286 18.828 14.7583 18.9608L18.6544 21.2127C18.8959 21.3522 19.1976 21.3522 19.4392 21.2127L23.3353 18.9608C23.565 18.8279 23.7056 18.5888 23.7056 18.3308V12.9709C25.675 14.3723 26.8556 16.5872 26.8555 19C26.8555 21.0059 26.0422 22.894 24.5656 24.3166C23.0889 25.7392 21.129 26.5226 19.0469 26.5226ZM35.4185 24.6651L32.3015 29.8657C32.2048 30.0272 32.0007 30.1064 31.8075 30.0359L28.6127 28.883C28.3531 28.7894 28.0613 28.8387 27.8504 29.0119C26.6151 30.0264 25.2209 30.8112 23.7054 31.3472V26.7924C24.405 26.4021 25.0566 25.9215 25.644 25.3556C27.4087 23.6555 28.3806 21.3984 28.3806 19C28.3807 15.608 26.4298 12.5431 23.289 11.0017C23.0526 10.8856 22.7706 10.8963 22.5443 11.0299C22.3182 11.1635 22.1802 11.4007 22.1802 11.6563V17.9149L19.0467 19.726L15.9132 17.9149V11.6563C15.9132 11.4007 15.7753 11.1635 15.5491 11.0299C15.3229 10.8963 15.0409 10.8857 14.8044 11.0017C11.6637 12.5431 9.71278 15.6078 9.71263 18.9999C9.71256 21.4427 10.704 23.7216 12.5042 25.4166C13.0777 25.9566 13.7107 26.4171 14.3879 26.7936V31.3805C12.8364 30.844 11.4104 30.0475 10.1495 29.0121C10.0092 28.8969 9.83321 28.8365 9.65461 28.8365C9.56469 28.8365 9.47411 28.8518 9.38725 28.8832L6.18821 30.0377C6.14347 30.0541 6.09661 30.0625 6.04917 30.0625C5.90546 30.0625 5.77109 29.9872 5.69847 29.8659L2.58146 24.665C2.48183 24.499 2.52147 24.2897 2.67547 24.1675L5.30674 22.0797C5.5203 21.9102 5.6219 21.6426 5.57205 21.3805C5.42389 20.5986 5.34864 19.7978 5.34864 19C5.34864 18.2022 5.42381 17.4014 5.5722 16.6196C5.6219 16.3574 5.52045 16.0898 5.30682 15.9205L2.67554 13.8328C2.52139 13.7105 2.48183 13.5012 2.58161 13.335L5.69854 8.13426C5.7951 7.97296 5.99845 7.89316 6.19259 7.96417L9.3874 9.11702C9.64687 9.21053 9.93875 9.16131 10.1497 8.98813C11.4209 7.9442 12.8596 7.14285 14.4259 6.60623C14.6869 6.51679 14.8772 6.29812 14.9226 6.03487L15.4831 2.79634C15.5157 2.60692 15.684 2.46946 15.8832 2.46946H22.1169C22.3162 2.46946 22.4845 2.60692 22.5173 2.79684L23.0777 6.03494C23.1233 6.29819 23.3135 6.517 23.5745 6.6063C25.1407 7.14285 26.5794 7.94413 27.8505 8.98806C28.0615 9.16124 28.3533 9.2106 28.6128 9.11695L31.8092 7.96347C31.8553 7.94673 31.9032 7.9383 31.9516 7.9383C32.0953 7.9383 32.2293 8.01311 32.3018 8.1344L35.4188 13.3352C35.5184 13.5012 35.4788 13.7105 35.3248 13.8327L32.6934 15.9205C32.4798 16.09 32.3782 16.3574 32.4281 16.6196C32.5763 17.4014 32.6515 18.2023 32.6515 19.0001C32.6515 19.7978 32.5763 20.5986 32.4279 21.3804C32.3782 21.6425 32.4797 21.9102 32.6933 22.0795L35.3246 24.1672C35.4787 24.2894 35.5182 24.4988 35.4185 24.6651Z" stroke="#2F306F" stroke-width="0.75"/>
<path d="M35.4185 24.6651L32.3015 29.8657C32.2048 30.0272 32.0007 30.1064 31.8075 30.0359L28.6127 28.883C28.3531 28.7894 28.0613 28.8387 27.8504 29.0119C26.6151 30.0264 25.2209 30.8112 23.7054 31.3472V26.7924C24.405 26.4021 25.0566 25.9215 25.644 25.3556C27.4087 23.6555 28.3806 21.3984 28.3806 19C28.3807 15.608 26.4298 12.5431 23.289 11.0017C23.0526 10.8856 22.7706 10.8963 22.5443 11.0299C22.3182 11.1635 22.1802 11.4007 22.1802 11.6563V17.9149L19.0467 19.726L15.9132 17.9149V11.6563C15.9132 11.4007 15.7753 11.1635 15.5491 11.0299C15.3229 10.8963 15.0409 10.8857 14.8044 11.0017C11.6637 12.5431 9.71278 15.6078 9.71263 18.9999C9.71256 21.4427 10.704 23.7216 12.5042 25.4166C13.0777 25.9566 13.7107 26.4171 14.3879 26.7936V31.3805C12.8364 30.844 11.4104 30.0475 10.1495 29.0121C10.0092 28.8969 9.83321 28.8365 9.65461 28.8365C9.56469 28.8365 9.47411 28.8518 9.38725 28.8832L6.18821 30.0377C6.14347 30.0541 6.09661 30.0625 6.04917 30.0625C5.90546 30.0625 5.77109 29.9872 5.69847 29.8659L2.58146 24.665C2.48183 24.499 2.52147 24.2897 2.67547 24.1675L5.30674 22.0797C5.5203 21.9102 5.6219 21.6426 5.57205 21.3805C5.42389 20.5986 5.34864 19.7978 5.34864 19C5.34864 18.2022 5.42381 17.4014 5.5722 16.6196C5.6219 16.3574 5.52045 16.0898 5.30682 15.9205L2.67554 13.8328C2.52139 13.7105 2.48183 13.5012 2.58161 13.335L5.69854 8.13426C5.7951 7.97296 5.99845 7.89316 6.19259 7.96417L9.3874 9.11702C9.64687 9.21053 9.93875 9.16131 10.1497 8.98813C11.4209 7.9442 12.8596 7.14285 14.4259 6.60623C14.6869 6.51679 14.8772 6.29812 14.9226 6.03487L15.4831 2.79634C15.5157 2.60692 15.684 2.46946 15.8832 2.46946H22.1169C22.3162 2.46946 22.4845 2.60692 22.5173 2.79684L23.0777 6.03494C23.1233 6.29819 23.3135 6.517 23.5745 6.6063C25.1407 7.14285 26.5794 7.94413 27.8505 8.98806C28.0615 9.16124 28.3533 9.2106 28.6128 9.11695L31.8092 7.96347C31.8553 7.94673 31.9032 7.9383 31.9516 7.9383C32.0953 7.9383 32.2293 8.01311 32.3018 8.1344L35.4188 13.3352C35.5184 13.5012 35.4788 13.7105 35.3248 13.8327L32.6934 15.9205C32.4798 16.09 32.3782 16.3574 32.4281 16.6196C32.5763 17.4014 32.6515 18.2023 32.6515 19.0001C32.6515 19.7978 32.5763 20.5986 32.4279 21.3804C32.3782 21.6425 32.4797 21.9102 32.6933 22.0795L35.3246 24.1672C35.4787 24.2894 35.5182 24.4988 35.4185 24.6651Z" stroke="#2F306F" stroke-width="0.75"/>
</svg>
