<svg width="36" height="36" viewBox="0 0 36 36" fill="none" xmlns="http://www.w3.org/2000/svg">
<path d="M8 6.0989C8 4.93971 9.22994 4 10.7473 4H25.2527C26.7701 4 28 4.93971 28 6.0989V29.1868C28 30.346 26.7701 31.2857 25.2527 31.2857H10.7473C9.22994 31.2857 8 30.346 8 29.1868V6.0989Z" stroke="white" stroke-width="1.2" stroke-linecap="round" stroke-linejoin="round"/>
<path d="M10.27 17.1743C10.27 17.5607 10.68 17.8739 11.1858 17.8739H25.2439C25.7497 17.8739 26.1597 17.5607 26.1597 17.1743V7.59002C26.1597 7.20361 25.7497 6.89038 25.2439 6.89038H22.1872H20.2011H18.2148H16.2286H14.2425H11.1858C10.68 6.89038 10.27 7.20361 10.27 7.59002V17.1743Z" fill="white"/>
<path d="M20.8635 5.15625H16.3235C15.9057 5.15625 15.5669 5.41507 15.5669 5.73433C15.5669 6.0536 15.9057 6.31242 16.3235 6.31242H20.8635C21.2814 6.31242 21.6201 6.0536 21.6201 5.73433C21.6201 5.41507 21.2814 5.15625 20.8635 5.15625Z" fill="white"/>
<path d="M25.244 19.03H11.1858C10.68 19.03 10.27 19.3433 10.27 19.7297V27.5797C10.27 27.9661 10.68 28.2793 11.1858 28.2793H25.244C25.7498 28.2793 26.1598 27.9661 26.1598 27.5797V19.7297C26.1598 19.3433 25.7498 19.03 25.244 19.03Z" fill="white"/>
</svg>
