<svg width="48" height="48" viewBox="0 0 48 48" fill="none" xmlns="http://www.w3.org/2000/svg">
<rect x="15.1428" y="5" width="16.7143" height="1.34483" fill="white"/>
<rect x="15.1428" y="7.68958" width="16.7143" height="2.68966" fill="white"/>
<rect x="15.1428" y="11.7241" width="16.7143" height="5.37931" fill="white"/>
<path d="M15.1429 18.4483H31.8571V27.8621H43L31.8571 37.2759L23.5 44L15.1429 37.2759L4 27.8621H15.1429V18.4483Z" fill="white"/>
<path d="M16.8573 27.2495C16.8495 26.9565 16.8983 26.6889 17.0037 26.4467C17.1092 26.2045 17.2752 25.9975 17.5018 25.8256C17.7323 25.6537 18.0272 25.5209 18.3866 25.4272C18.7498 25.3295 19.1854 25.2807 19.6932 25.2807C20.1971 25.2807 20.6287 25.3295 20.9881 25.4272C21.3514 25.5209 21.6483 25.6537 21.8787 25.8256C22.1092 25.9975 22.2772 26.2045 22.3827 26.4467C22.4881 26.6889 22.537 26.9565 22.5291 27.2495L22.4588 30.0971C22.4549 30.2143 22.4373 30.31 22.4061 30.3842C22.3748 30.4545 22.3221 30.5092 22.2479 30.5483C22.1737 30.5834 22.0741 30.6069 21.9491 30.6186C21.828 30.6303 21.6776 30.6362 21.4979 30.6362C21.3143 30.6362 21.162 30.6303 21.0409 30.6186C20.9198 30.6069 20.8221 30.5834 20.7479 30.5483C20.6776 30.5092 20.6268 30.4545 20.5955 30.3842C20.5643 30.31 20.5467 30.2143 20.5428 30.0971L20.4666 27.0678C20.4627 26.8959 20.4432 26.7592 20.408 26.6577C20.3729 26.5561 20.3221 26.478 20.2557 26.4233C20.1932 26.3686 20.1151 26.3334 20.0213 26.3178C19.9276 26.2983 19.8182 26.2885 19.6932 26.2885C19.5682 26.2885 19.4588 26.2983 19.3651 26.3178C19.2713 26.3334 19.1912 26.3686 19.1248 26.4233C19.0623 26.478 19.0135 26.5561 18.9784 26.6577C18.9432 26.7592 18.9237 26.8959 18.9198 27.0678L18.7498 33.5131C18.7459 33.6772 18.7596 33.8139 18.7909 33.9233C18.826 34.0327 18.8807 34.1205 18.9549 34.187C19.033 34.2495 19.1327 34.2944 19.2537 34.3217C19.3748 34.3491 19.5213 34.3627 19.6932 34.3627C19.8651 34.3627 20.0116 34.3491 20.1327 34.3217C20.2577 34.2944 20.3573 34.2495 20.4315 34.187C20.5096 34.1205 20.5643 34.0327 20.5955 33.9233C20.6268 33.8139 20.6405 33.6772 20.6366 33.5131L20.6131 32.8159C20.6092 32.6987 20.6209 32.6049 20.6483 32.5346C20.6795 32.4604 20.7303 32.4057 20.8006 32.3705C20.8748 32.3315 20.9725 32.3061 21.0936 32.2944C21.2147 32.2827 21.3651 32.2768 21.5448 32.2768C21.7205 32.2768 21.8631 32.2827 21.9725 32.2944C22.0858 32.3061 22.1717 32.3315 22.2303 32.3705C22.2928 32.4057 22.3338 32.4604 22.3534 32.5346C22.3729 32.6049 22.3807 32.6987 22.3768 32.8159L22.3592 33.4721C22.3514 33.726 22.2967 33.9662 22.1952 34.1928C22.0936 34.4155 21.9354 34.6108 21.7205 34.7787C21.5096 34.9467 21.2362 35.0795 20.9002 35.1772C20.5682 35.2709 20.1659 35.3178 19.6932 35.3178C19.2205 35.3178 18.8162 35.269 18.4803 35.1713C18.1444 35.0737 17.869 34.9409 17.6541 34.7729C17.4432 34.6049 17.287 34.4077 17.1854 34.1811C17.0838 33.9545 17.0291 33.7143 17.0213 33.4604L16.8573 27.2495ZM23.3729 25.8315C23.3495 25.7338 23.3475 25.6537 23.367 25.5912C23.3905 25.5287 23.4393 25.4799 23.5135 25.4448C23.5916 25.4057 23.701 25.3803 23.8416 25.3686C23.9823 25.353 24.162 25.3452 24.3807 25.3452C24.6268 25.3452 24.8202 25.353 24.9608 25.3686C25.1053 25.3803 25.2147 25.4037 25.2889 25.4389C25.367 25.4741 25.4198 25.5248 25.4471 25.5912C25.4745 25.6537 25.494 25.7338 25.5057 25.8315L26.408 32.9096H26.5955L27.4745 25.8315C27.4862 25.7338 27.5037 25.6537 27.5272 25.5912C27.5545 25.5248 27.6034 25.4741 27.6737 25.4389C27.7479 25.4037 27.8514 25.3803 27.9842 25.3686C28.1209 25.353 28.3065 25.3452 28.5409 25.3452C28.7596 25.3452 28.9393 25.353 29.0799 25.3686C29.2205 25.3803 29.328 25.4057 29.4022 25.4448C29.4803 25.4799 29.5291 25.5287 29.5487 25.5912C29.5682 25.6537 29.5682 25.7338 29.5487 25.8315L27.5975 34.8491C27.5741 34.935 27.5428 35.0053 27.5037 35.06C27.4686 35.1108 27.412 35.1498 27.3338 35.1772C27.2557 35.2045 27.1502 35.2241 27.0174 35.2358C26.8885 35.2436 26.7205 35.2475 26.5135 35.2475C26.2948 35.2475 26.117 35.2436 25.9803 35.2358C25.8436 35.2241 25.7342 35.2045 25.6522 35.1772C25.5702 35.1498 25.5077 35.1108 25.4647 35.06C25.4256 35.0053 25.3944 34.935 25.3709 34.8491L23.3729 25.8315Z" fill="black"/>
</svg>
