<svg width="48" height="48" viewBox="0 0 48 48" fill="none" xmlns="http://www.w3.org/2000/svg">
<path d="M38 34.9999L10 34.9999M38 34.9999L38 16.5999M38 34.9999L27.3939 26.1832M10 34.9999L10 16.5999M10 34.9999L20.6061 26.1832M10 16.5999L38 16.5999M10 16.5999L24 29.2499M10 16.5999L20.6061 26.1832M38 16.5999L24 29.2499M38 16.5999L27.3939 26.1832M27.3939 26.1832L24 29.2499M24 29.2499L20.6061 26.1832" stroke="white" stroke-width="2.4" stroke-linejoin="round"/>
<rect x="26.8759" y="22.0758" width="5.75172" height="0.248276" transform="rotate(-180 26.8759 22.0758)" fill="white" stroke="white" stroke-width="0.248276"/>
<rect x="26.7517" y="20.9586" width="5.50345" height="0.496552" transform="rotate(-180 26.7517 20.9586)" fill="white" stroke="white" stroke-width="0.496552"/>
<rect x="26.5034" y="19.2206" width="5.0069" height="0.993104" transform="rotate(-180 26.5034 19.2206)" fill="white" stroke="white" stroke-width="0.993104"/>
<path d="M26.6766 10.664L29.6623 13.2585L27 13.2585L26.5 13.2585L26.5 13.7585L26.5 16.7344L21.5 16.7344L21.5 13.7585L21.5 13.2585L21 13.2585L18.3377 13.2585L21.3234 10.664L24 8.44891L26.6766 10.664Z" fill="white" stroke="white"/>
</svg>
