<svg width="28" height="28" viewBox="0 0 28 28" fill="none" xmlns="http://www.w3.org/2000/svg">
<path d="M13.5439 10.0469C13.2568 10.0469 13.0254 10.041 12.8496 10.0293C12.6797 10.0176 12.5479 9.99414 12.4541 9.95898C12.3662 9.92383 12.3047 9.87402 12.2695 9.80957C12.2402 9.74512 12.2256 9.65723 12.2256 9.5459L12.1201 7.83203C12.1201 7.70898 12.1318 7.60645 12.1553 7.52441C12.1846 7.43652 12.249 7.36914 12.3486 7.32227C12.4482 7.27539 12.5918 7.24316 12.7793 7.22559C12.9727 7.20215 13.2275 7.19043 13.5439 7.19043C13.8604 7.19043 14.1123 7.20215 14.2998 7.22559C14.4932 7.24316 14.6396 7.27539 14.7393 7.32227C14.8389 7.36914 14.9004 7.43652 14.9238 7.52441C14.9531 7.60645 14.9678 7.70898 14.9678 7.83203L14.8711 9.5459C14.8711 9.65723 14.8535 9.74512 14.8184 9.80957C14.7891 9.87402 14.7275 9.92383 14.6338 9.95898C14.54 9.99414 14.4053 10.0176 14.2295 10.0293C14.0596 10.041 13.8311 10.0469 13.5439 10.0469ZM12.0674 12.0771C12.0674 11.9541 12.0791 11.8516 12.1025 11.7695C12.1318 11.6816 12.1963 11.6143 12.2959 11.5674C12.3955 11.5205 12.5391 11.4883 12.7266 11.4707C12.9199 11.4473 13.1748 11.4355 13.4912 11.4355C13.8076 11.4355 14.0596 11.4473 14.2471 11.4707C14.4404 11.4883 14.5869 11.5205 14.6865 11.5674C14.7861 11.6143 14.8477 11.6816 14.8711 11.7695C14.9004 11.8516 14.915 11.9541 14.915 12.0771L14.6426 21.499C14.6426 21.6104 14.6279 21.6982 14.5986 21.7627C14.5693 21.8271 14.5137 21.877 14.4316 21.9121C14.3496 21.9473 14.2324 21.9707 14.0801 21.9824C13.9336 21.9941 13.7373 22 13.4912 22C13.2451 22 13.0459 21.9941 12.8936 21.9824C12.7471 21.9707 12.6328 21.9473 12.5508 21.9121C12.4746 21.877 12.4219 21.8271 12.3926 21.7627C12.3633 21.6982 12.3486 21.6104 12.3486 21.499L12.0674 12.0771Z" fill="white"/>
</svg>
