<svg width="48" height="48" viewBox="0 0 48 48" fill="none" xmlns="http://www.w3.org/2000/svg">
<path d="M46.2139 29.3772L43.2708 26.9533C43.4189 25.9783 43.4939 24.9876 43.4939 24C43.4939 23.0124 43.4189 22.0215 43.2707 21.0465L46.2139 18.6225C47.1544 17.8479 47.3947 16.5206 46.7857 15.4669L42.7828 8.53397C42.3418 7.76775 41.5192 7.29178 40.6357 7.29178C40.3366 7.29178 40.0426 7.3455 39.7636 7.45069L36.1909 8.78888C34.6397 7.54331 32.9239 6.55116 31.0768 5.832L30.4503 2.07431C30.2509 0.872437 29.222 0 28.0035 0H19.9965C18.7782 0 17.7492 0.872531 17.55 2.07366L16.9234 5.83191C15.0763 6.55125 13.3603 7.54331 11.8091 8.78897L8.24047 7.45237C7.95932 7.34569 7.66485 7.29159 7.36504 7.29159C6.48247 7.29159 5.65963 7.76728 5.21788 8.53294L1.21457 15.4667C0.605286 16.5208 0.845661 17.8482 1.78616 18.6227L4.72935 21.0466C4.58122 22.0216 4.50622 23.0124 4.50622 24C4.50622 24.9876 4.58122 25.9784 4.72935 26.9534L1.78616 29.3774C0.845661 30.152 0.60538 31.4793 1.21438 32.533L5.21779 39.4671C5.65991 40.2331 6.48266 40.709 7.36504 40.709C7.6655 40.709 7.96054 40.6545 8.23635 40.5493L11.8089 39.211C13.3602 40.4567 15.0761 41.4488 16.923 42.168L17.5495 45.925C17.7484 47.1274 18.7775 48 19.9966 48H28.0036C29.2215 48 30.2505 47.1277 30.4501 45.9264L31.0767 42.1681C32.924 41.4487 34.6399 40.4567 36.1911 39.211L39.7602 40.548C40.0413 40.6546 40.3359 40.7086 40.6354 40.7086C41.5177 40.7086 42.3403 40.2329 42.7823 39.4673L46.7857 32.5333C47.3947 31.479 47.1543 30.1518 46.2139 29.3772ZM28.0035 46.0408H23.0185V41.407C23.0185 40.866 22.5799 40.4274 22.0389 40.4274C21.4978 40.4274 21.0593 40.866 21.0593 41.407V46.0408H20.0353V35.2972C21.3109 35.7514 22.6661 35.9887 24.0539 35.9893C24.0542 35.9893 24.0601 35.9893 24.0605 35.9893C25.4529 35.9893 26.8097 35.7523 28.085 35.2978V46.0336H28.0851C28.0584 46.0377 28.0313 46.0408 28.0035 46.0408ZM24.0602 34.0301H24.0549C18.527 34.0274 14.0299 29.5277 14.03 23.9998C14.0301 20.7829 15.5464 17.8298 18.0761 15.9612V23.1077C18.0761 23.4518 18.2566 23.7707 18.5517 23.9477L23.5561 26.9502C23.8663 27.1362 24.2539 27.1362 24.5641 26.9502L29.5686 23.9477C29.8636 23.7706 30.0442 23.4517 30.0442 23.1077V15.9612C32.5738 17.8298 34.0903 20.783 34.0902 24C34.0902 26.6745 33.0455 29.1921 31.1488 31.0888C29.2521 32.9856 26.7346 34.0301 24.0602 34.0301ZM45.089 31.5534L41.0854 38.4877C40.9611 38.7029 40.699 38.8086 40.4508 38.7145L36.3472 37.1773C36.0137 37.0525 35.6389 37.1182 35.3681 37.3492C33.7813 38.7019 31.9906 39.7482 30.044 40.4629V34.3898C30.9426 33.8694 31.7796 33.2287 32.534 32.4742C34.8008 30.2073 36.0492 27.1978 36.0492 24C36.0493 19.4773 33.5433 15.3908 29.5092 13.3356C29.2055 13.1808 28.8433 13.1951 28.5526 13.3732C28.2621 13.5513 28.0849 13.8676 28.0849 14.2084V22.5532L24.06 24.9681L20.0352 22.5532V14.2084C20.0352 13.8676 19.858 13.5513 19.5674 13.3732C19.2769 13.1951 18.9147 13.181 18.6109 13.3356C14.5768 15.3908 12.0709 19.4771 12.0707 23.9998C12.0706 27.257 13.3441 30.2955 15.6564 32.5554C16.3931 33.2754 17.2061 33.8895 18.076 34.3915V40.5073C16.083 39.792 14.2514 38.73 12.6318 37.3494C12.4516 37.1959 12.2256 37.1153 11.9962 37.1153C11.8807 37.1153 11.7643 37.1357 11.6528 37.1776L7.54372 38.7169C7.48626 38.7388 7.42607 38.75 7.36513 38.75C7.18054 38.75 7.00794 38.6496 6.91466 38.4878L2.91097 31.5533C2.783 31.332 2.83391 31.053 3.03172 30.89L6.4115 28.1062C6.68582 27.8802 6.81632 27.5235 6.75229 27.174C6.56197 26.1315 6.46532 25.0638 6.46532 24C6.46532 22.9363 6.56188 21.8685 6.75247 20.8262C6.81632 20.4766 6.686 20.1198 6.4116 19.8939L3.03182 17.1104C2.83382 16.9473 2.783 16.6683 2.91116 16.4467L6.91476 9.51234C7.03879 9.29728 7.29997 9.19087 7.54935 9.28556L11.653 10.8227C11.9863 10.9474 12.3612 10.8818 12.6321 10.6508C14.2649 9.25894 16.1129 8.19047 18.1248 7.47497C18.4601 7.35572 18.7044 7.06416 18.7628 6.71316L19.4827 2.39513C19.5245 2.14256 19.7407 1.95928 19.9966 1.95928H28.0036C28.2596 1.95928 28.4758 2.14256 28.5178 2.39578L29.2378 6.71325C29.2963 7.06425 29.5406 7.356 29.8758 7.47506C31.8876 8.19047 33.7355 9.25884 35.3683 10.6508C35.6392 10.8817 36.014 10.9475 36.3474 10.8226L40.4531 9.28463C40.5122 9.26231 40.5737 9.25106 40.6359 9.25106C40.8206 9.25106 40.9926 9.35081 41.0857 9.51253L45.0894 16.4469C45.2173 16.6683 45.1664 16.9473 44.9686 17.1103L41.5888 19.8939C41.3144 20.12 41.1839 20.4766 41.248 20.8262C41.4383 21.8685 41.5349 22.9364 41.5349 24.0001C41.5349 25.0638 41.4384 26.1315 41.2478 27.1738C41.1839 27.5233 41.3143 27.8802 41.5887 28.1061L44.9684 30.8896C45.1663 31.0525 45.2172 31.3317 45.089 31.5534Z" fill="#444444"/>
</svg>
