<svg width="48" height="48" viewBox="0 0 48 48" fill="none" xmlns="http://www.w3.org/2000/svg">
<path d="M13 7.99997C13 6.34311 14.3431 4.99997 16 4.99997L31.84 4.99997C33.4969 4.99997 34.84 6.34312 34.84 7.99997V41C34.84 42.6568 33.4969 44 31.84 44H16C14.3431 44 13 42.6568 13 41L13 7.99997Z" stroke="#A3B2E9" stroke-width="2" stroke-linecap="round" stroke-linejoin="round"/>
<path d="M15.4788 23.8303C15.4788 24.3826 15.9265 24.8303 16.4788 24.8303H31.8303C32.3826 24.8303 32.8303 24.3826 32.8303 23.8303V10.1313C32.8303 9.579 32.3826 9.13129 31.8303 9.13129H28.4924H26.3235L24.1545 9.13129H21.9856H19.8167H16.4788C15.9265 9.13129 15.4788 9.579 15.4788 10.1313V23.8303Z" fill="#A3B2E9"/>
<rect x="21.2632" y="6.65259" width="6.61012" height="1.65253" rx="0.826265" fill="#A3B2E9"/>
<circle cx="24.1543" cy="41.7687" r="0.413132" fill="#A3B2E9"/>
<rect x="15.4788" y="26.4828" width="17.3516" height="13.2202" rx="1" fill="#A3B2E9"/>
</svg>
